<?xml version="1.0" encoding="UTF-8"?>
<svg id="Layer_2" data-name="Layer 2" xmlns="http://www.w3.org/2000/svg" viewBox="0 0 22.97 37.26">
  <defs>
    <style>
      .cls-1 {
        fill: #53b048;
      }

      .cls-2 {
        fill: #37468d;
      }

      .cls-3 {
        fill: #e1a925;
      }

      .cls-4 {
        fill: #af7045;
      }

      .cls-5 {
        fill: none;
        stroke: #37468d;
        stroke-linecap: round;
        stroke-miterlimit: 10;
        stroke-width: .66px;
      }

      .cls-6 {
        fill: #ffd247;
      }
    </style>
  </defs>
  <g id="Layer_1-2" data-name="Layer 1">
    <g>
      <g>
        <path class="cls-6" d="M6.1,36.89c-1.25,0-2.46-.19-3.58-.57-.36-.12-.72-.27-1.06-.44-.63-.32-1.04-.94-1.08-1.65-.04-.71.28-1.37.87-1.76,2.99-2,5.42-4.86,7.44-8.76.16-.31,1.03-2.06,1.2-2.44.41-.94.78-1.91,1.11-2.9.86-2.56,1.41-5.14,1.64-7.67.11-1.2.14-2.38.1-3.51-.02-.55-.06-1.1-.11-1.65-.01-.12-.04-.27-.07-.42-.02-.12-.05-.25-.07-.37,0,0-1.5-2.97-1.51-2.99-.07-.23-.04-.44.07-.64.21-.34.69-.6,1.28-.69.16-.03.32-.04.47-.04.6,0,1.1.19,1.33.5.03.04.05.08.06.13l.07.26.54,2.94c1.85.9,3.37,2.39,4.12,3.2,1.66,1.81,2.81,3.97,3.33,6.27.49,2.14.49,4.52,0,7.07-1.06,5.58-4.76,12.96-11.68,15.38-1.47.51-2.96.77-4.44.77h0Z"/>
        <path class="cls-2" d="M12.79.75c.47,0,.86.13,1.02.35l.07.26.56,3.1c1.59.74,3.09,2.02,4.17,3.2,1.57,1.71,2.72,3.82,3.24,6.1.51,2.26.43,4.64,0,6.92-1.19,6.27-5.16,12.9-11.44,15.09-1.38.48-2.85.75-4.32.75-1.17,0-2.34-.17-3.46-.55-.35-.12-.69-.26-1.01-.42-1.09-.55-1.19-2.09-.17-2.77,2.9-1.94,5.44-4.79,7.56-8.9.15-.3,1.03-2.07,1.21-2.47.41-.94.79-1.92,1.12-2.93.84-2.51,1.41-5.12,1.65-7.75.11-1.18.15-2.37.11-3.56-.02-.56-.06-1.12-.11-1.68-.02-.24-.11-.56-.15-.87l-1.51-2.99s0,0,0-.01c0,0,0,0,0,0h0s0,0,0,0c-.11-.34.36-.71,1.06-.82.14-.02.28-.03.41-.03M12.79,0c-.18,0-.36.01-.53.04-.71.11-1.27.43-1.54.87-.17.28-.21.59-.13.89,0,0,0,.01,0,.02h0s0,.01,0,.02c0,.02.01.04.02.06h0s.02.05.04.08l1.45,2.87c.02.11.04.22.06.32.03.14.06.28.07.39.05.52.09,1.07.11,1.63.04,1.12,0,2.28-.1,3.47-.23,2.5-.77,5.05-1.62,7.58-.33.98-.7,1.94-1.1,2.87-.16.36-1.02,2.09-1.18,2.42-1.98,3.84-4.38,6.66-7.31,8.62-.7.47-1.09,1.25-1.04,2.09.05.85.53,1.58,1.29,1.97.36.18.73.34,1.11.47,1.16.39,2.4.59,3.7.59,1.52,0,3.06-.27,4.57-.79,7.08-2.48,10.85-9.98,11.93-15.66.49-2.6.49-5.03,0-7.22-.53-2.36-1.72-4.58-3.42-6.44-.75-.81-2.23-2.27-4.06-3.2l-.49-2.72s0-.04-.01-.06l-.07-.26c-.02-.09-.06-.17-.12-.25-.3-.42-.9-.66-1.63-.66h0Z"/>
      </g>
      <path class="cls-3" d="M2.5,35.98l.9-1.12s8.82-3.48,11.32-7.24,3.43-9.2,3.59-12.67c.16-3.47-2.6-10-2.93-10-.03-.19,4.79,2.72,6.33,8.27,1,3.6.71,9.07-2.97,15.5-3.56,6.22-10.77,9.12-16.24,7.26Z"/>
      <path class="cls-2" d="M.64,33.47l-.23,1.57c-.03.21.06.42.22.55l.86.66c.21.16.51.16.71,0l.98-.78c.24-.19.29-.53.12-.78l-.69-1.02c-.06-.09-.14-.16-.24-.2l-.93-.43c-.35-.16-.77.06-.82.45Z"/>
      <path class="cls-2" d="M13.92,27.93c4.26-5.71,5.41-13.72,2.71-20.35-.07-.15.18-.27.24-.1,2.87,6.75,1.84,14.93-2.45,20.87-.26.35-.8-.08-.51-.41h0Z"/>
      <path class="cls-5" d="M11.93,30.33c.26-.2.51-.41.75-.63"/>
      <path class="cls-2" d="M3.09,34.72c2.17-.8,4.28-1.83,6.26-3.03.15-.1.36-.05.45.1s.05.36-.1.45c-2.06,1.17-4.23,2.13-6.47,2.87-.25.09-.39-.32-.13-.4h0Z"/>
      <path class="cls-1" d="M11.32,1.6l2.49-.65.64,3.5s-.68-.18-1.61.16l-1.52-3.01Z"/>
      <ellipse class="cls-4" cx="12.56" cy="1.26" rx="1.29" ry=".59" transform="translate(.06 2.98) rotate(-13.58)"/>
      <path class="cls-2" d="M15.17,4.71c-.53-.18-1.3-.16-1.9-.15-.05,0-.1-.04-.11-.09,0-.05.03-.09.08-.1.71-.13,1.37-.29,2.1-.18.39.09.19.69-.18.53h0Z"/>
      <g>
        <path class="cls-6" d="M12.7,1.83c-.34.07-1.21.24-1.56-.18"/>
        <path class="cls-2" d="M12.73,1.97c-.59.13-1.23.35-1.78-.15-.26-.23.12-.62.35-.37.24.39.93.29,1.37.25.17-.03.22.24.06.28h0Z"/>
      </g>
    </g>
  </g>
</svg>