<?xml version="1.0" encoding="UTF-8"?>
<svg id="Layer_2" data-name="Layer 2" xmlns="http://www.w3.org/2000/svg" viewBox="0 0 50.12 42.38">
  <defs>
    <style>
      .cls-1 {
        fill: #bf1e6a;
      }

      .cls-2 {
        fill: #f499c1;
        stroke: #37468d;
        stroke-miterlimit: 10;
        stroke-width: 1.24px;
      }

      .cls-3 {
        fill: #f04c61;
      }

      .cls-4 {
        fill: #af7045;
      }

      .cls-5 {
        fill: #53b047;
      }

      .cls-6 {
        fill: #fde5ea;
      }
    </style>
  </defs>
  <g id="Layer_1-2" data-name="Layer 1">
    <g>
      <path class="cls-2" d="M33.6,41.2l-25.8-8.67c-5.51-1.85-8.48-7.82-6.62-13.33l2.01-5.98c1.05-3.13,3.51-5.58,6.64-6.63L26,1.17c4.47-1.5,9.38.16,12.04,4.05l9.62,14.09c1.86,2.72,2.34,6.16,1.28,9.29l-2.01,5.98c-1.85,5.51-7.82,8.48-13.33,6.62Z"/>
      <g>
        <path class="cls-1" d="M28.25,23.6c-2,5.94-8.44,9.13-14.38,7.13s-9.13-8.44-7.13-14.38,6.9-4.56,12.84-2.56c5.94,2,10.67,3.87,8.67,9.81Z"/>
        <path class="cls-1" d="M42.6,24.69c.74,4.93-2.66,9.53-7.59,10.26s-9.53-2.66-10.26-7.59c-.74-4.93,3.23-5.73,8.16-6.47,4.93-.74,8.96-1.13,9.7,3.8Z"/>
        <path class="cls-5" d="M32.72,23.1c-2.12-4.34-1.79-10.39-2.08-14.44-3.95,6.22-11.5,8.32-11.82,8.51l-1.13-.74c.08-.05,10.05-3.39,13.34-10.67l1.27.31c0,.12-.26,12.84,1.38,16.99l-.96.04Z"/>
        <path class="cls-4" d="M31.84,6.9l-1.06-.3c-.32-.09-.55-.39-.54-.72l.02-1.28c0-.48.47-.82.93-.7l1.62.45c.45.13.67.63.46,1.05l-.58,1.12c-.16.31-.52.47-.85.37Z"/>
        <path class="cls-3" d="M20.79,19.11s-.03,0-.04,0c-4.65-.8-5.58-2.99-5.67-3.24-.2-.54.08-1.13.62-1.33.53-.19,1.11.07,1.32.58.04.08.77,1.38,4.09,1.95.56.1.94.63.85,1.2-.1.55-.61.93-1.16.85Z"/>
        <path class="cls-3" d="M31.99,24.06c-.59-.08-.9-.28-.97-.32-.32-.22-.4-.66-.18-.99.22-.32.64-.4.97-.2.06.03.98.46,3.06-.53.35-.17.78-.02.95.34.17.35.02.78-.34.95-1.61.77-2.75.85-3.48.75Z"/>
        <g>
          <path class="cls-6" d="M9.93,22.37c-.42,1.01-1.03,1.2-1.48.58-.27-.38-.52-1.04-.26-1.66.16-.4.37-.46.51-.3.33.39.43.17.67-.4.51-1.22.75-1.82,1.27-3.06.2-.49.58-.58.84-.42.26.16.4.61.18,1.13-.71,1.7-1.03,2.47-1.72,4.14Z"/>
          <path class="cls-6" d="M12.77,24.36c-.52,1.29-1.56,1.54-2.12,1.06s-.9-1.8-.41-2.99c.67-1.6.97-2.35,1.66-4,.22-.53.6-.63.86-.46.26.17.39.64.16,1.19-.66,1.57-.93,2.26-1.55,3.76-.12.29,0,.5.08.57.09.07.28.07.4-.2.62-1.52.9-2.21,1.56-3.81.24-.57.63-.71.91-.58.28.13.43.56.19,1.15-.75,1.83-1.04,2.57-1.74,4.3Z"/>
          <path class="cls-6" d="M14.8,20.18c.24-.6.67-.8.96-.68.29.12.44.56.19,1.17-.95,2.34-1.27,3.23-2.22,5.57-.25.61-.67.79-.95.63-.28-.16-.42-.65-.17-1.24.94-2.29,1.26-3.15,2.2-5.44Z"/>
          <path class="cls-6" d="M16.25,24.04c-.26.68-.51,1.72,0,1.88.36.11.65.33.31,1.19-.3.78-.78.97-1.23.84-1.2-.36-.98-2.58-.27-4.39.72-1.81,2.07-3.49,3.18-3.04.42.17.64.58.34,1.36-.34.86-.71.87-1.05.74-.5-.19-1.02.74-1.28,1.42Z"/>
          <path class="cls-6" d="M17.01,28.28c-.49-.08-.43-.7-.14-1.43.75-1.91,1.02-2.69,1.77-4.6.29-.73.67-1.23,1.11-1.07.46.17.7.23,1.19.34.32.07.38.46.16,1.02-.16.41-.5.84-.86.78-.15-.03-.23-.04-.38-.07-.15-.03-.31.11-.42.37-.1.26-.06.44.1.47.14.03.21.04.35.06.31.05.33.43.16.88-.15.41-.47.8-.78.76-.14-.02-.22-.03-.36-.05-.16-.02-.32.11-.42.37-.1.26-.06.44.1.46.15.02.23.03.39.05.33.04.41.37.2.93-.16.41-.52.89-.89.87-.52-.03-.78-.06-1.28-.13Z"/>
          <path class="cls-6" d="M23.64,25.22c-.57,1.41-1.79,2.99-3.07,3.13-.31.03-.46.05-.77.06-.52.03-.49-.5-.23-1.18.69-1.78.98-2.57,1.67-4.35.26-.68.64-1.17,1.13-1.08.29.05.43.08.71.14,1.18.24,1.13,1.87.55,3.28ZM21.13,26.68c-.02.06,0,.1.06.1.38,0,.89-1.01,1.12-1.59.16-.4.67-1.69.16-1.75-.05,0-.08,0-.12.11-.5,1.26-.73,1.87-1.22,3.13Z"/>
        </g>
        <g>
          <path class="cls-6" d="M33.07,30.38c.2,1.07-1.06,1.71-2.2,1.45-1.14-.26-2.58-1.31-2.73-2.15-.2-1.14-.3-1.7-.51-2.84-.07-.37.39-.62.87-.63.48,0,1,.25,1.07.69.21,1.24.31,1.8.52,3.01.04.23.35.36.52.39.17.03.45-.02.41-.25-.22-1.23-.32-1.8-.54-3.09-.08-.46.37-.69.85-.74.48-.05.99.11,1.08.6.27,1.51.39,2.13.66,3.57Z"/>
          <path class="cls-6" d="M35.38,25.54c1.2-.22,2.2.3,2.39,1.23.27,1.36-.68,2.49-2.17,2.85-.05.01-.15.04-.12.16.09.44.13.66.22,1.12.09.49-.35.9-.83.99-.49.09-1.03-.14-1.12-.63-.32-1.77-.46-2.45-.78-4.17-.11-.6.07-1.13.79-1.26.65-.12.97-.17,1.62-.29ZM35.92,27.47c-.05-.27-.25-.54-.59-.46-.3.07-.41.37-.35.68.06.31.28.54.58.46.34-.08.41-.42.36-.68Z"/>
          <path class="cls-6" d="M39.66,29.54c-.57.48-.95.44-1.06-.14-.12-.61.15-.97.77-1.38.62-.42.93-.47,1.02.04.09.49-.16,1.01-.73,1.49ZM37.81,25.28c-.1-.41.34-.77.78-.92.51-.18.96-.15,1.02.21.15.94.23,1.42.38,2.37.06.39-.24.69-.67.97-.35.23-.73.39-.82.06-.27-1.06-.41-1.57-.69-2.69Z"/>
        </g>
      </g>
    </g>
  </g>
</svg>