<?xml version="1.0" encoding="UTF-8"?>
<svg id="Layer_2" data-name="Layer 2" xmlns="http://www.w3.org/2000/svg" viewBox="0 0 35.79 24.18">
  <defs>
    <style>
      .cls-1 {
        fill: #53b048;
      }

      .cls-2 {
        fill: none;
        stroke-width: .41px;
      }

      .cls-2, .cls-3, .cls-4, .cls-5 {
        stroke: #37468d;
        stroke-linecap: round;
        stroke-linejoin: round;
      }

      .cls-3, .cls-4 {
        stroke-width: .75px;
      }

      .cls-3, .cls-6 {
        fill: #f7efd6;
      }

      .cls-7, .cls-5 {
        fill: #8c4e21;
      }

      .cls-8 {
        fill: #37468d;
      }

      .cls-4 {
        fill: #af7045;
      }

      .cls-9 {
        fill: #f68c1f;
      }

      .cls-5 {
        stroke-width: .51px;
      }
    </style>
  </defs>
  <g id="Layer_1-2" data-name="Layer 1">
    <g>
      <path class="cls-3" d="M1.6,3.7c1-1.52,6.52-3.51,17.32.53,10.79,4.04,13.19,9.76,12.4,10.55s-3.44,2.18-3.44,2.18L5.87,12.13S.25,5.76,1.6,3.7Z"/>
      <path class="cls-8" d="M25.22,8.57c1.96,1.29,3.68,2.91,4.93,4.91.12.19-.03.46-.25.44,0,0-4.05-.12-4.05-.12-.08,0-.15-.03-.21-.08l-6.47-4.98.27.08-8.56.88c-.15.02-.3-.06-.37-.19,0,0-2.13-3.86-2.13-3.86l.19.17L3.58,3.67c-.21-.07-.17-.41.05-.42,7.53-.77,15.18,1.41,21.6,5.33h0ZM24.86,9.13c-4.67-2.96-10.12-4.86-15.63-5.45-1.84-.17-3.72-.18-5.55,0,0,0,.05-.43.05-.42,0,0,5.1,1.87,5.1,1.87.08.03.15.09.18.16,0,0,2.14,3.86,2.14,3.87,0,0-.37-.19-.37-.19l8.56-.88c.1-.01.19.02.27.08l6.47,4.98s-.22-.08-.21-.08c0,0,4.03.28,4.03.28,0,0-.26.45-.27.44-1.25-1.83-2.92-3.44-4.79-4.65h0Z"/>
      <polygon class="cls-5" points="20.61 17.66 22.09 18.33 30.83 1.48 30.5 1.36 20.61 17.66"/>
      <path class="cls-4" d="M.67,6.74c-1.64,6.89,3.61,14.2,12.07,16.42,8.46,2.22,16.78-1.54,18.57-8.39l-5.9.49-6.72-4.85-8.6.34-2.57-4.48L1.6,3.7s-.52,1.36-.92,3.04Z"/>
      <line class="cls-2" x1="25.87" y1="13.43" x2="25.57" y2="14.98"/>
      <line class="cls-2" x1="19.39" y1="8.45" x2="18.69" y2="10.41"/>
      <line class="cls-2" x1="10.83" y1="9.33" x2="10.25" y2="10.44"/>
      <line class="cls-2" x1="8.7" y1="5.47" x2="7.53" y2="6.27"/>
      <ellipse class="cls-8" cx="12.57" cy="17.42" rx=".78" ry=".85" transform="translate(-7.59 24.85) rotate(-74.43)"/>
      <ellipse class="cls-8" cx="9.4" cy="17.02" rx=".69" ry=".76" transform="translate(-9.51 21.51) rotate(-74.43)"/>
      <ellipse class="cls-8" cx="10.79" cy="19.66" rx=".88" ry=".97" transform="translate(-11.05 24.78) rotate(-74.43)"/>
      <g>
        <path class="cls-9" d="M35.04,10.36s-.07,0-.1-.01C25.56,7.73,20.04,1.24,19.99,1.18c-.09-.11-.11-.26-.05-.4.06-.13.19-.22.33-.22,0,0,10.77-.19,10.77-.19.15,0,.28.09.34.23l4.01,9.23c.06.13.03.29-.06.4-.07.08-.18.13-.28.13Z"/>
        <path class="cls-8" d="M31.04.75l4.01,9.23C25.67,7.37,20.28.94,20.28.94l10.76-.19M31.04,0s0,0-.01,0l-10.76.19c-.29,0-.55.18-.67.44-.12.26-.08.57.11.79.23.27,5.65,6.64,15.14,9.29.07.02.13.03.2.03.21,0,.42-.09.57-.26.19-.22.24-.53.12-.79L31.73.45c-.12-.27-.39-.45-.69-.45h0Z"/>
      </g>
      <path class="cls-1" d="M30.41.5c-.28.33.86,1.21,1.15.87.36-.42.26-1.11.1-1.26-.13-.12-.88-.03-1.25.39Z"/>
      <path class="cls-8" d="M22.8,1.73l6.79-.54c.11-.01.13.16.02.17,0,0-6.76.78-6.76.78-.27.03-.31-.39-.04-.41h0Z"/>
      <path class="cls-8" d="M26.07,4.47l4.13-3.02c.08-.06.19.07.1.13,0,0-3.98,3.21-3.98,3.21-.21.17-.47-.17-.25-.33h0Z"/>
      <path class="cls-8" d="M29.3,6.33l1.2-4.23c.03-.1.19-.06.17.04,0,0-.97,4.29-.97,4.29-.06.27-.48.16-.4-.1h0Z"/>
      <path class="cls-8" d="M32.51,7.9l-1.27-5.08c-.03-.1.13-.15.16-.05,0,0,1.5,5.01,1.5,5.01.08.26-.33.38-.4.11h0Z"/>
      <polygon class="cls-8" points="23.14 12.23 24.8 13.63 25.54 12.82 23.61 11.31 23.14 12.23"/>
      <polygon class="cls-6" points="22.37 12.6 24.82 14.37 25.08 13.31 23.14 11.8 22.37 12.6"/>
      <path class="cls-7" d="M23.58,14.37c.14.46-1.55,8.4-12.92,7.79,0,0,7.81,2.99,14.24-.44,5.63-3.01,5.96-6.54,5.96-6.54l-5.5.44-1.78-1.26Z"/>
    </g>
  </g>
</svg>