<?xml version="1.0" encoding="UTF-8"?>
<svg id="Layer_2" data-name="Layer 2" xmlns="http://www.w3.org/2000/svg" viewBox="0 0 37.98 27.4">
  <defs>
    <style>
      .cls-1 {
        fill: #37468d;
      }

      .cls-2 {
        fill: #f68c1f;
      }

      .cls-3 {
        fill: #ffd247;
      }

      .cls-4 {
        fill: #f7efd6;
      }
    </style>
  </defs>
  <g id="Layer_1-2" data-name="Layer 1">
    <g>
      <g>
        <path class="cls-4" d="M26.15,27.02c-2.14,0-4.14-.73-5.8-2.11-.9-.71-1.93-1.05-3.23-1.05-.94,0-1.9.17-2.84.34-.63.11-1.28.23-1.9.29-.24.02-.49.03-.75.03-3.84,0-9-2.54-10.65-6.64-2.02-4.42,1.21-8.93,5.28-10.92.81-.41,1.7-.62,2.57-.83.35-.08.7-.16,1.03-.26,1.39-.35,2.48-1.02,3.66-2.22,1.65-1.79,3.59-2.85,5.77-3.16.55-.08,1.12-.13,1.7-.13,2.78,0,5.6,1,7.73,2.75,1.17.93,2.02,2.16,2.84,3.34l.19.27c.72,1.1,1.63,2.07,2.51,3,.67.7,1.35,1.43,1.97,2.21,1.2,1.62,1.61,3.6,1.22,5.75-.52,2.84-2.4,5.61-4.91,7.23-2.02,1.37-4.23,2.09-6.4,2.09h0Z"/>
        <path class="cls-1" d="M21,.75c2.7,0,5.43.97,7.5,2.67,1.22.97,2.09,2.28,2.96,3.54,1.27,1.95,3.07,3.4,4.49,5.23l.02.02c2.91,3.94.43,9.8-3.62,12.41-1.91,1.3-4.07,2.03-6.19,2.03-1.96,0-3.89-.63-5.56-2.02-1.1-.87-2.27-1.13-3.47-1.13-1.61,0-3.26.49-4.77.63-.23.02-.47.03-.71.03-3.72,0-8.73-2.5-10.3-6.4-1.9-4.15,1.06-8.47,5.1-10.44,1.09-.56,2.38-.74,3.54-1.06,1.55-.39,2.7-1.16,3.83-2.32,1.5-1.63,3.32-2.73,5.55-3.05.54-.08,1.09-.12,1.65-.12M21,0c-.59,0-1.19.04-1.76.13-2.25.32-4.27,1.42-5.99,3.28-1.11,1.14-2.15,1.77-3.46,2.1-.35.1-.69.18-1.03.26-.89.21-1.81.43-2.66.87C1.88,8.71-1.47,13.42.66,18.06c1.69,4.21,7.02,6.84,10.98,6.84.27,0,.53-.01.78-.04.64-.06,1.29-.18,1.93-.29.92-.16,1.87-.33,2.77-.33,1.21,0,2.17.31,3,.97,1.71,1.42,3.8,2.18,6.03,2.18s4.53-.75,6.61-2.16c2.58-1.66,4.52-4.52,5.06-7.46.41-2.25-.02-4.33-1.26-6.01-.65-.84-1.35-1.58-2.02-2.28-.91-.96-1.77-1.87-2.46-2.93l-.2-.29c-.84-1.21-1.7-2.46-2.92-3.43-2.19-1.79-5.09-2.83-7.96-2.83h0Z"/>
      </g>
      <g>
        <path class="cls-3" d="M21.2,18.09c-.54,0-1.06-.05-1.57-.16-3.99-.84-6.67-4.26-5.96-7.63.58-2.74,3.71-4.66,7.63-4.66.49,0,.99.03,1.47.1,2.59.34,4.42,1.25,5.44,2.69.83,1.18,1.07,2.65.71,4.37-.61,2.92-4.08,5.3-7.72,5.3Z"/>
        <path class="cls-1" d="M21.3,6.02c.47,0,.95.03,1.42.09,4.5.6,6.6,2.96,5.83,6.61-.58,2.78-3.98,5-7.35,5-.5,0-1-.05-1.49-.15-3.8-.8-6.34-4.02-5.67-7.19.59-2.78,3.87-4.36,7.26-4.36M21.3,5.27h0c-4.09,0-7.38,2.04-8,4.96-.75,3.57,2.05,7.19,6.25,8.08.53.11,1.08.17,1.65.17,3.81,0,7.44-2.51,8.09-5.6.39-1.83.13-3.4-.77-4.67-1.08-1.53-3-2.48-5.7-2.84-.5-.07-1.01-.1-1.52-.1h0Z"/>
      </g>
      <path class="cls-2" d="M24.92,6.61c-.25-.06,3.06,1.95,1.79,5.35-1.61,4.31-7.12,5.06-8.31,5.2.03.14,5.14,1.92,8.4-1.55,1.04-1.1,2.32-2.72,2.09-4.96-.27-2.68-3.07-3.83-3.96-4.04Z"/>
    </g>
  </g>
</svg>