<?xml version="1.0" encoding="UTF-8"?>
<svg id="Layer_2" data-name="Layer 2" xmlns="http://www.w3.org/2000/svg" viewBox="0 0 26.7 41.04">
  <defs>
    <style>
      .cls-1 {
        stroke: #37468d;
        stroke-linecap: round;
        stroke-linejoin: round;
        stroke-width: .75px;
      }

      .cls-1, .cls-2 {
        fill: #f7efd6;
      }

      .cls-3 {
        fill: #acd6f2;
      }

      .cls-4 {
        fill: #37468d;
      }
    </style>
  </defs>
  <g id="Layer_1-2" data-name="Layer 1">
    <g>
      <g>
        <g>
          <path class="cls-2" d="M14.65,40.66c-2.91,0-8.41-.45-8.41-2.14L2.99,15.41c-.02-.11.02-.22.09-.3s.17-.13.28-.13h22.59c.11,0,.21.05.28.13s.1.19.09.3l-3.26,23.17c0,1.64-5.5,2.08-8.41,2.08Z"/>
          <path class="cls-4" d="M25.95,15.36h0M25.95,15.36l-3.26,23.17c0,.97-3.6,1.76-8.04,1.76s-8.04-.79-8.04-1.76l-1.1-7.79-.53-3.76-1.63-11.62h22.59M25.95,14.61H3.36c-.22,0-.42.09-.57.26-.14.16-.21.38-.18.6l1.63,11.62.53,3.76,1.09,7.76c.06.66.96,2.43,8.79,2.43,1.45,0,8.65-.12,8.79-2.44l3.24-23.07c.01-.05.02-.11.02-.16,0-.41-.33-.75-.75-.75h0ZM25.95,16.11h0,0Z"/>
        </g>
        <g>
          <path class="cls-2" d="M19.8,17.62c-.08,0-.15-.02-.21-.07-.45-.31-.93-.48-1.43-.52-.27-.02-.53-.04-.8-.05-1.01-.06-2.06-.12-3.06-.45-1.46-.48-2.58-1.43-3.06-2.61-.07-.16-.12-.33-.16-.49-.03-.11,0-.23.06-.32s.17-.15.28-.15c1.06-.06,2.15-.09,3.24-.09,4.04,0,11.67.52,11.67,2.49,0,1.35-3.53,1.97-6.49,2.25-.01,0-.02,0-.04,0Z"/>
          <path class="cls-4" d="M14.65,13.25c6.24,0,11.29.95,11.29,2.11,0,.82-2.5,1.53-6.15,1.88-.43-.29-.97-.54-1.61-.59-1.27-.1-2.57-.08-3.78-.48-1.21-.4-2.35-1.21-2.83-2.39-.06-.15-.11-.29-.15-.45,1.02-.06,2.1-.09,3.22-.09M14.65,12.5c-1.1,0-2.2.03-3.26.09-.23.01-.43.13-.56.31-.13.18-.18.41-.12.63.05.19.11.37.18.54.52,1.27,1.72,2.3,3.29,2.82,1.05.35,2.12.41,3.16.47.27.02.53.03.79.05.43.03.85.19,1.25.46.12.09.27.13.42.13.02,0,.05,0,.07,0,6.83-.65,6.83-2.14,6.83-2.63,0-1.04-1.21-1.72-3.92-2.23-2.18-.41-5.06-.63-8.12-.63h0Z"/>
        </g>
        <g>
          <path class="cls-2" d="M5.2,16.89s-.07,0-.1-.01c-1.44-.41-2.11-.89-2.11-1.52,0-.4.3-.76.89-1.06.05-.03.11-.04.17-.04.11,0,.22.05.29.14.54.69.94,1.34,1.2,1.97.06.13.03.29-.07.39-.07.08-.17.13-.28.13Z"/>
          <path class="cls-4" d="M4.05,14.63c.45.58.87,1.21,1.15,1.88-1.16-.33-1.84-.73-1.84-1.15,0-.26.24-.5.69-.73M4.05,13.88c-.12,0-.23.03-.34.08-.73.37-1.1.84-1.1,1.4,0,1.07,1.36,1.58,2.38,1.88.07.02.14.03.21.03.21,0,.42-.09.56-.25.19-.22.24-.52.13-.79-.28-.66-.69-1.33-1.25-2.06-.15-.19-.37-.29-.59-.29h0Z"/>
        </g>
        <g>
          <path class="cls-2" d="M14.65,17.85c-3.86,0-7.43-.36-9.56-.97-.11-.03-.2-.11-.24-.22-.15-.36-.19-.63-.22-.91-.04-.29-.08-.62-.27-1.17-.33-.97-1.08-1.5-1.8-2.02-.64-.46-1.31-.93-1.58-1.7-.33-.93-.22-1.77.3-2.26.17-.16.38-.27.55-.37.22-.12.41-.23.47-.38.11-.25-.15-.6-.45-.97-.5-.63-.91-1.32-1.21-2.07-.39-.98-.34-1.8.13-2.33.32-.35.81-.54,1.43-.54.11,0,.21,0,.32.02,1.1.1,2.16.62,2.93,1.41.76.79,1.24,1.88,1.3,2.98v.22c.02.21.02.4.07.57.05.18.17.33.29.35h0c.19,0,.38-.14.53-.35.05-.08.11-.16.16-.24.15-.24.33-.52.6-.72.24-.18.54-.27.86-.27.5,0,1.04.23,1.44.61,1.05,1.01,1.1,2.59,1.04,3.69l-.04.57c-.06.84-.12,1.7.08,2.47.04.13.08.27.13.4.4.97,1.34,1.76,2.6,2.18.91.3,1.86.35,2.87.41.27.02.54.03.82.05.63.05,1.23.27,1.79.65.13.09.19.25.15.4s-.17.27-.33.28c-1.62.16-3.36.23-5.18.23Z"/>
          <path class="cls-4" d="M2.2,2.32c.09,0,.19,0,.28.01,1.01.1,1.99.57,2.69,1.3s1.14,1.72,1.2,2.74c.02.29,0,.59.09.87s.28.55.57.61c.04,0,.08.01.12.01.32,0,.61-.25.8-.51.22-.3.38-.66.68-.87.19-.14.41-.2.64-.2.42,0,.87.2,1.18.5.87.84.99,2.19.92,3.4-.06,1.05-.2,2.14.06,3.15.04.15.09.3.15.45.48,1.18,1.62,1.99,2.83,2.39,1.21.4,2.51.39,3.78.48.65.05,1.19.29,1.61.59-1.54.15-3.29.23-5.15.23-3.96,0-7.44-.38-9.46-.96-.28-.67-.1-.93-.49-2.06-.68-2.01-2.87-2.28-3.38-3.72-.22-.62-.28-1.41.2-1.86.35-.33.93-.43,1.12-.88.19-.47-.19-.96-.5-1.35-.48-.6-.87-1.27-1.16-1.98-.25-.63-.4-1.43.06-1.93.28-.31.72-.41,1.15-.41M2.2,1.57h0c-.72,0-1.31.23-1.7.66-.58.64-.65,1.6-.2,2.72.31.78.74,1.51,1.27,2.17.11.13.39.48.39.62-.03.02-.19.11-.3.17-.2.11-.42.23-.63.43-.62.59-.77,1.59-.39,2.66.31.88,1.02,1.39,1.72,1.88.7.5,1.37.97,1.66,1.83.18.52.22.82.26,1.1.04.29.08.59.25,1,.09.21.27.37.49.43,2.16.62,5.77.99,9.66.99,1.83,0,3.59-.08,5.22-.24.31-.03.58-.25.65-.56.08-.31-.04-.63-.3-.81-.62-.42-1.28-.66-1.98-.71-.27-.02-.55-.04-.82-.05-.99-.06-1.92-.11-2.78-.39-1.15-.38-2.01-1.1-2.37-1.96-.05-.12-.09-.23-.12-.35-.19-.71-.13-1.51-.07-2.35.01-.19.03-.38.04-.57.1-1.84-.28-3.14-1.15-3.98-.46-.45-1.1-.71-1.7-.71-.4,0-.77.12-1.08.34-.33.24-.54.56-.7.82-.05.08-.1.15-.15.23-.05.07-.1.13-.14.16,0-.01-.01-.03-.02-.04-.04-.13-.04-.3-.05-.48,0-.08,0-.15,0-.22-.07-1.19-.58-2.36-1.41-3.22-.83-.86-1.98-1.41-3.16-1.52-.12-.01-.23-.02-.35-.02h0Z"/>
        </g>
        <path class="cls-1" d="M8.06,3.87c-.58-.81-.65-1.94-.18-2.82.22-.4.65-.78,1.09-.66.45.13.61.7.58,1.17-.05,1.08-.65,2.12-1.49,2.3Z"/>
      </g>
      <path class="cls-3" d="M25.79,16.46s-2.09,9.23-6.36,14.93c-3.1,4.14-7.41,7.2-12.78,7.27,0,0,.61,1.5,6.56,1.58,5.95.08,8.9-.53,9.56-1.63l3.02-22.16Z"/>
    </g>
  </g>
</svg>