<?xml version="1.0" encoding="UTF-8"?>
<svg id="Layer_2" data-name="Layer 2" xmlns="http://www.w3.org/2000/svg" viewBox="0 0 30.79 23.41">
  <defs>
    <style>
      .cls-1 {
        fill: #f47621;
      }

      .cls-2 {
        fill: #37468d;
      }

      .cls-3 {
        fill: #f68c1f;
      }

      .cls-4 {
        fill: #ffd247;
      }
    </style>
  </defs>
  <g id="Layer_1-2" data-name="Layer 1">
    <g>
      <g>
        <path class="cls-1" d="M14.04,22.98c-6.54,0-11.85-4.02-13.23-6.17-.36-.56-.46-1-.31-1.34.04-.09.11-.16.19-.2L28.39.48c.06-.03.13-.05.2-.05.12,0,.23.05.31.14,1.48,1.59,1.88,5.25.99,9.11-.63,2.76-2.87,9.46-9.93,12.19-1.92.74-3.92,1.12-5.92,1.12Z"/>
        <path class="cls-2" d="M28.59.86c3.01,3.24,1.33,16.7-8.78,20.6-2,.77-3.94,1.09-5.77,1.09C6.21,22.55.39,16.74.89,15.65L28.59.86M28.59,0c-.14,0-.28.03-.4.1L.49,14.89c-.17.09-.3.23-.38.4-.22.48-.11,1.05.34,1.75,1.28,2,6.49,6.37,13.59,6.37,2.06,0,4.11-.39,6.08-1.15,7.25-2.8,9.54-9.67,10.19-12.49.92-3.99.48-7.81-1.1-9.5-.17-.18-.4-.27-.63-.27h0Z"/>
      </g>
      <path class="cls-4" d="M.89,15.65L28.15,1.1s1.47,3.97-.71,7.96c-2.18,3.99-9.54,9.96-19.33,9.74-4.46-.1-7.22-3.15-7.22-3.15Z"/>
      <g>
        <path class="cls-3" d="M8.71,16.47c-1.41,0-3.38-.21-4.75-1.2l8.26-4.6-1.9,5.72c-.27.03-.87.08-1.62.08Z"/>
        <path class="cls-2" d="M11.53,11.5l-1.48,4.52c-.32.03-.78.06-1.33.06-1.17,0-2.73-.15-3.96-.78l6.77-3.81M12.22,10.29c-.06,0-.12.02-.18.05L3.79,14.97c-.23.13-.26.46-.05.61,1.45,1.05,3.49,1.27,4.97,1.27.76,0,1.37-.06,1.68-.1.14-.02.26-.11.3-.25l1.88-5.73c.08-.26-.12-.49-.35-.49h0Z"/>
      </g>
      <g>
        <path class="cls-3" d="M14.25,10.62l5.35,3.09c-1.92,1.42-5.02,2.14-6.29,2.39l.94-5.48Z"/>
        <path class="cls-2" d="M14.53,11.24l4.33,2.48c-1.61,1.01-3.78,1.6-5.08,1.88l.74-4.36M14.24,10.25c-.17,0-.33.12-.37.31l-.94,5.49c-.04.23.14.43.36.43.02,0,.05,0,.07,0,1.25-.24,4.47-.98,6.47-2.49.21-.16.17-.48-.05-.61l-5.37-3.08c-.06-.03-.12-.05-.18-.05h0Z"/>
      </g>
      <g>
        <path class="cls-3" d="M15.91,9.5l9.29-.6c-1.03,1.59-3.28,2.83-3.96,3.18l-5.32-2.58Z"/>
        <path class="cls-2" d="M24.36,9.34c-1.01,1.11-2.53,1.99-3.13,2.31l-3.79-1.84,6.93-.47M25.21,8.52s-.02,0-.03,0l-9.28.63c-.37.03-.47.52-.14.7l5.31,2.57c.06.03.12.05.18.05.06,0,.11-.01.16-.04.65-.33,3.03-1.63,4.12-3.34.16-.25-.03-.57-.32-.57h0Z"/>
      </g>
      <g>
        <path class="cls-3" d="M26.7,3.07c.06,1.71-.71,3.73-.92,4.05l-8.99,1,9.91-5.04Z"/>
        <path class="cls-2" d="M26.31,3.7c-.1,1.27-.54,2.56-.76,3.05l-6.68.75,7.44-3.79M26.72,2.67c-.06,0-.13.02-.19.05l-9.97,5.09c-.33.2-.17.69.18.69.03,0,.05,0,.08,0l9.05-1.02c.1-.02.18-.07.24-.16.25-.39,1.04-2.48.98-4.3,0-.2-.18-.34-.37-.34h0Z"/>
      </g>
      <path class="cls-3" d="M13.17,21.04s.08.01.12.03.12,0,.14.05.03.1.03.15-.03.09-.05.13-.03.09-.07.12-.08.04-.13.04-.1.02-.15,0-.08-.07-.1-.11-.07-.08-.07-.13.06-.08.07-.13.02-.1.05-.13.09-.02.14-.02h0Z"/>
      <path class="cls-3" d="M14.38,20.29s.08-.03.13-.03.1-.01.14,0,.06.07.1.09.05.06.08.09.1.03.12.07-.01.1,0,.14.07.07.08.11.01.09,0,.13-.03.09-.04.13-.07.06-.09.1-.03.09-.06.12-.06.08-.09.1-.08.04-.12.06-.09.02-.13.03-.09,0-.13-.02-.08-.04-.12-.05-.09-.02-.12-.04-.08-.04-.11-.07-.06-.07-.08-.11-.04-.08-.05-.12-.02-.09-.02-.13.02-.08.02-.13-.03-.1-.01-.14.09-.05.11-.09.02-.09.05-.12.07-.05.11-.07.08-.02.12-.03.08-.01.12-.02h0Z"/>
      <path class="cls-3" d="M12.62,20.04s.09-.05.13-.04.09.03.12.06.08.05.11.08.02.09.04.13.06.07.06.12-.03.09-.04.13.01.1,0,.14-.05.08-.08.11-.09.04-.13.05-.08.05-.12.06-.09-.05-.13-.06-.1.02-.14,0-.07-.06-.1-.09-.07-.07-.09-.1.02-.1.01-.14,0-.08.01-.12,0-.09.01-.13.06-.06.1-.09.07-.06.11-.08.09,0,.13,0h0Z"/>
      <path class="cls-3" d="M28.52,9.62s-.06-.06-.08-.1-.09-.07-.09-.12.03-.1.06-.14.07-.06.11-.08.08-.06.13-.06.09.02.13.04.09.04.12.08.02.1.02.15.01.1-.01.15-.09.04-.14.06-.07.07-.12.08-.08-.04-.13-.06h0Z"/>
      <path class="cls-3" d="M28.41,10.75s-.1,0-.13-.04-.05-.08-.07-.12-.04-.08-.05-.13.04-.09.04-.13,0-.09.02-.13.07-.05.11-.08.04-.09.08-.11.09-.04.13-.05.09.02.14.03.1,0,.13.02.04.09.07.12.09.04.11.08.02.09.03.13.02.1.02.14-.07.07-.09.11-.05.06-.08.09-.05.08-.09.1-.09.02-.13.02-.09.01-.13,0-.07-.05-.11-.08h0Z"/>
      <path class="cls-2" d="M21.18,15.44l-.84.51c-.12.07-.27.03-.34-.08-.07-.12-.03-.27.08-.34l.8-.55c.3-.22.62.27.3.46h0Z"/>
      <path class="cls-2" d="M28.58.66c1.98,5.5-1.95,10.85-6.24,13.91-.25.2-.55-.2-.29-.38,3.99-2.95,7.76-8.12,5.81-13.25-.19-.46.53-.75.71-.28h0Z"/>
    </g>
  </g>
</svg>