<?xml version="1.0" encoding="UTF-8"?>
<svg id="Layer_2" data-name="Layer 2" xmlns="http://www.w3.org/2000/svg" viewBox="0 0 44.98 47.81">
  <defs>
    <style>
      .cls-1 {
        fill: none;
      }

      .cls-2 {
        fill: #263a7c;
      }

      .cls-3 {
        stroke: #37468d;
        stroke-miterlimit: 10;
      }

      .cls-3, .cls-4 {
        fill: #f68c1f;
      }

      .cls-5 {
        fill: #ffd247;
      }
    </style>
  </defs>
  <g id="Layer_1-2" data-name="Layer 1">
    <g>
      <ellipse class="cls-3" cx="21.67" cy="23.25" rx="21.13" ry="21.2" transform="translate(-10.11 23.36) rotate(-47.22)"/>
      <ellipse class="cls-5" cx="21.67" cy="23.25" rx="18.89" ry="18.95" transform="translate(-10.11 23.36) rotate(-47.22)"/>
      <g>
        <path class="cls-4" d="M35.04,13.03c-.6-.96-3.18-3.5-4.32-3.75-1.09-.31-1.59,1.05-2.7,3.02-.5,1.39-6.92,11.28-4.58,9.44,3.08-2.38,9.71-5.64,11.78-8.22l-.17-.5Z"/>
        <path class="cls-4" d="M27.69,7.47c-1.06-.56-4.46-1.46-5.46-1.03-1.5.36-.44,4.99-.5,9.43.21,3.87.1,6.67.52,5.86,1.64-4.2,5.1-9.76,5.83-13.92l-.4-.35Z"/>
        <path class="cls-4" d="M18.91,6.43c-1.01,0-4.35.85-4.93,1.92-1.41.53,7.05,13.42,7.23,13.51.13-.69-.86-13.64-1.81-15.26l-.5-.16Z"/>
        <path class="cls-4" d="M11.41,9.81c-1.17.7-4.63,3.68-3.43,4.98.88,1.06,11.87,7.29,12.33,7.22-.78-1.61-6.62-10.49-8.46-12.19h-.44Z"/>
        <path class="cls-4" d="M6.02,16.73c-.6.89-1.62,4.23-1.14,5.27.34,1.71,14.36.61,15.12.83,1.01-.09-1.34-1.01-4.71-2.66-2.52-.98-7.04-3.87-8.82-3.78l-.45.33Z"/>
        <path class="cls-4" d="M4.82,25.28c.04,1.31,1.06,5.46,2.24,5.48,1.55.09,11.51-6.16,13.14-6.95.63-.44-1.21-.19-4.28-.04-3.16.45-8.7-.05-10.95,1.02l-.14.5Z"/>
        <path class="cls-4" d="M8.3,33.47c.6.96,3.18,3.5,4.32,3.75,1.09.31,1.59-1.05,2.7-3.02.5-1.39,6.92-11.28,4.58-9.44-3.08,2.38-9.71,5.64-11.78,8.22l.17.5Z"/>
        <path class="cls-4" d="M15.66,39.03c1.06.56,4.46,1.46,5.46,1.03,1.5-.36.44-4.99.5-9.43-.21-3.87-.1-6.67-.52-5.86-1.64,4.2-5.1,9.76-5.83,13.92l.4.35Z"/>
        <path class="cls-4" d="M24.43,40.07c1.01,0,4.35-.85,4.93-1.92,1.41-.53-7.05-13.42-7.23-13.51-.13.69.86,13.64,1.81,15.26l.5.16Z"/>
        <path class="cls-4" d="M31.93,36.69c1.17-.7,4.63-3.68,3.43-4.98-.88-1.06-11.87-7.29-12.33-7.22.78,1.61,6.62,10.49,8.46,12.19h.44Z"/>
        <path class="cls-4" d="M37.32,29.77c.6-.89,1.62-4.24,1.14-5.27-.34-1.71-14.36-.61-15.12-.83-1.01.09,1.34,1.01,4.71,2.66,2.52.98,7.04,3.87,8.82,3.78l.45-.33Z"/>
        <path class="cls-4" d="M38.63,21.04c.04-1.79-1.11-6.5-3.8-4.94-2.26,1.13-10.23,5.52-11.73,6.57-.14.85,5.86-.13,7.47-.03,2.47-.36,6.55.21,7.86-1.06l.2-.54Z"/>
      </g>
      <g>
        <circle class="cls-1" cx="21.67" cy="23.25" r="7.43"/>
        <path class="cls-2" d="M14.65,16.93c1.12.66,1.27,1.83.62,2.93-.39.66-1.1,1.36-1.89.89-.51-.3-.61-.74-.42-1.06.47-.77.2-.93-.48-1.33l-3.64-2.16c-.57-.34-.55-1.02-.26-1.52.3-.5.88-.83,1.45-.49l4.62,2.74Z"/>
        <path class="cls-2" d="M20.62,13.35c.6,1.41-.55,2.73-1.75,3.24-1.2.51-2.95.42-3.55-.99l-2-4.72c-.26-.61.16-1.15.69-1.38.54-.23,1.2-.15,1.46.46l1.83,4.31c.14.33.5.3.69.22s.45-.33.32-.65l-1.83-4.31c-.26-.61.16-1.15.69-1.37s1.2-.15,1.46.46l2,4.72Z"/>
        <path class="cls-2" d="M22.97,8.59c.11-.66.75-.88,1.32-.79.57.1,1.09.52.98,1.18l-1.06,6.32c-.11.66-.75.88-1.32.79-.57-.1-1.09-.52-.98-1.17l1.06-6.32Z"/>
        <path class="cls-2" d="M28.77,14.25c-.49.62-.99,1.68-.21,2.3.54.43.93.96.34,1.71-.54.68-1.24.47-1.9-.06-1.78-1.42-1.4-3.75-.08-5.42s3.52-2.56,5.3-1.14c.67.53,1.03,1.17.49,1.84-.6.75-1.2.48-1.74.05-.78-.62-1.7.1-2.2.72Z"/>
        <path class="cls-2" d="M28.39,20.26c-.25-.85.24-1.33,1.04-1.56l5.21-1.52c.8-.23,1.47-.09,1.71.76l.64,2.21c.17.58-.12,1.04-.75,1.22-.47.14-1.08,0-1.27-.63l-.2-.67c-.08-.27-.31-.4-.62-.31-.31.09-.44.32-.36.6l.18.63c.16.55-.21.95-.74,1.1-.49.14-1.06.01-1.22-.53l-.18-.63c-.08-.27-.32-.4-.62-.31-.31.09-.44.32-.36.6l.2.67c.17.58-.12,1.03-.75,1.22-.47.14-1.08,0-1.27-.63l-.65-2.21Z"/>
        <path class="cls-2" d="M31.15,30.23c-1.93-.79-3.44-2.55-2.61-4.59l.5-1.22c.34-.82,1.02-.89,1.79-.58l5.03,2.05c.77.31,1.21.84.87,1.66l-.5,1.22c-.83,2.03-3.14,2.24-5.07,1.45ZM30.6,26.28c-.07-.03-.15.02-.18.1-.25.62.9,1.31,1.62,1.61.49.2,2.1.86,2.44.01.04-.09.04-.13-.09-.18l-3.79-1.54Z"/>
      </g>
      <g>
        <circle class="cls-1" cx="21.67" cy="23.25" r="15.67"/>
        <path class="cls-2" d="M13.74,34.44c-1.12,1.04-2.76.4-3.64-.56-.88-.96-1.39-2.64-.26-3.68l3.77-3.48c.49-.45,1.13-.24,1.53.19s.54,1.08.06,1.53l-3.44,3.17c-.26.24-.12.57.02.72.14.15.47.31.72.08l3.44-3.17c.49-.45,1.13-.24,1.53.19s.54,1.08.05,1.53l-3.77,3.48Z"/>
        <path class="cls-2" d="M20.93,30.56c1.45.24,2.27,1.7,2.04,3.12-.34,2.07-1.84,2.65-3.62,2.31-.06-.01-.18-.03-.2.15l-.25,1.53c-.11.65-.74.89-1.32.79-.57-.09-1.09-.52-.99-1.17l.95-5.84c.13-.82.55-1.36,1.42-1.22l1.96.32ZM20.67,33.31c.06-.38-.03-.84-.44-.91-.36-.06-.62.28-.7.73-.07.44.07.85.43.91.41.07.64-.34.71-.73Z"/>
        <path class="cls-2" d="M23.24,31.22c-.23-.58.25-1,.77-1.18.6-.21,1.17-.19,1.37.42l1.33,3.93c.21.64-.16.91-.7,1.11-.45.16-.94.23-1.14-.28l-1.62-4.01ZM26.93,38c-.76.27-1.29.08-1.59-.76-.31-.87-.03-1.29.77-1.57.79-.28,1.27-.14,1.58.74.3.84,0,1.32-.76,1.59Z"/>
      </g>
    </g>
  </g>
</svg>