<?xml version="1.0" encoding="UTF-8"?>
<svg id="Layer_2" data-name="Layer 2" xmlns="http://www.w3.org/2000/svg" xmlns:xlink="http://www.w3.org/1999/xlink" viewBox="0 0 45.07 45.07">
  <defs>
    <style>
      .cls-1 {
        fill: #f04c61;
        filter: url(#drop-shadow-1);
      }

      .cls-2 {
        fill: #ffd247;
      }

      .cls-3 {
        fill: #f7efd6;
      }
    </style>
    <filter id="drop-shadow-1" x="0" y="0" width="45.07" height="45.07" filterUnits="userSpaceOnUse">
      <feOffset dx=".22" dy=".22"/>
      <feGaussianBlur result="blur" stdDeviation=".11"/>
      <feFlood flood-color="#231f20" flood-opacity=".4"/>
      <feComposite in2="blur" operator="in"/>
      <feComposite in="SourceGraphic"/>
    </filter>
  </defs>
  <g id="Layer_1-2" data-name="Layer 1">
    <g>
      <circle class="cls-1" cx="22.54" cy="22.54" r="22.53"/>
      <path class="cls-3" d="M21.89,33.81c-4.2-.21-6.94-2.87-6.73-7.23.17-3.46,2.57-4.12,2.6-4.68s-1.95-1.56-1.78-4.93c.19-3.76,3.41-5.88,6.93-5.71,3.52.17,6.7,2.61,6.52,6.38-.17,3.36-2.23,4.17-2.26,4.73s2.3,1.46,2.13,4.91c-.22,4.36-3.2,6.74-7.41,6.53ZM22.58,19.99c1.09.05,1.25-1.22,1.29-2.06.03-.66.04-2.09-1.08-2.15-1.12-.06-1.25,1.37-1.29,2.03-.04.84,0,2.12,1.08,2.17ZM22.14,28.86c1.18.06,1.25-1.37,1.3-2.22.04-.84.11-2.27-1.07-2.33-1.18-.06-1.25,1.37-1.3,2.21-.04.84-.11,2.27,1.07,2.33Z"/>
      <g>
        <g>
          <path class="cls-2" d="M11.14,10.3c-.88-1.2-1.45-2.9-.03-3.94.62-.45,1.72-.75,2.26-.02.25.35.21.78-.12,1.02-.31.23-.61.15-.98.12-.09,0-.15.04-.2.08-.45.33.24,1.38.46,1.69.24.33.99,1.26,1.48.91.23-.17.21-.44.03-.68-.04-.06-.1-.14-.18-.09-.29.17-.65.14-.88-.17-.21-.29-.23-.73.1-.97l.79-.58c.57-.42,1.03.14,1.34.56.79,1.07.88,2.31-.27,3.16-1.53,1.13-2.79.27-3.79-1.09Z"/>
          <path class="cls-2" d="M17.67,7.32s-.13.04-.09.17l.45,1.46c.15.48-.2.85-.62.98-.42.13-.91.02-1.06-.46l-1.33-4.25c-.19-.6-.09-1.1.55-1.3l1.35-.42c1.06-.33,2.05.21,2.37,1.24.23.73.16,1.28-.11,1.68.14.1.3.21.41.34.4.45.7,1.01.86,1.54.13.41-.1.71-.5.84-.39.12-.85.12-1.1-.37-.27-.54-.59-.97-.7-1.09-.17-.2-.38-.39-.5-.35ZM17.66,5.36c-.09-.28-.27-.52-.57-.43-.26.08-.32.35-.22.68.1.32.3.51.56.43.3-.09.32-.4.23-.68Z"/>
          <path class="cls-2" d="M23.14,2.5c.5.02.97.24,1.08.79l.94,4.69c.15.76-.38.9-.85.88-1.01-.03-.71-1.03-1.05-1.04l-.55-.02c-.34-.01-.1,1.01-1.11.97-.47-.02-.98-.19-.79-.94l1.21-4.61c.14-.55.62-.74,1.12-.72ZM23.09,4.71l-.3,1.71c-.01.07-.03.17.07.17h.32c.09.01.08-.09.08-.16l-.17-1.73Z"/>
          <path class="cls-2" d="M31.23,10.64c-.21.57-.53.71-1.08.45-.32-.15-.63-.46-.5-.85l.83-2.32-1.39,1.98c-.22.32-.52.45-.94.24-.53-.25-.56-.6-.49-.92l.54-2.39-1.19,2.16c-.2.36-.65.31-.97.15-.55-.26-.64-.59-.34-1.12l2.24-4.01c.3-.54.87-.55,1.44-.28.49.23.84.63.71,1.19l-.39,1.7,1.07-1.38c.35-.45.88-.44,1.37-.21.56.27.91.71.69,1.29l-1.6,4.32Z"/>
          <path class="cls-2" d="M31.6,10.67c.32-.3.73-.36,1.04-.03.3.32.11.73.29.92.13.14.32.19.47.05.12-.12.13-.37.11-.52l-.1-1.01c-.06-.61.17-1.19.59-1.59.75-.71,1.85-.58,2.55.15.51.55.86,1.31.23,1.9-.23.21-.58.24-.81,0-.19-.2-.18-.47-.34-.63-.13-.14-.31-.12-.43,0-.07.07-.13.22-.11.34l.15,1.25c.07.58-.17,1.08-.55,1.44-.88.83-2.06.75-2.87-.1-.54-.58-.86-1.57-.23-2.17Z"/>
        </g>
        <g>
          <path class="cls-2" d="M12.6,32.1c.7.76.52,1.92-.22,2.6-1.08,1-2.16.67-2.99-.29-.03-.03-.08-.09-.18,0l-.8.74c-.34.31-.79.17-1.07-.13-.28-.3-.38-.75-.04-1.07l3.04-2.81c.43-.39.89-.52,1.31-.06l.94,1.02ZM11.27,33.5c.2-.19.35-.48.15-.69-.17-.19-.47-.11-.7.1-.23.21-.33.5-.16.69.2.21.5.09.7-.09Z"/>
          <path class="cls-2" d="M13.52,37.4s-.11-.06-.17.04l-.72,1.22c-.24.4-.71.39-1.06.18-.35-.21-.58-.61-.34-1.01l2.11-3.56c.3-.5.7-.75,1.24-.43l1.13.67c.88.52,1.13,1.54.62,2.41-.36.61-.78.91-1.23.97.02.16.04.33.02.5-.06.55-.26,1.11-.52,1.55-.2.34-.56.37-.89.18-.33-.19-.61-.52-.43-.99.2-.52.3-1.02.32-1.16.03-.24.03-.5-.07-.56ZM14.86,36.17c.14-.24.19-.51-.06-.66-.22-.13-.44,0-.6.27s-.17.53.05.66c.25.15.47-.03.61-.27Z"/>
          <path class="cls-2" d="M17.8,41.57c-1.58-.39-1.69-2-1.36-3.36.34-1.36,1.18-2.73,2.76-2.34,1.58.39,1.69,2,1.36,3.36s-1.18,2.73-2.76,2.34ZM18.16,40.12c.42.1.65-.58.82-1.28.17-.69.29-1.41-.13-1.51-.42-.1-.65.58-.82,1.28-.17.69-.29,1.41.13,1.51Z"/>
          <path class="cls-2" d="M23.86,37.78c-.1,0-.11.06-.1.13l.09,3.51c.01.46-.4.71-.8.72-.41.01-.82-.21-.83-.67l-.09-3.51c0-.07-.01-.12-.11-.12h-.22c-.46.02-.69-.35-.7-.72s.2-.76.66-.77l2.28-.06c.46-.01.69.36.7.74,0,.37-.2.75-.66.76h-.22Z"/>
          <path class="cls-2" d="M27.34,41.52c-.6.17-.93-.17-1.09-.73l-1.06-3.65c-.16-.56-.07-1.03.53-1.2l1.54-.45c.41-.12.72.08.85.53.09.33,0,.76-.44.89l-.47.14c-.19.06-.28.22-.22.44.06.22.23.31.42.25l.44-.13c.38-.11.66.14.77.52.1.34,0,.74-.37.85l-.44.13c-.19.06-.28.22-.22.44s.23.31.42.25l.47-.14c.41-.12.72.08.85.53.1.33,0,.76-.44.89l-1.54.45Z"/>
          <path class="cls-2" d="M28.43,35.73c-.21-.41.05-.81.41-1,.36-.19.83-.17,1.04.24l2.07,3.97c.21.41-.05.81-.41,1-.36.19-.83.17-1.04-.24l-2.07-3.97Z"/>
          <path class="cls-2" d="M30.33,34.83c-.31-.36-.12-.81.2-1.08.54-.46.9-.21,1.52.17l1.27.79-1.19-1.4c-.3-.35-.13-.8.17-1.06.31-.26.77-.35,1.07,0l2.9,3.41c.3.35.15.79-.16,1.05-.34.29-.72.35-1.13.11l-1.63-.96,1.13,1.33c.3.35.14.8-.17,1.06-.31.26-.77.35-1.07,0l-2.9-3.41Z"/>
        </g>
      </g>
    </g>
  </g>
</svg>