<?xml version="1.0" encoding="UTF-8"?>
<svg id="Layer_2" data-name="Layer 2" xmlns="http://www.w3.org/2000/svg" viewBox="0 0 25.52 25.4">
  <defs>
    <style>
      .cls-1 {
        fill: #bf1e6a;
      }

      .cls-2 {
        fill: #37468d;
      }

      .cls-3 {
        fill: #f04c61;
      }

      .cls-4 {
        fill: #77c045;
      }
    </style>
  </defs>
  <g id="Layer_1-2" data-name="Layer 1">
    <g>
      <g>
        <path class="cls-3" d="M6.85,24.9c-2.25,0-3.95-.5-4.9-1.45-3.21-3.21-.78-14.47,4.19-19.44,1.81-1.81,3.54-2.69,5.29-2.69,2.75,0,5.07,2.1,7.81,4.84,3.57,3.57,7.62,7.62,2.15,13.1-3.67,3.67-10.23,5.64-14.54,5.64Z"/>
        <path class="cls-2" d="M11.43,1.82c2.6,0,4.92,2.15,7.45,4.69,4.02,4.02,7.07,7.47,2.15,12.39-3.4,3.4-9.68,5.5-14.18,5.5-2,0-3.65-.41-4.55-1.31-2.9-2.9-.73-13.82,4.19-18.73,1.81-1.81,3.42-2.54,4.94-2.54M11.43.82h0c-1.89,0-3.74.93-5.64,2.83C3.38,6.05,1.4,10.02.49,14.27-.44,18.61-.03,22.17,1.6,23.79c1.05,1.05,2.86,1.6,5.25,1.6,4.41,0,11.13-2.03,14.89-5.79,5.83-5.83,1.4-10.25-2.15-13.8C16.77,2.98,14.37.82,11.43.82h0Z"/>
      </g>
      <path class="cls-1" d="M4.56,17.04c-.45-.04-.46-.55-.31-.87.23-.66,1.19-1.31,1.63-1.11.91.53-.56,2.09-1.27,1.99h-.05Z"/>
      <path class="cls-1" d="M9.11,16.79c-.45-.04-.46-.55-.31-.87.23-.66,1.19-1.31,1.63-1.11.91.53-.56,2.09-1.27,1.99h-.05Z"/>
      <path class="cls-1" d="M5.44,12.33c-.45-.04-.46-.55-.31-.87.23-.66,1.19-1.31,1.63-1.11.91.53-.56,2.09-1.27,1.99h-.05Z"/>
      <path class="cls-1" d="M8.2,6.39c-.45-.04-.46-.55-.31-.87.23-.66,1.19-1.31,1.63-1.11.91.53-.56,2.09-1.27,1.99h-.05Z"/>
      <path class="cls-1" d="M14.4,15.96c-.45-.04-.46-.55-.31-.87.23-.66,1.19-1.31,1.63-1.11.91.53-.56,2.09-1.27,1.99h-.05Z"/>
      <path class="cls-1" d="M4.83,21.89c-.45-.04-.46-.55-.31-.87.23-.66,1.19-1.31,1.63-1.11.91.53-.56,2.09-1.27,1.99h-.05Z"/>
      <path class="cls-1" d="M9,21.42c-.45-.04-.46-.55-.31-.87.23-.66,1.19-1.31,1.63-1.11.91.53-.56,2.09-1.27,1.99h-.05Z"/>
      <path class="cls-2" d="M4.83,21.32c-.32-.01-.31-.38-.19-.61.19-.48.9-.98,1.21-.86.63.34-.48,1.51-.99,1.47h-.04Z"/>
      <path class="cls-2" d="M4.7,16.51c-.32-.01-.31-.38-.19-.61.19-.48.9-.98,1.21-.86.63.34-.48,1.51-.99,1.47h-.04Z"/>
      <path class="cls-1" d="M21.03,18.9c-4.92,4.92-15.82,7.1-18.73,4.19,0,0,8.15-2.2,11.6-4.91,4.91-3.86,7.97-8.68,7.97-8.68,3.3,4.77.91,7.67-.83,9.41Z"/>
      <path class="cls-2" d="M9.08,20.88c-.32-.01-.31-.38-.19-.61.19-.48.9-.98,1.21-.86.63.34-.48,1.51-.99,1.47h-.04Z"/>
      <path class="cls-2" d="M9.24,16.26c-.32-.01-.31-.38-.19-.61.19-.48.9-.98,1.21-.86.63.34-.48,1.51-.99,1.47h-.04Z"/>
      <path class="cls-2" d="M5.55,11.81c-.32-.01-.31-.38-.19-.61.19-.48.9-.98,1.21-.86.63.34-.48,1.51-.99,1.47h-.04Z"/>
      <path class="cls-2" d="M13.93,20.2c-.32-.01-.31-.38-.19-.61.19-.48.9-.98,1.21-.86.63.34-.48,1.51-.99,1.47h-.04Z"/>
      <path class="cls-2" d="M19.15,17.92c-.32-.01-.31-.38-.19-.61.19-.48.9-.98,1.21-.86.63.34-.48,1.51-.99,1.47h-.04Z"/>
      <path class="cls-1" d="M9.97,11.69c-.45-.04-.46-.55-.31-.87.23-.66,1.19-1.31,1.63-1.11.91.53-.56,2.09-1.27,1.99h-.05Z"/>
      <path class="cls-2" d="M14.53,15.42c-.32-.01-.31-.38-.19-.61.19-.48.9-.98,1.21-.86.63.34-.48,1.51-.99,1.47h-.04Z"/>
      <path class="cls-2" d="M10.16,11.05c-.32-.01-.31-.38-.19-.61.19-.48.9-.98,1.21-.86.63.34-.48,1.51-.99,1.47h-.04Z"/>
      <path class="cls-2" d="M8.4,5.86c-.32-.01-.31-.38-.19-.61.19-.48.9-.98,1.21-.86.63.34-.48,1.51-.99,1.47h-.04Z"/>
      <g>
        <path class="cls-4" d="M22.6,14.71c-.67,0-1.27-.1-1.78-.31-1.26-.5-1.7-1.99-1.85-2.91-.52.22-1.28.47-2.03.47-.89,0-1.6-.36-2.04-1.04-.87-1.34-.36-2.96.11-3.94-.81-.02-1.92-.29-2.77-1.42-1.42-1.87-.92-4.56-.9-4.67.03-.15.12-.27.25-.34.08-.04.16-.06.24-.06.06,0,.12.01.18.03.11.04,2.66,1.04,4.29,2.3,1.26.97,2.13,2.08,2.49,2.56.3-.05.85-.23,1.37-.82.58-.67.9-1.45.9-1.46.08-.19.27-.31.46-.31.05,0,.11,0,.16.03l1.2.41c.26.09.4.37.31.63-.02.07-.57,1.76-1.29,2.63-.32.39-.61.68-.83.89.38.44,1.05,1.2,1.81,2.09,1.39,1.62,2.1,4.24,2.13,4.35.07.26-.08.53-.33.61-.04.01-.96.3-2.07.3Z"/>
        <path class="cls-2" d="M11.83,1s2.57,1,4.16,2.23c1.59,1.23,2.55,2.68,2.55,2.68,0,0,0,0,.02,0,.16,0,1.12-.04,1.97-1.02.65-.74.99-1.6.99-1.6l1.2.41s-.54,1.66-1.2,2.47-1.16,1.15-1.16,1.15c0,0,.97,1.09,2.14,2.47,1.33,1.55,2.02,4.15,2.02,4.15,0,0-.88.27-1.92.27-.52,0-1.08-.07-1.6-.27-1.54-.62-1.62-3.21-1.62-3.21,0,0-1.26.73-2.45.73-.62,0-1.22-.2-1.62-.81-1.15-1.77.6-4.26.6-4.26,0,0-.33.1-.81.1-.7,0-1.71-.21-2.48-1.22-1.3-1.71-.81-4.27-.81-4.27M11.83,0c-.17,0-.33.04-.48.12-.26.14-.44.39-.5.69-.02.12-.56,3.02.99,5.06.62.82,1.47,1.35,2.45,1.54-.39,1.08-.63,2.52.19,3.78.54.83,1.38,1.26,2.46,1.26.59,0,1.17-.13,1.66-.3.25.99.81,2.2,2.04,2.7.57.23,1.24.35,1.97.35,1.18,0,2.18-.31,2.22-.32.51-.16.81-.69.67-1.21-.03-.12-.77-2.84-2.23-4.55-.58-.68-1.11-1.29-1.5-1.73.16-.17.34-.36.53-.59.77-.92,1.32-2.61,1.38-2.8.17-.52-.11-1.08-.63-1.25l-1.2-.41c-.11-.04-.22-.05-.32-.05-.4,0-.77.24-.93.63,0,0-.29.72-.81,1.32-.28.32-.57.49-.8.58-.45-.58-1.27-1.53-2.38-2.38C14.92,1.13,12.31.11,12.19.07c-.12-.05-.24-.07-.36-.07h0Z"/>
      </g>
    </g>
  </g>
</svg>