<?xml version="1.0" encoding="UTF-8"?>
<svg id="Layer_2" data-name="Layer 2" xmlns="http://www.w3.org/2000/svg" viewBox="0 0 44.91 44.91">
  <defs>
    <style>
      .cls-1 {
        fill: #ed1e7a;
      }

      .cls-2 {
        fill: #37468d;
      }

      .cls-3 {
        fill: #fde5ea;
      }
    </style>
  </defs>
  <g id="Layer_1-2" data-name="Layer 1">
    <g>
      <circle class="cls-3" cx="22.46" cy="22.46" r="22.45"/>
      <g>
        <path class="cls-1" d="M14.93,32.34c-.47-1.23-.43-2.89.04-4.23l2.52-7.44c.29-.84.4-1.99.11-2.76s-1.05-1.25-1.86-.94c-2,.76,1.23,3.23-2.21,4.54-1.57.6-2.39,0-2.95-1.5-1.29-3.39,1.02-6.16,4.06-7.32,3.15-1.2,6.45-.22,7.71,3.09.49,1.28.72,2.93.32,4.31-.17.59-.66,3-2.3,6.25-.14.27-.32.92.05.77l3.12-1.19c1.39-.53,2.5.15,2.99,1.43.44,1.15.23,2.38-.92,2.98l-8.7,3.31c-.96.37-1.68-.49-1.99-1.29Z"/>
        <path class="cls-1" d="M25.09,20.24c-.97-2.56-1.14-5.85,1.88-7,1.32-.5,3.41-.49,4.01,1.07.28.74-.02,1.48-.72,1.75-.66.25-1.15-.03-1.8-.26-.16-.05-.28,0-.4.05-.97.37-.26,2.56,0,3.22.27.71,1.14,2.73,2.17,2.34.49-.19.58-.68.39-1.19-.05-.12-.11-.29-.27-.25-.61.16-1.22-.06-1.47-.74-.23-.61-.06-1.4.65-1.67l1.69-.64c1.21-.46,1.76.75,2.11,1.66.87,2.29.42,4.53-2.03,5.46-3.27,1.24-5.08-.89-6.19-3.79Z"/>
      </g>
      <g>
        <path class="cls-2" d="M18.98,40.26c.03-.52.35-.9.88-.86.52.04.68.54.99.56.23.02.43-.09.45-.34.01-.2-.18-.42-.32-.54l-.9-.8c-.55-.48-.81-1.16-.76-1.85.08-1.22,1.14-1.99,2.33-1.91.88.06,1.8.44,1.73,1.46-.02.37-.31.68-.7.65-.33-.02-.53-.26-.81-.28-.23-.02-.36.14-.37.34,0,.12.06.29.17.38l1.14.97c.53.45.72,1.07.68,1.69-.1,1.42-1.18,2.31-2.57,2.21-.94-.06-2-.68-1.94-1.7Z"/>
        <path class="cls-2" d="M30.19,38.4c.41,1.3-.71,2.38-1.82,2.73-1.1.35-2.65.13-3.06-1.17l-1.39-4.35c-.18-.56.23-1,.72-1.16.49-.16,1.07-.03,1.25.53l1.27,3.97c.1.3.42.31.59.25.17-.05.43-.26.33-.55l-1.27-3.97c-.18-.56.23-1,.72-1.16.49-.16,1.07-.03,1.25.53l1.39,4.35Z"/>
        <path class="cls-2" d="M30.84,36.18c-1.16-1.33-1.98-3.28-.41-4.64.69-.59,1.95-1.05,2.66-.24.33.38.32.9-.05,1.22-.34.3-.7.23-1.15.24-.1,0-.17.06-.23.12-.5.44.41,1.6.71,1.94.32.37,1.29,1.39,1.83.93.26-.22.2-.54-.03-.8-.06-.06-.13-.15-.22-.09-.33.23-.75.23-1.05-.12-.28-.32-.35-.83.02-1.15l.88-.76c.63-.55,1.23.06,1.64.53,1.03,1.19,1.26,2.64-.02,3.75-1.7,1.47-3.26.58-4.57-.92Z"/>
        <path class="cls-2" d="M33.2,27.95c.27-.53.73-.92,1.39-.76l5.49,1.31c.89.21.78.85.52,1.35-.54,1.06-1.46.25-1.64.6l-.29.58c-.18.36,1.03.61.49,1.68-.25.5-.7.96-1.4.38l-4.35-3.58c-.52-.43-.48-1.03-.22-1.56ZM35.55,29.1l1.69,1.17c.07.05.16.12.22.02l.17-.34c.05-.09-.06-.14-.14-.17l-1.94-.68Z"/>
        <path class="cls-2" d="M39.07,23.97c0,.05-.01.16.15.17l1.8.14c.59.05.84.59.8,1.11-.04.52-.37,1.01-.96.96l-5.25-.41c-.74-.06-1.25-.38-1.19-1.17l.13-1.66c.1-1.3,1.13-2.15,2.4-2.06.9.07,1.47.38,1.79.86.17-.11.36-.24.55-.31.66-.24,1.41-.32,2.06-.27.5.04.74.43.7.91s-.25.99-.88,1.04c-.71.06-1.33.22-1.5.29-.29.1-.59.25-.6.4ZM36.91,23.12c-.35-.03-.69.07-.72.44-.02.33.25.51.65.54.4.03.7-.11.72-.43.03-.37-.3-.52-.65-.55Z"/>
      </g>
      <g>
        <path class="cls-2" d="M7.46,19.18c-.27,1.21-1.48,1.33-2.53,1.1-1.04-.23-2.1-.84-1.83-2.05.27-1.21,1.48-1.33,2.53-1.1,1.04.23,2.1.84,1.84,2.05ZM6.35,18.94c.07-.32-.46-.48-.99-.6-.53-.12-1.07-.19-1.14.13-.07.32.46.48.99.6.53.12,1.08.19,1.15-.13Z"/>
        <path class="cls-2" d="M4.35,15.64c-.33-.15-.34-.52-.21-.81.23-.49.56-.43,1.1-.36l1.12.14-1.26-.59c-.32-.15-.35-.51-.22-.79.13-.28.42-.49.74-.33l3.08,1.44c.31.15.35.5.22.77-.14.31-.39.47-.75.44l-1.43-.15,1.2.56c.32.15.35.51.22.79-.13.28-.42.48-.74.34l-3.08-1.44Z"/>
        <path class="cls-2" d="M9.8,13.71c-.28.38-.64.33-1,.07l-2.54-1.86c-.29-.21-.24-.57-.06-.82s.51-.39.79-.19l2.1,1.54c.13.09.23.1.34-.05l.24-.32c.16-.22.46-.24.7-.06.24.18.32.47.16.69l-.73,1Z"/>
        <path class="cls-2" d="M10.6,9.77c.05.12.1.21.27.38l.72.71c.25.25.16.59-.06.81-.22.22-.56.32-.82.07l-.72-.71c-.17-.16-.27-.21-.39-.26l-1.64-.67c-.52-.21-.67-.51-.29-.89.18-.18.45-.31.73-.16l.92.48-.5-.9c-.16-.28-.03-.56.15-.74.38-.39.67-.24.9.27l.72,1.61Z"/>
        <path class="cls-2" d="M10.44,7.19c-.21-.26-.02-.55.21-.72.27-.2.57-.27.76,0l1.28,1.8c.21.29.06.49-.19.67-.2.15-.44.26-.62.04l-1.44-1.79ZM13.35,10.08c-.35.25-.65.24-.93-.14-.29-.4-.21-.65.15-.92.36-.26.63-.26.92.13.28.38.2.67-.14.93Z"/>
      </g>
    </g>
  </g>
</svg>