<?xml version="1.0" encoding="UTF-8"?>
<svg id="Layer_2" data-name="Layer 2" xmlns="http://www.w3.org/2000/svg" viewBox="0 0 427.25 436.61">
  <defs>
    <style>
      .cls-1 {
        fill: #6cc941;
      }

      .cls-2 {
        fill: #ff485e;
      }

      .cls-3 {
        fill: #7e469b;
      }

      .cls-4 {
        fill: #cecece;
      }

      .cls-5 {
        fill: #ff8b00;
      }

      .cls-6 {
        fill: #fff;
      }

      .cls-7 {
        fill: #51af20;
      }

      .cls-8 {
        fill: #ffd246;
      }

      .cls-9 {
        fill: #a85ae5;
      }

      .cls-10 {
        fill: #8c4c17;
      }

      .cls-11 {
        fill: #f77500;
      }
    </style>
  </defs>
  <g id="Layer_1-2" data-name="Layer 1">
    <g>
      <path class="cls-5" d="M372.56,94.93c-.03.56-.14,1.11-.34,1.63-1.84,4.84-10.47,6.05-19.27,2.7-8.2-3.12-11.41-9.21-13.4-13.85-.68-1.43-.28-2.87.24-4.17.33-.82.46-1.7,1.21-2.24-.76-.95-2.34-1.41-2.97-2.49-4.65-7.98-5.57-13.96,8.31-24.12,9.24-6.76,29.04-14.52,34.68-7.88.98,1.16,2.53,1.68,3.94,2.23,4.09,1.61,7.14,4.63,10.63,8.44,5.87,6.41,8.53,10.3,9.56,15.3.26,1.28,1.08,5.51,2.33,6.11,2.11,1.01-7.38,9.33-16.26,14-7.75,4.08-14.58,4.69-18.66,4.33Z"/>
      <path class="cls-11" d="M357.75,89.02s2.33-.13.56.94c-2.04,1.24-8.48,3.68-12.81,3.08-4.54-.64-3.61-4.92-3.61-4.92.12.25,7.49,4.09,15.85.9Z"/>
      <path class="cls-5" d="M327.46,118.66c3.57-4.59,22.91-8.63,29-7.32,7.12,1.53,12.67.71,18.54,5.82.54-1.42,1.77-3.46,2.71-4.93.74-1.15.95-2.56.63-3.89-1.21-5.01-.9-9.99-.9-9.99,0,0,29.22-21.17,30.44-20.6,3.84,1.8,15.46,36.23,16.59,43.1.09.5.18,1.01.24,1.52.84,6.85-1.31,13.41-5.48,18.44-.62.75-.81,1.75-.55,2.69,1.18,4.24.89,8.81-1.18,12.92-4.63,9.24-18.89,9.46-24.1,9.08-1.82-.13-3.54,2.41-4.4,3.14-4.34,3.74-15.97,11.24-25.83,12.46-6.13.76-25.24.79-30.6-1.42-5.9-.78-9.61-5.01-9.61-5.01,0,0-11.04-6.08-14.05-20.04-3.01-13.96,4.36-22.41,4.36-22.41,0,0,10.49-21.58,14.19-13.56Z"/>
      <path class="cls-11" d="M347.85,170.14c2.04,1.35,21.46,6.52,44.52-4.32,0,0-13.89,13.54-27.13,16.5-13.24,2.96-16.74.21-16.74.21l-.65-12.39Z"/>
      <path class="cls-5" d="M343.57,148.07s-.28,4.98,3.28,7.97c3.88,3.27,9.72,2.19,13.36.52,4.63-2.12,8.47-9.83,8.48-9.95.02-.2-10.56,6.1-18.28,4.96-3.51-.52-6.84-3.51-6.84-3.51Z"/>
      <path d="M370.46,144.54c-3.32,5.26-9.31,8.5-15.51,8.61-4.18.02-8.29-1.28-11.91-3.31-1.26-.67-.45-2.59.91-2.16,1.65.57,3.39,1.31,5.09,1.71,0,0,.83.23.83.23,2.48.47,5.05.74,7.56.36,4.48-.57,8.72-3.03,11.8-6.3.57-.74,1.74.05,1.24.85h0Z"/>
      <path d="M314.3,128.4c5.21-6.94,9.56-10.43,12.03-12.05,1.01-.66,2.09-1.19,2.09-1.19.07-.03.11-.05.11-.05,14.93-8.94,39.16-4.51,45.26-1.49l1.1,3.45.1.08c-6.08-3.62-14.37-4.89-22.2-4.87-5.08.01-11.42.32-18.62,3.21-7.2,2.88-11.03,6.29-15.13,10.7-3.03,3.25-5.3,7.3-6.12,8.86-.15.29-.59.26-.69-.05-.34-1.02-.49-3.19,2.07-6.6Z"/>
      <path class="cls-11" d="M378.86,136.67s1.37,1.41,3.8,1.21c2.43-.21,6.5-9.08,6.61-17.12.08-5.9-3.68-14.5-6.91-19.44-1.13-1.72,4.7-4.34,7.78-8.39,2.75-3.6.97-7.77.74-8-.2-.2-1.98,2.54-5.26,5.99-3.07,3.22-5.85,3.99-5.95,3.99-1.9.1-2.29.74-2.22,1.71s.06,12.27-.46,13.81c-.52,1.54-3.38,5.66-3.44,8.92s5.31,17.32,5.31,17.32Z"/>
      <path d="M421.16,142.39c2.51-5.32,5.84-12.08,6.09-19.87.09-2.88-3.08-13.3-7.7-26-6.42-17.64-8.98-20.17-10.25-20.88-.13-.22-.34-.71-.63-1.72l-2.48,1.03c.27,1.55.55,3.32.65,4.47.03.35.69-.77.61-1.23-.12-.67.36-.53.46-.46,4.7,3.44,13.01,31.24,15.84,41.14.57,1.99.84,5.31.58,7.37-.81,6.17-3.65,10.91-5.16,14.35-.35.79-.93.7-.47,2.87.92,4.31.9,8.82-1.17,12.94-2.96,5.91-9.86,8.13-15.81,8.87-3.36.41-6.41.35-8.29.22-.13,0-.26,0-.38.01-1.68.21-3.22,2.45-4.01,3.13-4.34,3.74-15.97,11.24-25.83,12.46-6.13.76-25.64,1.03-33.65-3.25,0,0-21.42-10.24-20.38-9.42,1.91,1.49,13.7,10.74,22.6,12.99,12.84,3.25,26.29,2.84,31.73,2.17,10.2-1.26,22.07-8.67,27.15-13.04.32-.27.61-.6.95-.97.39-.43,1.29-1.42,1.71-1.57,1.65.12,4.9.23,8.7-.24,8.8-1.09,14.94-4.62,17.75-10.23,2.26-4.51,2.74-9.74,1.35-14.72-.04-.16,0-.3.07-.42Z"/>
      <path class="cls-11" d="M367.33,119.02c.02.24.17.48.13.71s-.39.36-.48.57,0,.53-.15.71-.48.13-.67.27-.32.28-.54.36-.39.25-.63.27-.48.09-.7.05-.37-.33-.58-.43-.6.09-.78-.06-.14-.52-.27-.71-.36-.32-.44-.54-.18-.44-.2-.68-.04-.49,0-.72.11-.49.2-.7.31-.38.45-.56.39-.25.58-.38.32-.38.54-.46.45-.22.68-.25.51-.02.73.02.5.11.71.21.36.34.54.49.2.42.34.61.45.28.53.5-.01.48.01.72Z"/>
      <path class="cls-11" d="M370.62,69.41s3.63-4.49,5.4-.9c1.28,2.61,3.74,4.19,2.39,8.34s-7.33,8.04-8.75,8.07,2.17-3.45,2.66-5.02c.54-1.71-.73-6.5-3.34-7.16-.23-.06,1.65-3.33,1.65-3.33Z"/>
      <path d="M365.38,73.18c1.57-.57,2.99-1.25,3.95-2.62.66-.7.87-2.43,2.12-1.88,1.44.93-.72,4.16-1.77,4.79-1.19.93-2.78,1.31-4.23,1.03-.37-.06-.62-.41-.56-.78.04-.27.24-.47.48-.54h0Z"/>
      <path d="M391.91,83.5c-2.14,1.91-3.43,9.44-14.68,12.74-.75.22-7.14.04-8.63-1.11-.51-.39-2.47-1.68-1.58-2.05.46-.19,4.47,1.24,6.9,1.44,2.76.23,6.42-.34,10.17-4.07,3.85-3.83,5.29-8.05,6.73-8.84,1.87-1.03,2.22.89,1.09,1.9Z"/>
      <path d="M374.82,97.04c-.57,0-.69,2.04-2.45,2.91-2.3,1.14-5.84,1.56-7.87,1.54-4.16-.05-7.14-.39-11.54-2.22-7.99-3.31-11.54-6.05-13.73-11.92-.97-2.59-.57-5.08-.17-6.52.14-.48.56-1.41.92-1.81-.61-.19-1.16-.38-2.39-1.8-5.03-5.79-4.64-17.69,7.82-26.14,11.06-7.5,28.66-12.7,34.05-8.41.93.74,5.2,1.19,6.45,1.68,4.71,1.85,8.17,5.36,11.59,9.1,5.68,6.21,8.99,10.69,10.18,16.53l.03.14c.59,2.9,1.03,3.96,1.24,4.33,1.31.75,3.36,5.75-1.47,2.15-.1-.08-.63-.21-.48.47.5,2.23-.72,4.25-.85,3.92-.31-.81-.62-2.86-.8-4.23-.32-2.4.72-2.35-.21-6.26-1.17-4.97-3.69-8.88-9.56-15.3-3.52-3.85-6.59-6.88-10.73-8.48-1.38-.53-4.99-1.33-4.99-1.33,0,0-4.26-1.87-4.32-1.88-9.62-1.97-20,4.15-26.64,8-11.22,6.51-16.06,17.68-9.73,24.98,1.18,1.36,2.99,1.04,3.79.65.37-.18.8-.7.95-.7.51,0,1.37,1.23,1.73,1.38-4.43-.34-5.22,6.67-4.37,8.94,1.84,4.9,5.78,7.76,13,10.51,4.23,1.61,8.38,2.88,11.8,2.48,3.69-.43,5.17-.67,6.13-3.18.2-.52.31-1.07.34-1.63,1.76.52,6.18-.47,7.21-.27,1.36.26-1.1,1.56-1.27,1.95-.16.37-1.72.44-3.68.43Z"/>
      <path d="M369.83,58.99c-6.05,3.77-13.7,6.71-17.02,13.36-1.1,2.22-.63,4.89,1.68,6,1.98.85,3.43,2.32,5.61,2.35,3.09-.02,7.14-.39,9.47-2.6.66-.67.77-1.48.62-2.31-.24-1.49-2.03-1.17-3.23-1.07-.67.05-2.69.33-2.48-.96.05-.2.19-.35.35-.45,1.69-1.03,4.31-1.52,6.34-.42,1.45.92,1.8,2.56,1.78,4.08-.68,5.7-8.52,6.72-13.12,6.33-2.13-.14-4.02-1.56-5.66-2.64-7.5-3.49-3.02-11.68,1.63-15.45,1.97-1.76,4.16-3.18,6.42-4.43,2.26-1.26,4.64-2.28,7.16-2.87.64-.17,1.03.76.45,1.1h0Z"/>
      <path d="M375.91,108.92c.16.68.05,1.39-.31,1.95-.67,1.04-1.23,1.99-1.7,2.83,0,0-2.71,3.86-1.68,10.51,1.01,6.52,5.86,12.24,7.06,13.57.73.81,2.02-.31,1.26-1.19-1.71-1.98-4.14-6.82-5.22-10.4-1.42-4.72-.32-9.03-.32-9.03.54-1.42,1.78-3.47,2.72-4.94.73-1.14.96-2.52.64-3.83-.88-3.59,1.12-12.53,1.14-14.28l-2.45,2.58c.1,1.94-1.73,9.75-1.13,12.24Z"/>
      <path class="cls-5" d="M211.16,55.28c-56.17,5.46-100.24,44.72-110.77,93.68-5.39-2.01-11.26-2.85-17.32-2.27-8.95.87-16.91,4.73-23.08,10.55-1-1.51-2.97-3.58-4.46-5.06-1.16-1.16-1.78-2.74-1.75-4.38.11-6.18-1.56-11.92-1.56-11.92,0,0-1.26-1.5,3.08-3.88.17.63.42,1.22.78,1.77,3.27,5.04,13.34,4.31,22.49-1.63,8.53-5.54,10.68-13.22,11.81-18.96.42-1.79-.39-3.32-1.29-4.67-.57-.85-.94-1.81-1.92-2.24.63-1.26,2.31-2.17,2.76-3.55,3.33-10.17,2.91-17.18-15.3-25.3-12.12-5.41-36.45-9.38-41.22-.48-.83,1.55-2.45,2.51-3.92,3.49-4.24,2.82-6.96,6.98-9.99,12.16-5.09,8.7-7.16,13.75-7.1,19.67.02,1.51.12,6.51-1.15,7.49-4.02,3.11-8.62,46.39-8.15,54.72.02.61.06,1.22.12,1.84.8,8.23,5.03,15.34,11.21,20.14.92.71,1.41,1.84,1.34,3-.28,5.26,1.26,10.53,4.75,14.8,7.82,9.6,24.56,6.14,30.55,4.33,2.1-.63,4.77,1.89,5.96,2.53,6.05,3.24,21.6,8.98,33.45,7.83,7.37-.72,14.14-3.3,19.82-7.29,21.86,41.7,70.1,68.19,123.12,63.04,68.38-6.64,118.82-63.38,112.67-126.72-6.15-63.34-66.57-109.31-134.95-102.67Z"/>
      <path class="cls-11" d="M126.64,96.71s-21.06,26.71-11.76,59.63l-4.96-3.73-10.2-7.13s4.99-17.63,11.8-30c6.82-12.37,15.12-18.78,15.12-18.78Z"/>
      <path class="cls-11" d="M297.4,260.86c8.77-5.21-14.19,9.28-49.25,12.64-12.96,1.24-31.66.93-45.5-2.93-32.09-8.96-57.67-36.03-75.91-69.16-.67-1.22-2.5-.96-2.81.39-1.33,5.74-4.31,16.84-12.77,22.94-3.11,1.95,59.42,93.61,162.46,51.1,8.04-3.32,15.19-9.87,23.79-14.99Z"/>
      <path d="M303.79,77.99c-26.09-19.85-59.09-28.97-92.92-25.69-27.87,2.71-53.52,13.51-74.17,31.24-19.14,16.43-32.72,38.19-38.46,61.41l.1.18c.34.07,1.28.29,2.76.85,11.56-47.48,54.98-85.34,110.06-90.69,68.38-6.64,128.8,39.33,134.95,102.67,6.15,63.34-44.29,120.08-112.67,126.72-53.03,5.15-101.27-21.34-122.88-62.77l-1.09,4.27c10.98,19.72,28.06,36.09,49.34,47.2,22.76,11.89,48.67,16.83,74.93,14.28,33.83-3.29,64.45-18.59,86.24-43.09,21.84-24.57,32.19-55.43,29.13-86.91s-19.15-59.77-45.31-79.68Z"/>
      <path d="M101.11,145.97c-1.48-.56-2.42-.78-2.76-.85l2.08,3.69c.2-.95.45-1.9.68-2.84Z"/>
      <path d="M51.4,102.45c1.26,1.4,2.86,2.59,4.76,2.86.9.32,2.87-.36,2.92,1.1-.01.42-.31.76-.69.86-2.45.73-5.37-.03-7.02-2.04-.47-.61-1.94-2.61-.72-3.06.3-.08.57.06.74.28h0Z"/>
      <g>
        <ellipse class="cls-6" cx="204.82" cy="140.63" rx="17.62" ry="27.11" transform="translate(-31.36 63.51) rotate(-16.39)"/>
        <path d="M200.5,114.15c8.49,0,17.5,8.83,21.23,21.51,4.23,14.37.08,28.24-9.26,30.98-1.09.32-2.21.48-3.33.48-8.49,0-17.5-8.83-21.23-21.51-4.23-14.37-.08-28.24,9.26-30.98,1.09-.32,2.21-.48,3.33-.48M200.5,111.15h0c-1.42,0-2.83.2-4.18.6-5.52,1.62-9.69,6.3-11.74,13.15-1.91,6.4-1.75,14.06.45,21.55,4.1,13.93,14.01,23.67,24.11,23.67,1.42,0,2.83-.2,4.18-.6,5.52-1.62,9.69-6.3,11.74-13.15,1.91-6.4,1.75-14.06-.45-21.55-4.1-13.93-14.01-23.67-24.11-23.67h0Z"/>
      </g>
      <g>
        <ellipse class="cls-6" cx="263.28" cy="133.71" rx="16.51" ry="25.39" transform="translate(-11.69 26.08) rotate(-5.55)"/>
        <path d="M261.88,108.38c8.67,0,16.53,10.31,17.83,23.73,1.36,13.96-4.9,25.99-13.97,26.87-.35.03-.71.05-1.06.05-8.67,0-16.53-10.31-17.83-23.73-1.36-13.96,4.9-25.99,13.97-26.87.35-.03.71-.05,1.06-.05M261.88,105.38h0c-.45,0-.9.02-1.35.07-10.89,1.06-18.21,14.3-16.67,30.15,1.46,15.07,10.41,26.44,20.81,26.44.45,0,.9-.02,1.35-.07,5.43-.53,10.15-4.13,13.27-10.13,2.9-5.58,4.11-12.69,3.4-20.01-1.46-15.07-10.41-26.44-20.81-26.44h0Z"/>
      </g>
      <ellipse cx="206.03" cy="144.75" rx="11.12" ry="16.58" transform="translate(-27.89 51.56) rotate(-13.37)"/>
      <ellipse cx="263.54" cy="136.42" rx="10.28" ry="15.33" transform="translate(-11.95 26.12) rotate(-5.55)"/>
      <ellipse class="cls-5" cx="251.28" cy="162.48" rx="21.13" ry="15.69" transform="translate(-14.53 25.05) rotate(-5.55)"/>
      <path d="M173.54,112.74c6.22-14.48,24.89-23.12,37.04-10.22.57.61.53,1.57-.08,2.13-.55.51-1.37.53-1.94.09-2.67-1.97-5.56-3.5-8.63-4.16-9.95-2.18-19.14,5.13-23.7,13.49-.92,1.7-3.5.42-2.69-1.34h0Z"/>
      <path d="M282.41,104.36c-8.24-11.23-22.56-16-33.27-5.05-1.3,1.28-3.34-.46-2.29-1.95,8.68-12.37,25.69-9.66,34.72.89,1.26,1.36,2.34,2.88,3.34,4.43.45.7.25,1.63-.45,2.08-.68.44-1.59.26-2.05-.4h0Z"/>
      <g>
        <path d="M182.61,177.1s6.93,33.76,42.61,48.33c49.18,20.07,65.12-40.38,65.12-40.38,0,0-44.89,20.93-107.72-7.94Z"/>
        <path class="cls-6" d="M237.06,207.15c7.48.37,14.15-.15,21.69-1.68.79-.16,2.44-6.11,3.22-6.28.84-.19,3.41,4.81,4.22,4.6,12.39-3.13,20.95-7.77,21.16-12.03.13-2.62.19-4.71.06-6.39-15.16,6.64-61.42,11.36-97.2-5.76-.85,1.97-1.09,4.63-.8,8.18.59,7.24,25.65,18.27,47.65,19.36Z"/>
        <path class="cls-2" d="M244.37,217.72c-8.52.09-20.58,1.27-23.39,6.55,1.39.67,2.82,1.33,4.31,1.94,15.01,6.13,32.75,2.79,42.06-2.07-2.85-4.6-13.17-6.51-22.98-6.41Z"/>
        <path d="M182.61,177.1c25.65,11.79,48.31,15.27,66.15,15.27,25.85,0,41.58-7.33,41.58-7.33,0,0-11.72,44.46-46.08,44.46-5.7,0-12.04-1.23-19.04-4.08-35.68-14.56-42.61-48.33-42.61-48.33M182.61,173.1c-.89,0-1.77.3-2.49.87-1.18.94-1.73,2.46-1.43,3.94.08.37,1.94,9.24,8.42,19.96,5.96,9.88,17.15,23.32,36.59,31.26,7.12,2.91,14.03,4.38,20.55,4.38,15.47,0,29.05-8.32,39.28-24.05,7.49-11.52,10.54-22.91,10.67-23.39.4-1.5-.11-3.09-1.3-4.09-.73-.61-1.65-.93-2.57-.93-.57,0-1.15.12-1.69.37-.14.07-15.36,6.95-39.89,6.95-21.25,0-42.95-5.02-64.48-14.91-.53-.25-1.1-.37-1.67-.37h0Z"/>
        <path d="M168.31,183.66c-.76,0-1.42-.58-1.49-1.35-1.27-13.07,8.6-20.17,9.02-20.46.68-.48,1.61-.31,2.09.36.48.68.31,1.61-.36,2.09-.37.26-8.86,6.44-7.76,17.72.08.82-.52,1.56-1.35,1.64-.05,0-.1,0-.15,0Z"/>
        <path d="M304.17,191.75c-.09,0-.17,0-.26-.02-.82-.14-1.36-.92-1.22-1.73.08-.44,1.72-10.81-7.04-18.02-.64-.53-.73-1.47-.21-2.11.53-.64,1.47-.73,2.11-.21,10.14,8.34,8.18,20.34,8.09,20.85-.13.73-.76,1.24-1.48,1.24Z"/>
        <path d="M239.49,250.81c5.26-1.8,10.57-4.07,15.13-7.29,1.5-1.09,2.92-2.3,4.01-3.72.65-.84,1.96.1,1.36.98-4.82,6.38-12.35,9.78-19.5,12.86-1.91.71-2.94-2.18-.99-2.83h0Z"/>
        <path d="M262.9,251.32c-2.91-.29-27.82-3.79-25.05-8.1.43-.74,1.41-.96,2.12-.49,3.25,2.07,7.36,3.23,11.13,4.29,3.95,1.06,8,1.92,12.04,2.62,1.06.18.83,1.81-.25,1.68h0Z"/>
      </g>
      <path class="cls-11" d="M25.5,220.3s18.99.27,20.87-5.04c1.72-4.84,3.98-3.77,4.2.95.13,2.69,4.68,3.04,3.98,3.57-1.86,1.41-29.05.52-29.05.52Z"/>
      <path class="cls-11" d="M70.65,121.7s-2.68.42-.41,1.21c2.62.91,10.51,2.11,15.26.36,4.99-1.83,2.89-6.45,2.89-6.45-.07.31-7.49,6.46-17.74,4.88Z"/>
      <path class="cls-11" d="M270.96,160.14s-5.36,17.06-38.57,9.26c0,0,.9,11.88,23.29,7.99,18.21-3.17,15.29-17.25,15.29-17.25Z"/>
      <path d="M233.06,154.32c7.9-10.97,25.43-12.65,35.68-3.89,8.06,6.88,6.43,18.07-1.8,24.02-3.58,2.71-7.82,4.32-12.15,5-7.93,1.08-20.4.23-23.73-8.53-.57-1.88,2.19-2.79,2.85-.94.53,1.58,1.75,2.92,3.3,3.9,8.08,4.54,20.38,3.59,27.73-2.04,11.66-9.33,3.93-21.45-8.97-22.96-7.66-.85-16.17.74-21.93,6.27-.52.56-1.44-.21-.99-.82h0Z"/>
      <path d="M118.31,156.93c-7.9-6.76-13.9-9.71-17.21-10.96-.23.95-.47,1.89-.68,2.84l-2.08-3.69c-.09-.02-.14-.03-.14-.03-5.01-1.42-10.18-1.89-15.42-1.38-8.27.8-15.96,3.97-22.31,9.09l-.38,4.32-.1.12c6.17-5.82,14.13-9.68,23.08-10.55,6.05-.59,11.93.26,17.32,2.27,0,0,5.86,2.53,11.81,6.6,4.38,3.01,8.1,7.16,9.46,8.77.26.3.75.16.8-.24.14-1.29-.26-3.85-4.14-7.17Z"/>
      <path class="cls-11" d="M4.3,147.07c-7.11,36.25,10.77,55.36,11.37,50.83.62-4.76,14.76-2.73,14.53-4.98-.21-2.03-13.82-5.43-18.84-13.4-4.01-6.36-2.17-35.81-4.78-41.9-2.2-5.14-.89,2.38-2.27,9.45Z"/>
      <path class="cls-11" d="M33.38,126.44s9.52,19.52,16.46,20.47c6.95.95,5.68-1.95,5.68-1.95l-1.62-11.37s-8.1,1.8-20.53-7.15Z"/>
      <path d="M30.59,123.77c2.9,1.64,6.19,9.86,19.74,10.86.9.07,1.9,1.26,1.9,1.26,0,0,6.2-2.96,7.61-4.62.48-.57,2.39-2.51,1.29-2.71-.57-.1-4.76,2.5-7.47,3.31-3.07.93-7.36,1.18-12.52-2.14-5.3-3.4-7.96-7.83-9.78-8.38-2.37-.71-2.3,1.55-.77,2.41Z"/>
      <path class="cls-5" d="M73.37,188.54s-.45,4.99,4.04,7.92c4.91,3.19,12.41,2,17.1.26,5.97-2.22,11.04-10.02,11.05-10.13.03-.2-13.64,6.32-23.5,5.33-4.49-.45-8.7-3.38-8.7-3.38Z"/>
      <path d="M73.57,186.88c5.56,3.95,12.95,5.66,19.57,3.77,4.12-.98,7.77-3.26,11.25-5.6.55-.34,1.28-.17,1.61.38.31.51.19,1.16-.26,1.52-1.16.95-2.33,1.9-3.55,2.78-.68.38-2.29,1.38-2.94,1.74-1.03.5-2.1.94-3.15,1.39-5.08,1.81-10.83,1.94-15.86-.05-2.87-1.09-5.48-2.66-7.69-4.84-.3-.29-.3-.77,0-1.06.28-.29.73-.29,1.03-.04h0Z"/>
      <path class="cls-11" d="M362.63,123.4c.03.31-.29.57-.41.83s-.09.72-.33.89-.63.17-.93.2-.69.1-.95-.02-.54-.41-.72-.65-.05-.61-.08-.92-.18-.64-.06-.9.45-.41.69-.58.46-.5.77-.53.66.09.93.21.58.33.75.57.32.58.35.89Z"/>
      <path class="cls-11" d="M258.44,162.43c.03.31.15.6.03.86s-.47.31-.71.48-.37.57-.68.6-.6-.16-.86-.28-.58-.24-.75-.49-.14-.57-.17-.87-.03-.59.09-.85.39-.38.63-.56.42-.41.73-.44.65-.09.92.03.27.56.44.8.31.4.34.7Z"/>
      <path class="cls-11" d="M358.75,120.03c.03.31.15.6.03.86s-.47.31-.71.48-.37.57-.68.6-.6-.16-.86-.28-.58-.24-.75-.49-.14-.57-.17-.87-.03-.59.09-.85.39-.38.63-.56.42-.41.73-.44.65-.09.92.03.27.56.44.8.31.4.34.7Z"/>
      <path class="cls-11" d="M147.16,219.49c.03.31.15.6.03.86s-.47.31-.71.48-.37.57-.68.6-.6-.16-.86-.28-.58-.24-.75-.49-.14-.57-.17-.87-.03-.59.09-.85.39-.38.63-.56.42-.41.73-.44.65-.09.92.03.27.56.44.8.31.4.34.7Z"/>
      <path class="cls-11" d="M140.61,214.73c.03.31.15.6.03.86s-.47.31-.71.48-.37.57-.68.6-.6-.16-.86-.28-.58-.24-.75-.49-.14-.57-.17-.87-.03-.59.09-.85.39-.38.63-.56.42-.41.73-.44.65-.09.92.03.27.56.44.8.31.4.34.7Z"/>
      <path class="cls-11" d="M88.66,155.39c.03.31.15.6.03.86s-.47.31-.71.48-.37.57-.68.6-.6-.16-.86-.28-.58-.24-.75-.49-.14-.57-.17-.87-.03-.59.09-.85.39-.38.63-.56.42-.41.73-.44.65-.09.92.03.27.56.44.8.31.4.34.7Z"/>
      <path class="cls-11" d="M137.54,136.9c.03.31.15.6.03.86s-.47.31-.71.48-.37.57-.68.6-.6-.16-.86-.28-.58-.24-.75-.49-.14-.57-.17-.87-.03-.59.09-.85.39-.38.63-.56.42-.41.73-.44.65-.09.92.03.27.56.44.8.31.4.34.7Z"/>
      <path class="cls-11" d="M253.84,158.51c.03.27.08.49.05.75s.03.53-.06.78-.14.52-.29.74-.49.26-.68.44-.17.63-.4.77-.59,0-.84.08-.47.27-.73.3-.54.07-.8.03-.55-.08-.79-.17-.51-.21-.73-.35-.38-.39-.56-.58-.24-.46-.38-.69-.38-.39-.47-.65-.22-.51-.25-.77-.03-.56,0-.82.1-.56.19-.8.34-.44.48-.66.43-.31.62-.49.25-.53.47-.67.46-.32.71-.4.54-.07.81-.1.51.28.77.32.59-.24.84-.15.33.49.55.64.48.2.66.39.54.26.67.48.09.55.17.81-.05.51-.02.78Z"/>
      <path class="cls-11" d="M150.2,211.35c.03.27.08.49.05.75s.03.53-.06.78-.14.52-.29.74-.49.26-.68.44-.17.63-.4.77-.59,0-.84.08-.47.27-.73.3-.54.07-.8.03-.55-.08-.79-.17-.51-.21-.73-.35-.38-.39-.56-.58-.24-.46-.38-.69-.38-.39-.47-.65-.22-.51-.25-.77-.03-.56,0-.82.1-.56.19-.8.34-.44.48-.66.43-.31.62-.49.25-.53.47-.67.46-.32.71-.4.54-.07.81-.1.51.28.77.32.59-.24.84-.15.33.49.55.64.48.2.66.39.54.26.67.48.09.55.17.81-.05.51-.02.78Z"/>
      <path class="cls-11" d="M81.89,157.69c.03.27.08.49.05.75s.03.53-.06.78-.14.52-.29.74-.49.26-.68.44-.17.63-.4.77-.59,0-.84.08-.47.27-.73.3-.54.07-.8.03-.55-.08-.79-.17-.51-.21-.73-.35-.38-.39-.56-.58-.24-.46-.38-.69-.38-.39-.47-.65-.22-.51-.25-.77-.03-.56,0-.82.1-.56.19-.8.34-.44.48-.66.43-.31.62-.49.25-.53.47-.67.46-.32.71-.4.54-.07.81-.1.51.28.77.32.59-.24.84-.15.33.49.55.64.48.2.66.39.54.26.67.48.09.55.17.81-.05.51-.02.78Z"/>
      <path class="cls-11" d="M131.73,130.88c.03.27.08.49.05.75s.03.53-.06.78-.14.52-.29.74-.49.26-.68.44-.17.63-.4.77-.59,0-.84.08-.47.27-.73.3-.54.07-.8.03-.55-.08-.79-.17-.51-.21-.73-.35-.38-.39-.56-.58-.24-.46-.38-.69-.38-.39-.47-.65-.22-.51-.25-.77-.03-.56,0-.82.1-.56.19-.8.34-.44.48-.66.43-.31.62-.49.25-.53.47-.67.46-.32.71-.4.54-.07.81-.1.51.28.77.32.59-.24.84-.15.33.49.55.64.48.2.66.39.54.26.67.48.09.55.17.81-.05.51-.02.78Z"/>
      <path class="cls-11" d="M149.73,229.91c.02.25.33.51.3.75s-.31.45-.4.68-.04.54-.17.75-.39.34-.56.51-.45.2-.67.33-.35.38-.59.45-.49.05-.74.08-.47-.12-.71-.15-.58.28-.81.19-.48-.23-.69-.37-.39-.35-.57-.53-.3-.42-.43-.63-.08-.5-.16-.74-.19-.45-.21-.7-.11-.51-.08-.75.03-.53.11-.76.22-.48.35-.68.47-.25.65-.43.21-.56.42-.68.6.12.83.04.43-.11.68-.13.49-.35.73-.32.41.37.64.45.62-.12.82.01.17.57.34.75.26.36.39.57.38.33.46.57.02.47.05.72Z"/>
      <path class="cls-11" d="M153.75,221.53c.03.27.21.53.16.78s-.21.49-.34.72-.24.5-.44.68-.53.13-.77.24-.45.2-.72.23-.57.3-.82.24-.5-.29-.73-.42-.51-.27-.68-.47-.09-.57-.19-.81-.48-.42-.51-.69.14-.56.19-.81.04-.59.17-.82.37-.44.57-.62.56-.1.8-.21.44-.37.71-.4.53.16.78.22.6-.05.83.08.43.37.6.57.37.43.48.67-.11.56-.09.83Z"/>
      <path class="cls-11" d="M131.83,142.13c.03.27.21.53.16.78s-.21.49-.34.72-.24.5-.44.68-.53.13-.77.24-.45.2-.72.23-.57.3-.82.24-.5-.29-.73-.42-.51-.27-.68-.47-.09-.57-.19-.81-.48-.42-.51-.69.14-.56.19-.81.04-.59.17-.82.37-.44.57-.62.56-.1.8-.21.44-.37.71-.4.53.16.78.22.6-.05.83.08.43.37.6.57.37.43.48.67-.11.56-.09.83Z"/>
      <path d="M57.65,150.07c-.57-.56-.88-1.37-.87-2.2.07-3.96-1.08-8.68-1.58-11.09,1.45,2.03,6.79,1.62,10.84.7,4.7-1.07,7.99-2.19,12.54-5.33,8.24-5.7,11.6-9.67,12.65-16.85.47-3.17-.59-5.9-1.4-7.43-.27-.51-.98-1.46-1.48-1.83.65-.36,1.22-.72,2.27-2.63,4.29-7.79.95-21.18-15.24-27.72-14.36-5.8-35.58-7.4-40.64-1.23-.87,1.06-5.6,2.61-6.9,3.47-4.88,3.25-7.95,8.07-10.92,13.14-4.93,8.42-7.58,14.3-7.51,21.21v.17c.04,3.43-.2,4.74-.34,5.21-1.31,1.17-3.64,4.8-6.54,27.09-2.09,16.04-3.08,29.06-2.22,32.4,2.32,9.04,7.97,16.07,12.3,21.64.1.13.2.28.19.48-.32,6.19,1.6,12.17,5.42,16.86,4.75,5.82,12.84,8.36,23.42,7.33,4.56-.44,8.33-1.43,10.23-1.99.52.07,1.84.99,2.41,1.39.5.35.93.65,1.37.89,7.09,3.79,22.9,9.36,35.15,8.17,6.55-.64,12.93-1.78,18.68-5.74,0,0,5.7-4.75,7.55-6.99,1.01-1.23,1.86-2.71,2.55-4.15.5-1.03-.89-1.94-1.64-1.07-.68.78-1.32,1.5-1.81,2-1.5,1.52-5.63,5.01-5.63,5.01-5.85,4.63-12.62,7.22-19.99,7.94-11.84,1.15-27.4-4.59-33.45-7.83-1.11-.59-3.49-2.81-5.51-2.62-.15.01-.3.04-.45.09-2.16.65-5.72,1.52-9.75,1.91-7.15.69-15.8-.1-20.8-6.24-3.49-4.28-4.7-9.55-4.74-14.83-.02-2.66-.68-2.41-1.29-3.24-2.66-3.63-7.23-8.43-9.78-15.43-.85-2.34-1.4-6.29-1.25-8.77.74-12.31,3.19-46.98,7.79-52.23.1-.11.66-.39.65.42-.03,2.65,1.85,4.64,1.91,4.23.16-1,0-3.39-.12-4.99-.23-2.79-1.39-2.49-1.29-7.15.12-5.92,2.01-10.97,7.1-19.67,3.05-5.21,5.79-9.4,10.09-12.22,1.43-.94,5.33-2.72,5.33-2.72,0,0,4.37-3.15,4.43-3.18,10.42-4.58,23.67-.17,32.13,2.58,14.3,4.65,22.5,16.12,17.11,25.93-1,1.83-3.14,1.91-4.13,1.66-.46-.12-1.07-.6-1.25-.56-.58.13-1.25,1.73-1.62,1.99,4.93-1.47,7.54,6.29,7.13,9.06-.89,6-4.66,10.2-12.17,15.07-4.4,2.86-8.79,5.31-12.76,5.69-4.28.42-6.02.5-7.72-2.11-.35-.55-.61-1.14-.78-1.77-4.34,2.38-3.08,3.88-3.08,3.88,0,0,1.68,5.78,1.56,11.98-.03,1.62.6,3.17,1.75,4.31,1.48,1.48,3.46,3.55,4.46,5.07,0,0,2.41,4.75,1.98,10.64-.33,4.47-1.92,10.76-3.39,13.53-.66,1.23,1.14,2.2,1.78,1.07,1.06-1.87,5.25-9.82,4.72-17.71s-4.71-11.85-4.71-11.85c-.77-.86-1.68-1.82-2.73-2.86Z"/>
      <path d="M58.97,81.39c13.25,1.49,29.8,6.97,23.99,23.64-.54,1.6-2.93.84-2.44-.78,5.55-15.83-11.12-17.47-21.75-22.13-.39-.15-.23-.8.2-.73h0Z"/>
      <path d="M49.87,89.36c8.36.58,18.86,4.07,24.15,10.95,2.41,3.05,2.48,7.73-.73,10.31,0,0-.89.72-.89.72-.44.36-.89.92-1.43,1.5-2.16,2.43-5.66,3.39-8.77,3.59-3.99.35-9.1.12-11.24-3.99-1.25-2.96-.17-6.33,3.25-6.86,1.21-.23,5.5-.62,5.09,1.08-.07.19-.2.33-.37.4-1.85,1.01-5.73-.13-5.82,2.68.14,4.15,5.77,4.07,8.89,3.91,2.67-.16,5.35-.55,7.31-2.47.5-.45.99-1.03,1.7-1.59,6.55-4.41-.25-10.87-5.13-13.24-2.5-1.33-5.18-2.38-7.91-3.27-2.74-.88-5.53-1.63-8.32-2.56-.65-.19-.46-1.22.21-1.17h0Z"/>
      <path d="M82.18,103.54c-1.4.02-2.84.33-4.19,1.12-9.14,5.31-12.78,10.85-11.08,14.65,1.22,2.73,1.83,3.43,4.65,3.89s2.33-1.12.5-1.54c-2.78-.63-3.85-.97-3.54-3.89.15-1.41,4.94-9.29,13.59-11.8.78-.23,1.59-.32,2.38-.26"/>
      <path d="M360.61,53.53c-7.87,5.97-21.74,10.26-14.2,22.48.82,1.46-1.34,2.73-2.22,1.29-5.83-9.55-.54-16.86,8.41-21.33,2.48-1.25,5.03-2.28,7.66-3.11.39-.13.69.43.34.67h0Z"/>
      <path d="M344.72,75.79c1.19-.24,2.46-.24,3.74.18,8.67,2.82,12.74,6.83,12.01,10.34-.53,2.52-.92,3.23-3.22,4.13-2.3.9-2.17-.52-.7-1.2,2.23-1.04,3.07-1.52,2.28-3.92-.38-1.16-5.86-6.94-13.6-7.49-.7-.05-1.4.02-2.06.21"/>
      <path class="cls-1" d="M144.96,290.77c-4.33-9.75-3.94-30.98-3.94-30.98,84.8,29.54,126.15,15.4,138.89,10.9s28.29-14.5,28.29-14.5l-10.7,15.13c23.38,1.74,31.04,10.56,33.36,13.12,4.62,5.07,6.92,15.02,5.84,21.08-2.22,12.41-11.64,34.73-11.64,34.73-7.42,5.32-25.1,0-25.1,0-2.59-18.9-.68-24.72-.68-29.27,0-1.1-13.19-.84-20.87-1.68-9.96-1.09-20.59-5.78-20.59-5.78-13.93,3.63-20.1,6.19-40.31,6.35s-27.73-1.88-27.73-1.88c-1.41,1.64-3.31,3.56-5.31,5.6-3.08,3.15-6.39,6.58-8.47,9.7-1.14,1.71-1.91,3.33-2.07,4.76-.58,5.37-1.33,11.19-2.08,16.53-1.49,10.6-2.99,19.31-3.24,18.83-14.29,4.7-31.96-4.92-31.96-4.92.16-5.11,1.06-12.65,1.99-18.79.37-2.48.75-4.73,1.09-6.51.16-.85.42-1.82.02-2.56-2.07-3.86-.21-12.39,3.25-14.61.59-.38.73-1.21.89-1.86,1.4-5.61,2.06-9.51,2.38-12.02s.29-3.65.29-3.65l-1.32-7.33c-5.76-15.3-4.22-29.26-4.22-29.26"/>
      <path class="cls-7" d="M297.5,271.32s-4.33,24.58-19.09,37.98c0,0-16.46-1.82-19.98-8.39,0,0,22.16-3.92,39.07-29.59Z"/>
      <path class="cls-7" d="M280.18,308.23s21.89,1.31,31.7.42c1.01-.09,1.64,1.07,1.02,1.88-3.43,4.49-10.12,15.21-8.56,28.94l-4.6-.55s-1.14-15.09.44-27.38c.14-1.06-20.01-3.31-20.01-3.31Z"/>
      <path d="M159.91,366.2c-12.04,0-23.39-6.08-23.98-6.41-.5-.27-.8-.8-.78-1.36.14-4.46.89-11.54,2.01-18.97.37-2.47.75-4.74,1.09-6.56l.06-.31c.08-.38.21-1.08.12-1.27-2.48-4.63-.37-13.93,3.76-16.58.03-.07.13-.48.19-.73l.06-.23c1.43-5.73,2.07-9.6,2.35-11.85.25-1.95.27-3.01.28-3.32l-1.28-7.07c-.03-.08-.06-.15-.08-.23l-.11.05c-1.06-2.38-1.84-5.39-2.42-8.59-2.52-11.03-1.77-19.78-1.65-20.95,0-1.18,0-1.93.01-2.08,0-.48.25-.93.64-1.2.4-.28.9-.34,1.35-.19,56.39,19.65,102.79,23.31,137.89,10.9,11.96-4.23,26.74-13.22,26.9-13.32.61-.38,1.4-.29,1.89.23.49.52.55,1.31.14,1.9l-8.11,11.96c21.58,2.18,29.09,10.46,31.62,13.25l.12.13c5.1,5.6,7.33,16.08,6.21,22.36-2.22,12.44-11.35,34.13-11.74,35.05-.11.25-.28.47-.51.63-7.92,5.69-25.66.44-26.41.22-.56-.17-.97-.65-1.05-1.23-2-14.57-1.35-21.44-.92-25.98.09-.95.17-1.77.21-2.51-1.61-.24-5.32-.39-8.39-.51-3.7-.14-7.89-.31-11.11-.66-8.98-.98-18.31-4.75-20.54-5.69-1.78.47-3.43.91-5,1.34-10.62,2.88-17.64,4.78-35.18,4.93-16.51.15-24.62-1.19-27.2-1.72-1.21,1.35-2.68,2.85-4.22,4.43l-.55.56c-3.26,3.33-6.35,6.56-8.3,9.49-1.09,1.64-1.71,3.02-1.83,4.09-.54,5-1.27,10.73-2.09,16.57-2.79,19.84-3.21,19.91-4.45,20.12-.02,0-.04,0-.06,0-2.91.92-5.93,1.29-8.91,1.29ZM138.18,357.58c3.51,1.72,17.6,8.03,29.28,4.61.46-1.98,1.57-8.41,2.89-17.82.82-5.81,1.54-11.51,2.08-16.48.17-1.58.93-3.35,2.31-5.43,2.09-3.14,5.29-6.49,8.65-9.92l.55-.56c1.77-1.81,3.45-3.52,4.69-4.97.38-.44.98-.62,1.53-.47.07.02,7.67,2,27.32,1.83,17.16-.14,24.03-2,34.42-4.82,1.73-.47,3.55-.96,5.53-1.48.33-.09.67-.06.99.08.1.05,10.54,4.62,20.14,5.67,3.12.34,7.25.5,10.9.64,9.36.36,11.31.44,11.31,2.53,0,1.16-.11,2.37-.25,3.77-.41,4.31-1.01,10.76.78,24.32,5.25,1.43,17.11,3.63,22.54.18,1.28-3.08,9.38-22.81,11.38-34,.97-5.46-1.03-14.93-5.47-19.81l-.12-.13c-2.43-2.68-9.84-10.84-32.25-12.5-.54-.04-1.01-.37-1.25-.86s-.18-1.06.13-1.51l6.57-9.29c-5.83,3.38-14.78,8.23-22.43,10.94-5.91,2.09-19.76,6.99-42.89,7.4-27.55.47-59.49-5.43-95-17.61.02,3.91.24,12.62,1.55,20.07.62,2.78,1.46,5.7,2.57,8.66.03.09.06.17.07.26l1.32,7.33c.01.07.02.15.02.22,0,.13.03,1.3-.3,3.88-.43,3.38-1.24,7.48-2.42,12.19l-.05.2c-.18.75-.45,1.89-1.49,2.56-2.78,1.79-4.45,9.47-2.74,12.64.61,1.13.36,2.37.18,3.27l-.05.28c-.34,1.79-.71,4.02-1.08,6.46-1.03,6.8-1.74,13.29-1.94,17.66Z"/>
      <path d="M189.89,307.52c1.48-.86,2.8-.52,4.32-.34,1.4.16,2.81.29,4.22.4,8.47.56,17.05.79,25.52.33,11.16-.59,22.59-3.38,33.5-5.85,1.85-.41,2.61,2.35.74,2.91-11.11,3.09-22.44,5.81-34.03,6.48-5.81.28-11.56.12-17.35-.14-5.05-.3-10.16-.56-15.14-1.51-.66-.16-3-1.45-1.77-2.29h0Z"/>
      <path class="cls-7" d="M298.33,269.04c-10.17,5.49-102.6,13.82-127.72,8.9-1-.2-1.56.87-2.04,1.77-.84,1.59,29.2,24.09,27.12,27.66,0,0,35.87,3.8,59.68-4.62,15.75-5.57,22.2-10.63,24.77-13.41.69-.74,19.08-20.78,18.18-20.29Z"/>
      <path class="cls-1" d="M143,282.95s.79,6.25-1.81,18.35c-1.19,5.53-3.71,10.75-4.54,15.63-.69,4.06-1.28,15.29-1.28,19.06,0,6.28,1.5,15.31,1.28,22.48,0,0,17.67,9.62,31.96,4.92.37.73,7.69-19.11,9.43-35.14.62-5.7,16.83-15.91,19.66-24.55"/>
      <path class="cls-7" d="M142.23,274.07s.22,2.94,1.46,7.45c1.57,5.69,0,9.81-.45,16.34,0,0,3.89-3.08,13.68-2.51s20.94,7.25,28.01,11.34c3.38,1.96-6.08,15.55-4.87,15.4,2.61-.34,33.34-34.27,27.35-38.28-10.26-6.86-38.86-8.14-48.61-10.43-16.3-3.83-12.7-3.72-14.94-3.7-1.94.02-1.72.75-1.63,4.38Z"/>
      <path d="M144.33,282.79c.46,6.6-.61,13-1.97,19.42-1.45,6.29-4.42,11.81-4.78,18.27-.48,6.25-1.02,12.58-.68,18.87.39,6.27,1.35,12.62,1.22,19.19l-.77-1.34c9.32,4.53,20.54,7.9,30.79,4.79,0,0,1.8.74,1.8.74-.14-.4-.82-.81-1.2-.79-.43-.07-1.05.24-1.22.53.17-.3.52-1.12.66-1.46,3.96-10.49,6.95-21.52,8.34-32.64.23-2.46,2.07-4.57,3.54-6.26,1.99-2.18,4.08-4.13,6.15-6.08,3.93-3.79,8.5-7.57,10.68-12.59.18-.44.67-.65,1.11-.47,1.53.55-.96,4.26-1.41,5.12-2.34,3.69-5.49,6.8-8.49,9.88-2.01,2.03-4.07,3.98-5.87,6.05-1.21,1.49-2.51,2.84-2.73,4.68-1.11,9.33-3.47,18.41-6.35,27.31-1.02,2.8-1.76,5.75-3.3,8.33-.63.83-2.09.79-2.59-.23,0,0,1.8.74,1.8.74-2.8.91-5.71,1.32-8.59,1.36-5.73.06-11.36-1.17-16.72-3.05-2.67-.95-5.24-2.02-7.81-3.37-.51-.27-.79-.8-.77-1.34.17-6.19-.73-12.5-1.1-18.94-.31-6.44.27-12.87.8-19.29.35-6.4,3.42-12.52,4.87-18.61,1.28-6,2.34-12.35,1.93-18.47-.23-1.75,2.41-2.18,2.65-.34h0Z"/>
      <path class="cls-4" d="M281.69,423.49l-124.99,3.28c-6.27.03-9.17-13.19-3.62-16.1,0,0,15.57-8,41.71-8.79,24.12-.72,121.44-4.6,121.44-4.6,5.83.11,14.44,14.34,9.63,17.62,0,0-8.42,4.85-14.15,6.05-5.72,1.21-22.29,2.5-30.02,2.53Z"/>
      <path class="cls-7" d="M141.32,323.82c.38.46,6.6,11.03,14.83,4.29,0,0,3.7-1.5,3.86,4.66s-4.34,23.37-11.69,14.45c-1.73-2.1-3.35-4.25-4.28-6.65-2.77-7.17-5.47-18.55-2.74-16.75Z"/>
      <path d="M257.17,302.17c8.64-4.71,16.84-10.42,24.46-16.65,5.37-4.57,10.08-9.83,14.56-15.31,3.59-4.39,7.04-8.93,10.36-13.55.19-.29.59-.36.87-.16.25.18.33.52.18.79-6.87,12.7-16.03,24.28-27.31,33.36-6.77,5.5-13.92,10.36-21.82,14.23-.75.36-1.64.05-2-.7-.36-.75-.04-1.64.69-2h0Z"/>
      <g>
        <path class="cls-10" d="M137.22,261.75l.69,5.32c.11.84.68,1.54,1.47,1.81,7.69,2.62,48.36,15.66,91.76,14.02,44.85-1.69,69.61-16.01,72.86-18.01.24-.15.45-.34.61-.57l3.18-4.3c1.28-1.73-.4-4.08-2.45-3.43-12.92,4.14-43.23,12.36-79.3,12.06-40.38-.34-75.82-7.18-86.18-9.37-1.49-.32-2.84.94-2.65,2.45Z"/>
        <path d="M223.54,284.55c-40.67,0-77.34-11.76-84.64-14.25-1.34-.46-2.29-1.62-2.48-3.04l-.69-5.32h0c-.15-1.19.28-2.39,1.17-3.21.88-.81,2.11-1.15,3.28-.9,9.95,2.11,45.54,9.01,85.89,9.34.63,0,1.26,0,1.88,0,35.6,0,65.58-8.36,76.94-12,1.56-.5,3.19.04,4.14,1.37.96,1.34.94,3.05-.03,4.37l-3.18,4.3c-.29.39-.64.71-1.04.95-1.87,1.15-8.92,5.22-21.14,9.26-15.8,5.23-33.44,8.25-52.44,8.97-2.57.1-5.13.14-7.67.14ZM138.71,261.56l.69,5.32c.04.27.22.5.47.58,7.67,2.61,48.09,15.58,91.22,13.94,44.74-1.69,69.46-16.15,72.13-17.79.08-.05.14-.11.2-.18l3.18-4.29c.28-.38.1-.71,0-.84-.11-.16-.36-.4-.79-.26-11.71,3.75-42.89,12.44-79.76,12.14-40.62-.34-76.46-7.28-86.48-9.41-.31-.07-.53.08-.63.17-.1.09-.27.3-.22.62h0Z"/>
      </g>
      <g>
        <g>
          <path class="cls-3" d="M172.81,361.91c.57-2.14-1.18-4.18-3.39-4-6.61.55-19.04.19-31.82-7.5-1.85-1.12-4.26-.12-4.78,1.98l-3.56,36.15c-16.45-4.29-30.18.43-37.45,10.14-6.23,8.31-3.43,27.36,5.08,30.36-.49.74-.75,1.64-.66,2.59l.13,1.36c.21,2.21,2.18,3.82,4.38,3.61,0,0,29.93-1.26,64.38-8.77,2.17-.47,3.82-2.18,3.61-4.38l-.13-1.36c-.15-1.59-1.22-2.85-2.62-3.37.02-1.92-.14-1.39.01-3.19.87-12.41,3.11-39.62,6.81-53.61Z"/>
          <path d="M135.94,352.95s.07.01.11.03c11.13,6.69,22,8.1,29.17,8.1,1.5,0,3-.06,4.48-.18.09,0,.15.05.18.09.05.07.04.12.03.15-3.68,13.89-5.9,39.9-6.9,54.12-.1,1.14-.09,1.55-.05,2.16.02.26.03.56.03,1.26l-.02,2.11,1.98.73c.29.11.62.39.67.84l.13,1.36c.07.69-.8,1.06-1.26,1.16-33.78,7.37-63.57,8.69-63.87,8.71h-.08s-.08.01-.08.01c-.03,0-.07,0-.1,0-.51,0-.96-.4-1.01-.92l-.13-1.36c-.02-.22.04-.44.18-.64l2.12-3.21-3.62-1.28c-2.16-.76-4.15-3.55-5.33-7.45-1.98-6.53-1.27-14.39,1.65-18.28,5.09-6.79,13.32-10.53,23.18-10.53,3.57,0,7.31.5,11.12,1.5l3.4.89.34-3.5,3.53-35.81c.06-.08.16-.08.17-.08M135.94,349.95c-1.41,0-2.75.94-3.12,2.44l-3.56,36.15c-4.15-1.08-8.13-1.59-11.87-1.59-11.1,0-20.14,4.47-25.58,11.73-6.23,8.31-3.43,27.36,5.08,30.36-.49.74-.75,1.64-.66,2.59l.13,1.36c.2,2.08,1.95,3.63,3.99,3.63.13,0,.26,0,.39-.02,0,0,29.93-1.26,64.38-8.77,2.17-.47,3.82-2.18,3.61-4.38l-.13-1.36c-.15-1.59-1.22-2.85-2.62-3.37.02-1.92-.14-1.39.01-3.19.87-12.41,3.11-39.62,6.81-53.61.54-2.05-1.04-4.01-3.11-4.01-.09,0-.18,0-.28.01-1.22.1-2.63.17-4.2.17-6.99,0-17.19-1.39-27.62-7.67-.53-.32-1.1-.46-1.66-.46h0Z"/>
        </g>
        <g>
          <path class="cls-8" d="M145.25,374.71c1.15-.53,2.34-.41,3.53-.75.73-.29.76-1.29,0-1.81,0,0-.77-.64-1.14-.79-.64-.27-1.16-.6-1.79-.83-.51-.19-1-.4-1.52-.54-.98-.23-.8-.92-.8-1.74-.09-1.27-.07-2.56-.16-3.81-.02-.3-.06-.63-.22-.88-.24-.38-.78-.49-1.19-.26-.43.24-.7.69-.96,1.09-.65,1-1.2,2.09-1.76,3.13-.21.39-.37.91-.76,1.17-.38.19-.8.08-1.18.08-.75-.04-1.51-.04-2.25.02-.76.06-1.63-.02-2.38.48-.39.29-.61.82-.49,1.2.07.23.24.41.4.55.37.31.73.65,1.14.93.6.42,1.11.98,1.7,1.42.27.2.54.5.4.95-.11.39-.37.84-.51,1.25-.46,1.3-1.16,2.55-1.57,3.86-.36,1.3.48,1.72,1.4.9,1.01-.81,2.02-1.68,3.12-2.29.58-.38,1.06-.8,1.53-.14.57.73,1.11,1.47,1.69,2.21.51.56.89,1.33,1.52,1.74.35.2.75,0,.93-.38.19-.42.15-.94.15-1.4.01-1.46-.1-2.94-.2-4.41,0-.78.9-.69,1.38-.95Z"/>
          <path d="M142.39,363.16c.3-.01.6.12.76.38.16.25.2.58.22.88.1,1.26.07,2.55.16,3.81,0,.82-.17,1.52.8,1.74.52.14,1.01.35,1.52.54.63.24,1.15.56,1.79.83.36.16,1.14.79,1.14.79.75.51.73,1.52,0,1.81-1.18.33-2.37.22-3.53.75-.48.26-1.38.17-1.38.95.1,1.46.21,2.94.2,4.41,0,.47.04.98-.15,1.4-.13.29-.39.47-.66.46-.09,0-.18-.03-.27-.08-.63-.4-1.01-1.18-1.52-1.74-.58-.73-1.13-1.48-1.69-2.21-.21-.29-.42-.37-.64-.34-.28.04-.57.27-.9.48-1.1.61-2.11,1.48-3.12,2.29-.2.18-.4.3-.58.36-.64.23-1.1-.25-.82-1.27.41-1.32,1.11-2.56,1.57-3.86.15-.42.4-.86.51-1.25.14-.44-.13-.74-.4-.95-.61-.44-1.11-1.01-1.7-1.42-.41-.28-.77-.62-1.14-.93-.17-.14-.33-.31-.4-.55-.12-.38.1-.91.49-1.2.13-.09.26-.16.4-.21.65-.27,1.35-.21,1.98-.27.75-.05,1.5-.06,2.25-.02.29,0,.61.07.92,0,.09-.02.17-.05.26-.09.39-.25.54-.77.76-1.17.56-1.06,1.12-2.13,1.76-3.13.27-.4.53-.86.96-1.09.14-.08.28-.12.43-.13M142.22,360.06c-.69.04-1.37.26-1.96.63-1.09.67-1.64,1.6-1.97,2.15-.03.05-.05.08-.08.14-.54.91-.98,1.79-1.4,2.65-.39,0-.8,0-1.27.03-.01,0-.02,0-.04,0-.02,0-.02,0-.04,0-.14.01-.28.01-.42.01-.61.02-1.44.06-2.38.46-.38.16-.75.37-1.1.62-.04.03-.06.04-.09.07-.04.03-.05.04-.09.07-1.79,1.43-2.6,3.87-2.04,5.47.25.75.72,1.16,1.05,1.41.08.06.12.09.2.15.33.26.71.56,1.16.83.17.11.38.27.59.44.06.05.11.09.17.14-.15.43-.35.92-.56,1.43-.28.71-.59,1.51-.83,2.37,0,.03-.01.04-.02.06,0,.03,0,.04-.02.06-.4,1.65-.11,3.01.73,3.82.79.75,1.94.92,3.15.52.56-.18,1.1-.48,1.61-.89.42-.31.82-.61,1.21-.89.29-.21.56-.4.84-.58.24.29.48.58.74.88.03.03.04.05.07.08.03.03.04.04.07.08.06.06.18.21.28.33.41.52,1.03,1.32,2,1.9.03.02.05.03.08.05.03.02.05.03.08.04.47.25.99.39,1.5.42,1.27.07,2.41-.55,3.01-1.75.46-.91.48-1.87.49-2.44,0-.06,0-.13,0-.19.03-1.04.01-2.05-.02-3.04.28-.08.61-.12,1.01-.15.64-.06,1.36-.1,2.15-.28.04,0,.06-.01.1-.02.04-.01.06-.02.1-.03,1.31-.43,2.1-1.63,2.05-3.27-.05-1.5-.82-3.11-2.09-4.13-.73-.64-1.37-1.06-1.89-1.29-.2-.09-.42-.21-.67-.34-.29-.15-.61-.32-1-.47,0-.29,0-.59,0-.9,0-.7,0-1.43-.04-2.19-.03-.64-.12-1.5-.64-2.38-.76-1.33-2.22-2.18-3.79-2.08h0Z"/>
        </g>
        <path class="cls-9" d="M144.79,400.91c-6.44-7.71-16.32-12.45-31.22-10.85,0,0-5.31.95-4.74,2.92.61,2.11,4.47,3.46,9.36,3.14,9.15-.61,21.83,3.84,26.12,5.48.42.16.77-.35.48-.69Z"/>
        <path class="cls-9" d="M92.38,414.97c-.18-.33-.68-.16-.62.21.71,4.2,3.26,14.03,11.61,13.22,7.71-.75,10.91-1.01,15.91-1.49.66-.06,1.38-.64-.25-.61-5.49.12-11.63.15-14.47-.28-1.54-.24-5.92-1.6-7.97-4.19-1.43-1.81-3.19-4.94-4.22-6.85Z"/>
      </g>
      <g>
        <g>
          <path class="cls-3" d="M367.68,398.44c4.17-7.89,3.55-17.92-2.99-23.58-4.28-3.7-18.44-8.42-38.22-1.54l4.49-35.49c.17-.94-.75-1.95-2.74-1.29-17.49,5.85-22.17.02-29.04,1.22-2.84.5-3.11,2.62-3.43,4.74-2.11,13.84-8.64,39.56-4.28,53.85,0,.03.03.05.05.08-1.78.55-3,2.29-2.81,4.22l.13,1.36c.21,2.21,2.18,3.82,4.38,3.61l38.84,3.8c6.1.6,11.22.34,17.32-.23,0,0,11.38-1.23,15.51-1.97,5.21-.92,6.91-3.3,6.73-5.18-.17-1.75-1.93-3.54-3.96-3.6Z"/>
          <path d="M327.69,339.87l-4.19,33.08-.61,4.8,4.57-1.59c6.38-2.22,12.61-3.34,18.52-3.34,9.3,0,15.02,2.83,16.75,4.32,5.1,4.41,6.07,12.79,2.3,19.91l-2.26,4.27,4.83.13c.49.01,1.02.62,1.05.85-.05.25-.96,1.39-4.27,1.97-3.99.71-15.2,1.93-15.27,1.93-4.17.39-7.18.56-10.05.56-2.26,0-4.45-.11-6.7-.33l-38.84-3.8-.29-.03-.29.03s-.07,0-.1,0c-.51,0-.96-.4-1.01-.92l-.13-1.36c-.05-.54.32-.95.71-1.07l4.17-1.31-2.38-3.02c-3.01-10.78.35-28.96,2.82-42.29.65-3.54,1.27-6.89,1.71-9.72l.02-.13c.3-1.99.37-2,.97-2.11.48-.08.95-.12,1.46-.12,1.32,0,2.73.28,4.36.6,2.22.44,4.99.99,8.5.99,4.14,0,8.62-.76,13.66-2.33M329.4,336.33c-.34,0-.73.06-1.18.21-6.06,2.03-10.59,2.65-14.2,2.65-5.77,0-9.21-1.6-12.86-1.6-.65,0-1.3.05-1.98.17-2.84.5-3.11,2.62-3.43,4.74-2.11,13.84-8.64,39.56-4.28,53.85,0,.03.03.05.05.08-1.78.55-3,2.29-2.81,4.22l.13,1.36c.2,2.08,1.95,3.63,3.99,3.63.13,0,.26,0,.39-.02l38.84,3.8c2.45.24,4.74.34,6.99.34,3.37,0,6.68-.23,10.33-.57,0,0,11.38-1.23,15.51-1.97,5.21-.92,6.91-3.3,6.73-5.18-.17-1.75-1.93-3.54-3.96-3.6,4.17-7.89,3.55-17.92-2.99-23.58-2.69-2.33-9.28-5.05-18.71-5.05-5.58,0-12.16.95-19.51,3.51l4.49-35.49c.13-.73-.39-1.5-1.56-1.5h0Z"/>
        </g>
        <path class="cls-9" d="M316.03,384.91c6.48-7.68,14.72-12.13,31.78-11.47,4.83.19,4.79,1.74,4.21,3.7-.62,2.11-4.48,3.44-9.37,3.1-9.15-.65-21.85,3.75-26.15,5.36-.42.16-.76-.35-.48-.69Z"/>
        <g>
          <path class="cls-8" d="M316.62,358.34c-.25,1.46-.5,2.93-.61,4.39-.04.47-.12.98.03,1.42.14.4.49.65.84.5.63-.32,1.05-1.05,1.58-1.55.62-.67,1.21-1.35,1.83-2.02.52-.61.95-.13,1.48.32,1.02.75,1.93,1.75,2.87,2.69.85.94,1.73.59,1.48-.79-.3-1.4-.88-2.75-1.2-4.12-.1-.44-.31-.92-.37-1.33-.09-.47.22-.75.51-.93.65-.4,1.23-.93,1.88-1.31.44-.26.86-.57,1.27-.86.19-.13.38-.3.48-.53.17-.38.01-.94-.34-1.26-.69-.57-1.58-.56-2.33-.68-.73-.12-1.49-.19-2.23-.21-.37-.04-.8.04-1.14-.19-.35-.29-.42-.83-.58-1.25-.4-1.11-.76-2.27-1.23-3.34-.19-.43-.38-.92-.75-1.2-.36-.27-.88-.23-1.18.14-.19.24-.28.57-.35.87-.28,1.26-.46,2.57-.72,3.83-.12.83-.05,1.55-1,1.67-.51.08-1,.24-1.5.38-.62.17-1.14.43-1.77.63-.36.11-1.14.66-1.14.66-.75.43-.84,1.43-.2,1.8,1.05.47,2.16.5,3.19,1.17.42.32,1.28.33,1.19,1.12Z"/>
          <path d="M319.47,345.9c.22-.03.45.03.63.18.38.28.55.77.75,1.2.47,1.08.84,2.21,1.23,3.34.16.42.23.96.58,1.25.21.15.46.17.71.18.1,0,.2,0,.29,0,.05,0,.09,0,.14,0,.18,0,.36.02.53.03.57.04,1.13.1,1.7.19.07.01.14.02.22.03.27.04.55.06.82.11.45.08.9.21,1.29.53.35.32.52.88.34,1.26-.1.24-.29.39-.48.53-.42.29-.83.61-1.27.86-.65.38-1.22.91-1.88,1.31-.29.18-.6.46-.51.93.07.41.27.89.37,1.33.32,1.38.9,2.72,1.2,4.12.17.93-.18,1.39-.68,1.31-.24-.04-.53-.21-.81-.52-.94-.94-1.85-1.94-2.87-2.69-.36-.31-.67-.63-.99-.61-.16,0-.31.09-.48.29-.62.67-1.21,1.36-1.83,2.02-.53.5-.95,1.23-1.58,1.55-.03.01-.07.02-.1.03-.32.07-.62-.17-.75-.54-.15-.44-.06-.95-.03-1.42.12-1.47.36-2.93.61-4.39.09-.78-.77-.79-1.19-1.12-1.02-.67-2.14-.69-3.19-1.17-.64-.37-.55-1.38.2-1.8,0,0,.74-.52,1.11-.65.01,0,.02,0,.03-.01.08-.03.16-.05.23-.08.5-.18.95-.38,1.45-.53.03,0,.06-.02.09-.02.06-.02.12-.03.18-.05.27-.08.55-.16.82-.22.16-.04.33-.08.5-.1.05,0,.1-.02.15-.03.8-.17.74-.86.85-1.65.26-1.27.42-2.57.72-3.83.07-.3.15-.63.35-.87.14-.18.34-.28.55-.31M319.23,342.77h0c-1.11.16-2.1.79-2.79,1.71-.63.84-.86,1.69-.98,2.34-.16.76-.26,1.5-.37,2.21-.04.31-.09.61-.13.9-.02,0-.03,0-.05.02-.36.11-.67.23-.94.34-.18.07-.36.15-.55.22-.04.01-.07.03-.11.04-.03,0-.04.01-.06.02-.04.01-.06.02-.1.04-.59.22-1.26.66-1.76,1.02-1.29.87-2.19,2.39-2.39,3.88-.22,1.62.38,2.91,1.53,3.5.03.02.05.03.09.05.04.01.06.02.09.04.7.28,1.36.41,1.94.54.36.09.67.17.92.28-.12.98-.23,1.97-.28,2.98,0,.1,0,.16-.01.22-.04.57-.09,1.52.27,2.48.6,1.6,2.07,2.42,3.59,2.13.18-.04.37-.09.55-.16.03-.01.05-.02.08-.03.03-.02.05-.02.08-.04.96-.44,1.61-1.16,2.04-1.64.11-.12.23-.25.29-.3.03-.03.05-.04.08-.07.03-.03.04-.04.07-.07.27-.27.53-.54.79-.8.25.22.51.45.77.7.36.34.73.7,1.12,1.06.77.78,1.66,1.28,2.54,1.44,1,.18,1.93-.11,2.56-.86.69-.82.97-2.09.74-3.6,0-.03,0-.04-.01-.07,0-.03,0-.04-.01-.07-.17-.91-.41-1.77-.63-2.52-.16-.54-.31-1.05-.42-1.52.06-.04.13-.09.19-.13.24-.16.46-.31.67-.42.48-.24.9-.52,1.27-.77.08-.05.12-.08.2-.13.39-.25.92-.65,1.28-1.39.77-1.6.25-4.13-1.37-5.71-.03-.03-.05-.05-.08-.08-.03-.03-.05-.04-.08-.07-1.04-.91-2.11-1.18-2.83-1.3-.17-.03-.35-.05-.52-.07-.11-.01-.22-.02-.33-.04-.04,0-.06,0-.09-.01-.01,0-.02,0-.04,0-.01,0-.02,0-.04,0-.42-.06-.84-.1-1.26-.14-.28-.91-.58-1.84-.95-2.78-.03-.07-.04-.11-.07-.18-.23-.59-.62-1.58-1.55-2.36-.82-.69-1.88-1-2.95-.85h0Z"/>
        </g>
        <path class="cls-9" d="M301.64,340.62l8.28,1.54c.78.14,1.19,1,.83,1.7,0,0-6.66,4.86-9.27,10.95-1.93,4.52-5.56,14.87-7.31,19.94-.11.32-.58.19-.53-.14l4.86-31.75c.23-1.5,1.65-2.51,3.14-2.23Z"/>
      </g>
      <path d="M367.4,401.22c-4.42,1.18-8.79,1.49-13.3,1.65-1.47.04-2.93.04-4.4.02-.37,0-.66-.31-.66-.67,0-.35.28-.63.62-.65,2.87-.23,5.74-.56,8.57-1.06,2.73-.5,5.68-1.14,8.21-2.11,1.94-.72,2.95,2.23.96,2.84h0Z"/>
      <g>
        <path class="cls-8" d="M222.46,271.08v9.07c0,2.81,2.35,5.06,5.16,4.93l18.17-.85c2.63-.12,4.7-2.29,4.7-4.93v-8.21c0-2.72-2.21-4.93-4.93-4.93h-18.17c-2.72,0-4.93,2.21-4.93,4.93ZM240.92,279.04l-8.79.41c-.64.03-1.18-.48-1.18-1.12v-5.24c0-.62.5-1.13,1.13-1.13h8.79c.62,0,1.13.5,1.13,1.13v4.83c0,.6-.47,1.1-1.07,1.12Z"/>
        <path d="M227.38,286.58c-1.66,0-3.22-.62-4.43-1.78-1.28-1.22-1.99-2.88-1.99-4.65v-9.07c0-3.55,2.88-6.43,6.43-6.43h18.17c3.55,0,6.43,2.88,6.43,6.43v8.21c0,3.44-2.69,6.26-6.13,6.42l-18.17.85c-.1,0-.21,0-.31,0ZM227.39,267.65c-1.89,0-3.43,1.54-3.43,3.43v9.07c0,.95.38,1.83,1.06,2.48.68.65,1.59.98,2.53.95l18.17-.85c1.83-.09,3.27-1.59,3.27-3.43v-8.21c0-1.89-1.54-3.43-3.43-3.43h-18.17ZM232.08,280.95c-.67,0-1.33-.26-1.81-.73-.52-.49-.81-1.19-.81-1.9v-5.24c0-1.45,1.18-2.63,2.63-2.63h8.79c1.45,0,2.63,1.18,2.63,2.63v4.83c0,1.41-1.1,2.56-2.5,2.62l-8.79.41s-.08,0-.12,0ZM232.45,273.46v4.48l8.04-.38v-4.1h-8.04ZM240.85,277.54h0,0Z"/>
      </g>
      <g>
        <path class="cls-7" d="M175.93,281.28l-4.77-1.28c-1.03-.28-1.74-1.21-1.74-2.27v-14.4c0-1.45,1.3-2.55,2.73-2.32l4.77.78c1.14.19,1.97,1.17,1.97,2.32v14.91c0,1.55-1.47,2.67-2.96,2.27Z"/>
        <path d="M176.55,282.86c-.34,0-.67-.04-1.01-.13l-4.77-1.28c-1.68-.45-2.85-1.98-2.85-3.72v-14.4c0-1.13.49-2.2,1.36-2.93.86-.73,2-1.05,3.11-.87l4.77.78c1.87.31,3.23,1.9,3.23,3.8v14.91c0,1.21-.55,2.32-1.51,3.05-.68.52-1.5.8-2.33.8ZM171.77,262.48c-.26,0-.45.12-.54.2-.11.09-.3.3-.3.65v14.4c0,.38.26.72.63.82l4.77,1.28c.35.09.61-.05.74-.15.12-.09.33-.31.33-.67v-14.91c0-.42-.3-.77-.71-.84l-4.77-.78s-.1-.01-.14-.01Z"/>
      </g>
      <g>
        <path class="cls-7" d="M277.03,277.71l3.48-.93c1.03-.28,1.74-1.21,1.74-2.27v-11.81c0-1.45-1.3-2.55-2.73-2.32l-3.48.57c-1.14.19-1.97,1.17-1.97,2.32v12.17c0,1.55,1.47,2.67,2.96,2.27Z"/>
        <path d="M276.41,279.29c-.83,0-1.65-.27-2.33-.8-.96-.73-1.51-1.85-1.51-3.05v-12.17c0-1.9,1.36-3.49,3.23-3.8l3.48-.57c1.11-.18,2.25.13,3.11.87.86.73,1.36,1.8,1.36,2.93v11.81c0,1.74-1.17,3.27-2.85,3.72l-3.48.94c-.33.09-.67.13-1.01.13ZM279.91,261.85s-.09,0-.14.01l-3.48.57c-.41.07-.71.42-.71.84v12.17c0,.36.21.58.33.67.12.1.39.24.74.15l3.48-.94c.37-.1.63-.44.63-.82v-11.81c0-.34-.19-.55-.3-.65-.09-.08-.28-.2-.54-.2Z"/>
      </g>
      <path class="cls-11" d="M226.11,74.6c-.08.22-.09.42-.26.6s-.2.42-.46.56-.48.33-.82.42-.94-.06-1.34-.02-.58.4-1.02.38-.98-.32-1.44-.39-.9-.04-1.37-.16-.94-.24-1.36-.4-.88-.35-1.25-.55-.76-.44-1.06-.66-.45-.5-.67-.75-.2-.49-.32-.74-.46-.51-.48-.75-.14-.51-.06-.73.21-.45.38-.63.42-.38.68-.52.77-.16,1.11-.25.87,0,1.27-.04.66-.27,1.1-.26.92,0,1.38.07.94.24,1.41.36.72.49,1.14.66,1.1.13,1.47.33.33.56.63.79.7.41.92.65.78.49.91.73-.11.47-.09.71-.32.37-.4.59Z"/>
      <path d="M213.4,71.75c3.01,4.47,8.63,5.54,13.36,3.25.83-.39,1.5.82.73,1.31-5,3.67-12.58,1.63-15.39-3.8-.45-.84.79-1.56,1.3-.76h0Z"/>
      <g>
        <g>
          <path class="cls-1" d="M220.09,71.38s-2.01-13.88-8.99-17.67c-6.98-3.8-14.3-2.26-14.3-2.26,0,0-3.03-13.8,6.56-15.19,2.77-.4,15.82,3.06,17.11,14.83.3,2.72,3.02,19.43,3.02,19.43l-3.38.86Z"/>
          <path d="M220.09,72.88c-.29,0-.58-.09-.83-.25-.35-.24-.59-.61-.65-1.03-.02-.13-1.99-13.18-8.23-16.57-6.38-3.47-13.21-2.12-13.28-2.11-.81.16-1.59-.35-1.77-1.15-.07-.34-1.78-8.35,1.65-13.31,1.43-2.06,3.5-3.3,6.15-3.69,2.25-.33,7.72,1.03,12.11,4.43,3.88,3,6.19,7.05,6.7,11.72.29,2.65,2.98,19.19,3.01,19.36.12.77-.36,1.5-1.11,1.69l-3.38.86c-.12.03-.25.05-.37.05ZM200.52,49.64c2.96,0,7.17.51,11.29,2.75,6.12,3.33,8.67,13.2,9.47,17.14l.49-.12c-.66-4.06-2.56-15.85-2.81-18.15-.43-3.89-2.29-7.15-5.56-9.67-3.96-3.07-8.7-3.99-9.84-3.83-1.82.26-3.17,1.06-4.11,2.42-1.97,2.84-1.71,7.35-1.42,9.6.66-.07,1.5-.12,2.49-.12Z"/>
        </g>
        <g>
          <path class="cls-1" d="M220.7,71.22s53.98.26,65.62-19.95c9.73-16.89,1.56-36.21-1.21-42.34-.56-1.25-3.57-8.39-4.46-7.32-2.84,3.41-12.78,29.91-41.62,49.46-18.95,12.84-18.33,20.16-18.33,20.16Z"/>
          <path d="M220.76,72.72h-1.44s-.12-1.37-.12-1.37c-.07-.84-.14-8.57,18.99-21.53,23.07-15.63,34.01-36,38.68-44.7,1.2-2.24,2-3.71,2.63-4.48.4-.48,1.01-.72,1.62-.63,1.27.18,2.31,1.35,5.17,7.85l.2.45c9.53,21.2,5.88,35.47,1.14,43.71-5.06,8.79-17.93,14.94-38.23,18.28-14.37,2.37-27.59,2.42-28.63,2.42ZM281,3.84c-.41.72-.91,1.65-1.48,2.71-4.78,8.89-15.96,29.72-39.64,45.76-12.94,8.77-16.41,14.8-17.34,17.39,9.45-.19,52.6-2,62.49-19.18,4.39-7.63,7.74-20.93-1.27-40.98l-.21-.47c-1.24-2.82-2.04-4.38-2.54-5.24Z"/>
        </g>
        <path d="M267.83,37.36c.41-.44.82-.91.73-1.28-.09-.36-.62-.51-1.01-.11-12.92,12.83-17.63,20.63-45.08,30.54-3.98,1.44-4.38,6.31.48,4.69,26.21-8.71,32.32-20.36,44.88-33.83Z"/>
        <polygon class="cls-7" points="196.79 51.45 205.79 41.1 207.46 36.74 201.85 35.86 196.62 43.47 196.79 51.45"/>
        <path d="M204.08,36.35c.7.59,1.79,1.33,2.49,2.25.66.81.91,2.17.5,3.12-.77,1.87-1.88,2.71-3.13,3.99-2.22,2.07-4.51,3.96-6.79,5.88,2.16-2.99,4.45-5.9,6.23-9.09.31-.59,1.46-2.99.48-3.13-.46-.07-3.06-1.96-2.42-2.61l2.64-.41h0Z"/>
        <path d="M220.09,72.88c-.29,0-.58-.09-.83-.25-.35-.24-.59-.61-.65-1.03-.02-.13-1.99-13.18-8.23-16.57-6.38-3.47-13.21-2.12-13.28-2.11-.81.16-1.59-.35-1.77-1.15-.07-.34-1.78-8.35,1.65-13.31,1.43-2.06,3.5-3.3,6.15-3.69,2.25-.33,7.72,1.03,12.11,4.43,3.88,3,6.19,7.05,6.7,11.72.29,2.65,2.98,19.19,3.01,19.36.12.77-.36,1.5-1.11,1.69l-3.38.86c-.12.03-.25.05-.37.05ZM200.52,49.64c2.96,0,7.17.51,11.29,2.75,6.12,3.33,8.67,13.2,9.47,17.14l.49-.12c-.66-4.06-2.56-15.85-2.81-18.15-.43-3.89-2.29-7.15-5.56-9.67-3.96-3.07-8.7-3.99-9.84-3.83-1.82.26-3.17,1.06-4.11,2.42-1.97,2.84-1.71,7.35-1.42,9.6.66-.07,1.5-.12,2.49-.12Z"/>
      </g>
    </g>
  </g>
</svg>