<?xml version="1.0" encoding="UTF-8"?>
<svg id="Layer_2" data-name="Layer 2" xmlns="http://www.w3.org/2000/svg" viewBox="0 0 426.51 690.89">
  <defs>
    <style>
      .cls-1 {
        fill: #ed69b4;
      }

      .cls-2 {
        fill: #7e469b;
      }

      .cls-3 {
        fill: #cecece;
      }

      .cls-4 {
        fill: #f2be3b;
      }

      .cls-5 {
        fill: #ff007a;
      }

      .cls-6 {
        fill: #fff;
      }

      .cls-7 {
        fill: #ffd246;
      }

      .cls-8 {
        fill: #a85ae5;
      }

      .cls-9 {
        fill: #ffe6eb;
      }

      .cls-10 {
        fill: #e0c1c9;
      }

      .cls-11 {
        fill: #ff97ce;
      }

      .cls-12 {
        fill: #bf0868;
      }
    </style>
  </defs>
  <g id="Layer_1-2" data-name="Layer 1">
    <g>
      <path class="cls-3" d="M255.8,676.61l-160.38-26.24c-8.01-1.49-8.36-19.68-.54-22.18,0,0,21.91-6.77,55.46-1.41,30.98,4.95,156.18,23.64,156.18,23.64,7.41,1.57,14.8,22.49,7.82,25.65,0,0-11.98,4.35-19.59,4.54-7.61.19-29.08-2.16-38.95-4Z"/>
      <g>
        <g>
          <path class="cls-5" d="M230.57,471.56c4.91-2.93,20.72-16.63,30.69-64.7,9.97-48.07,45.72-60.84,82.53-45.94,36.81,14.9,42.37,60.74,38.58,82.45-3.79,21.71-6.52,46.65,3.2,50.22s26.12-1.09,30.63-15.4c4.52-14.31,10.31,8.52,8.48,18.55-1.83,10.03-15.3,58.13-71.26,56.85s-56.89-54.6-55.85-67.26,3.47-31.22-7.07-35.67c-6.34-2.68-8.93,4.45-15.17,12.61-6.23,8.16-15.54,23.86-33.01,25.31s-11.78-17.02-11.78-17.02Z"/>
          <path d="M355.64,555.12c-.75,0-1.49,0-2.25-.03-18.02-.41-32.16-6.18-42.03-17.15-17.4-19.33-15.54-48.48-15.28-51.74.07-.88.15-1.78.23-2.7,1.02-11.71,2.42-27.75-6.39-31.47-3.67-1.55-5.62,1.01-9.69,6.95-1.08,1.58-2.31,3.37-3.7,5.18-.71.94-1.47,1.97-2.28,3.07-6.24,8.55-15.67,21.48-31.8,22.82-5.38.45-9.34-.85-11.76-3.85-4.45-5.54-1.7-14.71-1.58-15.1l.17-.55.5-.29c3.2-1.91,19.67-13.95,29.99-63.71,4.66-22.47,15.27-38.7,30.68-46.94,15.03-8.04,34.17-8.06,53.88-.09,38.24,15.48,43.12,63.34,39.5,84.09-5.2,29.76-4.45,46.1,2.24,48.55,5.04,1.85,11.7,1.27,17.37-1.52,3.91-1.92,9.04-5.72,11.31-12.92.5-1.57,2.02-6.36,5.28-5.55,5.07,1.26,7.38,17.81,6.11,24.82-.55,3.01-3.88,18.77-15.64,33.34-13.27,16.44-31.73,24.77-54.88,24.77ZM287.94,448.57c.97,0,2.02.22,3.16.7,10.82,4.57,9.31,21.86,8.21,34.49-.08.92-.16,1.82-.23,2.69-.26,3.13-2.04,31.09,14.52,49.48,9.3,10.33,22.71,15.77,39.87,16.16,23.23.53,41.64-7.42,54.72-23.63,11.54-14.29,14.7-30.22,15.02-31.99,1.44-7.89-1.89-20.44-3.81-21.35-.19.13-.9.79-1.76,3.52-2.02,6.41-6.59,11.63-12.85,14.71-6.39,3.14-13.94,3.77-19.73,1.65-8.6-3.15-9.88-19.16-4.16-51.88,3.49-19.98-1.13-66.01-37.67-80.8-18.88-7.64-37.11-7.66-51.34-.05-14.6,7.8-24.68,23.33-29.16,44.9-9.96,48.02-25.53,61.91-30.87,65.35-.46,1.85-1.75,8.17,1.19,11.83,1.75,2.17,4.84,3.09,9.17,2.73,14.77-1.23,23.35-13,29.62-21.59.82-1.12,1.59-2.18,2.31-3.13,1.34-1.76,2.49-3.44,3.6-5.06,3.16-4.62,5.98-8.72,10.18-8.72Z"/>
        </g>
        <path class="cls-12" d="M245.35,453.22c12.3-14.08,44.77-13.68,51.87-30.71,9.63-23.11,27.92-25.14,34.92-10.31,5.1,10.81,9.7,24.15,10.14,37.41.56,17.04-2.66,36.89,1.2,44.12,6.7,12.55,21.24,27.38,42.2,24.05s32.59-15.13,35.91-36.41c0,0,5.98,5.08,3.09,15.37s-14.62,42.22-34.97,49-44.91,11.16-66.54,0-26.56-45.49-25.6-59.41,4.85-34.14-7.07-35.67-18.17,21.97-25.01,25.48-20.15-22.92-20.15-22.92Z"/>
        <path d="M352.99,438.54c7.74,8.99,8.41,21.71,6.45,32.93,0,0-.69,3.74-.69,3.74-2.6,12.62,3.98,24.19,15.79,29.07,12.44,5.55,31.54.46,39.67-10.46.24-.35.72-.43,1.06-.19.33.23.41.68.2,1.02-2.84,4.43-7.12,7.7-11.72,10.03-9.2,4.59-20.65,6.37-30.32,2.19-9.89-3.92-17.38-13.49-17.59-24.31-.23-3.79.71-7.8,1.52-11.47.69-3.65,1.18-7.37,1.2-11.08.16-7.41-1.78-14.92-6.36-20.84-.17-.22-.12-.54.1-.71.22-.16.52-.12.69.08h0Z"/>
        <path d="M408.01,512.37c-7.97,9.2-19.06,16.32-31.43,17.16-9.19.97-19.65-1.29-25.5-9-1.92-2.47-3.28-5.32-4.17-8.28-.13-.43.11-.88.53-1.01.4-.12.82.08.98.46,1.19,2.66,2.68,5.14,4.56,7.25,9.52,10.6,28.17,9.2,39.88,2.94,5.08-2.77,10.05-6.26,14.17-10.31.51-.62,1.51.16.98.8h0Z"/>
        <path d="M283.25,395.98c4.67-7.42,9.52-15.12,16.74-20.42,10.06-7.98,24.26-7.73,33.37,1.6,2.08,2.18,3.91,4.77,4.49,7.87.06.34-.16.66-.49.72-.33.06-.64-.15-.72-.47-.76-2.61-2.54-4.91-4.59-6.77-12.55-10.7-26.36-6.36-36.87,4.77-2.92,2.94-5.81,6.59-8.42,9.85-.91,1.14-1.8,2.3-2.83,3.39-.17.18-.44.18-.62.02-.16-.15-.18-.4-.06-.57h0Z"/>
        <path d="M300.94,401.82c8.83-16.21,26.32-24.53,32.35-1.33.07.27-.09.55-.36.62-.25.07-.5-.06-.6-.29-.71-1.69-1.37-3.41-2.28-5-6.79-13.4-17.28-6.35-24.47,2.43-1.17,1.39-2.24,2.87-3.23,4.39-.55.85-1.89.08-1.41-.83h0Z"/>
        <path d="M355.64,555.12c-.75,0-1.49,0-2.25-.03-18.02-.41-32.16-6.18-42.03-17.15-17.4-19.33-15.54-48.48-15.28-51.74.07-.88.15-1.78.23-2.7,1.02-11.71,2.42-27.75-6.39-31.47-3.67-1.55-5.62,1.01-9.69,6.95-1.08,1.58-2.31,3.37-3.7,5.18-.71.94-1.47,1.97-2.28,3.07-6.24,8.55-15.67,21.48-31.8,22.82-5.38.45-9.34-.85-11.76-3.85-4.45-5.54-1.7-14.71-1.58-15.1l.17-.55.5-.29c3.2-1.91,19.67-13.95,29.99-63.71,4.66-22.47,15.27-38.7,30.68-46.94,15.03-8.04,34.17-8.06,53.88-.09,38.24,15.48,43.12,63.34,39.5,84.09-5.2,29.76-4.45,46.1,2.24,48.55,5.04,1.85,11.7,1.27,17.37-1.52,3.91-1.92,9.04-5.72,11.31-12.92.5-1.57,2.02-6.36,5.28-5.55,5.07,1.26,7.38,17.81,6.11,24.82-.55,3.01-3.88,18.77-15.64,33.34-13.27,16.44-31.73,24.77-54.88,24.77ZM287.94,448.57c.97,0,2.02.22,3.16.7,10.82,4.57,9.31,21.86,8.21,34.49-.08.92-.16,1.82-.23,2.69-.26,3.13-2.04,31.09,14.52,49.48,9.3,10.33,22.71,15.77,39.87,16.16,23.23.53,41.64-7.42,54.72-23.63,11.54-14.29,14.7-30.22,15.02-31.99,1.44-7.89-1.89-20.44-3.81-21.35-.19.13-.9.79-1.76,3.52-2.02,6.41-6.59,11.63-12.85,14.71-6.39,3.14-13.94,3.77-19.73,1.65-8.6-3.15-9.88-19.16-4.16-51.88,3.49-19.98-1.13-66.01-37.67-80.8-18.88-7.64-37.11-7.66-51.34-.05-14.6,7.8-24.68,23.33-29.16,44.9-9.96,48.02-25.53,61.91-30.87,65.35-.46,1.85-1.75,8.17,1.19,11.83,1.75,2.17,4.84,3.09,9.17,2.73,14.77-1.23,23.35-13,29.62-21.59.82-1.12,1.59-2.18,2.31-3.13,1.34-1.76,2.49-3.44,3.6-5.06,3.16-4.62,5.98-8.72,10.18-8.72Z"/>
      </g>
      <g>
        <g>
          <path class="cls-5" d="M268.47,310.17c3.32,3.38,16.68-1.49,21-5.26s1.48,16.89-7.57,21.69-13.43-16.43-13.43-16.43Z"/>
          <path d="M279.28,328.8c-.92,0-1.83-.2-2.7-.62-6.38-3-9.27-16.22-9.57-17.71l-1.03-4.98,3.56,3.62c1.99,2.02,13.83-.88,18.94-5.34,1.23-1.07,2.26-.87,2.76-.65,1.58.68,1.67,2.85,1.7,3.57.21,5.23-3.25,17.46-10.34,21.23-1.1.58-2.22.88-3.32.88ZM270.64,312.66c1.26,4.48,3.8,11.2,7.22,12.81,1.07.51,2.13.44,3.34-.2,3.18-1.69,6.07-6.14,7.73-11.9.92-3.21,1.11-5.66,1-6.9-3.84,2.95-13.55,7.01-19.29,6.19Z"/>
        </g>
        <g>
          <path class="cls-5" d="M154.82,149.89c-2.23,22.51,32.64,39.22,32.64,39.22-10.85,45.29,34.27,58.88,34.27,58.88-7.95,36.5,27.35,51.87,27.35,51.87-.95,9.56,3.47,24.85,15.26,32.98,1.96,1.36,8.7,19.42,11.08,20.31s1.67-19.12,3.74-17.18c4.32,4.05,9.23,1.63,12.29-.44,9.26-6.28,12.43-21.19,8.6-21.13s-15,9.09-23.66,2.99-18.03-19.91-18.03-19.91c11.66-34.74-12.15-57.22-12.15-57.22,9.86-27.02-11.63-56.68-11.63-56.68,7-17.07,9.58-41.52-19.31-66.27-12.15-10.41-28.96-41.26-67.52-36.99-38.56,4.27,7.07,69.56,7.07,69.56Z"/>
          <path d="M275.58,354.68c-.23,0-.46-.04-.68-.12-1.71-.64-3.41-4.02-7.17-12.14-1.51-3.26-3.57-7.72-4.28-8.38-11.31-7.8-16.56-22.7-15.94-33.28-5.67-2.86-33.85-18.9-27.51-51.79-7.39-2.72-43.31-18.22-34.26-59.05-2.62-1.35-9.54-5.16-16.39-10.82-11.22-9.3-16.77-19.24-16.06-28.8-3.34-4.87-29.21-43.54-20.84-62.01,2.46-5.43,7.56-8.61,15.15-9.45,31.44-3.48,49,16.07,60.62,29,3.02,3.37,5.64,6.27,8.05,8.34,23.13,19.82,29.87,42.43,20.03,67.21,1.43,2.1,5.73,8.76,9.22,17.86,5.41,14.09,6.25,27.42,2.44,38.63,3.87,4.13,22.24,25.92,12.08,57.35,1.9,2.7,9.91,13.76,17.24,18.92,5.46,3.85,12.29.81,17.27-1.41,2.28-1.02,4.09-1.82,5.5-1.85,1.3-.01,2.37.82,2.83,2.26,1.49,4.7-2.65,16.25-10.56,21.61-4.92,3.33-9.21,3.8-12.78,1.4-.24,1.53-.44,3.98-.59,5.78-.56,6.85-.9,9.52-2.34,10.43-.31.2-.67.3-1.02.3ZM154.95,81.42c-2.26,0-4.6.13-7.03.4-6.55.73-10.72,3.25-12.74,7.71-8.05,17.77,20.58,59.09,20.88,59.51l.32.46-.06.55c-2.1,21.2,31.45,37.55,31.79,37.72l1.09.52-.28,1.18c-4.36,18.17-.14,33.28,12.54,44.9,9.55,8.76,20.59,12.16,20.7,12.2l1.33.4-.29,1.35c-7.59,34.84,25.09,49.57,26.49,50.18l1,.44-.11,1.09c-.97,9.77,3.83,24.16,14.62,31.6,1.12.77,2.33,3.23,5.25,9.55,1.35,2.91,3.41,7.37,4.74,9.51.34-1.82.59-4.89.76-6.95.53-6.56.77-8.66,2.32-9.25.65-.25,1.38-.1,1.93.42,2.74,2.56,6.05,2.38,10.43-.59,5.94-4.03,8.9-11.53,9.43-15.59.22-1.65.03-2.5-.11-2.79-.86.09-2.55.85-4.18,1.58-5.32,2.37-13.36,5.96-20.22,1.13-8.78-6.19-18.02-19.72-18.41-20.29l-.42-.62.24-.7c11.2-33.38-11.52-55.43-11.76-55.65l-.71-.68.34-.93c9.47-25.94-11.23-55-11.44-55.29l-.49-.68.32-.77c9.74-23.75,3.38-45.47-18.9-64.56-2.56-2.19-5.23-5.17-8.33-8.61-10.91-12.15-25.53-28.42-51.02-28.42Z"/>
        </g>
        <path class="cls-12" d="M273.47,325.91c-.84.92-2.6,10.81,2.3,16.96l2.67-7.86-4.97-9.1Z"/>
        <g>
          <path class="cls-5" d="M279.16,335.97c-2.11-2.55-4.66-7.98-5.21-9.7"/>
          <path d="M278.01,336.93c-1.73-2.51-2.76-5-3.84-7.72-.33-.88-.65-1.75-.91-2.71-.11-.39.12-.79.51-.9.37-.1.75.1.88.45,1.46,3.11,3.42,6.46,5.68,8.98,1.42,1.57-1.05,3.6-2.32,1.9h0Z"/>
        </g>
        <path class="cls-12" d="M222.98,201.84c18.43-6.31,20.95,9.6,23.92,16.83,0,0,.61-18.79-10.86-32.89-1.34-1.64-13.05,16.06-13.05,16.06Z"/>
        <path class="cls-12" d="M238.53,251.84c-3.66.79-16.09,10.37-11.64,26.4,0,0-11.6-16.24-5.16-30.26l16.8,3.86Z"/>
        <path class="cls-12" d="M249.55,308.72c-.71-2.41,9.66-2.08,9.66-2.08,0,0-1.78,18.66,2.54,22.1,0,0-7-2.24-12.2-20.02Z"/>
        <path d="M275.58,354.68c-.23,0-.46-.04-.68-.12-1.71-.64-3.41-4.02-7.17-12.14-1.51-3.26-3.57-7.72-4.28-8.38-11.31-7.8-16.56-22.7-15.94-33.28-5.67-2.86-33.85-18.9-27.51-51.79-7.39-2.72-43.31-18.22-34.26-59.05-2.62-1.35-9.54-5.16-16.39-10.82-11.22-9.3-16.77-19.24-16.06-28.8-3.34-4.87-29.21-43.54-20.84-62.01,2.46-5.43,7.56-8.61,15.15-9.45,31.44-3.48,49,16.07,60.62,29,3.02,3.37,5.64,6.27,8.05,8.34,23.13,19.82,29.87,42.43,20.03,67.21,1.43,2.1,5.73,8.76,9.22,17.86,5.41,14.09,6.25,27.42,2.44,38.63,3.87,4.13,22.24,25.92,12.08,57.35,1.9,2.7,9.91,13.76,17.24,18.92,5.46,3.85,12.29.81,17.27-1.41,2.28-1.02,4.09-1.82,5.5-1.85,1.3-.01,2.37.82,2.83,2.26,1.49,4.7-2.65,16.25-10.56,21.61-4.92,3.33-9.21,3.8-12.78,1.4-.24,1.53-.44,3.98-.59,5.78-.56,6.85-.9,9.52-2.34,10.43-.31.2-.67.3-1.02.3ZM154.95,81.42c-2.26,0-4.6.13-7.03.4-6.55.73-10.72,3.25-12.74,7.71-8.05,17.77,20.58,59.09,20.88,59.51l.32.46-.06.55c-2.1,21.2,31.45,37.55,31.79,37.72l1.09.52-.28,1.18c-4.36,18.17-.14,33.28,12.54,44.9,9.55,8.76,20.59,12.16,20.7,12.2l1.33.4-.29,1.35c-7.59,34.84,25.09,49.57,26.49,50.18l1,.44-.11,1.09c-.97,9.77,3.83,24.16,14.62,31.6,1.12.77,2.33,3.23,5.25,9.55,1.35,2.91,3.41,7.37,4.74,9.51.34-1.82.59-4.89.76-6.95.53-6.56.77-8.66,2.32-9.25.65-.25,1.38-.1,1.93.42,2.74,2.56,6.05,2.38,10.43-.59,5.94-4.03,8.9-11.53,9.43-15.59.22-1.65.03-2.5-.11-2.79-.86.09-2.55.85-4.18,1.58-5.32,2.37-13.36,5.96-20.22,1.13-8.78-6.19-18.02-19.72-18.41-20.29l-.42-.62.24-.7c11.2-33.38-11.52-55.43-11.76-55.65l-.71-.68.34-.93c9.47-25.94-11.23-55-11.44-55.29l-.49-.68.32-.77c9.74-23.75,3.38-45.47-18.9-64.56-2.56-2.19-5.23-5.17-8.33-8.61-10.91-12.15-25.53-28.42-51.02-28.42Z"/>
        <g>
          <path class="cls-5" d="M234.76,183.19c-3.09,9.64-12.33,17.67-12.33,17.67"/>
          <path d="M236.18,183.64c-1.89,5.44-5.17,10.03-8.96,14.21-1.26,1.37-2.55,2.67-3.98,3.93-.51.45-1.29.4-1.74-.11-.46-.52-.4-1.31.12-1.75,1.26-1.16,2.51-2.47,3.67-3.8,3.42-3.95,6.44-8.4,8.04-13.39.61-1.91,3.48-1,2.86.92h0Z"/>
        </g>
        <g>
          <path class="cls-5" d="M221.63,247.87c10.05,3.91,17.55,3.04,17.55,3.04"/>
          <path d="M222.17,246.47c5.32,2.22,11.18,3.71,16.96,3.52.51-.03.94.37.97.88.03.49-.34.91-.82.97-1.62.19-3.12.19-4.67.13-4.62-.2-9.17-1.17-13.53-2.69-1.93-.7-.82-3.58,1.09-2.8h0Z"/>
        </g>
        <g>
          <path class="cls-2" d="M247.89,307.63s7.87,4.48,15.28-4.67c0,0,.48-2.73-.69-5.48s-2.73-5.26-2.73-5.26c-6.76,7.76-16.13,4.54-16.13,4.54,0,0,.39,8.55,4.26,10.87Z"/>
          <path d="M248.31,306.91c4.96,2.6,10.94-.37,13.7-4.9,0,0-.31.69-.31.69.54-3.49-1.54-6.78-3.21-9.69,0,0,2.41.19,2.41.19-1.06,1.21-2.29,2.29-3.65,3.18-4.16,2.66-9.39,3.2-14.09,1.8,0,0,1.99-1.49,1.99-1.49-.04,3.44.28,7.94,3.19,10.22h0ZM247.47,308.34c-3.76-2.56-4.49-7.37-5.34-11.52,0,0,1.99-1.49,1.99-1.49,5.1,1.53,11.06.06,14.51-4.11,0,0,1.35-1.54,1.35-1.54,0,0,1.06,1.73,1.06,1.73,2.2,3.71,4.52,7.77,3.52,12.25-4.23,4.81-10.94,7.71-17.08,4.67h0Z"/>
        </g>
        <path d="M245.34,302.95c5.89.08,12.89-2.14,15.13-8.16,0,0,1.05.33,1.05.33-1.34,5.15-6.12,8.53-11.05,9.88-1.67.47-3.28.82-5.11.95,0,0-.02-3-.02-3h0Z"/>
      </g>
      <g>
        <g>
          <path class="cls-9" d="M195.31,267.63c-6.66,12.62,3.92,42.22,8.22,53.11,6.01,15.22-82.01,41.61-74.51,16.72,4.41-14.63-11-35.11-15.02-34.92,0,0,84.04-40.09,81.3-34.91Z"/>
          <path d="M142.48,349.17c-5.09,0-9.31-.79-12-2.6-2.19-1.47-4.46-4.33-2.89-9.54,2.44-8.08-1.75-18.51-6.48-25.58-3.4-5.08-6.28-7.34-7.06-7.41l-7.44.35,6.75-3.21c.2-.09,19.99-9.53,39.81-18.55,41.05-18.68,42.16-17.52,43.23-16.4.42.43.7,1.21.23,2.09h0c-6.48,12.27,4.71,42.8,8.29,51.86,1.28,3.25-.43,6.8-5.1,10.55-10.9,8.75-39.48,18.43-57.34,18.43ZM117.41,302.58c1.5,1.19,2.99,2.9,4.2,4.45,3.2,4.11,6.02,9.25,7.71,14.12,2.17,6.23,2.57,12.02,1.14,16.76-1.13,3.75.42,5.33,1.69,6.18,4.62,3.12,16.63,2.77,31.34-.91,14.18-3.55,27.7-9.34,34.45-14.77,2.42-1.95,5.12-4.76,4.19-7.11-4.5-11.4-14-38.41-9.07-52.26-9.57,2.78-49.13,20.94-75.66,33.55Z"/>
        </g>
        <path class="cls-10" d="M175.8,289.39c-12.04,5.57-31.12,29.57-29.84,45.49l-14.34-1.26-6.82-22.03,50.99-22.2Z"/>
        <path d="M142.48,349.17c-5.09,0-9.31-.79-12-2.6-2.19-1.47-4.46-4.33-2.89-9.54,2.44-8.08-1.75-18.51-6.48-25.58-3.4-5.08-6.28-7.34-7.06-7.41l-7.44.35,6.75-3.21c.2-.09,19.99-9.53,39.81-18.55,41.05-18.68,42.16-17.52,43.23-16.4.42.43.7,1.21.23,2.09h0c-6.48,12.27,4.71,42.8,8.29,51.86,1.28,3.25-.43,6.8-5.1,10.55-10.9,8.75-39.48,18.43-57.34,18.43ZM117.41,302.58c1.5,1.19,2.99,2.9,4.2,4.45,3.2,4.11,6.02,9.25,7.71,14.12,2.17,6.23,2.57,12.02,1.14,16.76-1.13,3.75.42,5.33,1.69,6.18,4.62,3.12,16.63,2.77,31.34-.91,14.18-3.55,27.7-9.34,34.45-14.77,2.42-1.95,5.12-4.76,4.19-7.11-4.5-11.4-14-38.41-9.07-52.26-9.57,2.78-49.13,20.94-75.66,33.55Z"/>
      </g>
      <g>
        <g>
          <path class="cls-9" d="M202.31,261.31c-8.91,15.46-36.61,39.09-68.15,46.93-22.27,3.6-54.04,2.02-56.07-3.7-13.04-1.6-18.33-8.22-23.04-13.84-2.52-3.01-3.73-8.39-3.87-13.88-1.6-1.52-2.5-2.43-2.5-2.43-10.87-11.22-7.85-27.51-6.25-33.49-1.44-3.19-3.56-14.08-12.6-41.89-3.91-12.04-4.44-21.33-3.55-28.26,3.15,1.22,6.73,2.13,10.83,2.59,31.25,3.55,60.96-25.93,65.4-33.47,2.18-3.72,16.92-20.56,35.12-28.6-2.54-10.87-3.84-27.94,3.5-46.27.61-1.55,1.27-3.02,1.96-4.44,11.2-22.99,31.13-29.34,35.72-23.5,4.88,6.21,17.3,22.17,17.74,50.11.36,22.74-3.34,34.68-8.56,42.71,1.56,3.38,8.18,33.47,11.66,44.74,3.77,12.2,21.06,54.76,2.66,86.69Z"/>
          <path d="M108.04,311.66c-14.48,0-27.82-1.74-30.87-5.73-12.83-1.8-18.44-8.5-22.97-13.91l-.3-.35c-2.44-2.91-3.96-8.05-4.2-14.18-1.34-1.28-2.09-2.04-2.09-2.04-11.03-11.38-8.54-27.51-6.76-34.43-.55-1.41-1.18-3.7-2.23-7.49-1.76-6.4-4.71-17.1-10.22-34.05-3.48-10.73-4.7-20.45-3.61-28.92l.24-1.9,1.79.69c3.2,1.24,6.71,2.08,10.46,2.5,30.97,3.52,60.04-26.12,63.94-32.74,2.11-3.6,16.57-20.28,34.68-28.7-2.02-9.37-3.84-26.8,3.84-45.97.58-1.47,1.23-2.95,2-4.54,5.9-12.12,17.51-24.95,30.15-26.3,3.63-.39,6.51.51,8.1,2.52,4.82,6.13,17.61,22.41,18.06,51.01.31,19.82-2.28,33.1-8.39,42.9.89,2.57,2.51,9.11,4.91,18.96,2.24,9.18,4.78,19.59,6.51,25.17.35,1.14.83,2.55,1.38,4.2,5.43,16.21,18.15,54.18,1.15,83.68h0c-9.86,17.1-39.07,40.18-69.09,47.64l-.12.03c-7.73,1.25-17.27,1.94-26.36,1.94ZM49.75,273.35s.89.9,2.46,2.39l.45.43.02.62c.15,5.74,1.43,10.46,3.52,12.96l.3.36c4.5,5.37,9.6,11.46,21.77,12.96l.92.11.31.87c.47,1.31,5.94,3.56,19.12,4.35,11.49.69,24.66.09,35.23-1.62,32.28-8.05,59.15-32.32,67.15-46.21,16.33-28.33,3.91-65.4-1.39-81.23-.56-1.67-1.04-3.11-1.4-4.27-1.75-5.66-4.3-16.12-6.55-25.34-2.12-8.68-4.31-17.65-5.03-19.21l-.35-.75.45-.69c6.06-9.33,8.63-22.24,8.32-41.87-.43-27.59-12.77-43.3-17.42-49.21-.91-1.16-2.88-1.67-5.42-1.4-8.01.86-20.12,8.93-27.77,24.63-.74,1.51-1.36,2.93-1.91,4.33-7.71,19.27-5.46,36.7-3.43,45.38l.28,1.21-1.14.5c-17.98,7.94-32.38,24.48-34.43,27.99-2.44,4.15-11.22,13.52-23.11,21.39-10.46,6.93-26.54,14.77-43.75,12.82-3.3-.37-6.44-1.05-9.37-2.02-.64,7.58.6,16.23,3.69,25.74,5.53,17.01,8.49,27.76,10.26,34.18,1.1,4,1.77,6.42,2.28,7.56l.22.49-.14.52c-1.64,6.12-4.34,21.51,5.88,32.06h0Z"/>
        </g>
        <path class="cls-11" d="M174.79,47.72c-3.51-1.81-22.98,18.9-17.96,57.86,1.66,12.89,14.61,16.76,17.74,14.11,13.19-11.2,15-64.34.22-71.97Z"/>
        <path class="cls-10" d="M27.19,171.06c-.35,4.48-.94,7.37,1.89,9.7,3.65,3.01,22.57,4.37,35.47.4,18.62-5.73,36.69-22.55,43.67-31.89,7.5-10.02,8.2-23.66,19.84-31.15,2.76-1.78-19.19-.27-23.94,1.55-23.8,9.14-76.93,51.38-76.93,51.38Z"/>
        <path class="cls-1" d="M177.54,49.85c-3.24,2.33-20.68,46.05-10.19,70.63,0,0-19-5.69-7.14-53.29,0,0,11.84-21.59,14.58-19.46l2.74,2.12Z"/>
        <path d="M171.76,121.99c-1.45,0-3.09-.33-4.81-.99-2.38-.92-10.25-4.74-11.6-15.22-2.34-18.17.72-31.67,3.7-39.79,3.7-10.08,8.84-16.33,12.12-18.63,1.74-1.22,3.19-1.54,4.31-.96,7.33,3.79,9.8,16.38,10.62,23.55,2.1,18.47-1.63,43.32-10.56,50.9-.9.77-2.23,1.15-3.79,1.15ZM174.23,49.12c-.4.07-1.89.73-4.18,3.35-11.94,13.56-13.77,36.98-11.72,52.92,1.14,8.83,7.72,12.03,9.71,12.81,2.83,1.1,4.96.87,5.57.35,7.29-6.19,11.74-28.75,9.52-48.27-1.26-11.08-4.5-18.78-8.89-21.16Z"/>
        <path class="cls-10" d="M41.17,237.1c4.09,2.41,15.51,1.02,29.48-3.63,0,0-.91,4.45-2.44,9.26-.9,2.85-20.73,11.74-16.74,23.67,2.65,7.91,1.27,11.94-.3,10.43s-11.49-11.93-10-27.4,0-12.33,0-12.33Z"/>
        <path d="M108.04,311.66c-14.48,0-27.82-1.74-30.87-5.73-12.83-1.8-18.44-8.5-22.97-13.91l-.3-.35c-2.44-2.91-3.96-8.05-4.2-14.18-1.34-1.28-2.09-2.04-2.09-2.04-11.03-11.38-8.54-27.51-6.76-34.43-.55-1.41-1.18-3.7-2.23-7.49-1.76-6.4-4.71-17.1-10.22-34.05-3.48-10.73-4.7-20.45-3.61-28.92l.24-1.9,1.79.69c3.2,1.24,6.71,2.08,10.46,2.5,30.97,3.52,60.04-26.12,63.94-32.74,2.11-3.6,16.57-20.28,34.68-28.7-2.02-9.37-3.84-26.8,3.84-45.97.58-1.47,1.23-2.95,2-4.54,5.9-12.12,17.51-24.95,30.15-26.3,3.63-.39,6.51.51,8.1,2.52,4.82,6.13,17.61,22.41,18.06,51.01.31,19.82-2.28,33.1-8.39,42.9.89,2.57,2.51,9.11,4.91,18.96,2.24,9.18,4.78,19.59,6.51,25.17.35,1.14.83,2.55,1.38,4.2,5.43,16.21,18.15,54.18,1.15,83.68h0c-9.86,17.1-39.07,40.18-69.09,47.64l-.12.03c-7.73,1.25-17.27,1.94-26.36,1.94ZM49.75,273.35s.89.9,2.46,2.39l.45.43.02.62c.15,5.74,1.43,10.46,3.52,12.96l.3.36c4.5,5.37,9.6,11.46,21.77,12.96l.92.11.31.87c.47,1.31,5.94,3.56,19.12,4.35,11.49.69,24.66.09,35.23-1.62,32.28-8.05,59.15-32.32,67.15-46.21,16.33-28.33,3.91-65.4-1.39-81.23-.56-1.67-1.04-3.11-1.4-4.27-1.75-5.66-4.3-16.12-6.55-25.34-2.12-8.68-4.31-17.65-5.03-19.21l-.35-.75.45-.69c6.06-9.33,8.63-22.24,8.32-41.87-.43-27.59-12.77-43.3-17.42-49.21-.91-1.16-2.88-1.67-5.42-1.4-8.01.86-20.12,8.93-27.77,24.63-.74,1.51-1.36,2.93-1.91,4.33-7.71,19.27-5.46,36.7-3.43,45.38l.28,1.21-1.14.5c-17.98,7.94-32.38,24.48-34.43,27.99-2.44,4.15-11.22,13.52-23.11,21.39-10.46,6.93-26.54,14.77-43.75,12.82-3.3-.37-6.44-1.05-9.37-2.02-.64,7.58.6,16.23,3.69,25.74,5.53,17.01,8.49,27.76,10.26,34.18,1.1,4,1.77,6.42,2.28,7.56l.22.49-.14.52c-1.64,6.12-4.34,21.51,5.88,32.06h0Z"/>
      </g>
      <g>
        <g>
          <path class="cls-9" d="M44.83,99.35c-4.73,18.21-8.04,33.07-19.36,35.53-3.72.81-6.41.85-8.42.45-7.04-10.34-13.98-24.59-15.37-41.73-2.99-36.92,31.92-7.65,42.23,4.65.31.37.61.73.92,1.1Z"/>
          <path d="M19.78,137.08c-1.09,0-2.1-.09-3.03-.28l-.6-.12-.35-.51C6.63,122.7,1.37,108.42.18,93.72c-.85-10.5,1.28-16.87,6.32-18.94,11.19-4.59,32.17,14.89,38.56,22.5l1.42,1.69-.86,3.3c-4.55,17.61-8.14,31.53-19.83,34.07-2.25.49-4.24.73-6,.73ZM17.93,133.96c1.92.26,4.34.08,7.22-.54,9.88-2.15,13.27-15.27,17.57-31.88l.47-1.81-.42-.51c-3.57-4.25-10.27-10.71-17.22-15.55-7.84-5.46-14.2-7.62-17.89-6.11-4.6,1.89-4.97,9.7-4.47,15.92,1.13,13.98,6.1,27.59,14.76,40.48Z"/>
        </g>
        <path class="cls-11" d="M9.75,87.58c-3.44-.97-1.8,26.17,14.62,47,2.37,3.73,24.05-6.23,16.58-20.81-5.61-10.94-14.68-21.54-31.2-26.19Z"/>
        <path class="cls-1" d="M13.03,88.62c-.63,4.02,10.68,36.52,20.33,44.46l-7.97,3.95s-21.11-30.06-15.64-49.45l3.28,1.03Z"/>
        <path d="M26.42,136.86c-1.42,0-2.6-.41-3.27-1.4-14.64-18.61-18.44-43.83-15.43-48.34.58-.87,1.51-1.24,2.43-.98h0c14.41,4.06,24.92,12.87,32.13,26.95,4.85,9.48-1.37,17.39-8.17,21.29-2.51,1.44-5.42,2.49-7.69,2.49ZM10.01,89.22c-1.4,4.12,1.31,26.38,15.53,44.44l.09.12c.76.56,5.69-.45,10.14-4.2,3.02-2.55,7.54-7.9,3.84-15.12-6.7-13.07-16.38-21.33-29.6-25.23Z"/>
      </g>
      <g>
        <path class="cls-5" d="M141.13,65c-7.34,18.33-6.04,35.4-3.5,46.27-18.2,8.04-32.94,24.88-35.12,28.6-4.44,7.54-34.15,37.02-65.4,33.47-4.1-.46-7.68-1.37-10.83-2.59-20.86-8.07-22.99-29.83-23.02-31.99-.09-6.51,1-12.75,5.66-13.19,3.52-.34,4.53,1.32,7.71,6.83,1.83,3.17,5.12,3.29,8.84,2.48,11.32-2.46,14.63-17.32,19.36-35.53,1.66-6.39,3.49-13.18,5.91-20,9.31-26.27,53.21-41.57,83.8-24.28,3.02,1.71,5.87,3.56,8.55,5.49-.69,1.42-1.35,2.89-1.96,4.44Z"/>
        <path d="M42.36,175.14c-1.79,0-3.6-.1-5.42-.3-4-.45-7.77-1.35-11.2-2.68-19.3-7.47-23.89-27.08-23.98-33.36-.13-9.31,2.23-14.25,7.02-14.71,4.52-.44,5.98,2.07,9.15,7.58,1.21,2.1,3.31,2.61,7.22,1.76,9.88-2.15,13.27-15.27,17.57-31.88l.66-2.56c1.58-6.07,3.46-13.12,5.95-20.12,4.28-12.08,15.6-22.32,31.05-28.09,18.68-6.99,39.21-5.86,54.9,3.01,2.93,1.66,5.85,3.54,8.69,5.58l1.02.74-.55,1.14c-.74,1.51-1.36,2.93-1.91,4.33h0c-7.71,19.27-5.46,36.7-3.43,45.38l.28,1.21-1.14.5c-17.98,7.94-32.38,24.48-34.43,27.99-2.44,4.15-11.22,13.52-23.11,21.39-9.36,6.19-23.21,13.12-38.33,13.12ZM9.77,127.03c-.22,0-.46.01-.71.04-3.69.35-4.38,6.54-4.3,11.68,0,.22,1.25,22.55,22.07,30.61,3.2,1.24,6.71,2.08,10.46,2.5,30.97,3.52,60.04-26.12,63.94-32.74,2.11-3.6,16.57-20.28,34.68-28.7-2.02-9.37-3.84-26.8,3.84-45.96.44-1.11.92-2.23,1.46-3.39-2.43-1.7-4.91-3.27-7.39-4.68-14.93-8.44-34.51-9.49-52.37-2.81-14.41,5.39-25.35,15.21-29.27,26.29-2.44,6.89-4.31,13.87-5.87,19.88l-.66,2.55c-4.55,17.61-8.14,31.53-19.83,34.07-3.29.72-7.95,1.16-10.46-3.19-2.91-5.04-3.66-6.13-5.56-6.13Z"/>
      </g>
      <g>
        <path class="cls-6" d="M69.15,214.56c1.42,9.24-.23,17.88-3.89,23.43-2.2,3.33-14.34,5.89-17.02,4.19-5.82-3.68-10.64-11.9-12.19-22.01-2.27-14.78,3.3-28.02,12.45-29.57,9.14-1.55,18.39,9.18,20.66,23.96Z"/>
        <path d="M50.26,190.45c8.54,0,16.77,10.28,18.89,24.11,1.42,9.24-.23,17.88-3.89,23.43-1.72,2.6-9.49,4.73-14.1,4.73-1.29,0-2.34-.17-2.92-.54-5.82-3.68-10.64-11.9-12.19-22.01-2.27-14.78,3.3-28.02,12.45-29.57.59-.1,1.18-.15,1.77-.15M50.26,187.45v3-3h0c-.76,0-1.52.06-2.27.19-10.91,1.85-17.46,16.34-14.91,32.99,1.63,10.6,6.82,19.83,13.55,24.09,1.07.68,2.55,1.01,4.53,1.01,4.52,0,13.93-2.03,16.6-6.08,4.2-6.37,5.83-15.92,4.35-25.54-2.33-15.2-11.73-26.65-21.85-26.65h0Z"/>
      </g>
      <ellipse cx="57.7" cy="220.5" rx="13.16" ry="20.6" transform="translate(-20.57 6.44) rotate(-5.42)"/>
      <g>
        <path class="cls-6" d="M165.88,205.69c-.81,9.96-4.56,18.56-9.73,23.82-3.7,3.77-21.27,2.33-24.3-1.94-4.29-6.06-6.63-15.23-5.81-25.25,1.4-17.09,11.45-30.2,22.45-29.27,11,.93,18.78,15.54,17.39,32.64Z"/>
        <path d="M147.39,173c.37,0,.73.02,1.1.05,11,.93,18.78,15.54,17.39,32.64-.81,9.96-4.56,18.56-9.73,23.82-1.47,1.5-5.14,2.18-9.22,2.18-6.17,0-13.26-1.55-15.09-4.12-4.29-6.06-6.63-15.23-5.81-25.25,1.35-16.52,10.79-29.31,21.35-29.31M147.39,170h0c-6.1,0-11.98,3.44-16.55,9.69-4.33,5.92-7.09,13.86-7.79,22.38-.85,10.4,1.46,20.33,6.35,27.23,3.01,4.25,12.44,5.39,17.53,5.39,3.81,0,8.86-.53,11.36-3.08,5.88-5.99,9.73-15.35,10.58-25.68.72-8.83-.83-17.37-4.39-24.03-3.78-7.09-9.37-11.3-15.74-11.84-.45-.04-.91-.06-1.36-.06h0Z"/>
      </g>
      <ellipse cx="150.76" cy="209.6" rx="23.12" ry="15.36" transform="translate(-83.02 319.19) rotate(-79.39)"/>
      <path d="M128.87,153.66c4.67-8.32,15.34-10.84,23.85-7.72,8.03,2.85,14.58,8.83,19.72,15.41.3.38.23.93-.15,1.23-.33.26-.8.24-1.11-.03-3.08-2.62-6.2-5.13-9.49-7.28-10.09-6.84-20.87-8.37-30.37.13-1.21,1.3-3.3-.17-2.45-1.73h0Z"/>
      <g>
        <path class="cls-7" d="M128.03,339.39c-2-1.33-32.38,10.71-40.37,36.33-7.98,25.62-20.62,69.51-20.62,69.51,0,0,7.98,7.98,17.29,7.98s22.61-9.98,33.25-25.27c10.64-15.3,10.44-88.56,10.44-88.56Z"/>
        <path d="M84.34,454.72c-9.82,0-18.01-8.08-18.35-8.42l-.63-.62.25-.85c.13-.44,12.73-44.2,20.63-69.55,6.47-20.76,27.12-32.96,37.14-36.51,4.19-1.49,5.04-.93,5.49-.63l.67.44v.8c.01,3.01.08,73.91-10.7,89.42-10.95,15.74-24.49,25.92-34.49,25.92ZM68.74,444.77c2,1.78,8.46,6.96,15.59,6.96,8.91,0,21.77-9.9,32.02-24.63,9.41-13.53,10.11-75.5,10.16-86.14-5.78,1.44-30.42,12.73-37.43,35.22-7.26,23.3-18.51,62.23-20.35,68.59Z"/>
      </g>
      <g>
        <g>
          <path class="cls-2" d="M145.22,624.56c-.32-6.47-4.41-16.21-6.61-25.63-2.64-11.31,2.26-28.04-2.48-31.5s-60.59.89-60.59.89c-4.1,5.84-4.32,7.15,0,16.03s2.64,16.42,2.64,16.42c0,0-19.42,2.66-25.72,13.3-5.01,8.47-5.16,19.25-1.28,24.63l-1.49.23c-1.71.88-2.86,4.12-2.26,5.54.6,1.44,2.81,10.14,39.31,7.83,36.51-2.31,54.02-13.39,59.63-17.54,3.08-2.28,2.81-9.46-1.14-10.19Z"/>
          <path d="M75.21,654.18c-17.01,0-26.79-3.02-29.12-9.03l-.05-.12c-.91-2.19.6-6.08,2.79-7.36-3.14-6.41-2.27-16.59,2.34-24.38,5.77-9.75,21.34-13.09,25.69-13.85.25-2.23.48-7.99-2.67-14.45-4.43-9.11-4.42-11.08.12-17.55l.41-.58.71-.05c9.42-.73,56.64-4.21,61.59-.6,3.28,2.39,2.95,8.4,2.54,16.01-.29,5.39-.62,11.51.52,16.36.85,3.65,2,7.36,3.1,10.94,1.58,5.12,3.08,9.97,3.47,13.92,1.51.7,2.61,2.17,3.08,4.2.64,2.75,0,6.49-2.47,8.31-7.73,5.72-25.87,15.64-60.42,17.83-4.19.26-8.07.4-11.62.4ZM50.2,640.35c-.95.68-1.67,2.87-1.39,3.53l.07.18c2.2,5.66,15.96,8.11,37.76,6.73,33.79-2.14,51.36-11.72,58.83-17.25,1.19-.88,1.79-3.22,1.33-5.22-.18-.76-.65-2.07-1.85-2.29l-1.17-.22-.06-1.19c-.18-3.74-1.75-8.83-3.42-14.22-1.12-3.63-2.28-7.39-3.16-11.14-1.23-5.28-.89-11.62-.59-17.21.32-5.9.65-11.99-1.32-13.43-2.75-1.94-31.97-.96-58.88,1.12-3.26,4.66-3.53,5.6.53,13.93,4.5,9.25,2.83,17.07,2.75,17.4l-.23,1.02-1.03.14c-.19.03-18.78,2.69-24.63,12.58-4.99,8.44-4.59,18.5-1.36,22.99l1.43,1.99-3.62.55Z"/>
        </g>
        <path class="cls-8" d="M114.12,613.92c-9.12-9.72-22.4-15.13-41.56-11.53,0,0-6.78,1.8-5.85,4.38,1,2.77,6.14,4.22,12.45,3.3,11.8-1.71,28.68,3.04,34.41,4.82.56.17.96-.54.55-.97Z"/>
        <g>
          <path class="cls-2" d="M78.18,600.76s8.7-1.1,17.49,1.28"/>
          <path d="M77.99,599.27c4.57-.29,9.05.01,13.53.88,1.48.27,2.93.67,4.37,1.1.43.13.68.58.56,1.02-.12.42-.56.67-.98.57-2.81-.62-5.68-.96-8.56-1.04-2.83-.08-5.8.05-8.58.46-2.04.25-2.39-2.77-.34-2.98h0Z"/>
        </g>
        <path class="cls-8" d="M49.54,620.92c-.29-4.43-2.66,15.12,1.63,17.76s16.93,5.63,28.57,5.3c0,0,1.05-.53-.55-1.05s-28.38-2.58-29.64-22.01Z"/>
        <path d="M75.21,654.18c-17.01,0-26.79-3.02-29.12-9.03l-.05-.12c-.91-2.19.6-6.08,2.79-7.36-3.14-6.41-2.27-16.59,2.34-24.38,5.77-9.75,21.34-13.09,25.69-13.85.25-2.23.48-7.99-2.67-14.45-4.43-9.11-4.42-11.08.12-17.55l.41-.58.71-.05c9.42-.73,56.64-4.21,61.59-.6,3.28,2.39,2.95,8.4,2.54,16.01-.29,5.39-.62,11.51.52,16.36.85,3.65,2,7.36,3.1,10.94,1.58,5.12,3.08,9.97,3.47,13.92,1.51.7,2.61,2.17,3.08,4.2.64,2.75,0,6.49-2.47,8.31-7.73,5.72-25.87,15.64-60.42,17.83-4.19.26-8.07.4-11.62.4ZM50.2,640.35c-.95.68-1.67,2.87-1.39,3.53l.07.18c2.2,5.66,15.96,8.11,37.76,6.73,33.79-2.14,51.36-11.72,58.83-17.25,1.19-.88,1.79-3.22,1.33-5.22-.18-.76-.65-2.07-1.85-2.29l-1.17-.22-.06-1.19c-.18-3.74-1.75-8.83-3.42-14.22-1.12-3.63-2.28-7.39-3.16-11.14-1.23-5.28-.89-11.62-.59-17.21.32-5.9.65-11.99-1.32-13.43-2.75-1.94-31.97-.96-58.88,1.12-3.26,4.66-3.53,5.6.53,13.93,4.5,9.25,2.83,17.07,2.75,17.4l-.23,1.02-1.03.14c-.19.03-18.78,2.69-24.63,12.58-4.99,8.44-4.59,18.5-1.36,22.99l1.43,1.99-3.62.55Z"/>
      </g>
      <g>
        <g>
          <path class="cls-2" d="M48.82,433.1s1.93,8.09,10.33,9.75,23.12-.06,33.49-20.29c9.78-19.07,3.84-26.73-1.81-36.31-5.65-9.58-42.01,46.84-42.01,46.84Z"/>
          <path d="M64.1,444.83c-2.15,0-3.95-.25-5.24-.5-9.24-1.83-11.41-10.51-11.5-10.88l-.15-.62.35-.54c5.24-8.13,31.82-48.62,41.43-48.62.02,0,.04,0,.07,0,1.3.03,2.39.68,3.07,1.83.33.57.67,1.13,1,1.69,5.36,8.95,10.42,17.4.85,36.07-4.76,9.29-10.88,15.69-18.19,19.03-4.32,1.97-8.41,2.54-11.68,2.54ZM50.45,433.33c.59,1.75,2.83,6.83,8.99,8.05,5.97,1.18,21.02,1.65,31.86-19.5,8.81-17.19,4.38-24.59-.75-33.16-.34-.56-.68-1.13-1.02-1.7-.19-.33-.35-.35-.54-.36-.01,0-.03,0-.04,0-6.07,0-26.65,28.35-38.5,46.67Z"/>
        </g>
        <g>
          <path class="cls-2" d="M81.27,355.98c-.89-1.76,11.78-8.34,17.1,3.19,5.32,11.53,10.64,20.27-2.66,38.13-13.3,17.86-14.44-41.32-14.44-41.32Z"/>
          <path d="M91.09,402.16c-.43,0-.86-.07-1.29-.21-8.68-2.79-9.88-38.11-10.03-45.74-.09-.42-.09-1.04.38-1.74,1.26-1.88,5.54-3.74,9.64-3.42,3.07.24,7.29,1.74,9.94,7.49.29.62.57,1.23.85,1.83,5.07,10.84,9.45,20.21-3.67,37.83-1.96,2.64-3.92,3.97-5.82,3.97ZM82.77,355.99c.02.72.25,10.85,1.42,21.13,2.17,19.15,5.55,21.67,6.53,21.98,1.26.4,2.91-1.52,3.79-2.7,12.05-16.18,8.22-24.38,3.36-34.76-.28-.61-.57-1.22-.86-1.84-1.67-3.62-4.24-5.56-7.63-5.77-3.2-.19-5.92,1.25-6.61,1.96Z"/>
        </g>
        <path class="cls-8" d="M84.53,365.11c1.19-6.53,10.21-1.92,12.64,3.86,2.14,5.11,7.32,5.18,4.84-1.63-.53-1.45-6.28-12.04-6.28-12.04,0,0-6.09-3.93-9.63-2.49s-4.84,3.15-4.84,3.15l3.27,9.14Z"/>
        <path d="M91.09,402.16c-.43,0-.86-.07-1.29-.21-8.68-2.79-9.88-38.11-10.03-45.74-.09-.42-.09-1.04.38-1.74,1.26-1.88,5.54-3.74,9.64-3.42,3.07.24,7.29,1.74,9.94,7.49.29.62.57,1.23.85,1.83,5.07,10.84,9.45,20.21-3.67,37.83-1.96,2.64-3.92,3.97-5.82,3.97ZM82.77,355.99c.02.72.25,10.85,1.42,21.13,2.17,19.15,5.55,21.67,6.53,21.98,1.26.4,2.91-1.52,3.79-2.7,12.05-16.18,8.22-24.38,3.36-34.76-.28-.61-.57-1.22-.86-1.84-1.67-3.62-4.24-5.56-7.63-5.77-3.2-.19-5.92,1.25-6.61,1.96Z"/>
        <g>
          <path class="cls-2" d="M48.82,339.54c-7.2.51-31.92,8.87-32.37,42.57s15.08,51.88,32.37,50.99,42.12-13.3,39.46-43.45-7.98-52.32-39.46-50.1Z"/>
          <path d="M47.59,434.63c-6.67,0-12.95-2.66-18.22-7.73-9.56-9.2-14.68-25.11-14.42-44.81.45-34.04,25.15-43.44,33.76-44.04h0c33.55-2.37,38.55,23,41.06,51.47,1.06,11.97-1.95,22.11-8.93,30.15-8.92,10.26-22.35,14.44-31.94,14.94-.44.02-.87.03-1.3.03ZM48.92,341.04h0c-7.9.56-30.55,9.3-30.97,41.09-.25,18.85,4.55,33.99,13.5,42.61,5,4.82,10.98,7.19,17.29,6.87,8.98-.46,21.53-4.36,29.83-13.91,6.43-7.39,9.19-16.78,8.21-27.91-2.55-28.94-6.98-50.9-37.86-48.74Z"/>
        </g>
        <path class="cls-8" d="M22.29,357.34c.28-6.05,10.36-16.39,23.77-17.36,21.67-1.57,24.88,2.54,28.46,6.58s12.76,23.83,12.77,33.65c.02,13.88-9.55.59-11.71-9.73s-7.73-16.29-14.63-17.65c-5.34-1.05-19.45-2.47-28.43,4.85s-10.23-.33-10.23-.33Z"/>
        <path d="M47.59,434.63c-6.67,0-12.95-2.66-18.22-7.73-9.56-9.2-14.68-25.11-14.42-44.81.45-34.04,25.15-43.44,33.76-44.04h0c33.55-2.37,38.55,23,41.06,51.47,1.06,11.97-1.95,22.11-8.93,30.15-8.92,10.26-22.35,14.44-31.94,14.94-.44.02-.87.03-1.3.03ZM48.92,341.04h0c-7.9.56-30.55,9.3-30.97,41.09-.25,18.85,4.55,33.99,13.5,42.61,5,4.82,10.98,7.19,17.29,6.87,8.98-.46,21.53-4.36,29.83-13.91,6.43-7.39,9.19-16.78,8.21-27.91-2.55-28.94-6.98-50.9-37.86-48.74Z"/>
        <g>
          <path class="cls-7" d="M27.71,409.1c-.67-.02-1.34-.35-1.87-.92-.7-.74-1.07-1.74-1.33-2.47-.06-.15-.08-.23-.14-.38-.84-2.24-1.53-4.52-2.19-6.73-.02,0-.05,0-.07,0-.23.02-.46.04-.68.03h0c-.16,0-.32-.03-.47-.05-.17-.03-.36-.04-.53-.04-.58-.02-1.17.06-1.8.14-.7.09-1.42.19-2.22.17-.2,0-.4-.02-.61-.04-.03,0-.04,0-.07,0-.03,0-.04,0-.07-.01-1.22-.25-2.21-1.29-2.58-2.71-.33-1.29-.11-2.66.6-3.69.34-.59.94-1.54,1.45-2.03.31-.29.6-.63.9-.98.31-.37.63-.73.98-1.08.2-.2.4-.41.6-.62.27-.28.54-.57.82-.84-.03-.08-.06-.16-.09-.23-.08-.19-.15-.4-.23-.6-.02-.05-.02-.07-.04-.12-.29-.95-.61-1.89-.93-2.83-.37-1.1-.76-2.24-1.1-3.39-.21-.7-.42-1.59-.35-2.55.14-1.78,1.38-3.22,2.86-3.18.09,0,.18.01.27.02.92.12,1.67.72,2.26,1.21.08.06.12.1.19.16,1.1.92,2.15,1.9,3.16,2.84.34.31.5.47.84.78.12.11.28.27.44.43.03.03.07.07.11.11.11-.11.22-.23.33-.33.79-.78,1.59-1.64,2.4-2.41.22-.21.41-.41.6-.62.73-.79,1.64-1.77,2.92-2.02.04,0,.07-.01.11-.02.1-.01.2-.02.3-.01,1.33.03,2.48,1.22,2.81,2.83.17.83.11,1.68.02,2.31-.03.21-.04.31-.07.52-.12.86-.26,1.76-.46,2.66-.12.55-.22,1.15-.33,1.78-.14.82-.28,1.68-.5,2.54.11.11.23.21.35.31.27.23.53.47.77.72.63.66,1.34,1.26,2.09,1.88.8.66,1.65,1.35,2.4,2.18,1.22,1.34,1.64,3.17,1.15,4.72-.47,1.49-1.66,2.4-3.1,2.36-.06,0-.12,0-.18,0-.1,0-.15,0-.25,0-.61-.02-1.22-.05-1.83-.09-.58-.04-1.16-.07-1.74-.09-.45-.01-.89,0-1.33.02-.06,0-.08,0-.14,0-.13,0-.19-.01-.32-.02,0,.05-.01.08-.02.14-.21,1.41-.42,2.86-.7,4.3-.01.06-.02.09-.03.15-.09.35-.15.73-.21,1.1-.17,1.03-.39,2.31-1.05,3.42-.03.05-.04.07-.07.11-.51.75-1.26,1.17-2.06,1.15Z"/>
          <path d="M32.46,376.27c.54.01,1.07.5,1.21,1.21.1.46.06.95,0,1.4-.15.99-.27,1.99-.49,2.94-.32,1.42-.46,2.9-.82,4.31-.15.63-.25,1.41.21,1.95.39.49.98.89,1.43,1.37,1.43,1.5,3.08,2.57,4.51,4.07,1.32,1.5.75,3.25-.8,3.21-.05,0-.1,0-.14,0-.1,0-.19,0-.29,0-1.18-.03-2.38-.15-3.57-.18-.49-.01-.97,0-1.45.02-.23,0-.45-.03-.67-.03-.67-.02-1.2.12-1.33,1.23-.25,1.65-.47,3.29-.78,4.91-.32,1.28-.36,2.8-.99,3.86-.18.27-.44.39-.71.39-.28,0-.57-.15-.81-.41-.53-.55-.76-1.41-1.04-2.15-.87-2.35-1.59-4.77-2.32-7.18-.22-.62-.62-.77-1.06-.78-.34,0-.71.07-1.05.06-.1,0-.19-.01-.28-.03-.25-.03-.49-.05-.72-.06-1.38-.04-2.63.34-4.02.31-.17,0-.33-.01-.5-.03-1.18-.24-1.72-1.84-.94-2.88,0,0,.72-1.26,1.13-1.64.72-.67,1.23-1.41,1.91-2.09.55-.55,1.07-1.14,1.64-1.66,1.1-.92.46-1.95-.01-3.27-.63-2.08-1.41-4.11-2.02-6.2-.15-.5-.3-1.04-.25-1.55.05-.73.54-1.23,1.11-1.21.04,0,.07,0,.11,0,.63.07,1.19.6,1.74,1.04,1.34,1.11,2.62,2.35,3.91,3.55.5.44.99,1.13,1.59,1.17.54-.04.93-.63,1.35-1.01.79-.82,1.59-1.62,2.4-2.41.84-.78,1.64-1.99,2.72-2.2.04,0,.08,0,.12,0M32.57,371.91h0c-.16,0-.32,0-.48.02h-.11s-.07.03-.11.03c-1.77.34-2.98,1.65-3.79,2.52-.18.19-.35.37-.47.49-.01.01-.02.02-.03.03-.01.01-.02.02-.03.03-.65.64-1.2,1.19-1.71,1.7-.11-.1-.22-.21-.33-.31-1.03-.97-2.1-1.97-3.23-2.91-.08-.07-.13-.1-.21-.17-.67-.55-1.67-1.38-3.04-1.55-.13-.02-.26-.03-.38-.03-2.38-.06-4.4,2.22-4.63,5.2-.11,1.41.18,2.62.46,3.53.35,1.2.75,2.35,1.12,3.47.27.78.52,1.53.75,2.26-.12.12-.24.24-.36.36-.43.42-.78.83-1.09,1.19-.28.32-.51.6-.75.82-.54.51-1.14,1.32-1.79,2.44-1.06,1.6-1.4,3.77-.89,5.75.57,2.19,2.07,3.78,3.91,4.16.05.01.08.02.13.03.05,0,.08,0,.14.01.24.02.48.04.71.05.9.02,1.72-.08,2.43-.18.59-.08,1.11-.14,1.59-.13.12,0,.24.01.35.02.09.02.18.03.27.04.55,1.81,1.13,3.65,1.81,5.47.06.15.1.26.14.37.31.86.78,2.17,1.79,3.24.83.88,1.86,1.38,2.91,1.41,1.31.03,2.55-.66,3.4-1.91.03-.05.05-.07.08-.11.03-.05.04-.07.07-.12.89-1.5,1.16-3.12,1.36-4.3.06-.35.11-.68.17-.88.02-.06.02-.09.04-.15.01-.06.02-.09.03-.16.18-.93.33-1.85.47-2.76.1,0,.21,0,.32,0,.56.01,1.12.05,1.68.09.63.04,1.26.08,1.88.1.09,0,.14,0,.23,0,.07,0,.14,0,.21,0,2.15.06,4.01-1.42,4.75-3.75.77-2.42.18-5.14-1.53-7.1-.02-.02-.03-.03-.05-.06-.02-.02-.03-.03-.05-.05-.86-.9-1.72-1.62-2.55-2.32-.71-.59-1.38-1.16-1.96-1.76-.08-.09-.16-.17-.24-.25.08-.42.14-.82.21-1.21.1-.59.19-1.15.3-1.63.23-1,.37-1.99.5-2.87.03-.19.04-.29.07-.48.11-.83.23-2.01-.05-3.32-.52-2.54-2.33-4.35-4.41-4.41h0Z"/>
        </g>
      </g>
      <g>
        <g>
          <path class="cls-2" d="M274.62,620.07c-4.72,3.61-2.96,6.6,2.1,11.92,2.34,2.46,5.56,8.21,3.53,19.07s63.33,9.84,61.71,3.88c-2.88-10.64-19.35-50.21-20.85-66.01-1.42-14.99-7.65-6.82-18.29.5s-28.2,30.64-28.2,30.64Z"/>
          <path d="M314.61,660.9c-13.25,0-27.33-1.48-33-5.03-2.8-1.75-3.09-3.73-2.83-5.09,2.04-10.89-1.52-16.05-3.14-17.76-3.49-3.68-5.47-6.34-5.25-9.09.14-1.77,1.15-3.34,3.16-4.92,1.71-2.26,18.06-23.69,28.43-30.82,1.85-1.28,3.54-2.55,5.18-3.79,4.89-3.71,8.42-6.39,11.48-5.04,2.23.98,3.46,3.89,3.98,9.43.99,10.46,8.86,32.07,14.61,47.85,2.81,7.72,5.24,14.38,6.19,17.91.13.48.28,1.71-1.15,2.77-3,2.22-14.94,3.59-27.65,3.59ZM316.93,582.01c-1.66,0-4.86,2.43-7.96,4.78-1.58,1.2-3.38,2.56-5.29,3.87-10.32,7.09-27.68,30.08-27.85,30.31l-.12.16-.16.12c-1.38,1.06-2.09,2.01-2.16,2.91-.13,1.62,1.68,3.89,4.43,6.79,2.41,2.54,6.13,8.57,3.92,20.38-.2,1.05,1.31,2,2.61,2.6,5.34,2.49,17.5,4.02,31.73,3.91,14.42-.08,22.79-1.71,24.35-2.88-.99-3.5-3.33-9.92-6.02-17.31-5.8-15.93-13.75-37.75-14.78-48.59-.52-5.45-1.6-6.7-2.2-6.96-.14-.06-.31-.09-.49-.09Z"/>
        </g>
        <path class="cls-8" d="M302.49,591.47c.3.22-1.13,1.1.91,2.27,10.78,6.18,21.66,31.61,25.33,47.61l10.22,8.11-4.28-15.41-13.37-43.48-2.19-8.96-3.61-1.58-13.02,11.44Z"/>
        <g>
          <path class="cls-2" d="M293.56,643.73c-16.63,7.98-24.05,20.38-19.58,31.42-1.2,1.61-2.06,4.02-2.11,5.06-.07,1.5,1.72,6.61,17.97,8.44,31.09,3.49,58.9-5.96,59.73-14.34.25-2.53-.91-4.39-2.68-5.77.75-1.6.93-3.3.41-5.12-1.49-5.29-8.85-18.62-21.97-23.59"/>
          <path d="M293.95,644.54c-10.53,5.88-23.36,16.65-18.58,30.04,0,0,.3.82.3.82l-.49.64c-.83,1.22-1.76,2.93-1.78,4.43,1.81,4.4,10.16,5.68,14.49,6.4,17.64,2.11,36.59,1.25,52.95-6.12,2.5-1.27,5.01-2.73,6.6-4.97.38-.65.67-1.26.67-2.07.11-2.04-1.39-3.52-3.03-4.73,0,0,.46-1.09.46-1.09,1.24-2.7-.13-5.27-1.31-7.81-1.39-2.73-3.03-5.38-4.96-7.8-3.86-4.85-8.65-8.92-14.27-11.61-.45-.22-.64-.76-.43-1.22.2-.41.66-.6,1.08-.48,9.63,2.93,17.07,10.85,21.48,19.68,1.57,3.08,2.98,7.19,1.11,10.52,0,0-.45-1.85-.43-1.82,2.8,2,4.25,6.05,2.6,9.26-2.99,5.07-8.86,7.26-14.04,9.24-15.74,5.25-32.55,6.06-48.91,4-5.59-.93-15.12-2.46-17.01-8.79-.3-2.48.99-4.78,2.32-6.81,0,0-.19,1.46-.19,1.46-1.46-3.39-1.84-7.29-1.09-10.91,1.46-7.21,6.68-12.93,12.48-16.98,2.9-1.97,5.99-3.6,9.2-4.91.46-.19.99.04,1.18.5.17.43,0,.91-.4,1.13h0Z"/>
        </g>
        <path class="cls-8" d="M334.04,644.82c5.28,3.67,10.85,13.01,10.85,13.01,0,0,3.66,3.67,2,6.77s.88,4.32-3,6.98-11.53,7.21-17.18,7.76-6.1-9.64-1.22-14.08,12.93-13.86,1.22-15.8c-17.63-2.93-12.96-8.52-4.21-8.69,3.79-.07,9.43,2.58,11.54,4.05Z"/>
        <path d="M348.22,669.21c-2.35,5.14-8.06,7.37-13.06,9-1.65.53-3.31.99-4.97,1.43-.47.12-.96-.16-1.08-.63-.12-.46.14-.93.59-1.07,1.61-.53,3.2-1.08,4.77-1.69,3.63-1.51,7.67-3.07,9.99-6.34.81-1.03,1.18-3.6,3.09-2.78.78.36,1.1,1.33.68,2.08h0Z"/>
        <path d="M281.72,651.33l-2.95-.55c2.04-10.89-1.52-16.05-3.14-17.76-3.49-3.68-5.47-6.34-5.25-9.09.14-1.77,1.15-3.34,3.16-4.92,1.71-2.26,18.06-23.69,28.43-30.82,1.85-1.28,3.54-2.55,5.18-3.79,4.89-3.71,8.42-6.39,11.48-5.04,2.23.98,3.46,3.89,3.98,9.43.99,10.46,8.86,32.07,14.61,47.85,1.44,3.95,2.79,7.67,3.88,10.78l-2.83.99c-1.08-3.08-2.43-6.8-3.87-10.74-5.8-15.93-13.75-37.75-14.78-48.59-.52-5.45-1.6-6.7-2.2-6.96-1.44-.62-5.01,2.07-8.46,4.69-1.58,1.2-3.38,2.56-5.29,3.87-10.32,7.09-27.68,30.08-27.85,30.31l-.12.16-.16.12c-1.38,1.06-2.09,2.01-2.16,2.91-.13,1.62,1.68,3.89,4.43,6.79,2.41,2.54,6.13,8.57,3.92,20.38Z"/>
        <path d="M293.95,644.54c-10.53,5.88-23.36,16.65-18.58,30.04,0,0,.3.82.3.82l-.49.64c-.83,1.22-1.76,2.93-1.78,4.43,1.81,4.4,10.16,5.68,14.49,6.4,17.64,2.11,36.59,1.25,52.95-6.12,2.5-1.27,5.01-2.73,6.6-4.97.38-.65.67-1.26.67-2.07.11-2.04-1.39-3.52-3.03-4.73,0,0,.46-1.09.46-1.09,1.24-2.7-.13-5.27-1.31-7.81-1.39-2.73-3.03-5.38-4.96-7.8-3.86-4.85-8.65-8.92-14.27-11.61-.45-.22-.64-.76-.43-1.22.2-.41.66-.6,1.08-.48,9.63,2.93,17.07,10.85,21.48,19.68,1.57,3.08,2.98,7.19,1.11,10.52,0,0-.45-1.85-.43-1.82,2.8,2,4.25,6.05,2.6,9.26-2.99,5.07-8.86,7.26-14.04,9.24-15.74,5.25-32.55,6.06-48.91,4-5.59-.93-15.12-2.46-17.01-8.79-.3-2.48.99-4.78,2.32-6.81,0,0-.19,1.46-.19,1.46-1.46-3.39-1.84-7.29-1.09-10.91,1.46-7.21,6.68-12.93,12.48-16.98,2.9-1.97,5.99-3.6,9.2-4.91.46-.19.99.04,1.18.5.17.43,0,.91-.4,1.13h0Z"/>
      </g>
      <g>
        <path class="cls-2" d="M51.18,638.69c.73.59,3.34,2.38,8.54,3.33"/>
        <path d="M52.12,637.52c2.12,1.9,4.99,2.95,7.73,3.72.43.11.68.55.56.97-.1.38-.47.62-.85.58-3.26-.4-6.55-1.09-9.37-2.96-1.72-1.27.34-3.77,1.91-2.31h0Z"/>
      </g>
      <path d="M167.35,198.64c-.83,0-1.5-.67-1.5-1.5,0-3.78-1.33-9.73-1.67-10.91-.11-.38-.2-.77-.3-1.2-.34-1.46-.73-3.11-2.22-5.76-1.64-2.92-6.86-7.25-14.54-7.07-7.43.13-12.89,7.54-14.88,10.72-.44.7-1.37.91-2.07.47-.7-.44-.91-1.37-.47-2.07,2.26-3.59,8.47-11.96,17.37-12.12,8.4-.11,14.83,4.35,17.21,8.6,1.7,3.02,2.17,5.06,2.52,6.54.09.37.17.72.27,1.06.38,1.31,1.77,7.58,1.78,11.73,0,.83-.67,1.5-1.5,1.5h0Z"/>
      <path d="M34.07,216.5c-.8,0-1.46-.63-1.5-1.44-.32-7.9-.22-13.92,1.27-17.64,1.87-4.65,4.74-7.8,8.75-9.62,6.65-3.01,14.17,1.09,16.32,2.42.7.44.92,1.36.49,2.06-.44.7-1.36.92-2.06.49-1.3-.81-8.07-4.7-13.5-2.24-3.28,1.49-5.64,4.11-7.21,8.01-1.37,3.41-1.32,9.89-1.06,16.39.03.83-.61,1.53-1.44,1.56-.02,0-.04,0-.06,0Z"/>
      <path d="M32.37,206.37c-4.11-.86-7.88-3.28-9.78-7.02-.16-.33-.02-.73.31-.89.29-.14.64-.05.83.2,2.06,2.58,5.67,3.97,8.86,3.93,2.92-.13,2.68,4.22-.21,3.78h0Z"/>
      <path d="M34.76,200.07c-3.18-.85-5.93-2.9-7.4-5.81-.14-.28-.02-.62.26-.76.25-.12.55-.04.71.17,1.58,2,4.28,3.29,6.76,3.42,2.32,0,1.94,3.48-.33,2.98h0Z"/>
      <path d="M37.05,194.29c-2.36-.56-4.42-2.02-5.45-4.2-.13-.3,0-.65.3-.79.24-.11.52-.04.69.15.6.69,1.38,1.17,2.22,1.47.71.25,1.76.48,2.43.37.84-.2,1.68.32,1.87,1.15.31,1.2-.93,2.23-2.06,1.84h0Z"/>
      <path d="M163.89,179.38c2.96-1.18,5.75-3.84,6.66-7.02.1-.35.47-.56.83-.46.3.09.49.37.48.67-.08,2.01-.79,4.02-1.87,5.75-1.22,1.88-2.47,3.38-4.44,4.68-2.63,1.52-4.53-2.63-1.66-3.63h0Z"/>
      <path d="M159.48,175.37c2.25-1.08,4.22-3.31,4.91-5.78.07-.3.38-.48.68-.4.25.07.41.3.4.55-.21,3.25-1.93,6.22-4.52,8.24-1.9,1.36-3.62-1.7-1.47-2.61h0Z"/>
      <path d="M155.23,170.88c1.54-.5,3.06-1.88,3.61-3.47.09-.3.4-.47.7-.36.22.08.37.29.36.51-.07,2.4-1.39,4.55-3.32,6-2.19,1.7-4.01-2.02-1.35-2.68h0Z"/>
      <g>
        <g>
          <path class="cls-7" d="M131.74,474.53c-5.65,2-36.58,23.94-47.89,38.24s-14.96,42.23-8.31,55.53c0,0,1,6.65,2,7.98s27.6,18.62,54.2-2c0,0,2.33-2-3.99-14.63,0,0-3.66-4.99,8.65-9.64,12.3-4.66,33.59-6.65,42.23-18.95,8.65-12.3-46.89-56.53-46.89-56.53Z"/>
          <path d="M103.54,585.83c-2.06,0-4.13-.14-6.21-.42-12-1.62-20.22-7.21-20.99-8.22-1.07-1.42-1.9-6.2-2.24-8.43-7.03-14.42-2.81-42.51,8.58-56.92,11.37-14.38,42.33-36.53,48.56-38.73l.78-.28.65.52c.14.11,14.09,11.25,26.8,23.76,17.84,17.55,24.5,28.94,20.38,34.81-6.62,9.43-19.88,12.97-31.57,16.1-4.17,1.11-8.11,2.17-11.36,3.4-6.16,2.33-7.69,4.56-8.06,5.68-.32.99.07,1.63.11,1.7l.11.19c5.95,11.91,4.83,15.41,3.63,16.44-8.86,6.87-18.83,10.4-29.18,10.4ZM78.7,575.34c1.05.78,26.08,17.73,51.88-2.04.14-.57.5-3.59-4.14-12.88-.3-.47-1.1-2-.48-4.09.88-2.96,4.21-5.56,9.9-7.71,3.39-1.28,7.4-2.36,11.65-3.49,11.2-2.99,23.89-6.39,29.89-14.92,5.64-8.03-24.87-37.09-45.9-53.94-6.8,3.22-35.55,23.64-46.47,37.45-10.66,13.48-14.77,40.7-8.15,53.93l.11.21.04.24c.44,2.91,1.21,6.45,1.68,7.25Z"/>
        </g>
        <path class="cls-4" d="M119.03,482.36c-3.37,5.99-25.66,44.3-10.36,62.73s8.44,37.1,8.44,37.1l14.63-7.9-3.99-14.63,2.54-7.13,35.08-11.59,13.25-9.89-.79-23.18-21.62-37.15h-20.45l-16.74,11.63Z"/>
        <path d="M103.54,585.83c-2.06,0-4.13-.14-6.21-.42-12-1.62-20.22-7.21-20.99-8.22-1.07-1.42-1.9-6.2-2.24-8.43-7.03-14.42-2.81-42.51,8.58-56.92,11.37-14.38,42.33-36.53,48.56-38.73l.78-.28.65.52c.14.11,14.09,11.25,26.8,23.76,17.84,17.55,24.5,28.94,20.38,34.81-6.62,9.43-19.88,12.97-31.57,16.1-4.17,1.11-8.11,2.17-11.36,3.4-6.16,2.33-7.69,4.56-8.06,5.68-.32.99.07,1.63.11,1.7l.11.19c5.95,11.91,4.83,15.41,3.63,16.44-8.86,6.87-18.83,10.4-29.18,10.4ZM78.7,575.34c1.05.78,26.08,17.73,51.88-2.04.14-.57.5-3.59-4.14-12.88-.3-.47-1.1-2-.48-4.09.88-2.96,4.21-5.56,9.9-7.71,3.39-1.28,7.4-2.36,11.65-3.49,11.2-2.99,23.89-6.39,29.89-14.92,5.64-8.03-24.87-37.09-45.9-53.94-6.8,3.22-35.55,23.64-46.47,37.45-10.66,13.48-14.77,40.7-8.15,53.93l.11.21.04.24c.44,2.91,1.21,6.45,1.68,7.25Z"/>
      </g>
      <g>
        <g>
          <path class="cls-7" d="M205.58,317.54s5.37,12.83,9.81,15.93,8.2,84.63,17.51,104.58c9.31,19.95,25.97,28.9,29.07,35.99,3.1,7.09,9.51,37.61-6.01,58.45-15.52,20.84-77.99,9.64-87.79,2.22-7.29-5.52-35.47-50.1-39.02-73.16-3.55-23.06-20.4-27.14-21.73-43.05s.89-47.84,18.18-76.22c0,0,1.95-8.24,6.82-7.98,15.71.83,32.42,7.34,73.16-16.77Z"/>
          <path d="M218.23,545.94c-21.33,0-44.72-5.29-50.97-10.03-7.77-5.89-35.99-50.72-39.59-74.13-1.83-11.9-7.42-18.68-12.34-24.67-4.49-5.46-8.74-10.61-9.4-18.49-.57-6.88-2.39-42.87,18.28-76.93.4-1.51,2.73-9.18,8.3-8.89,2.3.12,4.58.36,7,.61,13.75,1.43,30.88,3.21,65.32-17.17.37-.22.82-.27,1.24-.13.41.14.74.44.91.84,1.45,3.46,5.94,12.95,9.29,15.29,2.27,1.59,3.51,11.05,6.5,37.68,2.82,25.12,6.32,56.38,11.51,67.5,5.66,12.13,14.24,20.24,20.5,26.17,4.07,3.85,7.28,6.89,8.58,9.86,2.34,5.35,10.69,37.29-6.18,59.95-4.49,6.02-12.81,9.94-24.74,11.63-4.46.63-9.28.92-14.19.92ZM132.2,335.8c-3.41,0-5.13,6.77-5.14,6.83-.04.15-.1.3-.18.43-15.75,25.84-19.52,56.72-17.96,75.31.58,6.95,4.35,11.53,8.72,16.84,5.17,6.28,11.04,13.4,12.99,26.12,3.6,23.36,32.08,67.37,38.44,72.19,6.57,4.97,39.13,11.92,62.93,8.54,11.11-1.58,18.76-5.1,22.75-10.45,14.61-19.62,9.31-49.03,5.84-56.95-1.05-2.41-4.07-5.27-7.89-8.88-6.44-6.09-15.26-14.43-21.16-27.08-5.39-11.56-8.93-43.09-11.77-68.43-1.76-15.72-3.76-33.52-5.32-35.61-3.82-2.75-7.93-11.3-9.57-14.96-34.32,19.98-51.69,18.17-65.69,16.71-2.38-.25-4.62-.48-6.85-.6-.05,0-.09,0-.14,0Z"/>
        </g>
        <path class="cls-4" d="M119.45,440.2c-3.78-5.64,18.48,8.14,35.99,9.92,0,0,9.75.44,13.52,11.75s1.55,26.16,5.99,34.81,18.87,27.9,18.87,27.9l5.89,19.2-32.34-9.74s-26.84-34.01-33.24-54.64-9.88-32.04-14.68-39.19Z"/>
        <path d="M217.44,545.25c-21.33,0-44.72-5.29-50.97-10.03-7.77-5.89-35.99-50.72-39.59-74.13-1.83-11.9-7.42-18.68-12.34-24.66-4.49-5.46-8.74-10.61-9.4-18.5-.57-6.88-2.39-42.87,18.28-76.93.4-1.51,2.74-9.17,8.3-8.89,2.3.12,4.58.36,7,.61,13.76,1.43,30.88,3.21,65.32-17.17.37-.22.82-.27,1.24-.13.41.14.74.44.91.84,1.45,3.46,5.94,12.95,9.29,15.29,2.27,1.59,3.52,11.05,6.5,37.68,2.82,25.12,6.32,56.38,11.51,67.5,5.87,12.57,17.87,23.97,25.81,31.52,5.48,5.21,8.14,7.8,8.59,9.72,3.35,14.39-.09,39.41-11.49,54.73-4.49,6.02-12.81,9.94-24.74,11.63-4.46.63-9.27.92-14.19.92ZM131.41,335.11c-3.41,0-5.13,6.76-5.14,6.83-.04.15-.1.3-.18.43-15.75,25.84-19.52,56.72-17.97,75.31.58,6.95,4.35,11.53,8.72,16.84,5.17,6.28,11.04,13.4,12.99,26.11,3.59,23.36,32.08,67.37,38.44,72.19,6.57,4.97,39.13,11.92,62.93,8.54,11.11-1.58,18.76-5.1,22.75-10.45,10.89-14.63,14.18-38.52,10.98-52.26-.26-1.13-4.23-4.9-7.73-8.23-8.11-7.7-20.35-19.34-26.46-32.42-5.39-11.56-8.93-43.09-11.77-68.43-1.76-15.72-3.76-33.53-5.32-35.61-3.82-2.75-7.93-11.29-9.57-14.96-34.32,19.98-51.69,18.17-65.69,16.71-2.38-.25-4.62-.48-6.85-.6-.05,0-.09,0-.14,0Z"/>
      </g>
      <path d="M158.22,265.26c-.05,0-.11,0-.16,0-.82-.09-1.42-.83-1.33-1.65.78-7.25-6.5-9.34-6.81-9.43-.8-.22-1.27-1.04-1.05-1.84.22-.8,1.03-1.27,1.83-1.06,3.49.93,9.86,4.78,9.01,12.64-.08.77-.73,1.34-1.49,1.34Z"/>
      <g>
        <line class="cls-5" x1="249.46" y1="414.03" x2="261.17" y2="416.67"/>
        <path d="M249.79,412.57l11.5,3.58c.61.19.4,1.13-.23,1.03,0,0-11.92-1.69-11.92-1.69-2.11-.38-1.41-3.49.66-2.93h0Z"/>
      </g>
      <g>
        <path class="cls-7" d="M208.86,325.19c-1.59,1.22-22.21,10.86-31.02,13.19"/>
        <path d="M209.78,326.38c-7.55,4.06-15.59,7.15-23.58,10.24-2.66.98-5.34,1.91-8.13,2.62-.48.12-.96-.16-1.08-.64-.12-.47.16-.95.63-1.08,2.63-.78,5.25-1.79,7.83-2.85,7.63-3.24,15.28-6.61,22.51-10.68,1.68-1.35,3.61,1.14,1.82,2.38h0Z"/>
      </g>
      <g>
        <path class="cls-7" d="M124.81,341.6c1.82.77,7.31,1.77,10.96,1.94"/>
        <path d="M125.4,340.22c3.19,1.37,6.96,2.1,10.42,2.6.88.1.81,1.44-.07,1.45-2.87.04-5.7-.19-8.54-.61-1.34-.3-4.53-.34-3.93-2.57.28-.87,1.32-1.29,2.13-.86h0Z"/>
      </g>
      <path d="M12.53,141.85c8.97,21.92,34.55,20.48,50.49,7.06,5.22-4.19,9.96-9.14,13.95-14.43.48-.7,1.46-.87,2.14-.35.67.51.79,1.48.27,2.14-10.76,13.34-26.1,25.47-44.15,24.04-10.67-.57-20.08-8.22-23.63-18.11-.21-.61.69-.96.92-.34h0Z"/>
      <g>
        <g>
          <path class="cls-11" d="M78.18,304.54s5.37,12.78,17.35,16.42c29.14,8.84,54.03-20.2,51.5-54.56"/>
          <path d="M106.06,324.06c-3.62,0-7.3-.55-10.96-1.66-12.51-3.8-18.07-16.72-18.3-17.27-.32-.76.04-1.64.8-1.96.76-.32,1.64.04,1.96.8.05.12,5.27,12.18,16.41,15.56,11.03,3.35,22.16,1.15,31.34-6.2,12.63-10.11,19.62-28.05,18.24-46.82-.06-.83.56-1.55,1.39-1.61.83-.06,1.55.56,1.61,1.39,1.45,19.75-5.96,38.67-19.35,49.39-6.93,5.54-14.88,8.39-23.12,8.39Z"/>
        </g>
        <path class="cls-1" d="M80.21,305.97s4.53-.91,7.18.38c5.25,2.56,11.71,7.93,21.04,5.24,14.03-4.04,19.6-13.49,19.6-13.49,0,0,2.35,21.53-19.6,23.97-18.7,2.08-28.22-16.1-28.22-16.1Z"/>
        <path d="M83.55,306.34l61.08-32.58s-13.75,33.03-38.32,39.32c-15.37,3.93-22.76-6.75-22.76-6.75Z"/>
        <g>
          <path class="cls-11" d="M77.99,246.23c-7.88,1.38-22.95,8.98-26.6,15.63s-3.99,22.68,1.16,28.84c6.37,7.61,13.8,17.05,40.07,13.4s54.41-30.05,54.41-37.7c0-7.04-10.38-12.75-28.76-18.29-15.05-4.53-26.98-4.2-40.28-1.87Z"/>
          <path d="M81.82,306.41c-18.09,0-24.67-7.86-30.12-14.38l-.31-.37c-5.43-6.48-5.35-23.22-1.33-30.52,4.01-7.29,19.54-14.96,27.66-16.38h0c11.38-1.99,24.22-3.14,40.97,1.91,20.63,6.22,29.83,12.3,29.83,19.72,0,9.12-29.74,35.57-55.71,39.19-4.08.57-7.73.83-11,.83ZM78.25,247.71h0c-7.41,1.3-22.11,8.63-25.55,14.88-3.48,6.33-3.55,21.72,1,27.15l.31.37c6.27,7.5,13.38,15.99,38.41,12.51,11.14-1.55,24.38-7.77,36.35-17.05,10.36-8.04,16.78-16.21,16.78-19.16,0-5.72-9.06-11.23-27.7-16.85-16.16-4.87-28.58-3.76-39.59-1.83Z"/>
        </g>
        <path class="cls-1" d="M68.54,275.93c.17-1.06,4.87-11.83,8.27-4.78,0,0-.72-11.36-9.12-6.02-5.77,3.67.86,10.8.86,10.8Z"/>
        <path d="M76.23,273.69c1.26-3.86-1.97-9.37-6.13-8.25-4.17,1.51-3.74,7.79-.48,10.21.82.6.02,1.9-.88,1.45-5.72-2.66-6-12.54.46-14.56,3.1-1.05,6.61.71,8.17,3.4,1.56,2.56,1.72,5.9.17,8.36-.45.72-1.58.18-1.32-.61h0Z"/>
        <path class="cls-1" d="M94.29,273.95c-1.14-2.86-3.7-9.23,5.41-10.05,4.79-.43,5.17,3.12,4.11,6.77,0,0-1.09-2.97-4.78-1.76-5.02,1.64-4.74,5.05-4.74,5.05Z"/>
        <path d="M93.4,274.95c-4.93-7.37,4.94-17.4,11.27-9.74,2.68,3.66,1.56,9.34-2.29,11.66-.78.46-1.57-.63-.89-1.23,3.16-2.66,2.99-9.31-1.31-10.29-4.32-.82-7.3,5.12-5.5,8.88.36.8-.78,1.44-1.27.73h0Z"/>
        <path class="cls-1" d="M57.23,256.01c-1.07,3.75-9.91,31.49,18.19,36.21,6.95,1.17,15.87,1.63,26.6.81s28.27-6.77,28.27-6.77c0,0-11.31,8.34-23.98,13.45-17.07,6.88-38.02,9.84-50.45-3.04-13.46-13.93-4.94-34.28-4.94-34.28l6.31-6.37Z"/>
        <path d="M81.82,306.41c-18.09,0-24.67-7.86-30.12-14.38l-.31-.37c-5.43-6.48-5.35-23.22-1.33-30.52,4.01-7.29,19.54-14.96,27.66-16.38h0c11.38-1.99,24.22-3.14,40.97,1.91,20.63,6.22,29.83,12.3,29.83,19.72,0,9.12-29.74,35.57-55.71,39.19-4.08.57-7.73.83-11,.83ZM78.25,247.71h0c-7.41,1.3-22.11,8.63-25.55,14.88-3.48,6.33-3.55,21.72,1,27.15l.31.37c6.27,7.5,13.38,15.99,38.41,12.51,11.14-1.55,24.38-7.77,36.35-17.05,10.36-8.04,16.78-16.21,16.78-19.16,0-5.72-9.06-11.23-27.7-16.85-16.16-4.87-28.58-3.76-39.59-1.83Z"/>
      </g>
      <g>
        <path class="cls-11" d="M94.86,64.36c-1.6-2.98-5.44-3.89-8.21-1.95l.79-.56c2.48-1.74,3.17-5.12,1.59-7.7l-8.36-13.59c-1.89-3.08-6.13-3.66-8.78-1.2l1.73-1.6c1.94-1.79,2.23-4.75.68-6.89l-6.93-9.54c-1.89-2.6-7.17-.72-9.43,1.56l2.22-2.88c1.95-1.96,1.82-5.17-.28-6.96l-12.02-10.28c-1.02-.87-2.36-1.27-3.69-1.1-1.99.26-4.64,1.7-4.69,4.67-.07,3.83,1.97,19.3,1.97,19.3,1.44,6.89,4.5,7.46,8.48,4.62l-3.94,3.96c-1.4,1.4-1.88,3.48-1.24,5.35l3.84,11.35c1.21,3.58,3.61,5.92,13.97-2.6l-8.5,7.55c-1.74,1.61-2.31,4.13-1.43,6.33l4.82,12.11c1.37,3.44,5.6,4.7,8.63,2.57l14.89-10.48-17.02,11.97c-2.21,1.56-3.01,4.47-1.89,6.94l4.13,9.09c1.3,2.87,3.39,3.84,7.83,3.63s7.65-.58,14.71-3.74,9.75-6.25,11.72-8.81,2.82-5.43,1.31-8.26l-6.89-12.87Z"/>
        <path class="cls-1" d="M81.49,67.8c2.63-5.27-14.64,6.69-16.87,10.1-1.37,2.1-3.69,4.93-2,8.66s5.65,8.62,5.65,8.62c0,0-2.28-4.65,4.6-15.91,1.83-2.99,5.69-7.71,8.62-11.47Z"/>
        <path class="cls-1" d="M63.94,49.85c1.91-4.73-8.27,4.15-9.89,7.2-1,1.88-1.42,4.28-.19,7.64,1.23,3.35,4.76,9.65,4.76,9.65,0,0-2.39-6.69.02-14.05.93-2.85,3.17-7.07,5.3-10.45Z"/>
        <path class="cls-1" d="M50.48,30.97c.87-4.13-4.15,3.12-4.88,5.79-.45,1.65,3.43,10.87,3.99,13.8.56,2.93,2.16,2.02,2.16,2.02,0,0-2.11-6.27-2.94-12.75-.39-3.05.7-5.92,1.67-8.87Z"/>
        <path class="cls-1" d="M47.23,4.34c-5.04.16-1.19,22.69,1.08,25.86,0,0-2.67,1.99-4.32-.47-1.21-1.79-2.24-5.93-3.24-13.09-2.19-15.73,3.41-14.97,6.48-12.29Z"/>
        <path d="M93.54,65.06c-1.13-2.13-4.05-2.77-6.02-1.43,0,0-1.73-2.45-1.73-2.45,2.15-1.03,3.35-3.6,2.26-5.81-1.13-2-3.34-5.41-4.58-7.46-.79-1.27-2.77-4.47-3.52-5.69-1.37-2.84-4.56-3.92-7.05-1.75-1.48,1.3-3.45-.85-2.03-2.21.64-.65,2.05-1.74,2.44-2.55.7-1.3.57-2.87-.35-4.07,0,0-1.18-1.63-1.18-1.63-1.46-2-3.86-5.35-5.32-7.35-1.35-2.45-5.99-.19-7.6,1.16-.93.84-2.45-.2-2.07-1.35.17-.74.56-1.41,1.02-1.96,0,0,1.11-1.44,1.11-1.44.04-.05.09-.1.13-.15,1.29-1.25,1.18-3.54-.21-4.67,0,0-.4-.34-.4-.34-2.03-1.71-7.57-6.45-9.56-8.12-.62-.45-2.15-2-2.89-2.26-1.56-.78-4.3.4-4.73,1.99-.27.67-.11,2.17-.04,3.51.33,4.13.78,8.27,1.23,12.4.24,2.21.51,5.69,1.63,7.56.52.88,1.01,1.49,2.01,1.62.93.13,2.22-.32,3.54-.75.13-.24.43-.33.67-.2.44.27.23.67,0,.99-1.13,2.13-3.19,3.81-4.12,5.82-.54,1.28-.04,2.68.44,3.89.55,1.49,2,5.63,2.55,7.19.46,1.08,1.04,3.46,1.65,4.29,1.81,2.55,8.84-3.31,10.76-4.66.65-.54,1.63-.44,2.15.24.49.63.39,1.52-.2,2.04l-5.62,4.93-2.81,2.46c-1.39,1.18-1.88,3.16-1.23,4.84.03.16,1.43,3.64,1.52,3.92.34.86,2.92,7.56,3.21,8.28,1.11,2.88,4.78,3.76,7.17,1.82,4.83-3.43,9.85-6.61,14.8-9.85.32-.21.75-.13.96.19.2.31.12.71-.17.93-3.44,2.47-6.72,5.18-9.93,7.94-1.72,1.24-3.49,2.4-5.22,3.6l-1.31.9c-1.77,1.1-2.44,3.43-1.59,5.3.87,1.93,3.05,6.69,3.94,8.65.42.98.81,1.64,1.38,2.17,1.29,1.12,3.28,1.16,5.03,1.11,5.16-.03,9.95-1.52,14.71-3.76,5.2-2.37,10.9-6.17,12.59-11.65.47-1.8-.56-3.48-1.41-4.99,0,0-6.01-11.18-6.01-11.18h0ZM96.18,63.65l5.97,11.2c1.24,2.1,2.29,4.47,1.68,6.97-2.79,10.53-20.07,17.69-30.08,17.64-3.88.27-7.62-.93-9.05-4.94,0,0-2.61-5.78-2.61-5.78l-1.31-2.9c-1.09-2.42-.65-5.41,1.1-7.4.71-.84,1.85-1.59,2.72-2.21,1.72-1.23,3.41-2.5,5.16-3.7,3.68-2.09,7.33-4.26,10.83-6.66,0,0,.8,1.12.79,1.12-4.49,3.36-8.91,6.85-13.51,10.05,0,0-.76.55-.76.55-1.45,1.13-3.34,1.74-5.19,1.48-2.45-.25-4.66-1.96-5.6-4.24,0,0-.18-.44-.18-.44l-.35-.87-2.84-6.92c-.89-2.35-2.63-5.3-1.98-7.89.33-2.76,3.15-4.75,5.03-6.48,0,0,5.57-5.01,5.57-5.01l1.95,2.28c-2.76,2.33-5.41,4.56-8.94,5.88-3.87,1.45-6.71-.55-7.72-4.36,0,0-.8-2.41-.8-2.41l-1.57-4.83-.77-2.42c-2.33-5.94,1.32-8.45,5.84-11.44,0,0,.68.8.67.8-1.5,2.01-4.59,3.39-6.89,1.7-2.08-1.52-2.77-4.12-3.32-6.35-.62-4.16-1.17-8.41-1.64-12.6-.16-3.04-.98-5.91-.22-9,1.2-3.57,5.69-5.42,9.11-3.96,1.35.51,2.62,1.95,3.72,2.81,0,0,3.17,2.73,3.17,2.73.62.6,6.87,5.83,7.23,6.27,2.52,2.46,1.94,6.95,0,8.66,0,0-1.11,1.43-1.11,1.43-.37.48-.75.95-1.31,1.29l-1.97-1.73c2.76-2.87,8.54-5.23,11.61-1.49.56.79,2.66,3.63,3.27,4.48,0,0,2.38,3.26,2.38,3.26.8,1.18,1.98,2.45,2.32,3.91.75,2.48-.22,5.36-2.18,6.98,0,0-1.49,1.36-1.49,1.36,0,0-2.04-2.2-2.04-2.2,1.38-1.27,3.27-1.98,5.14-1.91,2.79.05,5.22,1.88,6.45,4.32,0,0,1.16,1.9,1.16,1.9,2.17,3.66,4.94,7.88,7.03,11.6,1.41,2.99.42,6.8-2.22,8.76,0,0-.91.7-.91.7-.66.49-1.6.36-2.1-.31-1.65-2.76,4.31-4,6.13-3.29,1.97.47,3.7,1.83,4.63,3.61h0Z"/>
      </g>
      <g>
        <path class="cls-5" d="M254.62,294.96c.15-2.19,1.09-9.74-.54-14.94"/>
        <path d="M253.46,294.88c.6-4.88,1.27-9.91.09-14.71-.17-.66.83-.97,1.05-.32,1.64,4.91,1.39,10.15,1.18,15.21-.09,1.59-2.48,1.41-2.33-.18h0Z"/>
      </g>
      <g>
        <path class="cls-7" d="M243.02,474.53c6-3,21.15-2.31,25.72,7.02,6.35,12.94,8.24,32.29,12.88,56.77,0,0,.89,9.75,2.66,13.3s11.53,4.88,19.51,15.08c7.98,10.2,9.75,19.07,9.75,19.07,2.54,7.48-26.67,44.01-35.47,36.8,0,0-21.07-28.68-40.79-39.02-12.64-6.63-41.68-33.7-43.45-58.97-1.77-25.27,22.17-39.9,55.87-56.75"/>
        <path class="cls-4" d="M285.58,587.57c-1.55-7.32-19.07-18.84-23.06-17.96s-.22,11.08-7.21,14.73c-3.32,1.73-7.02,1.29-10.76.19-.64-.46-20.79-15.08.23-22.45,11.51-4.04,7.26-21.22,6.43-25.72-1.76-9.53-3.07-37.81-18.71-47-20.06-11.78-36.32,16.48-36.64,20.81-3.07,5.63-2.89,25.06,3.84,33.61,5.23,6.65,16.07,24.49,33.21,36.84-.14-.03-.28-.07-.41-.1l24.03,17.68,21.52,24.38,4.36.94,9.65-5.89c.06-8.09-4.94-22.72-6.49-30.04Z"/>
        <path d="M239.37,475.09c11.3-6.2,25.08-5.69,31.41,6.96,5.25,10.46,6.49,22.26,8.51,33.53,1.21,7.51,2.41,15.01,3.82,22.46.5,4.19.89,8.59,2.37,12.55.61,1.44,2.07,2,3.52,2.88,0,0,3.3,1.8,3.3,1.8,4.51,2.47,8.77,5.7,12.05,9.72,4.77,5.82,9.04,13.63,10.62,20.29,1.67,6.71-9.21,20.01-13.51,25.04-4.45,4.96-17.59,19.21-24.53,13.08-7.35-9.73-15.51-19.04-24.54-27.25-4.54-4.07-9.34-7.89-14.58-10.85-2.68-1.43-5.49-3.18-7.94-5.04-12.36-9.47-23.15-21.22-30.62-34.94-5.94-10.9-9.09-24.59-3.79-36.39.48-1,1.96-.39,1.58.65-4.66,11.43-1.58,24.21,4.26,34.64,7.38,13.29,17.99,24.82,30.09,33.98,2.49,1.84,4.91,3.37,7.69,4.83,5.52,3.09,10.45,6.98,15.11,11.12,9.26,8.35,17.49,17.64,25.05,27.55,5.56,2.22,15.79-8.56,20.01-13.35,3.89-4.55,13.27-16.28,12.89-22.12-1.74-7.01-5.57-13.7-10.1-19.33-3.07-3.76-6.93-6.67-11.19-9.01,0,0-3.29-1.79-3.29-1.79-1.69-.95-4.05-2.21-4.83-4.32-1.6-4.06-2.16-9.46-2.57-13.19-1.42-7.5-2.63-15.03-3.84-22.53-1.98-11.04-3.18-22.53-8.19-32.58-4.62-9.25-13.38-10.6-22.79-8.81-1.79.44-3.65,1.01-5.35,1.66-.77.32-1.33-.85-.59-1.25h0Z"/>
      </g>
      <g>
        <path class="cls-5" d="M216.96,229.86c2.11,1.77,9.01,8.25,15.97,10.86"/>
        <path d="M217.71,228.97c4.68,4.34,9.52,8.71,15.42,11.25.63.27.26,1.25-.4,1.02-6.23-2.22-11.5-6.38-16.54-10.5-1.21-1.01.32-2.82,1.52-1.77h0Z"/>
      </g>
      <g>
        <path class="cls-2" d="M125.01,461.26c0-.92.95-1.44,1.78-1.03,12.83,6.43,31.61,11.56,54.2,10.5,33.03-1.54,61.41-18.26,61.41-18.26,0,0,3.86.25,5.02,1.23s1.99,2.38,2.3,3.48-23.72,16.6-38.8,21.5c-13.58,4.41-39.9,7.46-67.78-.37-16.8-4.72-16.51-6.57-17.26-9.91-.35-1.54-.87-6.14-.88-7.15Z"/>
        <path d="M178.67,484.64c-11.08,0-23.4-1.36-35.94-4.88-16.24-4.56-17.37-6.67-18.23-10.63l-.09-.4c-.37-1.66-.9-6.39-.91-7.47h0c0-.94.46-1.78,1.24-2.27.82-.51,1.83-.55,2.71-.1,8.75,4.39,27.34,11.57,53.46,10.34,32.26-1.51,60.44-17.89,60.72-18.05l.4-.23.46.03c1.02.07,4.46.38,5.89,1.59,1.28,1.08,2.34,2.7,2.77,4.21.27.94.63,2.23-14.31,11.03-5.71,3.36-16.61,9.43-25.47,12.31-7.87,2.56-19.38,4.53-32.71,4.53ZM126.54,461.78c.11,1.51.53,5.04.81,6.3l.09.43c.53,2.47.88,4.1,16.1,8.37,26.96,7.57,52.89,4.94,66.91.39,13.33-4.33,34.08-17.35,37.56-20.35-.32-.68-.86-1.46-1.56-2.06-.38-.32-2.07-.7-3.71-.85-3.67,2.07-30.83,16.79-61.68,18.23-26.4,1.23-45.34-5.92-54.52-10.45ZM126.51,461.25h0s0,0,0,0Z"/>
      </g>
      <g>
        <path class="cls-4" d="M144.42,481.24l-4.45-1.46c-.86-.28-1.46-1.07-1.51-1.97l-.67-13.3c-.07-1.46,1.28-2.59,2.7-2.24l4.19,1.01c.93.22,1.61,1.03,1.67,1.98l.93,13.74c.11,1.55-1.39,2.72-2.87,2.23Z"/>
        <path d="M145.11,482.85c-.39,0-.77-.06-1.15-.18h0l-4.45-1.46c-1.44-.47-2.46-1.81-2.54-3.32l-.67-13.3c-.06-1.18.43-2.28,1.33-3.03s2.08-1.02,3.22-.75l4.19,1.01c1.58.38,2.71,1.72,2.82,3.34l.93,13.75c.08,1.23-.45,2.41-1.42,3.16-.66.51-1.46.78-2.26.78ZM139.98,463.71c-.21,0-.36.09-.44.16-.1.08-.26.27-.25.57l.67,13.29c.01.29.2.53.48.62l4.45,1.46c.31.1.53-.03.64-.11.11-.08.29-.27.27-.59l-.93-13.74c-.02-.3-.23-.55-.53-.63l-4.19-1.01c-.06-.01-.12-.02-.17-.02Z"/>
      </g>
      <g>
        <path class="cls-4" d="M202.34,483.87l4.76-1.93c.92-.37,1.52-1.28,1.5-2.27l-.25-14.61c-.03-1.61-1.59-2.74-3.13-2.25l-4.51,1.42c-1,.32-1.69,1.24-1.69,2.3v15.12c0,1.71,1.73,2.87,3.31,2.23Z"/>
        <path d="M201.44,485.55c-.77,0-1.53-.23-2.18-.67-1.08-.73-1.72-1.94-1.72-3.24v-15.12c0-1.72,1.1-3.21,2.74-3.73l4.51-1.42c1.19-.38,2.45-.17,3.46.56,1.01.73,1.6,1.86,1.62,3.1l.25,14.61c.03,1.6-.95,3.09-2.44,3.69l-4.76,1.93c-.47.19-.97.29-1.47.29ZM205.96,464.19c-.08,0-.18.01-.28.04l-4.51,1.42c-.38.12-.63.47-.63.87v15.12c0,.44.28.67.4.75.12.08.44.25.85.09l4.76-1.93c.34-.14.57-.48.57-.86l-.25-14.61c0-.4-.24-.62-.38-.72-.1-.07-.29-.17-.53-.17Z"/>
      </g>
      <g>
        <g>
          <path class="cls-7" d="M240.22,423.65c2,14.96-25.61,14.96-25.61,16.63s4.99,9.98,28.93,14.96c23.94,4.99,36.25-8.31,38.24-27.6,2-19.29-23.61-49.22-28.6-56.2-4.99-6.98-9.64-17.29-14.96-24.61-5.32-7.32-16.77-15.53-27.56-12.61-11.38,3.08-21.5,14.35-18.18,36.74,3.33,22.39,38.01,38.8,38.01,38.8,0,0,7.73-1.07,9.72,13.89Z"/>
          <path d="M253.19,457.81c-3.12,0-6.44-.37-9.95-1.1-24.59-5.12-30.13-13.8-30.13-16.43,0-1.66,1.48-1.93,5.44-2.66,7.51-1.37,21.49-3.93,20.17-13.77h0c-1.75-13.1-7.8-12.63-8.05-12.6-.27.03-.57-.02-.82-.13-1.45-.68-35.45-17.01-38.86-39.93-1.59-10.71-.32-19.66,3.77-26.6,3.45-5.85,8.95-10.04,15.5-11.81,12.01-3.24,24.02,6.1,29.17,13.18,2.8,3.85,5.41,8.5,7.94,13,2.4,4.27,4.67,8.31,7.03,11.62.64.9,1.64,2.2,2.91,3.85,8.3,10.79,27.75,36.04,25.96,53.38-1.14,11.04-5.44,19.57-12.44,24.69-4.85,3.55-10.76,5.33-17.65,5.33ZM216.47,441.08c1.52,2.49,8.26,8.71,27.39,12.69,10.39,2.17,18.88.92,25.22-3.71,6.29-4.6,10.18-12.4,11.23-22.57,1.67-16.15-17.27-40.74-25.35-51.24-1.29-1.67-2.3-2.99-2.97-3.93-2.46-3.45-4.77-7.55-7.21-11.9-2.49-4.42-5.05-9-7.75-12.7-8.44-11.6-20.4-13.55-25.96-12.05-5.03,1.36-21.12,7.9-17.09,35.07,3,20.19,33.32,35.75,36.84,37.5.9.01,2.79.2,4.82,1.74,3.16,2.41,5.21,6.94,6.08,13.47,1.69,12.67-14.72,15.67-22.61,17.12-.92.17-1.92.35-2.63.51Z"/>
        </g>
        <g>
          <g>
            <path class="cls-2" d="M194.25,441.94c2.2.55,19.47,11.58,29.87,14.38,13.2,3.55,29.11-26.42,24.79-43.72-4.32-17.3-27.01-28.61-27.01-28.61l-27.65,57.95Z"/>
            <path d="M226.34,458.12c-.88,0-1.76-.12-2.61-.35-7.24-1.95-17.42-7.62-24.15-11.37-2.52-1.4-5.12-2.85-5.69-3.01l-1.72-.48.73-1.62,28.31-59.33,1.37.68c.95.47,23.35,11.82,27.79,29.59,3.26,13.06-4.28,31.8-13.09,40.45-3.65,3.59-7.38,5.43-10.92,5.43ZM196.27,441.19c1.05.53,2.56,1.37,4.76,2.59,6.61,3.68,16.59,9.24,23.47,11.09,4.05,1.09,8.03-1.75,10.66-4.33,8.22-8.07,15.22-25.86,12.29-37.58-3.51-14.04-20.02-24.19-24.88-26.9l-26.3,55.13Z"/>
          </g>
          <g>
            <path class="cls-2" d="M212.25,441.5c14.83-12.59,25.93-31.44,17.17-55.19-8.76-23.75-27.46-36.01-48.9-33.58-11.75,1.33-23.38,4.32-34.03,22.95s-7.23,41.06-3.33,49.22c3.98,8.31,13.3,25.27,36.58,8.31,0,0,17.62,20.93,32.51,8.29Z"/>
            <path d="M201.71,447.06c-.5,0-1.01-.02-1.53-.06-9.59-.8-17.93-8.87-20.66-11.79-8.25,5.74-15.64,7.84-21.98,6.24-8.19-2.07-12.71-9.59-15.73-15.9-3.65-7.62-7.86-30.95,3.38-50.61,11.11-19.45,23.46-22.37,35.16-23.69,22.34-2.53,41.68,10.71,50.48,34.55,7.59,20.58,1.34,40.77-17.6,56.85h0c-3.45,2.93-7.32,4.41-11.51,4.41ZM179.98,431.17l.9,1.07c.09.11,9.32,10.91,19.55,11.76,3.96.33,7.6-.9,10.84-3.65h0c22.96-19.49,21.77-39.87,16.73-53.53-8.42-22.82-26.1-35.01-47.33-32.61-11.39,1.29-22.47,3.96-32.89,22.2-10.65,18.64-6.71,40.65-3.27,47.82,2.74,5.73,6.78,12.53,13.76,14.29,5.71,1.44,12.64-.76,20.58-6.54l1.13-.82Z"/>
          </g>
          <path class="cls-8" d="M140.77,390.79c2.77-9.02,14.36-35.44,35.03-37.61s33.84,5.95,39.22,10.76,14.13,20.3,15.38,25.31c0,0,12.62,10.64,14.95,15.15s4.85,10.76,4.28,15.9-1.67,10.01-1.67,10.01c0,0-1.27-14.56-11.09-21.21s-19.91-2.55-22.39-11.7-10.04-25.09-20.23-27.76-31.82.89-39.95,14.03-13.53,7.11-13.53,7.11Z"/>
          <path d="M178.36,433.81c-1.55-3.68-3.93-7.3-7.15-9.76-1.1-.8-2.31-1.43-3.59-1.87-.9-.31-.49-1.69.44-1.45,6.01,1.52,10.23,6.62,13.05,11.89.9,1.88-1.98,3.14-2.75,1.2h0Z"/>
          <path d="M201.71,447.06c-.5,0-1.01-.02-1.53-.06-9.59-.8-17.93-8.87-20.66-11.79-8.25,5.74-15.64,7.84-21.98,6.24-8.19-2.07-12.71-9.59-15.73-15.9-3.65-7.62-7.86-30.95,3.38-50.61,11.11-19.45,23.46-22.37,35.16-23.69,22.34-2.53,41.68,10.71,50.48,34.55,7.59,20.58,1.34,40.77-17.6,56.85h0c-3.45,2.93-7.32,4.41-11.51,4.41ZM179.98,431.17l.9,1.07c.09.11,9.32,10.91,19.55,11.76,3.96.33,7.6-.9,10.84-3.65h0c22.96-19.49,21.77-39.87,16.73-53.53-8.42-22.82-26.1-35.01-47.33-32.61-11.39,1.29-22.47,3.96-32.89,22.2-10.65,18.64-6.71,40.65-3.27,47.82,2.74,5.73,6.78,12.53,13.76,14.29,5.71,1.44,12.64-.76,20.58-6.54l1.13-.82Z"/>
          <path d="M226.34,458.12c-.88,0-1.76-.12-2.61-.35-6.29-1.69-14.64-6.08-22.72-10.57l1.46-2.62c4.95,2.75,15.24,8.46,22.04,10.29,4.05,1.09,8.03-1.75,10.66-4.33,8.22-8.07,15.22-25.86,12.29-37.58-2.44-9.76-11.09-17.62-17.92-22.49l1.74-2.44c7.24,5.17,16.42,13.56,19.08,24.21,3.26,13.06-4.28,31.8-13.09,40.45-3.65,3.59-7.38,5.43-10.92,5.43Z"/>
        </g>
        <g>
          <path class="cls-7" d="M207.79,413.61c-.82.12-1.68-.07-2.41-.5-.99-.57-1.6-1.44-2.08-2.14-.08-.12-.17-.24-.25-.36-1.5-2.1-2.81-4.31-4.09-6.43,0-.01-.01-.02-.02-.03-.09.02-.17.04-.25.06-.29.07-.57.13-.84.17h0c-.2.03-.4.04-.59.05-.24,0-.48.04-.71.07-.77.11-1.52.31-2.31.53-.88.24-1.78.49-2.8.63-.25.04-.51.07-.77.09-.03,0-.05,0-.08,0h-.08c-1.53,0-2.9-.79-3.59-2.07-.62-1.16-.58-2.5.11-3.62.28-.56.9-1.71,1.47-2.3.36-.37.67-.77,1-1.19.32-.41.65-.84,1.05-1.28.23-.25.45-.5.67-.76.33-.39.67-.78,1.03-1.15-.09-.12-.18-.26-.27-.37-.13-.18-.26-.36-.4-.55-.03-.04-.04-.06-.06-.1-.54-.9-1.12-1.78-1.7-2.66-.68-1.03-1.38-2.11-2.02-3.19-.38-.63-.8-1.46-.87-2.39-.13-1.73,1.09-3.3,2.91-3.57.11-.02.22-.03.32-.03,1.16-.07,2.2.36,3.02.72.11.05.17.07.28.12,1.57.69,3.09,1.45,4.56,2.19.49.25.73.37,1.22.61.18.08.4.21.63.33.1.05.21.12.33.18.03-.04.07-.08.1-.11.13-.15.26-.29.38-.43.87-.95,1.76-1.99,2.65-2.94.24-.26.45-.51.67-.76.78-.93,1.74-2.08,3.29-2.58.05-.01.08-.02.12-.04.12-.03.24-.05.36-.07,1.62-.23,3.2.67,3.88,2.12.35.76.42,1.6.42,2.23,0,.2,0,.31,0,.51,0,.9-.01,1.83-.11,2.78-.06.59-.08,1.22-.1,1.89-.03.87-.05,1.76-.18,2.68,0,.05-.01.09-.01.12.2.11.43.22.65.32.38.18.76.36,1.11.56.94.54,1.97.99,3.05,1.47,1.14.5,2.35,1.01,3.46,1.67,1.71,1.03,2.54,2.7,2.21,4.27-.32,1.51-1.61,2.6-3.38,2.85-.07.01-.15.02-.23.03-.13.02-.2.03-.34.05-.78.11-1.57.2-2.37.29-.75.09-1.51.17-2.26.28-.58.08-1.16.18-1.72.3-.03,0-.05.01-.08.02,0,0-.64.08-.7.08,0,.17,0,.26,0,.43-.01,1.43-.03,2.91-.12,4.39,0,.06,0,.09-.01.15-.05.35-.06.75-.08,1.18-.04,1.11-.08,2.36-.71,3.57-.03.05-.04.07-.07.12-.49.8-1.32,1.35-2.27,1.48Z"/>
          <path d="M208.05,379.74c.7-.1,1.46.28,1.77.96.21.44.24.95.24,1.41,0,1.03,0,2.06-.1,3.07-.16,1.5-.07,3.02-.28,4.51-.08.67-.07,1.48.62,1.92.59.41,1.42.69,2.09,1.08,2.11,1.21,4.42,1.94,6.53,3.15,1.96,1.24,1.55,3.12-.45,3.41-.06,0-.12.02-.19.02-.12.02-.25.04-.38.06-1.53.22-3.09.35-4.62.57-.63.09-1.25.2-1.87.33-.3.04-.59.07-.86.11-.86.12-1.52.37-1.49,1.52-.02,1.72-.02,3.42-.13,5.12-.19,1.36.04,2.9-.58,4.11-.19.31-.5.49-.85.54-.36.05-.76-.03-1.11-.24-.77-.44-1.23-1.26-1.73-1.95-1.54-2.18-2.9-4.48-4.27-6.74-.4-.58-.93-.65-1.5-.56-.44.06-.91.22-1.34.28-.12.02-.24.03-.36.03-.32.02-.63.05-.94.09-1.78.26-3.32.9-5.11,1.16-.21.03-.43.06-.65.07-1.56,0-2.54-1.49-1.73-2.71,0,0,.71-1.42,1.16-1.9.8-.83,1.33-1.69,2.09-2.51.61-.67,1.17-1.38,1.81-2.02,1.25-1.16.24-2.06-.6-3.29-1.18-1.96-2.55-3.85-3.71-5.82-.29-.47-.57-.99-.6-1.51-.07-.75.47-1.35,1.2-1.46.05,0,.09-.01.14-.01.82-.06,1.64.36,2.42.68,1.92.84,3.79,1.81,5.67,2.75.72.34,1.47.93,2.25.84.69-.16,1.09-.83,1.55-1.3.87-.99,1.76-1.97,2.65-2.94.94-.97,1.75-2.36,3.1-2.79.05-.01.1-.02.16-.03M207.48,375.78h0c-.19.03-.38.07-.57.11-.05.01-.08.02-.13.03-.05.02-.07.02-.12.04-2.09.68-3.36,2.2-4.2,3.2-.2.24-.39.46-.54.61-.01.01-.02.02-.03.04-.01.01-.02.02-.03.04-.83.9-1.51,1.64-2.12,2.34-.27-.13-.54-.27-.81-.4-1.5-.75-3.04-1.53-4.65-2.23-.12-.05-.18-.08-.3-.13-.91-.4-2.29-.99-3.97-.88-.16,0-.31.03-.46.05-2.82.41-4.85,2.92-4.62,5.72.1,1.35.67,2.44,1.16,3.25.66,1.13,1.37,2.2,2.06,3.24.55.84,1.08,1.63,1.56,2.43-.21.24-.41.48-.63.71-.46.5-.83.98-1.16,1.41-.31.39-.57.73-.85,1.02-.7.72-1.34,1.85-1.79,2.74-1,1.7-1.05,3.8-.12,5.54,1.04,1.93,3.09,3.13,5.36,3.12.06,0,.1,0,.16,0,.06,0,.1,0,.16-.01.3-.03.6-.06.89-.1,1.14-.16,2.15-.44,3.04-.68.76-.21,1.43-.39,2.07-.48.17-.03.34-.04.5-.05.2,0,.41-.02.62-.04,1.07,1.78,2.2,3.59,3.45,5.36.1.14.17.24.25.35.53.77,1.33,1.93,2.74,2.74,1.13.66,2.44.92,3.69.74,1.55-.22,2.9-1.11,3.7-2.42.03-.05.04-.07.07-.12.02-.05.04-.07.06-.12.83-1.61.89-3.23.93-4.42.01-.38.03-.73.06-.97,0-.06.01-.09.02-.14,0-.06,0-.09,0-.15.07-1.1.1-2.18.11-3.25.25-.04.52-.09.81-.13.71-.1,1.43-.18,2.2-.27.79-.09,1.6-.18,2.42-.3.12-.02.18-.03.3-.04.09,0,.18-.02.26-.03,2.57-.37,4.56-2.1,5.05-4.42.51-2.41-.65-4.84-3.03-6.33-.03-.02-.04-.02-.07-.04-.03-.02-.04-.02-.07-.04-1.24-.71-2.47-1.25-3.65-1.77-1.03-.45-2.01-.88-2.88-1.38-.2-.12-.41-.23-.61-.33.04-.54.05-1.07.07-1.55.02-.63.04-1.22.09-1.75.11-1.03.12-2.05.12-2.95,0-.2,0-.3,0-.51,0-.88-.07-1.98-.62-3.13-1.04-2.26-3.49-3.59-5.97-3.24h0Z"/>
        </g>
      </g>
      <g>
        <path class="cls-5" d="M228.59,158.9c1.49,5.82-.5,25.83-8.81,34.58"/>
        <path d="M229.72,158.61c1.6,10.45-2.18,27.53-9.54,35.25-.49.49-1.28-.22-.8-.76,5.85-6.89,7.7-16.38,8.46-25.17.19-3,.23-6.14-.41-8.85-.32-1.52,1.96-2.01,2.28-.48h0Z"/>
      </g>
    </g>
  </g>
</svg>