<?xml version="1.0" encoding="UTF-8"?>
<svg xmlns="http://www.w3.org/2000/svg" viewBox="0 0 80.03 144.02">
  <defs>
    <style>
      .cls-1 {
        fill: #8d61a9;
      }

      .cls-2 {
        fill: #010101;
      }

      .cls-3 {
        fill: #f499c1;
      }

      .cls-4 {
        isolation: isolate;
      }

      .cls-5 {
        fill: #7e489c;
      }

      .cls-6 {
        fill: #bf1e6a;
      }

      .cls-7 {
        fill: #f1be3a;
      }

      .cls-8 {
        fill: #cfcfce;
        mix-blend-mode: multiply;
      }

      .cls-9 {
        fill: #ed1e7a;
      }

      .cls-10 {
        fill: #f8efd6;
      }

      .cls-11 {
        fill: #37468d;
      }

      .cls-12 {
        fill: #dfc1c8;
      }

      .cls-13 {
        fill: #e56ca9;
      }

      .cls-14 {
        fill: #fde5ea;
      }

      .cls-15 {
        fill: #ffd247;
      }
    </style>
  </defs>
  <g class="cls-4">
    <g id="Layer_2" data-name="Layer 2">
      <g id="Design_Images" data-name="Design Images">
        <g>
          <path class="cls-8" d="M52.7,138.78c-11.48-.99-26.96-.25-26.96-.25-1.67-.19-2-3.95-.43-4.57,0,0,4.93,1.59,11.43-1.08,7.36-3.01,33.1.59,32.59,2.67,1.55.22,3.37,4.43,1.98,5.19,0,0-2.41,1.07-3.98,1.21s-3.15-2.18-14.64-3.18Z"/>
          <g>
            <g>
              <path class="cls-9" d="M38.3,106.8c.52-1.06,1.72-5.22-1.96-14.69s1.08-15.72,9.15-17.28c8.07-1.56,14.2,5.77,15.99,9.96,1.79,4.2,4.13,8.83,6.22,8.36s4.41-3.13,3.58-6.13c-.83-2.99,2.75.32,3.56,2.26s3.9,11.82-5.96,17.9c-9.86,6.08-16.03-3.07-17.28-5.38s-2.92-5.81-5.25-5.4c-1.4.25-1.05,1.78-1.21,3.9-.16,2.12,0,5.89-2.88,8.11s-3.96-1.63-3.96-1.63Z"/>
              <path class="cls-2" d="M63.07,109.53c-1.11.08-2.2-.03-3.26-.32-5.2-1.4-8.16-6.66-8.48-7.26-.09-.16-.17-.33-.26-.5-1.14-2.15-2.71-5.09-4.66-4.74-.81.14-.86.81-.9,2.3,0,.4-.02.84-.06,1.32-.02.24-.03.51-.05.79-.12,2.19-.3,5.49-2.95,7.55-.89.69-1.72.91-2.48.66-1.4-.46-1.95-2.36-1.98-2.44l-.03-.11.05-.11c.34-.69,1.84-4.64-1.97-14.44-1.72-4.43-1.71-8.44.04-11.61,1.7-3.09,5.02-5.25,9.35-6.09,8.38-1.62,14.63,6.14,16.34,10.15,2.45,5.75,4.42,8.5,5.86,8.18,1.08-.25,2.17-1.1,2.84-2.22.46-.77.93-2.01.51-3.52-.09-.33-.37-1.33.29-1.56,1.02-.35,3.29,2.26,3.86,3.62.24.58,1.44,3.7,1.04,7.55-.47,4.49-2.86,8.1-7.13,10.73-2.02,1.25-4.02,1.94-5.97,2.08ZM46.56,96.07c2.25-.15,3.86,2.87,5.04,5.1.09.17.18.33.26.49.31.57,3.15,5.63,8.1,6.95,2.78.75,5.72.18,8.74-1.69,4.09-2.53,6.39-5.98,6.84-10.27.39-3.78-.85-6.9-1-7.25-.63-1.52-2.6-3.31-3.06-3.28,0,0,0,0-.01,0-.02.04-.07.24.09.81.37,1.34.17,2.76-.57,4-.75,1.26-2,2.23-3.24,2.51-1.85.42-3.87-2.21-6.57-8.54-1.65-3.86-7.63-11.33-15.65-9.78-4.14.8-7.31,2.85-8.92,5.78-1.66,3-1.66,6.83,0,11.08,3.68,9.46,2.54,13.63,2.01,14.83.13.37.62,1.62,1.54,1.92.55.18,1.19,0,1.9-.56,2.43-1.88,2.59-4.89,2.71-7.09.02-.29.03-.56.05-.8.03-.46.05-.88.06-1.28.04-1.43.07-2.66,1.41-2.9.09-.02.18-.03.27-.03Z"/>
            </g>
            <path class="cls-6" d="M38.8,101.95c.55-3.83,6.23-7.42,5.54-11.18-.93-5.1,2.01-7.51,4.9-5.73,2.1,1.3,4.41,3.1,5.98,5.35,2.02,2.9,3.7,6.7,5.18,7.52,2.58,1.42,6.77,2.36,10.04-.58,3.26-2.94,3.95-6.3,2.13-10.37,0,0,1.61.21,2.27,2.32s2.22,8.98-.55,12.45c-2.77,3.47-6.54,7-11.55,7.5-5.01.5-9.74-4.9-11.14-7.43-1.4-2.52-3.01-6.47-5.25-5.4s-.68,5.86-1.47,7.24-6.08-1.71-6.08-1.71Z"/>
            <path class="cls-11" d="M55.83,87.27c2.36.69,3.91,2.82,4.83,4.99,0,0,.3.73.3.73.97,2.48,3.42,3.75,6.02,3.27,2.78-.44,5.53-3.48,5.71-6.29,0-.09.08-.16.16-.15.08,0,.15.07.15.15,0,1.09-.37,2.14-.9,3.06-1.08,1.83-2.87,3.43-5.02,3.8-2.15.44-4.55-.39-5.79-2.24-.47-.63-.76-1.43-1.03-2.16-.29-.71-.62-1.41-1.04-2.06-.81-1.3-1.99-2.39-3.45-2.9-.05-.02-.08-.08-.06-.13.02-.05.08-.08.13-.06h0Z"/>
            <path class="cls-11" d="M73.7,93.88c-.35,2.5-1.47,4.98-3.52,6.52-1.49,1.2-3.56,1.99-5.44,1.31-.61-.21-1.17-.55-1.66-.97-.07-.06-.08-.16-.02-.23.06-.07.15-.08.22-.03.51.33,1.04.59,1.61.74,2.85.77,5.93-1.58,7.25-3.98.57-1.05,1.04-2.22,1.3-3.39.02-.16.28-.14.26.03h0Z"/>
            <path class="cls-2" d="M38.92,87.74c-.03-1.81-.05-3.7.6-5.43.85-2.52,3.34-4.08,5.97-3.48.61.14,1.22.39,1.67.86.05.05.05.13,0,.18-.05.05-.13.05-.18,0-.43-.37-.99-.57-1.56-.66-3.38-.44-5.29,1.87-5.86,4.98-.18.84-.27,1.8-.35,2.66-.03.3-.05.6-.11.91,0,.05-.06.08-.11.07-.05,0-.08-.05-.07-.09h0Z"/>
            <path class="cls-2" d="M42.65,86.76c-.29-3.81,1.8-7.22,5.47-3.88.04.04.05.1,0,.15-.04.04-.09.05-.14.02-.31-.21-.62-.44-.96-.61-2.69-1.56-3.71.85-3.97,3.18-.05.37-.06.75-.07,1.13,0,.21-.32.23-.34.02h0Z"/>
            <path class="cls-11" d="M63.07,109.53c-1.11.08-2.2-.03-3.26-.32-5.2-1.4-8.16-6.66-8.48-7.26-.09-.16-.17-.33-.26-.5-1.14-2.15-2.71-5.09-4.66-4.74-.81.14-.86.81-.9,2.3,0,.4-.02.84-.06,1.32-.02.24-.03.51-.05.79-.12,2.19-.3,5.49-2.95,7.55-.89.69-1.72.91-2.48.66-1.4-.46-1.95-2.36-1.98-2.44l-.03-.11.05-.11c.34-.69,1.84-4.64-1.97-14.44-1.72-4.43-1.71-8.44.04-11.61,1.7-3.09,5.02-5.25,9.35-6.09,8.38-1.62,14.63,6.14,16.34,10.15,2.45,5.75,4.42,8.5,5.86,8.18,1.08-.25,2.17-1.1,2.84-2.22.46-.77.93-2.01.51-3.52-.09-.33-.37-1.33.29-1.56,1.02-.35,3.29,2.26,3.86,3.62.24.58,1.44,3.7,1.04,7.55-.47,4.49-2.86,8.1-7.13,10.73-2.02,1.25-4.02,1.94-5.97,2.08ZM46.56,96.07c2.25-.15,3.86,2.87,5.04,5.1.09.17.18.33.26.49.31.57,3.15,5.63,8.1,6.95,2.78.75,5.72.18,8.74-1.69,4.09-2.53,6.39-5.98,6.84-10.27.39-3.78-.85-6.9-1-7.25-.63-1.52-2.6-3.31-3.06-3.28,0,0,0,0-.01,0-.02.04-.07.24.09.81.37,1.34.17,2.76-.57,4-.75,1.26-2,2.23-3.24,2.51-1.85.42-3.87-2.21-6.57-8.54-1.65-3.86-7.63-11.33-15.65-9.78-4.14.8-7.31,2.85-8.92,5.78-1.66,3-1.66,6.83,0,11.08,3.68,9.46,2.54,13.63,2.01,14.83.13.37.62,1.62,1.54,1.92.55.18,1.19,0,1.9-.56,2.43-1.88,2.59-4.89,2.71-7.09.02-.29.03-.56.05-.8.03-.46.05-.88.06-1.28.04-1.43.07-2.66,1.41-2.9.09-.02.18-.03.27-.03Z"/>
          </g>
          <g>
            <g>
              <path class="cls-14" d="M29.04,59.3c1.55,2.51,1.12,7.3.39,9.61-1.03,3.23,17.53,7.43,15.62,2.4-1.12-2.96-3.12-9.12-2.29-9.14,0,0-14.36-3.9-13.73-2.87Z"/>
              <path class="cls-11" d="M42.44,73.91c-3.69.25-9.73-1.34-12.1-2.99-1.02-.71-1.42-1.42-1.2-2.11.77-2.43,1.08-7.03-.36-9.35h0c-.09-.15-.09-.32,0-.45.19-.25.42-.56,7.37,1.13,3.34.81,6.66,1.71,6.7,1.72l2.08.57-2.05.04c-.13.71.87,4.51,2.46,8.72.4,1.05-.03,1.67-.46,2.01-.53.41-1.39.64-2.44.71ZM29.47,59.43c1.41,2.65,1,7.21.25,9.57-.16.5.44,1.04.97,1.41,1.47,1.02,4.35,2.03,7.32,2.56,3.09.55,5.57.45,6.48-.26.25-.19.55-.54.26-1.3-.03-.08-2.71-7.24-2.47-9.05-5.44-1.47-11.38-2.89-12.82-2.93Z"/>
            </g>
            <path class="cls-12" d="M33.96,63.47c2.56.98,8.15,4.85,5.59,8.34l4.84-1.46s-.93-2.6-1.06-3.07c-.29-1.06-.77-2.84-.77-2.84l-8.6-.97Z"/>
          </g>
          <g>
            <g>
              <path class="cls-5" d="M35.66,132.5c-.16-1.33-1.14-3.28-1.73-5.2-.71-2.3.07-5.82-.96-6.47s-12.5,1.04-12.5,1.04c-.76,1.27-.79,1.54.23,3.31s.78,3.35.78,3.35c0,0-3.97.82-5.12,3.11-.92,1.82-.79,4.05.08,5.1l-.3.07c-.34.21-.53.89-.39,1.18.14.29.72,2.05,8.23,1.06,7.51-.99,10.97-3.53,12.06-4.47.6-.51.45-1.99-.38-2.09Z"/>
              <path class="cls-2" d="M21.62,139.61c-3.51.24-5.57-.25-6.14-1.45v-.02c-.23-.44.03-1.26.46-1.56-.74-1.28-.7-3.39.14-5.07,1.05-2.09,4.22-3,5.11-3.22.02-.46-.01-1.66-.76-2.95-1.04-1.82-1.07-2.22-.22-3.63l.08-.13.14-.02c1.93-.29,11.64-1.67,12.71-1,.71.45.73,1.69.75,3.27.02,1.12.04,2.38.34,3.37.23.74.52,1.49.8,2.22.4,1.03.78,2.02.91,2.82.32.12.57.41.7.82.17.56.09,1.34-.39,1.75-1.52,1.29-5.12,3.6-12.23,4.54-.86.11-1.66.2-2.39.25ZM16.26,137.11c-.19.15-.3.62-.24.75l.02.04c.53,1.14,3.41,1.45,7.89.85,6.95-.92,10.44-3.15,11.9-4.39.23-.2.32-.69.2-1.1-.05-.15-.16-.42-.41-.45l-.24-.03-.03-.24c-.09-.77-.49-1.8-.91-2.89-.28-.73-.58-1.49-.81-2.26-.33-1.07-.35-2.39-.37-3.55-.02-1.22-.04-2.49-.46-2.75-.6-.36-6.61.25-12.14,1.06-.61,1.01-.65,1.21.31,2.87,1.06,1.85.83,3.49.81,3.55l-.03.21-.21.04s-3.84.82-4.91,2.95c-.91,1.81-.69,3.89.05,4.77l.32.39-.74.17Z"/>
            </g>
            <path class="cls-1" d="M21.26,129.03c-.04-.11-.12-.21-.23-.25-.14-.05-.3-.01-.44.03-.78.23-1.47.47-2.17.89-.94.55-1.73,1.38-2.18,2.38-.27.6-.44,1.28-.4,1.95.04.61-.06,1.3.15,1.88.13.36.34.52.65.7.33.19.18.35.97.55.15.04.33.07.45-.04.1-.09.1-.24.1-.38,0-1.01-.01-2.01-.01-3.02,0-.83.49-1.66,1.16-2.12s1.31-1.09,1.77-1.81c.11-.16.21-.34.22-.54,0-.07,0-.15-.03-.22Z"/>
            <path class="cls-1" d="M24.74,121.61c-1.17.25-2.33.16-3.44.21-.48.02-.98.24-1.24.63-.35.53-.1,1.24.16,1.83.48,1.07.95,2.14,1.43,3.21.14.3-.18,1.09.15,1.09.23,0,.98-.09,1.06-.31s.04-1.01.03-1.24c-.07-1.18-1.07-3.77,1.61-4.61.71-.22,2.63-.27,2.63-.67s-2.38-.15-2.38-.15Z"/>
            <path class="cls-11" d="M21.62,139.61c-3.51.24-5.57-.25-6.14-1.45v-.02c-.23-.44.03-1.26.46-1.56-.74-1.28-.7-3.39.14-5.07,1.05-2.09,4.22-3,5.11-3.22.02-.46-.01-1.66-.76-2.95-1.04-1.82-1.07-2.22-.22-3.63l.08-.13.14-.02c1.93-.29,11.64-1.67,12.71-1,.71.45.73,1.69.75,3.27.02,1.12.04,2.38.34,3.37.23.74.52,1.49.8,2.22.4,1.03.78,2.02.91,2.82.32.12.57.41.7.82.17.56.09,1.34-.39,1.75-1.52,1.29-5.12,3.6-12.23,4.54-.86.11-1.66.2-2.39.25ZM16.26,137.11c-.19.15-.3.62-.24.75l.02.04c.53,1.14,3.41,1.45,7.89.85,6.95-.92,10.44-3.15,11.9-4.39.23-.2.32-.69.2-1.1-.05-.15-.16-.42-.41-.45l-.24-.03-.03-.24c-.09-.77-.49-1.8-.91-2.89-.28-.73-.58-1.49-.81-2.26-.33-1.07-.35-2.39-.37-3.55-.02-1.22-.04-2.49-.46-2.75-.6-.36-6.61.25-12.14,1.06-.61,1.01-.65,1.21.31,2.87,1.06,1.85.83,3.49.81,3.55l-.03.21-.21.04s-3.84.82-4.91,2.95c-.91,1.81-.69,3.89.05,4.77l.32.39-.74.17Z"/>
            <g>
              <path class="cls-5" d="M21.48,128.54s1.78-.35,3.63.02"/>
              <path class="cls-11" d="M21.42,128.23c.94-.13,1.87-.13,2.81,0,.31.04.61.1.92.16.09.02.15.11.13.2-.02.09-.11.15-.2.13-.59-.09-1.19-.12-1.78-.09-.59.02-1.2.09-1.76.22-.42.08-.53-.54-.11-.61h0Z"/>
            </g>
          </g>
          <g>
            <g>
              <path class="cls-5" d="M62.32,129.74c-.92.81-.52,1.41.6,2.43.52.47,1.26,1.62,1,3.89-.27,2.27,13.22,1.13,12.8-.07-.75-2.16-4.71-10.1-5.24-13.34s-1.68-1.3-3.77.36-5.39,6.73-5.39,6.73Z"/>
              <path class="cls-11" d="M71.16,137.61c-2.74.19-5.67.08-6.89-.57-.6-.32-.69-.73-.66-1.01.27-2.28-.54-3.29-.9-3.62-.77-.71-1.22-1.23-1.21-1.8,0-.37.19-.71.58-1.06.32-.49,3.39-5.15,5.43-6.77.37-.29.7-.58,1.02-.86.96-.83,1.65-1.44,2.3-1.2.47.17.77.75.96,1.89.35,2.15,2.28,6.5,3.69,9.67.69,1.55,1.28,2.9,1.53,3.61.03.1.08.35-.2.59-.59.5-3.03.95-5.66,1.13ZM70.52,121.29c-.34.02-.97.57-1.58,1.1-.31.27-.66.58-1.04.87-2.03,1.61-5.29,6.6-5.32,6.65l-.02.04-.03.03c-.27.24-.4.44-.41.63,0,.34.4.78,1.01,1.34.53.49,1.39,1.68,1.1,4.15-.03.22.3.39.58.5,1.14.44,3.67.57,6.61.36,2.98-.22,4.68-.68,4.99-.94-.25-.71-.83-2-1.49-3.49-1.42-3.21-3.37-7.6-3.74-9.83-.18-1.12-.43-1.36-.55-1.41-.03-.01-.07-.01-.1-.01Z"/>
            </g>
            <g>
              <path class="cls-5" d="M66.57,134.36c-3.32,1.88-4.68,4.55-3.6,6.77-.23.35-.37.86-.36,1.07,0,.31.45,1.34,3.83,1.49,6.47.28,12.08-2.06,12.13-3.81.02-.53-.25-.89-.64-1.15.13-.34.14-.69.01-1.06-.38-1.07-2.09-3.72-4.87-4.56"/>
              <path class="cls-2" d="M66.66,134.52c-2.09,1.36-4.59,3.77-3.41,6.47,0,0,.07.16.07.16l-.09.14c-.15.26-.32.63-.31.94.44.88,2.18,1.03,3.08,1.12,3.67.19,7.57-.26,10.85-2.01.5-.3,1-.63,1.29-1.12.07-.14.12-.27.11-.44,0-.42-.34-.71-.69-.93,0,0,.08-.23.08-.23.22-.57-.1-1.09-.38-1.6-.33-.54-.7-1.07-1.13-1.54-.87-.95-1.91-1.72-3.11-2.2-.1-.04-.14-.15-.11-.24.03-.09.13-.13.22-.11,2.03.47,3.68,2,4.72,3.76.37.61.72,1.44.38,2.16,0,0-.12-.37-.11-.37.61.37.96,1.19.67,1.87-.54,1.09-1.73,1.62-2.77,2.11-3.18,1.31-6.64,1.71-10.04,1.52-1.17-.11-3.16-.29-3.64-1.57-.1-.51.14-1,.38-1.44,0,0-.02.3-.02.3-.35-.68-.48-1.48-.38-2.24.2-1.51,1.2-2.76,2.34-3.68.57-.45,1.19-.83,1.83-1.14.09-.05.21,0,.25.09.04.09.01.19-.07.24h0Z"/>
            </g>
            <path class="cls-11" d="M78.22,138.85c-.41,1.09-1.56,1.64-2.57,2.04-.33.13-.67.25-1.01.37-.1.03-.2-.02-.23-.11-.03-.09.02-.19.11-.23.32-.13.65-.27.96-.42.73-.36,1.54-.74,1.97-1.45.15-.22.19-.76.6-.62.17.06.25.26.17.42h0Z"/>
            <path class="cls-1" d="M64.25,131.04c-.12-.37-.02-.79.18-1.13s.5-.61.79-.87c.98-.89,1.96-1.79,2.94-2.68.13-.12.27-.24.44-.3s.38-.04.49.1c.1.13.1.31.08.47-.13.79-2.26,3.01-2.89,3.51-.46.37-1.35.54-1.53,1.11-.16.52.16,1.04.2,1.58.06.9-.15,1.76-.33,2.63l-.07.34c-.26.03-.44.04-.59-.13-.03-.18-.06-.36,0-.54.04-.18.18-.94,0-1.75-.46-.62-.92-1.23-1.65-1.69-.2-.74-.44-1.62.16-2.48.57-.71,1.79-2.24,3.02-3.78.42-.52,1-1.08,1.26-1.7.4-.15.65,0,.89.15.08.34,0,.62-.06.9-.19.24-.37.46-1.45,1.72-1.31,1.17-2.27,3.48-1.71,4.46.16.27.27.56.36.84"/>
            <path class="cls-1" d="M62.7,138.45c-.15.66-.17,1.38.11,2s.91.97,1.58,1.08c.47.07,2.64.47,2.84.1.12-.22-2.03-.87-2.31-2.6-.11-.67.14-1.35.61-1.84.52-.54,1.99-2.05,2.34-2.92.26-.65-1.59.05-2.04.31-1.87,1.08-2.78,2.31-3.12,3.86Z"/>
            <path class="cls-11" d="M64.23,136.1l-.62-.07c.27-2.28-.54-3.29-.9-3.62-.77-.71-1.22-1.23-1.21-1.8,0-.37.19-.71.58-1.06.32-.49,3.39-5.15,5.43-6.77.37-.29.7-.58,1.02-.86.96-.83,1.65-1.44,2.3-1.2.47.17.77.75.96,1.89.35,2.15,2.28,6.5,3.69,9.68.35.79.69,1.54.95,2.17l-.57.24c-.27-.62-.6-1.37-.95-2.16-1.42-3.21-3.37-7.6-3.74-9.83-.18-1.12-.43-1.36-.55-1.41-.31-.11-1,.5-1.68,1.09-.31.27-.66.58-1.04.87-2.03,1.61-5.29,6.6-5.32,6.65l-.02.04-.03.03c-.27.24-.4.44-.41.63,0,.34.4.78,1.01,1.34.53.49,1.39,1.68,1.1,4.15Z"/>
            <path class="cls-11" d="M66.66,134.52c-2.09,1.36-4.59,3.77-3.41,6.47,0,0,.07.16.07.16l-.09.14c-.15.26-.32.63-.31.94.44.88,2.18,1.03,3.08,1.12,3.67.19,7.57-.26,10.85-2.01.5-.3,1-.63,1.29-1.12.07-.14.12-.27.11-.44,0-.42-.34-.71-.69-.93,0,0,.08-.23.08-.23.22-.57-.1-1.09-.38-1.6-.33-.54-.7-1.07-1.13-1.54-.87-.95-1.91-1.72-3.11-2.2-.1-.04-.14-.15-.11-.24.03-.09.13-.13.22-.11,2.03.47,3.68,2,4.72,3.76.37.61.72,1.44.38,2.16,0,0-.12-.37-.11-.37.61.37.96,1.19.67,1.87-.54,1.09-1.73,1.62-2.77,2.11-3.18,1.31-6.64,1.71-10.04,1.52-1.17-.11-3.16-.29-3.64-1.57-.1-.51.14-1,.38-1.44,0,0-.02.3-.02.3-.35-.68-.48-1.48-.38-2.24.2-1.51,1.2-2.76,2.34-3.68.57-.45,1.19-.83,1.83-1.14.09-.05.21,0,.25.09.04.09.01.19-.07.24h0Z"/>
          </g>
          <g>
            <path class="cls-5" d="M16.44,136.75c.16.11.72.44,1.81.57"/>
            <path class="cls-11" d="M16.62,136.5c.46.36,1.07.54,1.65.66.09.02.15.1.13.19-.02.08-.09.13-.17.13-.68-.04-1.37-.13-1.98-.48-.37-.24.02-.78.36-.5h0Z"/>
          </g>
          <g>
            <g>
              <path class="cls-15" d="M30.75,101.71c-1.14.49-7.21,5.46-9.35,8.58-2.13,3.11-2.49,8.93-.93,11.59,0,0,.3,1.36.53,1.62s5.96,3.45,11.17-1.18c0,0,.45-.44-1.03-2.97,0,0-.83-.98,1.65-2.11s6.84-1.85,8.45-4.51c1.61-2.66-10.48-11.01-10.48-11.01Z"/>
              <path class="cls-2" d="M26.51,125.1c-.43.03-.86.03-1.29,0-2.5-.16-4.28-1.2-4.45-1.4-.24-.28-.48-1.25-.58-1.71-1.66-2.88-1.18-8.74.97-11.88,2.14-3.13,8.22-8.14,9.48-8.68l.16-.07.14.1s3.07,2.12,5.87,4.53c3.93,3.37,5.47,5.63,4.7,6.9-1.23,2.04-3.92,2.96-6.29,3.77-.85.29-1.64.56-2.3.86-1.24.57-1.52,1.05-1.58,1.29-.05.21.04.34.05.35l.03.04c1.4,2.37,1.21,3.11.98,3.34-1.73,1.54-3.74,2.41-5.88,2.56ZM21.23,123.28c.23.15,5.64,3.29,10.69-1.16.02-.12.05-.75-1.04-2.6-.07-.09-.26-.4-.16-.84.14-.62.79-1.21,1.93-1.73.68-.31,1.49-.59,2.36-.89,2.27-.78,4.84-1.66,5.96-3.51,1.05-1.74-5.66-7.31-10.24-10.49-1.36.76-7.01,5.39-9.07,8.39-2.01,2.93-2.47,8.61-.92,11.25l.02.04v.05c.14.6.35,1.32.46,1.47Z"/>
            </g>
            <path class="cls-7" d="M29.95,104.58c-.85,1.92-6.38,8.44-2.96,12.03,3.42,3.59,2.27,7.54,2.27,7.54l2.91-1.84-1.03-2.97.42-1.51,7.08-2.89,2.6-2.23-.49-4.78-4.99-7.37-4.52-.13s-.43,2.21-1.28,4.13Z"/>
            <path class="cls-11" d="M26.51,125.1c-.43.03-.86.03-1.29,0-2.5-.16-4.28-1.2-4.45-1.4-.24-.28-.48-1.25-.58-1.71-1.66-2.88-1.18-8.74.97-11.88,2.14-3.13,8.22-8.14,9.48-8.68l.16-.07.14.1s3.07,2.12,5.87,4.53c3.93,3.37,5.47,5.63,4.7,6.9-1.23,2.04-3.92,2.96-6.29,3.77-.85.29-1.64.56-2.3.86-1.24.57-1.52,1.05-1.58,1.29-.05.21.04.34.05.35l.03.04c1.4,2.37,1.21,3.11.98,3.34-1.73,1.54-3.74,2.41-5.88,2.56ZM21.23,123.28c.23.15,5.64,3.29,10.69-1.16.02-.12.05-.75-1.04-2.6-.07-.09-.26-.4-.16-.84.14-.62.79-1.21,1.93-1.73.68-.31,1.49-.59,2.36-.89,2.27-.78,4.84-1.66,5.96-3.51,1.05-1.74-5.66-7.31-10.24-10.49-1.36.76-7.01,5.39-9.07,8.39-2.01,2.93-2.47,8.61-.92,11.25l.02.04v.05c.14.6.35,1.32.46,1.47Z"/>
          </g>
          <g>
            <path class="cls-15" d="M16.84,89.34c-2.76,1.47-5.98-7.13-6.3-7.01s-2.31,1.6-1.55,6.6,4.23,6.43,8.11,5.43c3.89-1,10.79-9.79,11.79-11.26s2.66-3.12,3.69-4.68,1.8-4.37.46-6.26c-1.42-1.99-4.34-3.14-8.44-.88s-4.78,10.17-4.78,10.17c0,0-.22,6.41-2.98,7.88Z"/>
            <path class="cls-11" d="M15.42,94.96c-1.5.1-2.83-.21-3.92-.93-1.51-1-2.45-2.69-2.81-5.05-.87-5.7,1.72-6.93,1.75-6.94.34-.13.46.1,1.11,1.39.93,1.82,2.65,5.2,4.27,5.71.32.1.61.08.89-.07,2.57-1.37,2.81-7.55,2.81-7.62.03-.35.74-8.12,4.94-10.44,1.96-1.08,3.79-1.48,5.43-1.19,1.38.25,2.59,1.01,3.41,2.16,1.5,2.1.55,5.1-.45,6.61-.54.82-1.26,1.66-1.95,2.48-.66.77-1.28,1.5-1.75,2.2-.81,1.19-7.89,10.34-11.96,11.39-.61.16-1.2.26-1.77.29ZM10.48,82.74c-.49.4-1.82,1.93-1.18,6.15.33,2.17,1.18,3.73,2.54,4.62,1.35.89,3.14,1.08,5.19.55,3.65-.94,10.43-9.4,11.61-11.14.49-.73,1.12-1.47,1.79-2.26.68-.8,1.38-1.63,1.91-2.42,1.64-2.47,1.16-4.94.46-5.9-.63-.88-3.06-3.53-8.04-.78-3.91,2.15-4.62,9.85-4.62,9.93,0,.25-.26,6.59-3.14,8.13h0c-.43.23-.89.27-1.36.12-1.87-.59-3.6-3.99-4.63-6.02-.19-.37-.38-.75-.51-.97Z"/>
          </g>
          <g>
            <path class="cls-15" d="M70.6,77.36c-1.06-2.32-4.99-2.8-8.77-1.07-.36.17-.71.35-1.04.54-.82-.9-2.17-1.98-4.37-3.02-1.64-.78-3.37-3.66-5.7-4.25-2.76-.7-3.53.04-4.85.13-.8.06-1.24-.59-1.46-1.11-.12-.29-.48-.4-.75-.22-7.72,4.99-12.05,1-14.43.48-.61-.14-1.11,1.82-1.11,1.82-3.17,6.1-4.18,12.87-3.68,16.14.5,3.27,4.52,7.56,5.58,12.28,1.06,4.71,7.51,13.52,9.09,14.56,2.13,1.39,15.19,2.82,18.1-1.7,2.91-4.52,1.16-10.73.41-12.16-.74-1.42-4.31-3.03-6.51-7.02-.69-1.25-1.78-3.7-1.97-6.63-.15-2.21.65-4.38-.12-6.06-.27-.6,5.75,3.57,8.38,4.34,1.5,1.65,4.94,1.84,8.27.32,3.78-1.73,5.98-5.02,4.92-7.34Z"/>
            <path class="cls-11" d="M49.63,115.23c-4.41.3-9.31-.46-10.67-1.35-1.69-1.11-8.15-9.97-9.23-14.75-.54-2.42-1.92-4.78-3.13-6.87-1.14-1.96-2.21-3.81-2.46-5.42-.27-1.76-.1-4.35.47-7.12.46-2.23,1.39-5.63,3.23-9.18.18-.69.66-2.19,1.47-2.01.5.11,1.07.36,1.72.65,2.56,1.13,6.43,2.83,12.48-1.08.21-.13.46-.17.69-.1.23.07.42.24.51.46.27.64.66.95,1.15.92.35-.02.67-.1,1.01-.18.89-.21,1.89-.45,3.93.06,1.45.37,2.66,1.55,3.73,2.6.72.7,1.39,1.37,2.02,1.67,1.82.86,3.26,1.84,4.29,2.91.28-.15.56-.3.85-.43,1.88-.86,3.86-1.22,5.57-1.01,1.77.21,3.05,1.01,3.61,2.23h0c.56,1.22.32,2.71-.67,4.19-.96,1.43-2.53,2.7-4.41,3.56-3.35,1.53-6.93,1.39-8.57-.32-1.56-.48-4.14-2.02-6.04-3.14-.61-.36-1.24-.74-1.67-.97.25.95.14,2,.04,3.1-.08.8-.16,1.63-.1,2.45.2,3.08,1.42,5.58,1.94,6.51,1.34,2.42,3.23,3.98,4.6,5.11.89.74,1.6,1.32,1.91,1.91.56,1.07,2.73,7.55-.43,12.47-.84,1.31-2.5,2.23-4.94,2.75-.91.19-1.9.32-2.92.39ZM29.17,69.14c-.18.04-.54.82-.74,1.59,0,.02-.01.05-.03.07-3.05,5.88-4.16,12.61-3.65,15.95.23,1.5,1.27,3.3,2.38,5.21,1.23,2.13,2.63,4.54,3.2,7.05,1.07,4.77,7.58,13.46,8.96,14.36,1.43.93,8.25,1.91,13.12.87,2.27-.48,3.8-1.32,4.55-2.48,2.74-4.26,1.23-10.26.4-11.84-.25-.48-.92-1.03-1.76-1.72-1.42-1.17-3.36-2.76-4.75-5.29-.53-.97-1.8-3.56-2.01-6.76-.06-.87.03-1.73.11-2.55.12-1.26.24-2.44-.2-3.4-.08-.18-.01-.33.07-.41.25-.22.4-.15,2.7,1.21,1.9,1.13,4.51,2.68,5.98,3.11.05.02.1.05.14.09,1.44,1.58,4.77,1.68,7.91.24,1.78-.81,3.25-2,4.15-3.34.87-1.29,1.09-2.57.62-3.59h0c-.47-1.02-1.58-1.69-3.12-1.87-1.6-.19-3.46.15-5.24.96-.35.16-.69.34-1.02.53-.13.07-.29.05-.38-.06-.99-1.08-2.42-2.07-4.27-2.95-.72-.34-1.44-1.04-2.19-1.79-1.01-.99-2.16-2.12-3.45-2.44-1.89-.48-2.78-.27-3.63-.06-.36.09-.71.17-1.11.2-.76.05-1.39-.41-1.77-1.3-.03-.07-.09-.1-.12-.11-.06-.02-.12,0-.17.02-6.32,4.09-10.54,2.23-13.06,1.13-.62-.27-1.16-.51-1.61-.61Z"/>
          </g>
          <path class="cls-7" d="M67.5,78.54c1.1.06,1.82,1.31,1.69,2.41-.16,1.31-1.01,1.9-1.93,2.51-2.24,1.51-4.57,2.09-6.66,1.95-.54-.04-1.86-.28-2.17-.64-.73-.86,1.63-1.05,3.31-2.03,2.48-1.46,1.59-3.98,4.65-4.46l1.12.26Z"/>
          <path class="cls-7" d="M28.86,91.27c1.02.15,1.66.3,2.68.3,3.52,0,5.51-.12,8.94-.82,1.89-.38,5.03-1.06,6.71-2.01,1.36-.77,1.2-3.11,1.16-4.43-.06-2.03-1.69-2.7-1.69-3.71s1.08-1.39,2.03-.57c0,0,.26.46.33,1.24.06.71-.07,1.71-.08,2.31-.02,1.21-.17,3.22.09,4.35.51,2.19,1.09,3.71,2.12,5.5.37.64,1.63,2.17,1.63,2.17-.2,1.19-1.8,2.22-2.9,2.71-1.37.6-2.79,1.22-4.29,1.25-1.77.04-3.44-.73-5.04-1.49-2.44-1.15-4.86-2.36-7.33-3.46-2.78-1.23-4.86-3.42-4.36-3.34Z"/>
          <path class="cls-7" d="M43.86,68.61c-.33.21-1.29.85-2.55,1.4-1.23.53-2.2.76-3.54,1.04-.47.1-.88.06-1.11.13-.63.17-.04.93,1.3,1,4.05.21,6.01,4.35,6.92,4.18,1.46-.28-1.59-3.25-1.14-4.86.34-1.24,2.17-1.48.84-2.1-.15-.07-.28-.37-.35-.51-.14-.25-.18-.39-.36-.27Z"/>
          <path class="cls-11" d="M44.97,69.86c-1.97,1.44-4.41,2.78-6.92,2.63-.1,0-.18-.1-.17-.2,0-.1.1-.18.2-.17,2.11.06,4.08-1.03,5.78-2.19.25-.18.5-.37.71-.55.32-.26.72.21.4.48h0Z"/>
          <g>
            <path class="cls-15" d="M28.13,70.65c.39.13,1.59,1.03,2.34,1.01"/>
            <path class="cls-11" d="M28.23,70.36c.76.37,1.39,1.04,2.24,1.16.19,0,.2.29,0,.3-.9.02-1.65-.57-2.45-.87-.43-.12-.21-.76.2-.59h0Z"/>
          </g>
          <g>
            <path class="cls-15" d="M61.39,76.52c-.32.25-1.72.79-2.11,1.44"/>
            <path class="cls-11" d="M61.59,76.76c-.72.44-1.63.61-2.18,1.27-.1.16-.35.01-.26-.16.47-.77,1.36-1.09,2.05-1.6.34-.3.75.23.39.49h0Z"/>
          </g>
          <g>
            <path class="cls-15" d="M53.73,100.14c1.2-.7,4.33-.78,5.41,1.08,1.49,2.58,2.16,6.55,3.46,11.54,0,0,.32,2,.74,2.71s2.45.84,4.24,2.84,2.28,3.8,2.28,3.8c.63,1.51-4.88,9.47-6.8,8.1,0,0-4.76-5.62-8.98-7.48-2.7-1.19-9.08-6.37-9.81-11.56-.72-5.19,4.01-8.55,10.73-12.51l-1.28,1.48Z"/>
            <path class="cls-7" d="M69.19,123.81c-.21.62-1.04.48-1.32.44-.9-.11-1.81-.27-2.72-.34-.72-.05-8.53-.65-8.37-1.16.21-.62,1.92-.34,2.48-.67.7-.42,1.39-.91,1.15-2.34-.09-.56-1.3-2.16-1.82-2.96-.68-1.05-.16-3.85-1.49-6.96-.85-1.99-3.29-5.43-5.34-6.46-1.03-.51-3.5-2.06-3.5-2.06,0,0,1.67-.82,2.79-1.6,1.89-1.31,3.45-2.43,3.45-2.43,0,0,.78.65,1.18.99,1.25,1.08,2.47,2.09,3.47,3.6,1.21,1.8,2.25,7.32,3.32,11.96.2.86.59,2.02,1.34,2.42.76.4,1.48.58,2.44,1.31,1.48,1.11,3.19,3.88,3.31,4.69.1.65-.26,1.2-.39,1.58Z"/>
            <path class="cls-11" d="M52.99,100.3c2.24-1.44,5.1-1.53,6.59.99,1.23,2.09,1.65,4.51,2.23,6.8.36,1.53.71,3.07,1.11,4.58.16.86.31,1.76.67,2.56.15.29.46.38.77.54,0,0,.71.32.71.32.97.45,1.89,1.05,2.63,1.84,1.07,1.13,2.06,2.69,2.48,4.04.44,1.36-1.62,4.26-2.44,5.36-.85,1.09-3.36,4.22-4.88,3.05-1.65-1.9-3.47-3.71-5.45-5.28-.99-.78-2.04-1.5-3.17-2.03-.57-.26-1.18-.58-1.71-.93-2.69-1.78-5.08-4.05-6.82-6.78-1.38-2.17-2.23-4.95-1.3-7.46.09-.21.4-.11.33.11-.8,2.43.02,5.02,1.37,7.09,1.71,2.64,4.07,4.87,6.7,6.59.54.35,1.06.63,1.66.89,1.18.56,2.26,1.29,3.28,2.08,2.03,1.59,3.86,3.4,5.56,5.34,1.18.38,3.14-1.99,3.94-3.04.74-.99,2.51-3.55,2.35-4.75-.46-1.42-1.34-2.75-2.36-3.85-.69-.73-1.53-1.28-2.44-1.7,0,0-.71-.32-.71-.32-.36-.17-.87-.4-1.06-.82-.39-.82-.58-1.92-.72-2.69-.4-1.53-.76-3.07-1.11-4.6-.57-2.25-.98-4.61-2.15-6.61-1.09-1.84-2.91-2-4.83-1.5-.36.12-.74.26-1.08.42-.15.08-.29-.16-.14-.25h0Z"/>
          </g>
          <g>
            <path class="cls-5" d="M29.18,99.07c-.01-.19.18-.31.35-.24,2.74,1.15,6.69,1.94,11.34,1.4,6.8-.79,12.42-4.64,12.42-4.64,0,0,.8,0,1.05.18s.44.46.52.69-4.66,3.76-7.71,4.99c-2.74,1.1-8.13,2.1-14,.88-3.54-.74-3.5-1.12-3.7-1.8-.09-.31-.27-1.25-.28-1.46Z"/>
            <path class="cls-11" d="M40.59,103.14c-2.29.16-4.85.05-7.49-.5-3.42-.71-3.68-1.13-3.91-1.94l-.02-.08c-.09-.32-.28-1.29-.29-1.53h0c-.01-.19.07-.37.22-.49.16-.12.37-.14.56-.06,1.87.78,5.81,2,11.19,1.38,6.64-.77,12.23-4.55,12.28-4.59l.08-.05h.1c.21,0,.93.01,1.24.24.28.21.52.52.63.83.07.19.16.45-2.8,2.48-1.13.78-3.3,2.18-5.09,2.9-1.59.64-3.94,1.21-6.69,1.4ZM29.5,99.15c.04.31.18,1.03.26,1.29l.03.09c.14.5.24.83,3.44,1.5,5.68,1.18,10.99.27,13.82-.87,2.69-1.08,6.79-4.06,7.47-4.74-.08-.14-.2-.29-.35-.4-.08-.06-.44-.11-.78-.12-.73.48-6.13,3.9-12.48,4.64-5.43.63-9.45-.58-11.41-1.39ZM29.48,99.04h0s0,0,0,0Z"/>
          </g>
          <g>
            <path class="cls-7" d="M33.47,102.92l-.94-.24c-.18-.05-.32-.2-.34-.39l-.33-2.74c-.04-.3.23-.55.53-.5l.88.15c.2.03.35.19.37.39l.39,2.82c.04.32-.25.58-.56.5Z"/>
            <path class="cls-11" d="M33.63,103.24c-.08,0-.16,0-.24-.02l-.94-.24c-.3-.08-.53-.34-.57-.65l-.33-2.74c-.03-.24.06-.48.23-.64.18-.17.42-.24.66-.2l.88.15c.33.06.58.32.63.65l.39,2.83c.03.25-.06.5-.25.67-.13.11-.29.18-.46.19ZM33.54,102.62c.06.02.11-.01.13-.03.02-.02.06-.06.05-.13l-.39-2.82c0-.06-.06-.11-.12-.12l-.88-.15c-.06,0-.1.02-.12.04-.02.02-.05.06-.04.12l.33,2.74c0,.06.05.11.11.12l.94.24Z"/>
          </g>
          <g>
            <path class="cls-7" d="M45.47,102.64l.96-.47c.19-.09.3-.29.28-.49l-.26-3.01c-.03-.33-.37-.54-.68-.42l-.91.36c-.2.08-.33.28-.32.5l.21,3.12c.02.35.4.57.72.41Z"/>
            <path class="cls-11" d="M45.3,103c-.16.01-.32-.02-.46-.11-.23-.13-.38-.38-.4-.64l-.21-3.12c-.02-.35.18-.68.51-.81l.91-.36c.24-.09.5-.07.72.07.22.14.36.36.38.62l.26,3.01c.03.33-.15.65-.45.8l-.96.47c-.1.05-.2.07-.3.08ZM45.93,98.53s-.04,0-.06.01l-.91.36c-.08.03-.12.11-.12.19l.21,3.12c0,.09.07.13.09.15s.1.05.18,0l.96-.47c.07-.03.11-.11.1-.18l-.26-3.01c0-.08-.06-.12-.09-.14-.02-.01-.06-.03-.11-.03Z"/>
          </g>
          <path class="cls-7" d="M16.95,88.27c-.34.71.82,1.41.85,2.2s-.76,2.24-.06,2.61c.49.25,1.51-.21,1.86-.47,1.14-.85,2.52-1.85,4.86-4.56,0,0-.5-1.04-.43-2.7.05-1.25-.02-1.36.13-2.59q.13-1.11.3-2.16c-2.21-1-3.07,1.84-4.26,3.41-1.38,1.82-2.25,2.21-3.24,4.26Z"/>
          <g>
            <g>
              <g>
                <path class="cls-9" d="M7.29,63.25c-.74.64-3.41-.6-4.24-1.45s-.6,3.46,1.18,4.61c1.78,1.15,3.06-3.15,3.06-3.15Z"/>
                <path class="cls-11" d="M4.85,66.91c-.27,0-.53-.08-.78-.24-1.4-.9-1.9-3.48-1.76-4.56.02-.15.07-.59.41-.71.11-.04.32-.06.56.18.98,1.01,3.37,1.82,3.81,1.43l.8-.69-.3,1.01c-.09.3-.92,2.98-2.29,3.49-.15.06-.3.08-.45.08ZM2.93,62.11c-.04.26-.05.76.09,1.44.24,1.22.76,2.19,1.39,2.59.24.15.46.18.69.1.73-.27,1.38-1.61,1.71-2.52-1.2.07-3.13-.94-3.87-1.61Z"/>
              </g>
              <g>
                <path class="cls-9" d="M33.54,32.18c.07,4.68-7.42,7.52-7.42,7.52,1.44,9.53-8.1,11.54-8.1,11.54,1,7.67-6.55,10.22-6.55,10.22.03,1.99-1.15,5.06-3.73,6.54-.43.25-2.13,3.85-2.64,4s0-3.97-.47-3.61c-.96.76-1.93.17-2.53-.31-1.8-1.46-2.19-4.59-1.4-4.51s2.93,2.14,4.83,1.03,4.07-3.79,4.07-3.79c-1.8-7.37,3.51-11.59,3.51-11.59-1.56-5.75,3.39-11.49,3.39-11.49-1.14-3.64-1.25-8.73,5.15-13.33,2.69-1.93,6.7-8,14.57-6.45,7.88,1.56-2.68,14.22-2.68,14.22Z"/>
                <path class="cls-2" d="M5.08,72.31c-.09,0-.17-.03-.24-.08-.28-.21-.3-.77-.3-2.19,0-.37,0-.88-.02-1.2-.78.43-1.65.26-2.61-.51-1.54-1.24-2.19-3.7-1.8-4.64.12-.29.35-.44.62-.42.29.03.65.23,1.1.48.99.55,2.34,1.29,3.54.59,1.6-.94,3.45-3.08,3.89-3.6-1.54-6.66,2.63-10.83,3.5-11.62-.59-2.38-.18-5.11,1.18-7.93.88-1.82,1.88-3.11,2.22-3.52-1.59-5.28.19-9.83,5.31-13.51.53-.38,1.12-.94,1.81-1.58,2.62-2.46,6.59-6.19,13.01-4.92,1.55.31,2.55,1.05,2.96,2.21,1.4,3.96-4.61,11.48-5.39,12.42-.02,1.98-1.34,3.94-3.82,5.66-1.51,1.05-3.01,1.71-3.57,1.94,1.15,8.58-6.53,11.15-8.1,11.58.73,6.9-5.36,9.71-6.58,10.2-.06,2.19-1.4,5.17-3.88,6.59-.15.12-.65,1-1.02,1.65-.92,1.61-1.33,2.28-1.69,2.38-.04.01-.07.02-.11.02ZM4.68,68.05c.05,0,.11.01.16.04.31.15.32.59.32,1.95,0,.43,0,1.07.03,1.45.31-.42.82-1.3,1.14-1.88.71-1.25,1.01-1.74,1.25-1.88,2.36-1.35,3.6-4.23,3.57-6.26v-.23s.21-.07.21-.07c.3-.1,7.3-2.57,6.34-9.89l-.04-.28.28-.06s2.36-.51,4.48-2.15c2.82-2.17,3.95-5.21,3.37-9.04l-.04-.25.23-.09c.07-.03,7.28-2.81,7.22-7.22v-.11s.07-.09.07-.09c.07-.08,6.7-8.1,5.35-11.91-.34-.96-1.15-1.55-2.49-1.81-6.11-1.21-9.78,2.24-12.46,4.76-.7.66-1.3,1.22-1.87,1.63-4.93,3.55-6.62,7.91-5.03,12.98l.05.16-.11.13c-.05.06-4.83,5.69-3.33,11.2l.05.2-.16.13c-.05.04-5.13,4.19-3.4,11.27l.04.15-.1.12c-.09.11-2.23,2.74-4.15,3.86-1.5.88-3.09,0-4.15-.59-.33-.18-.66-.36-.84-.4-.03.06-.09.23-.07.57.04.85.52,2.45,1.67,3.38.85.69,1.53.79,2.14.3.07-.06.16-.09.24-.09Z"/>
              </g>
              <path class="cls-6" d="M5.98,66.41c.16.2.35,2.27-.77,3.46l-.41-1.67,1.18-1.79Z"/>
              <g>
                <path class="cls-9" d="M4.63,68.38c.48-.49,1.1-1.56,1.24-1.91"/>
                <path class="cls-11" d="M4.41,68.17c.38-.35.74-.83,1.04-1.28.1-.16.21-.32.29-.48.04-.07.13-.1.2-.06.07.04.1.12.07.19-.07.19-.15.37-.24.54-.27.54-.53,1.04-.93,1.52-.11.13-.31.15-.44.04-.15-.12-.15-.35,0-.47h0Z"/>
              </g>
              <path class="cls-6" d="M18.57,41.7c-3.69-1.62-4.49,1.61-5.23,3.05,0,0,.2-3.89,2.82-6.59.3-.32,2.41,3.54,2.41,3.54Z"/>
              <path class="cls-6" d="M14.49,51.74c.74.23,3.14,2.42,1.94,5.65,0,0,2.68-3.15,1.6-6.15l-3.53.5Z"/>
              <path class="cls-6" d="M11.22,63.28c.19-.49-1.96-.6-1.96-.6,0,0,.04,3.88-.91,4.51,0,0,1.48-.34,2.87-3.91Z"/>
              <path class="cls-11" d="M5.08,72.31c-.09,0-.17-.03-.24-.08-.28-.21-.3-.77-.3-2.19,0-.37,0-.88-.02-1.2-.78.43-1.65.26-2.61-.51-1.54-1.24-2.19-3.7-1.8-4.64.12-.29.35-.44.62-.42.29.03.65.23,1.1.48.99.55,2.34,1.29,3.54.59,1.6-.94,3.45-3.08,3.89-3.6-1.54-6.66,2.63-10.83,3.5-11.62-.59-2.38-.18-5.11,1.18-7.93.88-1.82,1.88-3.11,2.22-3.52-1.59-5.28.19-9.83,5.31-13.51.53-.38,1.12-.94,1.81-1.58,2.62-2.46,6.59-6.19,13.01-4.92,1.55.31,2.55,1.05,2.96,2.21,1.4,3.96-4.61,11.48-5.39,12.42-.02,1.98-1.34,3.94-3.82,5.66-1.51,1.05-3.01,1.71-3.57,1.94,1.15,8.58-6.53,11.15-8.1,11.58.73,6.9-5.36,9.71-6.58,10.2-.06,2.19-1.4,5.17-3.88,6.59-.15.12-.65,1-1.02,1.65-.92,1.61-1.33,2.28-1.69,2.38-.04.01-.07.02-.11.02ZM4.68,68.05c.05,0,.11.01.16.04.31.15.32.59.32,1.95,0,.43,0,1.07.03,1.45.31-.42.82-1.3,1.14-1.88.71-1.25,1.01-1.74,1.25-1.88,2.36-1.35,3.6-4.23,3.57-6.26v-.23s.21-.07.21-.07c.3-.1,7.3-2.57,6.34-9.89l-.04-.28.28-.06s2.36-.51,4.48-2.15c2.82-2.17,3.95-5.21,3.37-9.04l-.04-.25.23-.09c.07-.03,7.28-2.81,7.22-7.22v-.11s.07-.09.07-.09c.07-.08,6.7-8.1,5.35-11.91-.34-.96-1.15-1.55-2.49-1.81-6.11-1.21-9.78,2.24-12.46,4.76-.7.66-1.3,1.22-1.87,1.63-4.93,3.55-6.62,7.91-5.03,12.98l.05.16-.11.13c-.05.06-4.83,5.69-3.33,11.2l.05.2-.16.13c-.05.04-5.13,4.19-3.4,11.27l.04.15-.1.12c-.09.11-2.23,2.74-4.15,3.86-1.5.88-3.09,0-4.15-.59-.33-.18-.66-.36-.84-.4-.03.06-.09.23-.07.57.04.85.52,2.45,1.67,3.38.85.69,1.53.79,2.14.3.07-.06.16-.09.24-.09Z"/>
              <g>
                <path class="cls-9" d="M16.47,37.65c.47,2.04,2.23,3.86,2.23,3.86"/>
                <path class="cls-11" d="M16.77,37.58c.33,1.41,1.16,2.68,2.11,3.75.23.24-.13.6-.37.36-1.06-1.14-1.95-2.44-2.35-3.97-.09-.4.51-.55.61-.14h0Z"/>
              </g>
              <g>
                <path class="cls-9" d="M18.04,51.22c-2.14.63-3.67.32-3.67.32"/>
                <path class="cls-11" d="M18.13,51.52c-1.24.31-2.53.44-3.8.21-.24-.05-.18-.41.06-.38.58.08,1.21.05,1.8-.03.6-.08,1.19-.22,1.76-.4.4-.12.58.49.17.6h0Z"/>
              </g>
              <g>
                <path class="cls-5" d="M11.58,63.09s-1.7.79-3.07-1.23c0,0-.05-.57.24-1.12s.66-1.04.66-1.04c1.26,1.72,3.25,1.22,3.25,1.22,0,0-.23,1.76-1.07,2.17Z"/>
                <path class="cls-11" d="M11.65,63.24c-1.32.52-2.65-.2-3.44-1.26-.13-.94.42-1.74.94-2.47,0,0,.25-.34.25-.34l.25.34c.64.92,1.84,1.33,2.92,1.1,0,0,.38.34.38.34-.25.84-.48,1.82-1.3,2.28h0ZM11.51,62.93c.64-.42.78-1.34.84-2.05,0,0,.38.34.38.34-.99.21-2.06,0-2.87-.62-.27-.21-.5-.45-.7-.72h.5c-.4.57-.88,1.22-.83,1.94l-.05-.15c.49.98,1.67,1.7,2.74,1.25h0Z"/>
              </g>
              <path class="cls-11" d="M12.13,62.78c-1.38-.23-2.88-1.04-3.14-2.52,0,0,.22-.05.22-.05.1.31.23.6.44.83.62.72,1.62,1.04,2.53,1.11,0,0-.06.62-.06.62h0Z"/>
            </g>
            <g>
              <path class="cls-9" d="M19.32,47.59c-.47.33-2,1.54-3.48,1.96"/>
              <path class="cls-11" d="M19.46,47.79c-1.11.76-2.27,1.52-3.59,1.87-.06.02-.12-.02-.14-.08-.02-.06.02-.12.08-.14.94-.31,1.79-.86,2.58-1.44.27-.2.52-.4.8-.61.11-.08.26-.06.34.04.09.11.06.27-.06.35h0Z"/>
            </g>
            <g>
              <path class="cls-9" d="M18.17,32.75c-.41,1.17-.35,5.34,1.21,7.29"/>
              <path class="cls-11" d="M18.4,32.83c-.53,2.01-.2,5.43,1.07,7.14.09.11-.08.26-.18.14-1.19-1.55-1.48-3.58-1.55-5.48,0-.65,0-1.28.2-1.96.04-.13.17-.2.3-.17.14.04.21.19.16.33h0Z"/>
            </g>
            <g>
              <g>
                <path class="cls-14" d="M26.62,58.74c2.35,2.85,8.81,6.73,15.51,7.26,4.67-.02,11.1-1.43,11.32-2.67,2.61-.77,3.46-2.3,4.23-3.61.41-.7.48-1.84.32-2.97.27-.36.43-.58.43-.58,1.84-2.66.66-5.88.13-7.05.19-.7.25-3,1.14-8.98.39-2.59.18-4.51-.24-5.89-.6.36-1.3.66-2.12.9-6.26,1.79-13.33-3.22-14.49-4.6-.57-.69-4.16-3.62-8.15-4.64.15-2.31-.17-5.84-2.29-9.33-.18-.3-.36-.57-.55-.84-3.07-4.31-7.36-4.93-8.09-3.58-.78,1.43-2.78,5.12-1.91,10.84.7,4.65,1.86,6.97,3.2,8.43-.2.74-.53,7.11-.85,9.53-.35,2.62-2.43,11.9,2.41,17.79Z"/>
                <path class="cls-2" d="M42.13,66.31h-.01c-6.38-.5-13.13-4.22-15.73-7.37-4.48-5.44-3.18-13.63-2.62-17.12.06-.35.1-.66.14-.9.16-1.2.33-3.41.47-5.36.16-2.09.26-3.48.36-4.04-1.58-1.79-2.56-4.42-3.17-8.47-.88-5.85,1.17-9.62,1.95-11.03.25-.47.81-.75,1.57-.79,2.63-.16,5.43,2.07,7.05,4.34.21.3.4.58.56.86,2.22,3.65,2.44,7.27,2.35,9.25,3.98,1.1,7.51,4.01,8.06,4.68,1.02,1.22,7.97,6.28,14.17,4.5.75-.21,1.44-.51,2.05-.87l.34-.2.11.38c.51,1.69.59,3.72.25,6.03-.55,3.65-.78,5.93-.93,7.3-.08.81-.13,1.3-.2,1.6.6,1.35,1.66,4.56-.2,7.26,0,0-.13.18-.36.49.1.79.16,2.13-.37,3.04l-.05.08c-.74,1.26-1.66,2.82-4.22,3.62-.79,1.49-7.35,2.7-11.55,2.73h-.01ZM26.86,58.54c2.11,2.56,8.42,6.6,15.29,7.14,2.22-.01,4.93-.34,7.25-.87,2.66-.61,3.71-1.26,3.76-1.54l.03-.19.18-.05c2.44-.72,3.27-2.14,4-3.39l.05-.08c.34-.58.44-1.59.28-2.77l-.02-.13.08-.1c.27-.36.42-.57.42-.57,1.73-2.5.65-5.55.1-6.74l-.05-.1.03-.11c.07-.25.12-.77.21-1.62.14-1.37.38-3.67.93-7.33.31-2.05.26-3.85-.12-5.38-.56.3-1.18.54-1.84.73-3.44.99-7-.07-9.37-1.12-2.7-1.2-4.81-2.82-5.45-3.58-.54-.65-4.04-3.53-7.98-4.54l-.25-.06.02-.26c.12-1.84-.02-5.48-2.25-9.15-.16-.27-.34-.54-.54-.82-2.1-2.94-4.84-4.18-6.51-4.08-.53.03-.91.2-1.06.47-.75,1.37-2.73,4.99-1.88,10.64.61,4.02,1.57,6.57,3.13,8.26l.12.13-.05.17c-.09.34-.24,2.25-.37,4.09-.15,1.96-.31,4.18-.47,5.4-.03.25-.08.56-.14.92-.54,3.41-1.81,11.4,2.49,16.63h0Z"/>
              </g>
              <path class="cls-3" d="M24.96,14.19c.65-.49,5.34,3.07,5.64,11.2.1,2.69-2.41,3.92-3.14,3.49-3.07-1.84-5.26-12.62-2.5-14.69Z"/>
              <path class="cls-12" d="M59.3,34.34c.62,3,.11,6.84-.39,7.41-.64.74-5.99,1.75-6.58-.98-1.06-4.93-6.22-4.45-10.32-8.11-1.93-1.73-2.48-4.55-5.11-5.68-.62-.27,3.91-.71,4.94-.5,5.17,1.05,17.46,7.87,17.46,7.87Z"/>
              <path class="cls-13" d="M28.93,28.61c-.74-.36-5.16-9-3.86-14.38,0,0-3.69,1.81.36,11.12,0,0,1.57,3.48,2.28,3.52.78.05,1.21-.27,1.21-.27Z"/>
              <path class="cls-11" d="M27.84,29.28c-.21,0-.39-.04-.54-.13-2.08-1.24-3.69-6.19-3.89-10.03-.08-1.49,0-4.15,1.36-5.17.21-.16.52-.14.91.05,1.59.76,4.97,4.55,5.22,11.39.08,2.19-1.4,3.23-1.85,3.5-.43.26-.86.39-1.22.39ZM25.12,14.46c-.82.64-1.21,2.32-1.09,4.62.21,4.06,1.89,8.51,3.59,9.53.14.08.58.06,1.12-.26.38-.23,1.61-1.1,1.55-2.95-.12-3.32-1.3-8.04-4.2-10.41-.56-.45-.88-.54-.97-.54Z"/>
              <path class="cls-12" d="M58.69,48.3c-.75.63-3.13.74-6.14.26,0,0,.34.88.81,1.81.28.55,4.01,2.51,3.6,5.08-.27,1.7.77,1.66,1.04,1.3s1.94-2.83,1.11-5.93c-.83-3.11-.42-2.52-.42-2.52Z"/>
              <path class="cls-11" d="M42.13,66.31h-.01c-6.38-.5-13.13-4.22-15.73-7.37-4.48-5.44-3.18-13.63-2.62-17.12.06-.35.1-.66.14-.9.16-1.2.33-3.41.47-5.36.16-2.09.26-3.48.36-4.04-1.58-1.79-2.56-4.42-3.17-8.47-.88-5.85,1.17-9.62,1.95-11.03.25-.47.81-.75,1.57-.79,2.63-.16,5.43,2.07,7.05,4.34.21.3.4.58.56.86,2.22,3.65,2.44,7.27,2.35,9.25,3.98,1.1,7.51,4.01,8.06,4.68,1.02,1.22,7.97,6.28,14.17,4.5.75-.21,1.44-.51,2.05-.87l.34-.2.11.38c.51,1.69.59,3.72.25,6.03-.55,3.65-.78,5.93-.93,7.3-.08.81-.13,1.3-.2,1.6.6,1.35,1.66,4.56-.2,7.26,0,0-.13.18-.36.49.1.79.16,2.13-.37,3.04l-.05.08c-.74,1.26-1.66,2.82-4.22,3.62-.79,1.49-7.35,2.7-11.55,2.73h-.01ZM26.86,58.54c2.11,2.56,8.42,6.6,15.29,7.14,2.22-.01,4.93-.34,7.25-.87,2.66-.61,3.71-1.26,3.76-1.54l.03-.19.18-.05c2.44-.72,3.27-2.14,4-3.39l.05-.08c.34-.58.44-1.59.28-2.77l-.02-.13.08-.1c.27-.36.42-.57.42-.57,1.73-2.5.65-5.55.1-6.74l-.05-.1.03-.11c.07-.25.12-.77.21-1.62.14-1.37.38-3.67.93-7.33.31-2.05.26-3.85-.12-5.38-.56.3-1.18.54-1.84.73-3.44.99-7-.07-9.37-1.12-2.7-1.2-4.81-2.82-5.45-3.58-.54-.65-4.04-3.53-7.98-4.54l-.25-.06.02-.26c.12-1.84-.02-5.48-2.25-9.15-.16-.27-.34-.54-.54-.82-2.1-2.94-4.84-4.18-6.51-4.08-.53.03-.91.2-1.06.47-.75,1.37-2.73,4.99-1.88,10.64.61,4.02,1.57,6.57,3.13,8.26l.12.13-.05.17c-.09.34-.24,2.25-.37,4.09-.15,1.96-.31,4.18-.47,5.4-.03.25-.08.56-.14.92-.54,3.41-1.81,11.4,2.49,16.63h0Z"/>
            </g>
            <g>
              <g>
                <path class="cls-14" d="M53.25,20.3c1.59,3.56,2.77,6.48,5.16,6.59.79.04,1.34-.05,1.73-.2,1.08-2.35,2.02-5.5,1.71-9.04-.65-7.64-6.78-.47-8.46,2.39-.05.09-.1.17-.15.26Z"/>
                <path class="cls-11" d="M58.82,27.22c-.13,0-.27,0-.42,0-2.47-.12-3.68-2.84-5.21-6.28l-.29-.64.23-.39c1.04-1.77,4.67-6.46,7.1-5.91,1.1.25,1.75,1.48,1.94,3.65.26,3.04-.33,6.14-1.74,9.2l-.05.12-.12.05c-.39.15-.86.22-1.44.22ZM53.6,20.32l.16.35c1.44,3.25,2.58,5.81,4.67,5.91.61.03,1.11-.02,1.49-.14,1.33-2.93,1.88-5.88,1.63-8.77-.11-1.29-.45-2.87-1.45-3.1-.81-.18-2.03.48-3.45,1.86-1.25,1.22-2.4,2.77-2.99,3.76l-.07.12Z"/>
              </g>
              <path class="cls-3" d="M60.01,16.7c.67-.31,1.26,5.28-1.38,10.09-.36.84-5.12-.45-4.1-3.68.77-2.43,2.26-4.9,5.48-6.41Z"/>
              <path class="cls-13" d="M60.36,17.14c-2.73,1.85-3.99,7.18-4.16,9.76l-2.6-1.47s2.48-7.19,6.4-8.62l.36.33Z"/>
              <path class="cls-11" d="M57.98,27.36c-.42,0-.9-.1-1.35-.27-1.52-.56-3.06-1.97-2.39-4.07.99-3.12,2.84-5.28,5.64-6.6.18-.08.38-.04.53.12.77.82.85,6.1-1.5,10.4-.14.3-.49.42-.93.42ZM60.01,17.05c-2.57,1.25-4.26,3.26-5.18,6.16-.51,1.6.6,2.54,1.3,2.96,1.04.61,2.08.65,2.22.5,2.3-4.19,2.09-8.82,1.66-9.62ZM60.14,16.98h0s0,0,0,0c0,0,0,0,0,0Z"/>
            </g>
            <g>
              <path class="cls-9" d="M32.42,16.57c2.12,3.49,2.44,7.02,2.29,9.33,3.99,1.02,7.57,3.96,8.15,4.64,1.16,1.39,8.23,6.39,14.49,4.6.82-.23,1.52-.54,2.12-.9,3.98-2.36,3.68-6.87,3.61-7.32-.2-1.33-.64-2.57-1.61-2.5-.73.05-.88.42-1.34,1.66-.27.71-.93.85-1.72.81-2.4-.12-3.58-3.04-5.16-6.59-.56-1.25-1.16-2.57-1.89-3.88-2.8-5.05-12.28-6.67-17.94-2.1-.56.45-1.08.93-1.56,1.41.19.27.37.54.55.84Z"/>
              <path class="cls-9" d="M41.54,29.28c-2.74-2.23-6.83-3.38-6.83-3.38,3.77-1.64,11.95,2.52,13.08,3.03,1.83.81,3.87,2.81,5.81,3.3s5.01-.1,6.46-1.55,1.92-4.27,1.42-6.25c.45-.12,1.04.71,1.29,1.1s-.03.73,0,1.19c.1,2.33-.5,4.87-2.18,6.49s-4.43,2.28-6.75,2.09c-1.61-.13-3.76-.5-5.22-1.18-2.75-1.28-4.74-3.11-7.07-4.85Z"/>
              <path class="cls-11" d="M54.59,35.84c-2.47.01-4.8-.75-6.52-1.52-2.7-1.2-4.81-2.82-5.45-3.58-.54-.65-4.04-3.53-7.98-4.54l-.25-.06.02-.26c.12-1.84-.02-5.48-2.25-9.15h0c-.16-.27-.34-.54-.54-.82l-.15-.21.18-.19c.51-.51,1.04-1,1.58-1.44,2.9-2.35,7.05-3.28,11.11-2.49,3.35.65,6.01,2.36,7.3,4.68.74,1.34,1.37,2.72,1.9,3.91l.22.5c1.44,3.25,2.58,5.81,4.67,5.91.83.04,1.24-.13,1.42-.61.46-1.23.67-1.79,1.61-1.86,1-.07,1.64.86,1.93,2.76,0,.05.56,5.07-3.76,7.63-.66.39-1.39.7-2.2.93-.95.27-1.91.39-2.85.39ZM35.03,25.66c3.98,1.1,7.51,4.01,8.06,4.68,1.02,1.22,7.97,6.28,14.17,4.5.75-.21,1.44-.51,2.05-.87,3.98-2.35,3.47-6.96,3.46-7-.16-1.05-.51-2.29-1.28-2.24-.51.04-.6.2-1.07,1.46-.36.98-1.33,1.04-2.03,1.01-2.47-.12-3.68-2.84-5.21-6.28l-.22-.5c-.52-1.17-1.14-2.54-1.88-3.86-1.18-2.13-3.75-3.76-6.87-4.37-3.87-.75-7.84.13-10.6,2.36-.46.37-.91.78-1.35,1.21.15.22.29.43.41.64,2.22,3.65,2.44,7.27,2.35,9.25Z"/>
            </g>
            <g>
              <path class="cls-10" d="M52.21,44.65c.03,1.93.66,3.64,1.59,4.65.56.61,3.13.71,3.62.28,1.06-.95,1.77-2.79,1.74-4.91-.04-3.1-1.63-5.61-3.55-5.61s-3.44,2.5-3.4,5.6Z"/>
              <path class="cls-11" d="M55.6,39.06s.01,0,.02,0c1.92,0,3.51,2.52,3.55,5.61.03,2.12-.68,3.96-1.74,4.91-.2.18-.73.26-1.33.27-.9,0-1.95-.18-2.29-.54-.94-1.01-1.57-2.72-1.59-4.65-.04-3.09,1.47-5.59,3.38-5.6M55.6,38.43c-.82,0-1.59.36-2.25,1.03-1.12,1.15-1.78,3.09-1.75,5.2.03,2.01.68,3.91,1.76,5.07.66.71,2.4.74,2.75.74.84,0,1.43-.15,1.74-.43,1.23-1.1,1.97-3.16,1.94-5.38-.05-3.49-1.88-6.22-4.17-6.23h-.02Z"/>
            </g>
            <ellipse class="cls-11" cx="55.06" cy="46.16" rx="2.72" ry="4.26" transform="translate(-3.13 4.02) rotate(-4.06)"/>
            <g>
              <path class="cls-10" d="M32.16,46.14c.51,2,1.56,3.63,2.8,4.53.88.64,4.42-.25,4.9-1.23.67-1.38.83-3.33.32-5.35-.87-3.44-3.37-5.77-5.58-5.21s-3.31,3.81-2.44,7.26Z"/>
              <path class="cls-11" d="M35.26,38.8c2.03,0,4.14,2.19,4.92,5.29.51,2.02.34,3.97-.32,5.35-.36.74-2.49,1.44-3.88,1.44-.44,0-.8-.06-1.01-.22-1.23-.9-2.29-2.53-2.8-4.53-.87-3.44.22-6.69,2.44-7.26.22-.06.44-.08.66-.08M35.26,38.18c-.27,0-.55.04-.81.1-1.28.33-2.28,1.38-2.81,2.95-.5,1.48-.52,3.28-.08,5.06.52,2.08,1.63,3.86,3.03,4.88.32.23.77.34,1.38.34,1.46,0,3.91-.71,4.44-1.79.76-1.58.9-3.68.37-5.78-.85-3.35-3.17-5.77-5.52-5.76h0Z"/>
            </g>
            <ellipse class="cls-11" cx="36.7" cy="46.6" rx="3.18" ry="4.79" transform="translate(-3.21 2.72) rotate(-4.06)"/>
            <path class="cls-11" d="M37.5,34.69c-1.27-.81-2.87-1.04-4.26-.35-1.45.69-2.59,1.94-3.63,3.17-.06.08-.18.09-.26.02-.07-.06-.08-.15-.04-.22.41-.75.89-1.47,1.46-2.13,1.18-1.36,2.86-2.48,4.76-2.25.94.13,1.82.58,2.42,1.32.23.29-.15.66-.44.44h0Z"/>
            <path class="cls-11" d="M31.57,44.75c-.15,0-.28-.11-.31-.26-.14-.85-.07-2.17-.04-2.46,0-.07.01-.15.02-.23.02-.32.05-.75.29-1.42.34-.95,1.5-2.09,3.22-2.34,1.82-.27,3.38,1.23,3.96,1.88.11.13.1.32-.03.44-.13.11-.32.1-.44-.03-.52-.58-1.88-1.91-3.4-1.68-1.57.23-2.49,1.29-2.73,1.94-.21.59-.24.94-.26,1.25,0,.09-.01.17-.02.26-.03.25-.1,1.51.03,2.28.03.17-.09.33-.26.36-.02,0-.03,0-.05,0Z"/>
            <path class="cls-11" d="M59.39,43.86c-.15,0-.29-.11-.31-.27-.17-1.34-.38-2.66-.77-3.31-.45-.74-1.02-1.2-1.74-1.39-1.19-.32-2.44.71-2.68.92-.13.11-.33.1-.44-.03-.11-.13-.1-.33.03-.44.39-.34,1.79-1.44,3.25-1.05.88.23,1.57.78,2.12,1.67.43.71.66,1.93.86,3.56.02.17-.1.33-.27.35-.01,0-.03,0-.04,0Z"/>
            <path class="cls-11" d="M59.27,40.96c.65-.1,1.34-.51,1.68-1.11.08-.14.3-.05.25.11-.26.83-.96,1.46-1.77,1.77-.57.17-.74-.7-.16-.77h0Z"/>
            <path class="cls-11" d="M58.57,39.92c.5-.11,1.01-.46,1.26-.93.03-.06.1-.08.16-.05.05.03.07.08.06.14-.14.47-.46.88-.86,1.17-.14.1-.28.2-.47.27-.44.15-.62-.53-.15-.6h0Z"/>
            <path class="cls-11" d="M57.93,38.81c.33-.03.7-.23.88-.53.03-.06.11-.08.17-.05.05.03.07.08.05.14-.14.48-.51.85-.97,1.04-.51.23-.7-.59-.14-.6h0Z"/>
            <path class="cls-11" d="M31.43,41.49c-.44-.2-.74-.46-1.04-.79-.28-.32-.49-.7-.58-1.11-.02-.07.03-.15.11-.16.06-.01.13.02.15.08.29.62.96,1.07,1.6,1.21.64.11.36,1.04-.24.79h0Z"/>
            <path class="cls-11" d="M32.23,40.32c-.6-.33-1.05-.87-1.2-1.53-.01-.06.03-.12.09-.13.05-.01.11.02.13.07.22.48.7.87,1.2,1.01.47.11.22.8-.21.58h0Z"/>
            <path class="cls-11" d="M32.97,39.26c-.44-.23-.79-.63-.88-1.11-.03-.13.16-.18.21-.07.17.31.52.54.86.59.18,0,.33.14.33.32,0,.26-.29.41-.51.27h0Z"/>
            <path class="cls-11" d="M35.71,58.04c-.14,0-.26-.09-.3-.23-.44-1.58.73-2.58,1.41-2.89.16-.07.34,0,.41.15.07.16,0,.34-.15.41-.06.03-1.48.7-1.07,2.16.05.17-.05.34-.22.38-.03,0-.05.01-.08.01Z"/>
            <path class="cls-11" d="M61.49,27.91c-1.03,5.02-6.56,5.74-10.5,3.56-1.28-.67-2.45-1.49-3.54-2.46-.13-.11-.14-.31-.02-.44.12-.13.33-.14.46,0,1,.94,2.13,1.79,3.34,2.47,3.71,2.2,8.98,1.62,10.07-3.16.02-.13.23-.1.2.04h0Z"/>
            <g>
              <g>
                <path class="cls-3" d="M53.44,63.33s-.66,2.79-2.98,3.94c-5.65,2.8-11.72-2.28-12.38-9.38"/>
                <path class="cls-11" d="M47.24,68.37c-1.3,0-2.6-.34-3.84-1.02-3.1-1.73-5.26-5.34-5.64-9.42-.02-.17.11-.32.28-.34.17-.01.32.11.34.28.36,3.88,2.4,7.3,5.32,8.94,2.12,1.19,4.47,1.26,6.61.2,2.16-1.07,2.81-3.71,2.82-3.74.04-.17.21-.27.37-.23.17.04.27.21.23.37-.03.12-.72,2.95-3.15,4.15-1.08.54-2.22.81-3.35.81Z"/>
              </g>
              <path class="cls-13" d="M53.07,63.69s-.96-.03-1.45.32c-.99.7-2.12,2.02-4.12,1.79-3-.35-4.46-2.09-4.46-2.09,0,0,.25,4.48,4.82,4.23,3.89-.21,5.21-4.25,5.21-4.25Z"/>
              <path class="cls-11" d="M52.4,63.88l-13.58-4.57s3.93,6.28,9.16,6.72c3.27.28,4.42-2.15,4.42-2.15Z"/>
              <g>
                <path class="cls-3" d="M51.49,51.42c1.65.01,4.99,1.05,5.96,2.28s1.59,4.5.75,5.93c-1.04,1.77-2.24,3.95-7.72,4.1-5.49.15-12.13-4.28-12.4-5.84-.24-1.44,1.68-2.96,5.25-4.71,2.92-1.44,5.37-1.78,8.16-1.76Z"/>
                <path class="cls-2" d="M50.26,64.05c-5.39.03-12.18-4.27-12.49-6.1-.25-1.52,1.42-3.07,5.42-5.04,3.25-1.6,5.91-1.81,8.3-1.79h0c1.71.01,5.14,1.05,6.21,2.4,1.07,1.35,1.66,4.77.77,6.28l-.05.09c-1.05,1.79-2.36,4.02-7.93,4.17-.07,0-.15,0-.22,0ZM51.08,51.73c-2.21.01-4.66.27-7.61,1.72-3.61,1.78-5.27,3.22-5.08,4.38.1.6,1.69,2.05,4.08,3.34,2.76,1.49,5.67,2.31,8,2.24,5.23-.14,6.39-2.12,7.41-3.86l.05-.09c.74-1.26.2-4.4-.72-5.58-.91-1.16-4.17-2.15-5.72-2.17-.14,0-.27,0-.41,0Z"/>
              </g>
              <path class="cls-13" d="M54.43,57.16c-.07-.21-1.4-2.25-1.85-.69,0,0-.24-2.34,1.66-1.54,1.3.55.19,2.23.19,2.23Z"/>
              <path class="cls-11" d="M52.54,57.14c-1.22-1.45.71-3.73,2.17-2.2.62.71.49,1.93-.27,2.47-.17.12-.37-.11-.23-.26.45-.49.49-1.32.05-1.81-.44-.49-1.15-.27-1.43.32-.2.38-.23.88-.03,1.31.08.16-.14.3-.25.17h0Z"/>
              <path class="cls-13" d="M49.11,57.64c.13-.62.44-2.01-1.45-1.87-.99.07-.95.81-.61,1.52,0,0,.12-.64.92-.52,1.08.16,1.14.87,1.14.87Z"/>
              <path class="cls-11" d="M49.04,57.7c.24-.83-.57-1.94-1.43-1.63-.36.13-.58.56-.56,1,.02.44.25.89.64,1.15.16.1.03.35-.14.28-1.21-.45-1.44-2.45-.15-2.96.95-.37,1.94.46,2.05,1.39.03.21,0,1.07-.33.94-.07-.03-.1-.11-.08-.18h0Z"/>
              <path class="cls-13" d="M56.06,52.71c.35.73,3.1,6.09-2.48,8.01-1.38.47-3.19.87-5.4,1.07-2.21.2-6-.42-6-.42,0,0,2.59,1.32,5.35,1.93,3.72.82,8.1.71,10.2-2.34,2.27-3.3-.16-7.17-.16-7.17l-1.51-1.09Z"/>
              <path class="cls-11" d="M50.26,64.05c-5.39.03-12.18-4.27-12.49-6.1-.25-1.52,1.42-3.07,5.42-5.04,3.25-1.6,5.91-1.81,8.3-1.79h0c1.71.01,5.14,1.05,6.21,2.4,1.07,1.35,1.66,4.77.77,6.28l-.05.09c-1.05,1.79-2.36,4.02-7.93,4.17-.07,0-.15,0-.22,0ZM51.08,51.73c-2.21.01-4.66.27-7.61,1.72-3.61,1.78-5.27,3.22-5.08,4.38.1.6,1.69,2.05,4.08,3.34,2.76,1.49,5.67,2.31,8,2.24,5.23-.14,6.39-2.12,7.41-3.86l.05-.09c.74-1.26.2-4.4-.72-5.58-.91-1.16-4.17-2.15-5.72-2.17-.14,0-.27,0-.41,0Z"/>
            </g>
            <g>
              <path class="cls-3" d="M41.84,14.86c.22-.66.98-.98,1.61-.68l-.18-.09c-.57-.27-.82-.94-.59-1.52l1.24-3.06c.28-.69,1.13-.96,1.75-.55l-.41-.27c-.46-.3-.62-.89-.37-1.38l1.09-2.18c.3-.59,1.44-.39,1.98,0l-.55-.51c-.47-.33-.55-.99-.18-1.43l2.1-2.51c.18-.21.44-.34.72-.35.41-.02,1,.19,1.12.79.14.78.26,4.01.26,4.01-.06,1.46-.66,1.68-1.57,1.23l.94.67c.33.24.5.65.44,1.05l-.4,2.45c-.13.77-.53,1.33-2.94-.06l1.99,1.25c.41.27.61.76.51,1.24l-.57,2.64c-.16.75-.98,1.15-1.67.82l-3.4-1.63,3.88,1.86c.51.24.77.81.62,1.35l-.53,2c-.17.63-.56.9-1.47,1.01s-1.58.14-3.13-.26-2.2-.94-2.69-1.4-.76-1.01-.55-1.64l.97-2.86Z"/>
              <path class="cls-13" d="M44.69,15.11c-.72-.99,3.22.87,3.79,1.49.35.38.92.88.7,1.7s-.86,1.95-.86,1.95c0,0,.31-1.03-1.48-3.09-.48-.55-1.43-1.38-2.15-2.05Z"/>
              <path class="cls-13" d="M47.66,10.85c-.55-.9,1.83.56,2.27,1.13.27.35.44.83.3,1.55s-.64,2.13-.64,2.13c0,0,.26-1.45-.48-2.87-.29-.55-.89-1.34-1.44-1.95Z"/>
              <path class="cls-13" d="M49.76,6.53c-.32-.81.95.5,1.19,1.02.15.32-.33,2.34-.34,2.95s-.37.49-.37.49c0,0,.22-1.35.16-2.7-.02-.64-.34-1.18-.64-1.75Z"/>
              <path class="cls-13" d="M49.52.99c1.03-.14,1.02,4.59.66,5.32,0,0,.61.31.87-.24.19-.41.26-1.29.22-2.78-.09-3.29-1.21-2.94-1.74-2.29Z"/>
              <path class="cls-11" d="M41.55,14.76c.25-.83,1.29-1.27,2.05-.85.36.19.08.73-.28.55-.97-.43-1.26-1.37-.79-2.29,0,0,.17-.43.17-.43.17-.43.52-1.29.69-1.71l.17-.43c.17-.54.6-1,1.17-1.1.38-.08.79,0,1.12.21l-.34.52c-.23-.16-.57-.33-.74-.57-.34-.41-.4-1.05-.14-1.52,0,0,.19-.37.19-.37l.37-.75c.1-.19.42-.84.51-1.03.5-.87,1.76-.58,2.42-.09,0,0-.34.42-.34.42-.21-.09-.41-.32-.59-.47-.45-.28-.73-1.18-.3-1.77.08-.12,1.15-1.38,1.26-1.53.17-.19.67-.8.83-1,.55-.82,1.92-.74,2.38.13.17.34.16.64.2.97.1,1.14.13,2.28.16,3.42-.02.5-.08,1.08-.46,1.49-.41.42-1.09.25-1.47-.11,0,0,.11-.19.11-.19,1.02.46,1.86.84,1.58,2.14,0,0-.07.52-.07.52l-.16,1.04-.08.52c-.07.81-.59,1.32-1.43,1.15-.76-.15-1.38-.52-2.03-.9,0,0,.32-.53.32-.53l1.31.83c.44.28,1.09.6,1.25,1.15.22.51-.03,1.17-.14,1.68,0,0-.34,1.51-.34,1.51l-.04.19-.02.1c-.11.5-.51.92-1,1.06-.37.12-.77.05-1.11-.13,0,0-.17-.09-.17-.09-1.05-.5-2.07-1.06-3.1-1.59,0,0,.12-.26.12-.26.79.37,1.62.69,2.44.99.4.19.79.39,1.18.58.2.09.46.21.63.36.43.35.62.94.48,1.47,0,0-.17.64-.17.64l-.34,1.27c-.16.86-.87,1.24-1.68,1.32-2.05.35-5.81-.52-6.74-2.58-.15-.36-.14-.8,0-1.17,0,0,.1-.31.1-.31l.84-2.49h0ZM42.14,14.96l-.85,2.49c-.12.33-.28.72-.12,1.07.53,1.06,1.83,1.64,2.97,1.95,1.05.29,2.08.44,3.13.27.36-.05.76-.13.99-.4.1-.13.16-.28.21-.49l.34-1.27c.07-.32.28-.8.16-1.12-.08-.25-.25-.44-.49-.54l-.3-.14c-.4-.19-.8-.36-1.19-.56-.39-.21-.74-.47-1.14-.67-.38-.21-.77-.42-1.16-.61-.07-.04-.1-.12-.06-.19.03-.07.12-.1.19-.06,1.06.47,2.14.92,3.18,1.42.05.02.21.1.26.12.53.26,1.21-.08,1.31-.66.03-.15.33-1.61.37-1.8,0-.05.18-.84.18-.85.07-.37-.09-.75-.42-.95-.41-.26-1.54-.96-1.97-1.22-.33-.21-.04-.72.31-.54.31.16.62.32.93.46.36.14,1.24.56,1.44.13.1-.19.14-.7.19-.93.06-.34.21-1.23.28-1.55.06-.26.11-.57-.04-.81-.26-.38-.74-.65-1.04-1.05,0,0-.05-.06-.05-.06-.09-.1.07-.24.16-.13.38.05.72.15.96-.09.36-.46.24-1.3.22-1.87-.05-.86-.1-1.72-.17-2.57-.03-.28-.05-.59-.13-.72-.17-.35-.86-.48-1.14-.16-.23.27-.72.85-.96,1.13,0,0-1.12,1.32-1.12,1.32-.07.08-.14.17-.18.27-.11.27-.01.61.23.77.17.16.44.37.55.58.17.26-.07.56-.34.42-.38-.22-1.4-.52-1.59.02,0,0-.09.19-.09.19-.27.54-.66,1.33-.93,1.87-.17.32-.1.72.17.95.07.06.4.27.48.33.34.23,0,.73-.34.52-.19-.13-.43-.17-.65-.13-.28.06-.53.25-.64.52-.06.13-.2.5-.26.64-.17.43-.53,1.28-.7,1.71l-.18.43c-.17.37-.28.71-.07,1.07.12.23.34.35.58.44,0,0-.27.56-.27.56-.45-.21-1.02.02-1.18.5h0Z"/>
            </g>
            <g>
              <path class="cls-9" d="M10.41,60.36c0-.45-.05-2.03.37-3.07"/>
              <path class="cls-11" d="M10.17,60.35c.05-1.05.09-2.13.51-3.11.03-.06.09-.08.15-.06.05.02.08.09.06.14-.17.47-.23.98-.25,1.49-.03.52,0,1.02.02,1.54,0,.13-.1.25-.23.25-.14,0-.26-.12-.25-.26h0Z"/>
            </g>
          </g>
          <g>
            <g>
              <g>
                <path class="cls-5" d="M21.63,83.39c-.32.34-2.14,4.17-3.65,5.81-1.92,2.08-8.01-1.42-9.16-4.93s1.58-7.99,1.58-7.99l11.23,7.11Z"/>
                <path class="cls-2" d="M16.58,90.13c-.39.03-.83-.01-1.3-.11-2.5-.55-5.88-3-6.75-5.65-.62-1.89-.15-4.04.36-5.51.54-1.57,1.22-2.69,1.25-2.74l.16-.27,11.82,7.48-.26.27c-.08.09-.38.63-.67,1.16-.77,1.4-1.93,3.51-2.98,4.65-.4.43-.95.67-1.63.71ZM10.51,76.72c-.55,1.01-2.33,4.61-1.4,7.46.78,2.38,3.96,4.72,6.29,5.23.74.16,1.75.22,2.34-.42,1-1.08,2.14-3.16,2.89-4.53.25-.46.42-.77.55-.98l-10.68-6.76Z"/>
              </g>
              <g>
                <path class="cls-5" d="M18.43,85.3c-3.98-.57-8.01-2.65-9.09-7.78-1.08-5.13.85-9.34,4.87-11.27,2.21-1.06,4.57-1.82,8.49.27,3.92,2.09,5.79,6.4,6,8.26s.45,5.89-5.49,5.49c0,0-.78,5.61-4.78,5.03Z"/>
                <path class="cls-2" d="M19.25,85.64c-.28.02-.57,0-.87-.04h0c-5.09-.73-8.41-3.58-9.35-8.02-1.08-5.15.85-9.6,5.04-11.61,2.2-1.06,4.68-1.9,8.77.28,4.13,2.21,5.97,6.76,6.17,8.5.17,1.44.2,3.25-1.01,4.52-.93.98-2.46,1.43-4.54,1.33-.16.81-.73,3.14-2.32,4.34-.57.42-1.2.66-1.89.71ZM18.47,84.99c.87.12,1.64-.06,2.3-.55,1.7-1.28,2.13-4.19,2.13-4.22l.04-.29.29.02c2.03.14,3.48-.24,4.33-1.12,1.03-1.08.99-2.71.84-4.02-.19-1.64-1.92-5.93-5.84-8.02-3.84-2.05-6.07-1.3-8.21-.27-3.98,1.92-5.74,6-4.7,10.93.62,2.95,2.66,6.65,8.83,7.54h0Z"/>
              </g>
              <path class="cls-1" d="M25.37,68.54c-1.48-1.28-6.42-4.63-10.28-2.73-3.86,1.9-5.28,4.77-5.69,6.21-.41,1.44-.24,5.11.09,6.13,0,0-1.04,3.26-.95,4.3s.33,2.42,1,3.26,1.4,1.57,1.4,1.57c0,0-1.38-2.69-.39-4.94s3.21-2.64,2.63-4.52-1-5.5.49-7.09c1.49-1.59,5.67-3.35,8.55-1.94,2.84,1.39,3.15-.24,3.15-.24Z"/>
              <path class="cls-11" d="M22.9,80.31c-.09-1.23.09-2.59.98-3.52.06-.06.16-.06.22,0,.06.06.06.16,0,.22-.36.44-.54.98-.62,1.53-.07.55-.06,1.15.03,1.69.06.42-.56.51-.62.08h0Z"/>
              <path class="cls-11" d="M19.25,85.64c-.28.02-.57,0-.87-.04h0c-5.09-.73-8.41-3.58-9.35-8.02-1.08-5.15.85-9.6,5.04-11.61,2.2-1.06,4.68-1.9,8.77.28,4.13,2.21,5.97,6.76,6.17,8.5.17,1.44.2,3.25-1.01,4.52-.93.98-2.46,1.43-4.54,1.33-.16.81-.73,3.14-2.32,4.34-.57.42-1.2.66-1.89.71ZM18.47,84.99c.87.12,1.64-.06,2.3-.55,1.7-1.28,2.13-4.19,2.13-4.22l.04-.29.29.02c2.03.14,3.48-.24,4.33-1.12,1.03-1.08.99-2.71.84-4.02-.19-1.64-1.92-5.93-5.84-8.02-3.84-2.05-6.07-1.3-8.21-.27-3.98,1.92-5.74,6-4.7,10.93.62,2.95,2.66,6.65,8.83,7.54h0Z"/>
              <path class="cls-11" d="M16.58,90.13c-.39.03-.83-.01-1.3-.11-2.5-.55-5.88-3-6.75-5.65-.71-2.16-.02-4.64.68-6.34l.57.24c-.66,1.61-1.31,3.94-.66,5.92.78,2.38,3.96,4.72,6.29,5.23.74.16,1.75.22,2.34-.42.99-1.07,2.16-3.21,2.73-4.23l.54.3c-.92,1.68-1.9,3.36-2.82,4.35-.4.43-.95.67-1.63.71Z"/>
            </g>
            <g>
              <path class="cls-15" d="M15.69,76.83c.16-.07.29-.2.37-.35.11-.21.12-.43.13-.6,0-.03,0-.06,0-.09.03-.53.02-1.06,0-1.58,0,0,0,0,0,0,.02,0,.03-.01.05-.02.06-.02.11-.04.17-.06h0s.07-.04.11-.06c.04-.02.09-.05.13-.07.15-.07.3-.11.46-.16.18-.05.37-.11.56-.2.05-.02.1-.04.15-.07,0,0,0,0,.01,0h.01c.27-.18.42-.47.4-.77-.02-.27-.17-.5-.42-.62-.11-.07-.35-.2-.51-.24-.1-.03-.2-.06-.31-.1-.1-.04-.21-.08-.33-.11-.07-.02-.13-.04-.2-.06-.1-.03-.2-.06-.31-.09,0-.03,0-.07,0-.09,0-.05,0-.09,0-.14,0,0,0-.01,0-.02,0-.22,0-.44,0-.65,0-.25,0-.52,0-.78,0-.15-.02-.34-.11-.52-.17-.32-.56-.46-.9-.3-.02,0-.04.02-.06.03-.21.11-.35.31-.45.46-.01.02-.02.03-.04.05-.2.29-.38.59-.56.89-.06.1-.09.15-.15.24-.02.03-.05.08-.07.13-.01.02-.02.04-.04.07-.01,0-.02,0-.03,0-.04-.01-.08-.02-.11-.03-.26-.07-.53-.16-.79-.22-.07-.02-.14-.04-.2-.06-.24-.08-.54-.17-.86-.09-.01,0-.02,0-.03,0-.02,0-.05.02-.07.03-.31.14-.49.47-.45.8.02.17.1.33.17.44.02.04.03.05.06.09.1.16.2.32.33.47.08.1.15.21.23.32.1.15.2.3.33.45,0,0,.01.01.02.02-.02.04-.05.08-.08.13-.05.07-.09.15-.13.22-.1.2-.24.39-.37.59-.14.21-.3.43-.42.67-.19.37-.15.75.08.99.22.23.57.28.91.13.01,0,.03-.01.04-.02.03-.01.04-.02.06-.03.15-.07.3-.14.45-.21.14-.07.28-.14.43-.2.11-.05.22-.1.34-.14,0,0,0,0,.02,0,0,0,.12-.06.13-.06.02.03.03.04.05.07.16.25.33.51.51.76,0,0,.01.01.02.02.05.06.09.12.14.2.13.19.27.4.52.55,0,0,.01,0,.02.01.17.09.38.09.56,0Z"/>
              <path class="cls-11" d="M11.91,70.92s.02,0,.03-.01c.29-.07.58.08.85.15.26.07.53.14.79.22.13.03.28.11.42.06.15-.07.21-.26.3-.4.23-.37.45-.75.69-1.11.1-.14.2-.31.35-.39,0,0,.02,0,.03-.01.14-.06.3-.02.37.12.05.1.06.22.06.33.01.47-.02.96,0,1.43-.01.31-.09.58.26.64.18.04.36.11.54.15.22.06.41.15.64.21.13.03.41.2.41.2.28.12.27.49,0,.67-.04.02-.08.04-.12.06-.34.15-.68.21-1.02.36-.06.03-.12.05-.17.09-.02.01-.04.02-.07.04-.08.04-.18.06-.27.1-.11.05-.19.12-.2.26.01.55.03,1.1,0,1.65-.01.18,0,.37-.09.53-.04.08-.1.13-.17.16-.07.03-.14.03-.21,0-.24-.14-.37-.44-.55-.66-.21-.29-.39-.58-.59-.88-.12-.21-.26-.18-.43-.1-.05.02-.11.05-.16.08-.12.04-.24.09-.36.15-.29.13-.58.28-.87.41-.02.01-.05.02-.07.03-.01,0-.02.01-.04.02-.38.17-.66-.11-.45-.55.24-.44.56-.83.8-1.27.07-.14.19-.28.25-.42.07-.15-.01-.3-.1-.4-.2-.24-.35-.52-.55-.76-.13-.16-.24-.35-.36-.53-.05-.08-.1-.17-.11-.27-.02-.15.07-.3.2-.36M11.58,70.16c-.47.21-.76.71-.69,1.22.03.26.14.46.24.62.02.04.03.05.06.09.1.16.21.34.35.5.07.09.14.19.21.3.06.08.12.17.18.26-.02.04-.05.08-.07.12-.1.18-.22.37-.35.56-.15.22-.31.45-.44.71,0,0,0,0,0,.01,0,0,0,0,0,.01-.25.52-.19,1.08.17,1.44.34.35.88.44,1.37.22.02,0,.03-.01.05-.02.02-.01.03-.02.06-.03.16-.07.31-.14.46-.21.14-.07.28-.13.41-.19.05-.02.11-.05.16-.07.12.18.24.37.38.56,0,0,.01.01.02.02,0,0,.01.01.02.02.03.04.07.1.12.16.14.2.33.48.65.67,0,0,.01,0,.02.01.01,0,.02,0,.03.01.29.14.62.15.92.02.24-.11.44-.3.57-.54.16-.3.17-.59.18-.78,0-.03,0-.05,0-.09.02-.45.02-.89.01-1.32.04-.02.08-.04.11-.06.03-.02.06-.03.09-.05.12-.05.26-.1.42-.14.18-.06.39-.12.61-.22.06-.02.11-.05.17-.08.01,0,.02,0,.03-.02.01,0,.02-.01.03-.02.4-.25.63-.68.6-1.14-.03-.41-.27-.77-.63-.96-.18-.11-.41-.23-.62-.28-.08-.02-.16-.05-.26-.09-.1-.04-.22-.08-.36-.12-.06-.02-.13-.04-.19-.06,0-.19,0-.39,0-.6,0-.26.01-.52,0-.79,0-.2-.02-.45-.16-.7-.27-.52-.9-.73-1.44-.49-.03.01-.06.03-.09.04-.31.17-.48.42-.6.59-.02.02-.02.03-.04.06-.2.3-.39.61-.57.9-.03.05-.06.11-.1.16-.18-.05-.39-.11-.63-.18,0,0,0,0,0,0,0,0,0,0,0,0-.04-.01-.1-.03-.16-.05-.26-.08-.65-.21-1.09-.1-.01,0-.02,0-.03,0-.01,0-.02,0-.03,0-.04.01-.08.03-.11.04h0Z"/>
            </g>
          </g>
          <g>
            <g>
              <path class="cls-5" d="M72.8,80.02s-.28,1.7-2,2.16c-1.71.46-4.78.31-7.2-3.71-2.29-3.8-1.17-5.46-.14-7.52s9.34,9.08,9.34,9.08Z"/>
              <path class="cls-11" d="M69.82,82.65c-.68.05-1.53-.01-2.45-.36-1.56-.59-2.91-1.82-4.03-3.67-2.24-3.72-1.32-5.54-.34-7.46.06-.12.12-.24.18-.36.12-.25.34-.4.61-.42,0,0,0,0,.01,0,1.98-.14,8.05,7.85,9.24,9.45l.08.11-.02.13c-.01.08-.34,1.9-2.22,2.41-.26.07-.63.15-1.07.18ZM63.86,71h0s-.07.01-.11.08c-.06.12-.12.25-.19.37-.94,1.84-1.75,3.43.31,6.86,2.54,4.21,5.64,3.9,6.86,3.58,1.26-.34,1.64-1.42,1.74-1.79-2.71-3.61-7.36-9.18-8.61-9.09Z"/>
            </g>
            <g>
              <path class="cls-5" d="M65.01,64.55c.16-.38-2.55-1.56-3.49.9s-1.91,4.34,1.09,7.84,2.4-8.74,2.4-8.74Z"/>
              <path class="cls-2" d="M63.64,74.23c-.39.03-.82-.22-1.26-.74-2.96-3.45-2.19-5.45-1.29-7.76.05-.13.1-.26.15-.39.47-1.22,1.32-1.59,1.95-1.69.85-.13,1.75.2,2.04.57.11.14.12.27.1.35.08,1.58.33,8.89-1.42,9.59-.09.03-.17.05-.26.06ZM63.43,64.25s-.08,0-.12.01c-.7.09-1.2.53-1.49,1.3-.05.13-.1.26-.15.39-.86,2.21-1.53,3.96,1.19,7.13.2.23.56.6.82.5.2-.08.86-.65,1.04-4.63.1-2.14,0-4.23,0-4.38-.14-.13-.67-.36-1.27-.32Z"/>
            </g>
            <path class="cls-1" d="M64.47,66.48c-.34-1.33-2.14-.25-2.56.98-.37,1.09-1.44,1.17-1.02-.27.09-.31,1.13-2.57,1.13-2.57,0,0,1.2-.9,1.95-.65s1.04.58,1.04.58l-.55,1.93Z"/>
            <path class="cls-11" d="M63.64,74.23c-.39.03-.82-.22-1.26-.74-2.96-3.45-2.19-5.45-1.29-7.76.05-.13.1-.26.15-.39.47-1.22,1.32-1.59,1.95-1.69.85-.13,1.75.2,2.04.57.11.14.12.27.1.35.08,1.58.33,8.89-1.42,9.59-.09.03-.17.05-.26.06ZM63.43,64.25s-.08,0-.12.01c-.7.09-1.2.53-1.49,1.3-.05.13-.1.26-.15.39-.86,2.21-1.53,3.96,1.19,7.13.2.23.56.6.82.5.2-.08.86-.65,1.04-4.63.1-2.14,0-4.23,0-4.38-.14-.13-.67-.36-1.27-.32Z"/>
            <g>
              <path class="cls-5" d="M71.48,60.7c1.49,0,6.72,1.38,7.29,8.33s-2.38,10.93-5.96,10.99-8.89-2.15-8.76-8.41c.12-6.26.91-10.92,7.44-10.91Z"/>
              <path class="cls-2" d="M73.08,80.32c-.09,0-.18.01-.27.01-1.99.03-4.82-.64-6.81-2.63-1.56-1.56-2.32-3.61-2.27-6.1.12-5.91.79-11.22,7.75-11.21,1.79,0,7.02,1.59,7.6,8.62.33,4.06-.5,7.42-2.34,9.46-1.02,1.12-2.28,1.76-3.65,1.86ZM70.63,61.03c-5.62.39-6.17,4.84-6.28,10.57-.05,2.31.66,4.21,2.09,5.65,1.85,1.86,4.5,2.48,6.36,2.45,1.31-.02,2.51-.6,3.47-1.66,1.73-1.91,2.5-5.1,2.18-8.99-.54-6.56-5.34-8.04-6.98-8.05h0c-.29,0-.58,0-.84.03Z"/>
            </g>
            <path class="cls-1" d="M77.21,64c-.14-1.25-2.37-3.24-5.15-3.25-4.5-.02-5.1.88-5.78,1.76s-2.3,5.1-2.16,7.13c.19,2.87,1.98-.01,2.28-2.17s1.37-3.47,2.77-3.85c1.09-.29,3.98-.79,5.94.6s2.11-.21,2.11-.21Z"/>
            <path class="cls-11" d="M73.08,80.32c-.09,0-.18.01-.27.01-1.99.03-4.82-.64-6.81-2.63-1.56-1.56-2.32-3.61-2.27-6.1.12-5.91.79-11.22,7.75-11.21,1.79,0,7.02,1.59,7.6,8.62.33,4.06-.5,7.42-2.34,9.46-1.02,1.12-2.28,1.76-3.65,1.86ZM70.63,61.03c-5.62.39-6.17,4.84-6.28,10.57-.05,2.31.66,4.21,2.09,5.65,1.85,1.86,4.5,2.48,6.36,2.45,1.31-.02,2.51-.6,3.47-1.66,1.73-1.91,2.5-5.1,2.18-8.99-.54-6.56-5.34-8.04-6.98-8.05h0c-.29,0-.58,0-.84.03Z"/>
            <g>
              <path class="cls-15" d="M76.82,74.76c.14-.01.27-.09.37-.22.13-.16.2-.37.24-.53,0-.03.01-.05.02-.08.14-.47.25-.96.36-1.42,0,0,0,0,.01,0,.05,0,.1,0,.14,0h0s.07,0,.1-.02c.04,0,.07-.01.11-.02.12-.01.24,0,.37,0,.15,0,.3.02.46,0,.04,0,.08,0,.12-.02,0,0,0,0,.01,0,0,0,0,0,.01,0,.25-.07.44-.3.49-.6.05-.27-.02-.55-.18-.75-.08-.12-.22-.31-.33-.4-.07-.06-.13-.12-.2-.19-.07-.07-.14-.14-.22-.21-.04-.04-.09-.08-.13-.12-.06-.05-.12-.11-.18-.16,0-.02.01-.03.01-.05.01-.04.03-.08.04-.13,0,0,0-.01,0-.02.05-.2.1-.4.15-.6.06-.23.12-.47.18-.72.03-.15.06-.33.04-.53-.05-.37-.33-.65-.64-.62-.02,0-.04,0-.05,0-.19.04-.34.17-.45.28-.02.01-.02.02-.04.04-.22.21-.42.42-.61.63-.06.07-.1.1-.16.17-.02.02-.05.06-.08.09,0,0-.01.02-.02.02-.02-.02-.05-.04-.07-.06-.17-.15-.35-.32-.53-.46-.05-.04-.09-.08-.13-.12-.16-.15-.36-.34-.63-.38,0,0-.01,0-.02,0-.02,0-.04,0-.06,0-.27.03-.49.29-.54.62-.02.17,0,.35.03.48,0,.04.01.06.02.11.04.18.08.36.13.54.03.11.06.23.09.36.04.17.08.34.14.52-.02.02-.04.05-.07.07-.05.05-.1.11-.15.16-.12.15-.26.28-.41.42-.15.15-.32.3-.47.48-.23.29-.29.68-.17.99.12.3.38.47.67.44.01,0,.02,0,.04,0,.02,0,.03,0,.05,0,.13-.01.25-.03.38-.05.12-.02.24-.03.36-.04.09,0,.18-.01.28-.02.01,0,.02,0,.03,0,.03,0,.04,0,.07,0,0,.01,0,.02,0,.03.06.29.13.58.2.88,0,.01,0,.02,0,.03.02.07.04.15.06.22.05.21.11.47.27.69,0,0,.01.01.02.02.12.15.28.22.44.21Z"/>
              <path class="cls-11" d="M75.38,68.05s.02,0,.03,0c.23.03.41.27.59.42.18.15.36.31.53.46.09.07.18.19.29.19.12-.02.21-.17.31-.26.25-.27.5-.54.76-.79.11-.1.21-.22.34-.24,0,0,.02,0,.02,0,.12-.01.22.08.25.24.02.1,0,.22-.03.32-.1.44-.23.87-.33,1.31-.08.28-.2.5.04.67.13.1.24.21.36.32.15.13.27.28.42.4.09.07.26.32.26.32.17.2.09.54-.15.61-.03,0-.07.01-.1.01-.29.03-.55-.03-.83,0-.05,0-.1.01-.15.02-.02,0-.04,0-.06.01-.07,0-.15,0-.22,0-.09,0-.17.04-.21.18-.12.51-.23,1.02-.38,1.51-.05.16-.08.34-.19.46-.05.06-.1.09-.16.1-.06,0-.11-.02-.15-.07-.15-.21-.17-.52-.26-.78-.09-.33-.16-.67-.23-1-.04-.23-.15-.25-.29-.24-.04,0-.09.01-.14.02-.1,0-.2,0-.3.02-.24.02-.49.07-.73.09-.02,0-.04,0-.06,0-.01,0-.02,0-.03,0-.32.03-.46-.32-.21-.65.27-.33.6-.57.87-.9.09-.11.2-.2.28-.3.09-.12.06-.28.02-.41-.09-.28-.14-.59-.23-.88-.06-.19-.1-.4-.14-.6-.02-.09-.04-.19-.02-.29.02-.15.12-.26.23-.27M75.29,67.15c-.43.04-.78.44-.85.97-.04.27,0,.52.04.69,0,.04.01.06.02.1.04.18.08.38.14.59.03.1.06.21.08.33.02.08.04.16.06.25-.02.02-.03.04-.05.05-.11.13-.24.26-.38.39-.16.16-.33.32-.49.51,0,0,0,0,0,.01,0,0,0,0,0,.01-.33.43-.41,1-.22,1.49.19.47.59.75,1.03.71.01,0,.03,0,.04,0,.02,0,.03,0,.05,0,.13-.01.26-.03.39-.05.12-.02.23-.03.35-.04.02,0,.04,0,.07,0,.04.19.09.37.14.56,0,.01,0,.02,0,.03,0,.01,0,.02.01.03.01.04.03.11.05.18.06.24.14.57.34.87,0,0,0,.01.02.02,0,0,.01.01.02.02.19.25.46.37.73.35.22-.02.42-.14.58-.33.19-.24.27-.51.32-.69,0-.02.01-.05.02-.08.11-.39.21-.77.3-1.16.02,0,.04,0,.05-.01.02,0,.05,0,.07-.01.1,0,.21,0,.33,0,.15,0,.32.02.5,0,.05,0,.1-.01.15-.02.01,0,.02,0,.03,0,.01,0,.02,0,.03,0,.38-.1.66-.46.75-.91.08-.41-.02-.86-.27-1.17-.15-.22-.29-.38-.4-.48-.05-.04-.1-.1-.17-.16-.07-.07-.15-.15-.24-.23-.03-.02-.05-.05-.08-.07.04-.16.08-.31.12-.48.06-.24.13-.48.18-.73.04-.19.09-.45.04-.74-.09-.61-.54-1.05-1.03-1.01-.03,0-.05,0-.08.01-.28.05-.48.24-.61.36-.02.02-.02.02-.04.04-.22.21-.43.43-.63.65-.02.02-.04.05-.06.07-.11-.1-.23-.2-.38-.33,0,0,0,0,0,0,0,0,0,0,0,0-.03-.02-.06-.06-.1-.09-.18-.17-.45-.42-.82-.47,0,0-.01,0-.02,0h-.02s-.07,0-.1,0h0Z"/>
            </g>
          </g>
          <path class="cls-11" d="M49.75,80.68c-.55-.42-1.23-.83-1.93-.89-.23-.01-.46.03-.65.13-.08.04-.19.01-.23-.07-.04-.08-.01-.17.06-.22,1.02-.61,2.23,0,3.13.55.35.25-.04.77-.37.5h0Z"/>
        </g>
      </g>
    </g>
  </g>
</svg>