<?xml version="1.0" encoding="UTF-8" standalone="no"?>
<!-- Created with Inkscape (http://www.inkscape.org/) -->

<svg
   version="1.1"
   id="svg1"
   width="768"
   height="384"
   viewBox="86 148 596 79"
   sodipodi:docname="wonderade_logo.ai"
   xmlns:inkscape="http://www.inkscape.org/namespaces/inkscape"
   xmlns:sodipodi="http://sodipodi.sourceforge.net/DTD/sodipodi-0.dtd"
   xmlns:xlink="http://www.w3.org/1999/xlink"
   xmlns="http://www.w3.org/2000/svg"
   xmlns:svg="http://www.w3.org/2000/svg">
  <defs
     id="defs1">
    
    <clipPath
       clipPathUnits="userSpaceOnUse"
       id="clipPath2">
      <path
         d="M 0,288 H 576 V 0 H 0 Z"
         transform="translate(-131.3281,-143.2365)"
         id="path2" />
    </clipPath>
    <clipPath
       clipPathUnits="userSpaceOnUse"
       id="clipPath4">
      <path
         d="M 0,288 H 576 V 0 H 0 Z"
         transform="translate(-256.6288,-149.4711)"
         id="path4" />
    </clipPath>
    <clipPath
       clipPathUnits="userSpaceOnUse"
       id="clipPath6">
      <path
         d="M 0,288 H 576 V 0 H 0 Z"
         transform="translate(-179.07561,-151.5619)"
         id="path6" />
    </clipPath>
    <clipPath
       clipPathUnits="userSpaceOnUse"
       id="clipPath8">
      <path
         d="M 0,288 H 576 V 0 H 0 Z"
         transform="translate(-442.92291,-149.77131)"
         id="path8" />
    </clipPath>
    <clipPath
       clipPathUnits="userSpaceOnUse"
       id="clipPath10">
      <path
         d="M 0,288 H 576 V 0 H 0 Z"
         transform="translate(-400.93661,-156.34941)"
         id="path10" />
    </clipPath>
    <clipPath
       clipPathUnits="userSpaceOnUse"
       id="clipPath12">
      <path
         d="M 0,288 H 576 V 0 H 0 Z"
         transform="translate(-352.96341,-150.2836)"
         id="path12" />
    </clipPath>
    <clipPath
       clipPathUnits="userSpaceOnUse"
       id="clipPath14">
      <path
         d="M 0,288 H 576 V 0 H 0 Z"
         transform="translate(-469.48861,-155.9197)"
         id="path14" />
    </clipPath>
    <clipPath
       clipPathUnits="userSpaceOnUse"
       id="clipPath16">
      <path
         d="M 0,288 H 576 V 0 H 0 Z"
         transform="translate(-283.43551,-138.3865)"
         id="path16" />
    </clipPath>
    <clipPath
       clipPathUnits="userSpaceOnUse"
       id="clipPath18">
      <path
         d="M 0,288 H 576 V 0 H 0 Z"
         transform="translate(-236.37391,-168.433)"
         id="path18" />
    </clipPath>
  </defs>
  <sodipodi:namedview
     id="namedview1"
     pagecolor="#ffffff"
     bordercolor="#000000"
     borderopacity="0.25"
     inkscape:showpageshadow="2"
     inkscape:pageopacity="0.0"
     inkscape:pagecheckerboard="0"
     inkscape:deskcolor="#d1d1d1">
    <inkscape:page
       x="0"
       y="0"
       inkscape:label="1"
       id="page1"
       width="768"
       height="384"
       margin="156.868 86.153336 148.37733 86.153069"
       bleed="0" />
  </sodipodi:namedview>
  <g
     id="layer-MC0"
     inkscape:groupmode="layer"
     inkscape:label="Layer 1">
    <path
       id="path1"
       d="m 0,0 c -0.508,7.148 0.933,14.409 4.058,20.445 1.328,2.564 2.918,4.846 4.738,6.819 -0.457,0.3 -1.028,0.444 -1.725,0.503 -5.457,0.46 -10.549,-0.097 -16.282,-0.056 -3.356,-0.08 -2.862,-2.872 -2.885,-4.748 -0.055,-4.442 -0.238,-8.065 -0.799,-12.74 -0.183,-1.526 -0.113,-5.944 -1.355,-6.974 -1.006,-0.834 -2.113,0.567 -2.1,1.495 -1.408,6.855 -1.487,14.303 -2.926,21.099 -0.261,1.232 -1.006,1.812 -2.384,1.923 -3.218,0.258 -10.84,0.321 -13.979,-0.006 -2.639,-0.274 -2.154,-2.529 -2.409,-4.134 -0.875,-5.513 -1.641,-11.062 -2.505,-16.555 -0.144,-0.911 0.086,-4.021 -1.678,-4.027 -1.855,-0.007 -2.159,5.058 -2.255,5.951 -0.494,4.57 -0.38,7.229 -0.894,11.5 -0.275,2.286 -0.006,7.136 -1.9,7.265 -5.219,0.357 -11.54,-0.385 -16.939,-0.038 -0.385,0.025 -0.767,-0.062 -1.085,-0.254 l -0.506,-0.306 c -0.596,-0.36 -0.937,-0.967 -0.901,-1.604 l 5.831,-43.931 c -0.077,-1.001 0.648,-1.54 1.547,-1.989 l 25.109,-0.022 c 1.347,0.359 1.545,2.087 1.734,3.165 1.124,6.408 1.301,8.569 2.628,14.938 0.351,1.682 1.778,2.419 2.455,0.48 0.813,-5.814 1.358,-7.26 2.263,-13.038 0.186,-1.188 0.506,-4.412 1.395,-5.127 0.443,-0.356 1.218,-0.482 1.811,-0.53 8.383,-0.673 15.149,0.538 23.656,10e-4 1.098,0.006 2.03,0.505 2.513,1.362 l 0.445,3.722 C 2.015,-11.004 0.407,-5.726 0,0"
       style="fill:#231f20;fill-opacity:1;fill-rule:nonzero;stroke:none"
       transform="matrix(1.3333333,0,0,-1.3333333,175.10413,193.018)"
       clip-path="url(#clipPath2)" />
    <path
       id="path3"
       d="m 0,0 c 0.022,-1.896 0.048,-3.796 0.048,-5.708 0,-0.234 -0.045,-0.581 0.314,-0.596 0.616,-0.029 1.258,0.044 1.871,0.083 0.359,0.022 0.728,0.035 1.088,0.09 0.632,0.096 1.139,1.026 1.463,1.514 0.468,0.706 0.802,1.492 1.017,2.31 0.423,1.611 0.417,3.295 0.427,4.948 C 6.237,3.975 5.679,5.605 4.54,6.391 3.671,6.991 1.453,7.469 0.443,7.091 -0.09,6.892 -0.01,6.334 -0.013,5.897 -0.039,3.921 -0.023,1.96 0,0 m -7.309,-27.596 c -2.207,0.36 -6.333,-0.734 -8.361,0.863 -2.041,8.339 -0.638,17.637 -0.956,26.31 0.625,7.379 -1.03,15.397 0.459,22.465 3.798,1.598 8.945,0.53 13.109,0.693 7.21,0.058 15.567,0.998 20.768,-5.098 7.142,-8.223 7.707,-21.879 2.603,-31.183 -4.489,-9.67 -17.127,-15.166 -27.243,-14.075 z"
       style="fill:#231f20;fill-opacity:1;fill-rule:nonzero;stroke:none"
       transform="matrix(1.3333333,0,0,-1.3333333,342.17173,184.7052)"
       clip-path="url(#clipPath4)" />
    <path
       id="path5"
       d="m 0,0 c -1.801,-1.699 -3.946,-3.039 -5.706,-4.801 -0.703,-0.803 -2.414,-1.267 -1.958,-2.586 1.017,-2.408 2.059,-4.83 2.877,-7.323 0.253,-0.799 0.644,-1.637 0.496,-2.493 -0.122,-0.783 -0.792,-1.399 -1.594,-1.308 -1.462,0.255 -2.626,1.365 -3.918,2.043 -1.532,0.943 -2.99,1.973 -4.477,2.998 -1.27,0.95 -2.011,0.043 -2.998,-0.8 -1.94,-1.407 -3.649,-3.124 -5.496,-4.635 -1.642,-1.525 -3.665,-0.722 -3.378,1.587 0.394,2.329 1.348,4.53 1.744,6.865 0.12,0.745 0.448,1.545 0.497,2.243 0.091,0.793 -0.595,1.292 -1.223,1.633 -1.422,0.741 -2.672,1.735 -4.064,2.519 -0.945,0.527 -1.818,1.164 -2.706,1.779 -0.4,0.283 -0.811,0.611 -1.047,1.04 -0.407,0.699 -0.149,1.58 0.512,2.026 1.298,0.762 3.042,0.537 4.51,0.665 1.445,0.093 2.888,0.177 4.333,0.235 0.716,0.068 1.568,-0.037 2.174,0.391 0.608,0.534 0.611,1.47 0.812,2.218 0.477,1.994 0.911,4 1.502,5.968 0.247,0.789 0.449,1.665 1.062,2.254 0.581,0.583 1.545,0.669 2.181,0.132 0.424,-0.341 0.676,-0.869 0.884,-1.369 0.903,-2.076 1.588,-4.26 2.466,-6.346 0.294,-0.848 0.443,-1.667 0.938,-2.118 0.072,-0.051 0.142,-0.104 0.212,-0.158 0.297,-0.175 0.697,-0.247 1.263,-0.171 0.991,0.098 1.981,0.03 2.966,0.152 1.256,0.188 2.52,0.181 3.779,0.291 0.716,0.061 1.448,0.12 2.162,0.029 L -1.143,2.953 C 0.452,2.831 1.066,1.181 0,0 m 12.133,-6.066 c -0.625,7.41 -0.913,15.615 -6.318,21.188 -7.982,9.478 -21.771,12.587 -32.987,7.836 -23.309,-8.224 -23.718,-50.503 1.77,-55.596 19.347,-4.925 37.56,4.585 37.546,25.982 z"
       style="fill:#231f20;fill-opacity:1;fill-rule:nonzero;stroke:none"
       transform="matrix(1.3333333,0,0,-1.3333333,238.76747,181.91747)"
       clip-path="url(#clipPath6)" />
    <path
       id="path7"
       d="m 0,0 c 0.022,-1.896 0.048,-3.796 0.048,-5.708 0,-0.234 -0.045,-0.581 0.314,-0.596 0.616,-0.029 1.258,0.044 1.871,0.083 0.359,0.022 0.728,0.035 1.088,0.09 0.632,0.096 1.139,1.026 1.463,1.514 0.468,0.706 0.802,1.492 1.017,2.31 0.423,1.611 0.417,3.295 0.427,4.948 C 6.237,3.975 5.679,5.605 4.54,6.391 3.671,6.991 1.453,7.469 0.443,7.091 -0.09,6.892 -0.01,6.334 -0.013,5.897 -0.039,3.921 -0.023,1.96 0,0 m -7.309,-27.596 c -2.207,0.36 -6.333,-0.734 -8.361,0.863 -2.041,8.339 -0.638,17.637 -0.956,26.31 0.625,7.379 -1.03,15.397 0.459,22.465 3.798,1.598 8.945,0.53 13.109,0.693 7.21,0.058 15.567,0.998 20.768,-5.098 7.143,-8.223 7.707,-21.879 2.603,-31.183 -4.489,-9.67 -17.127,-15.166 -27.243,-14.075 z"
       style="fill:#231f20;fill-opacity:1;fill-rule:nonzero;stroke:none"
       transform="matrix(1.3333333,0,0,-1.3333333,590.56387,184.30493)"
       clip-path="url(#clipPath8)" />
    <path
       id="path9"
       d="m 0,0 c -3.152,1.241 -3.287,-3.679 -3.488,-5.016 -0.825,-5.474 -1.989,-6.813 0.342,-6.955 1.645,-0.1 4.626,-0.686 4.982,0.86 0.281,1.222 -0.165,3.943 -0.338,5.353 C 1.33,-4.397 1.084,-2.367 0.77,-1.069 0.723,-0.876 0.149,-0.059 0,0 m 3.294,-33.9 c -1.31,1.346 -0.52,6.838 -1.409,8.786 -0.905,1.984 -5.849,2.037 -6.268,-1.185 -0.264,-2.033 -0.132,-4.546 -0.48,-6.636 -0.119,-0.716 -0.677,-1.203 -1.324,-1.393 l -16.704,-0.118 c -2.83,0.595 -1.934,2.275 -1.701,4.286 1.599,13.781 3.308,27.685 5.377,41.385 0.225,1.494 -0.162,3.081 1.582,3.894 l 32.614,0.108 c 2.294,-0.277 1.902,-2.792 2.15,-4.461 1.932,-13.008 3.977,-26.778 5.324,-39.831 0.198,-1.921 0.962,-5.068 -1.649,-5.381 -5.047,-0.606 -11.2,0.471 -16.368,-0.005 -0.411,0.034 -0.86,0.259 -1.144,0.551"
       style="fill:#231f20;fill-opacity:1;fill-rule:nonzero;stroke:none"
       transform="matrix(1.3333333,0,0,-1.3333333,534.58213,175.53413)"
       clip-path="url(#clipPath10)" />
    <path
       id="path11"
       d="M 0,0 C -0.779,-1.34 -2.844,-2.933 -4.684,-2.095 -5.524,-1.712 -5.381,9.713 -4.785,9.715 -3.448,9.719 -0.921,9.354 -0.016,7.64 0.846,6.008 0.93,1.599 0,0 m 20.104,-28.236 c -0.498,1.384 -0.269,2.679 -0.086,3.719 0.051,0.285 0.098,0.554 0.127,0.798 0.12,1.039 0.243,2.096 0.369,3.165 0.074,0.853 0.181,1.71 0.297,2.532 0.185,1.558 0.374,3.142 0.568,4.75 -0.139,0.735 -0.592,1.534 -1.252,1.733 -1.211,0.366 -3.956,-0.082 -5.497,0.107 -1.044,0.129 -4.286,1.182 -5.029,1.877 -2.681,2.511 3.771,4.785 5.066,5.652 5.979,4.004 8.27,12.387 3.788,18.575 -7.838,10.821 -29.924,5.681 -41.306,6.921 -0.988,-0.14 -1.999,-1.084 -1.905,-2.212 l 0.111,-46.722 c 0.396,-0.865 1.122,-1.302 2.014,-1.4 5.037,-0.556 11.014,0.453 16.155,0.004 1.037,0.23 1.774,0.876 1.899,1.985 0.41,3.631 -0.506,9.969 -0.324,13.932 0.015,0.32 0.267,0.579 0.587,0.607 l 0.684,0.059 c 0.889,-1.636 0.612,-3.804 1.18,-5.621 3.131,-10.01 10.149,-14.839 20.029,-13.366 0.602,0.09 1.364,0.375 2.071,0.782 0.628,0.36 0.878,1.141 0.583,1.802 -0.046,0.104 -0.089,0.211 -0.129,0.321"
       style="fill:#231f20;fill-opacity:1;fill-rule:nonzero;stroke:none"
       transform="matrix(1.3333333,0,0,-1.3333333,470.61787,183.62187)"
       clip-path="url(#clipPath12)" />
    <path
       id="path13"
       d="m 0,0 v 0.532 c -0.013,2.079 -0.029,4.877 0.054,7.354 0.408,2.974 -0.493,6.218 1.563,8.211 6.33,1.418 13.171,0.16 19.652,0.446 5.9,0.032 11.919,-0.004 17.665,0.105 2.606,0.09 2.715,-2.396 2.824,-4.61 C 41.569,9.365 43.022,3.055 39.473,2.594 33.41,2.073 25.899,3.081 19.953,2.167 18.889,2.058 18.999,1.669 19.026,0.677 c 0.027,-1.015 1.489,-1.176 2.727,-1.167 4.181,-0.08 6.843,0.042 11.011,0.016 5.122,-0.032 5.339,-0.718 5.377,-5.829 0.031,-4.114 0.976,-8.995 -4.206,-8.831 -4.485,0.061 -8.123,-0.189 -12.653,-0.074 -1.123,-0.067 -1.905,-1.335 -1.959,-2.092 -0.145,-2.022 0.762,-1.739 3.585,-1.544 3.161,-0.051 6.821,0.27 10.177,0.071 2.574,-0.18 5.875,0.731 8.041,-0.94 1.145,-1.62 0.606,-6.144 0.568,-7.986 -0.164,-1.46 0.125,-3.314 -0.308,-4.61 -0.273,-0.809 -0.985,-1.181 -1.903,-1.341 -8.416,-0.61 -17.367,0.099 -25.799,-0.18 -3.584,0.225 -7.424,0.18 -11.149,0.514 -1.367,0.179 -2.355,0.709 -2.487,2.088 -0.048,10.257 0,20.974 -0.042,31.225 z"
       style="fill:#231f20;fill-opacity:1;fill-rule:nonzero;stroke:none"
       transform="matrix(1.3333333,0,0,-1.3333333,625.9848,176.10707)"
       clip-path="url(#clipPath14)" />
    <path
       id="path15"
       d="m 0,0 c 0.042,10.251 -0.006,20.967 0.042,31.224 0.131,1.38 1.12,1.91 2.486,2.089 3.725,0.334 7.566,0.289 11.15,0.513 8.431,-0.279 17.383,0.431 25.799,-0.179 0.917,-0.161 1.63,-0.533 1.902,-1.341 0.434,-1.297 0.145,-3.151 0.308,-4.611 0.039,-1.841 0.578,-6.365 -0.567,-7.985 -2.166,-1.672 -5.468,-0.761 -8.041,-0.94 -3.356,-0.199 -7.017,0.122 -10.177,0.07 -2.824,0.196 -3.73,0.479 -3.586,-1.544 0.055,-0.757 0.836,-2.024 1.959,-2.091 4.531,0.115 8.168,-0.135 12.654,-0.074 C 39.11,15.294 38.166,10.414 38.135,6.3 38.096,1.189 37.88,0.503 32.757,0.47 28.59,0.444 25.928,0.567 21.747,0.487 20.508,0.496 19.047,0.334 19.02,-0.68 c -0.027,-0.993 -0.137,-1.382 0.927,-1.49 5.945,-0.915 13.456,0.093 19.52,-0.427 3.549,-0.462 2.095,-6.772 2.284,-9.444 -0.108,-2.214 -0.218,-4.701 -2.823,-4.611 -5.746,0.109 -11.765,0.074 -17.666,0.106 -6.48,0.285 -13.321,-0.972 -19.651,0.446 -2.057,1.992 -1.155,5.236 -1.563,8.21 -0.083,2.477 -0.067,5.275 -0.054,7.354 v 0.533 z"
       style="fill:#231f20;fill-opacity:1;fill-rule:nonzero;stroke:none"
       transform="matrix(1.3333333,0,0,-1.3333333,377.914,199.48467)"
       clip-path="url(#clipPath16)" />
    <path
       id="path17"
       d="m 0,0 c -0.116,1.375 -0.398,2.269 -1.902,2.57 -4.985,-0.364 -8.452,0.451 -13.361,0.001 -2.637,-0.242 -2.202,-2.757 -2.127,-4.821 0.203,-5.586 0.945,-11.133 0.895,-16.75 -0.008,-0.957 0.374,-1.939 -0.267,-2.953 -1.103,-0.676 -1.727,0.447 -1.91,1.452 -1.167,6.375 -1.328,13.386 -2.32,19.797 -0.262,1.694 -0.309,3.093 -2.315,3.275 C -30.85,3.257 -36.652,2.029 -44.306,2.57 -45.294,2.436 -46.305,1.531 -46.211,0.449 l 0.015,-3.837 c 3.156,-5.43 3.68,-11.884 4.15,-17.717 0.042,-0.523 0.084,-1.042 0.127,-1.558 l 0.009,-0.107 0.002,-0.107 0.011,-0.59 10e-4,-0.029 v -0.029 c 0.004,-6.231 -1.416,-11.799 -4.154,-16.455 l 0.014,-3.544 c 0.002,-0.615 0.307,-1.19 0.814,-1.537 l 0.099,-0.068 c 0.518,-0.355 1.138,-0.531 1.765,-0.5 4.326,0.209 7.042,-0.492 11.538,-0.061 3.679,0.353 2.019,4.732 1.895,7.272 -0.205,4.242 -0.348,8.49 -0.441,12.737 -0.019,0.896 -0.86,4.721 0.777,4.714 1.557,-0.007 1.353,-3.108 1.481,-4.027 0.763,-5.493 1.438,-11.042 2.211,-16.556 0.253,-1.806 -0.249,-3.904 2.344,-4.139 7.475,-0.68 13.847,0.541 21.431,-0.004 1.786,0.189 2.009,1.208 2.124,2.796 C 1.005,-29.035 -0.776,-13.986 0,0"
       style="fill:#231f20;fill-opacity:1;fill-rule:nonzero;stroke:none"
       transform="matrix(1.3333333,0,0,-1.3333333,315.1652,159.42267)"
       clip-path="url(#clipPath18)" />
  </g>
</svg>
