<svg xmlns="http://www.w3.org/2000/svg" viewBox="63 -1 65 60" width="100%" height="100%">
  <path fill="#FBD02E" d="M126.59,31.22c-.63-7.41-.91-15.62-6.32-21.19-7.98-9.48-21.77-12.59-32.99-7.84-23.31,8.22-23.72,50.5,1.77,55.6,19.35,4.93,37.56-4.58,37.55-25.98v-.59ZM114.46,25.15c-1.8,1.7-3.95,3.04-5.71,4.8-.7.8-2.41,1.27-1.96,2.59,1.02,2.41,2.06,4.83,2.88,7.32.25.8.64,1.64.5,2.49-.12.78-.79,1.4-1.59,1.31-1.46-.26-2.63-1.37-3.92-2.04-1.53-.94-2.99-1.97-4.48-3-1.27-.95-2.01-.04-3,.8-1.94,1.41-3.65,3.12-5.5,4.63-1.64,1.52-3.67.72-3.38-1.59.39-2.33,1.35-4.53,1.74-6.87.12-.75.45-1.55.5-2.24.09-.79-.6-1.29-1.22-1.63-1.42-.74-2.67-1.74-4.06-2.52-.95-.53-1.82-1.16-2.71-1.78-.4-.28-.81-.61-1.05-1.04-.41-.7-.15-1.58.51-2.03,1.3-.76,3.04-.54,4.51-.66,1.44-.09,2.89-.18,4.33-.24.72-.07,1.57.04,2.17-.39.61-.53.61-1.47.81-2.22.48-1.99.91-4,1.5-5.97.25-.79.45-1.66,1.06-2.25.58-.58,1.55-.67,2.18-.13.42.34.68.87.88,1.37.9,2.08,1.59,4.26,2.47,6.35.29.85.44,1.67.94,2.12.07.05.14.1.21.16.3.17.7.25,1.26.17.99-.1,1.98-.03,2.97-.15,1.26-.19,2.52-.18,3.78-.29.72-.06,1.45-.12,2.16-.03h.05c1.59.13,2.21,1.78,1.14,2.96Z" />
</svg>
