<?xml version="1.0" encoding="UTF-8"?>
<svg id="Layer_2" data-name="Layer 2" xmlns="http://www.w3.org/2000/svg" viewBox="0 0 446.77 59.07">
  <defs>
    <style>
      .cls-1 {
        fill: #EF4B61;
      }
    </style>
  </defs>
  <g id="Layer_1-2" data-name="Layer 1">
    <g>
      <path class="cls-1" d="M66.71,33.48c-.51-7.15.93-14.41,4.06-20.45,1.33-2.56,2.92-4.85,4.74-6.82-.46-.3-1.03-.44-1.72-.5-5.46-.46-10.55.1-16.28.06-3.36.08-2.86,2.87-2.88,4.75-.05,4.44-.24,8.06-.8,12.74-.18,1.53-.11,5.94-1.36,6.97-1.01.83-2.11-.57-2.1-1.5-1.41-6.85-1.49-14.3-2.93-21.1-.26-1.23-1.01-1.81-2.38-1.92-3.22-.26-10.84-.32-13.98,0-2.64.27-2.15,2.53-2.41,4.13-.88,5.51-1.64,11.06-2.51,16.56-.14.91.09,4.02-1.68,4.03-1.86,0-2.16-5.06-2.26-5.95-.49-4.57-.38-7.23-.89-11.5-.28-2.29,0-7.14-1.9-7.27-5.22-.36-11.54.39-16.94.04-.38-.02-.77.06-1.09.25l-.51.31C.31,6.68-.03,7.29,0,7.92l5.83,43.93c-.08,1,.65,1.54,1.55,1.99l25.11.02c1.35-.36,1.54-2.09,1.73-3.16,1.12-6.41,1.3-8.57,2.63-14.94.35-1.68,1.78-2.42,2.45-.48.81,5.81,1.36,7.26,2.26,13.04.19,1.19.51,4.41,1.39,5.13.44.36,1.22.48,1.81.53,8.38.67,15.15-.54,23.66,0,1.1,0,2.03-.51,2.51-1.36l.45-3.72c-2.66-4.41-4.27-9.68-4.68-15.41Z"/>
      <path class="cls-1" d="M184.71,54.84c-2.21-.36-6.33.73-8.36-.86-2.04-8.34-.64-17.64-.96-26.31.63-7.38-1.03-15.4.46-22.47,3.8-1.6,8.95-.53,13.11-.69,7.21-.06,15.57-1,20.77,5.1,7.14,8.22,7.71,21.88,2.6,31.18-4.49,9.67-17.13,15.17-27.24,14.08l-.38-.03ZM192.01,27.25c.02,1.9.05,3.8.05,5.71,0,.23-.05.58.31.6.62.03,1.26-.04,1.87-.08.36-.02.73-.04,1.09-.09.63-.1,1.14-1.03,1.46-1.51.47-.71.8-1.49,1.02-2.31.42-1.61.42-3.29.43-4.95,0-1.33-.55-2.96-1.69-3.75-.87-.6-3.09-1.08-4.1-.7-.53.2-.45.76-.46,1.19-.03,1.98,0,3.94.01,5.9Z"/>
      <path class="cls-1" d="M126.59,31.22c-.63-7.41-.91-15.62-6.32-21.19-7.98-9.48-21.77-12.59-32.99-7.84-23.31,8.22-23.72,50.5,1.77,55.6,19.35,4.93,37.56-4.58,37.55-25.98v-.59ZM114.46,25.15c-1.8,1.7-3.95,3.04-5.71,4.8-.7.8-2.41,1.27-1.96,2.59,1.02,2.41,2.06,4.83,2.88,7.32.25.8.64,1.64.5,2.49-.12.78-.79,1.4-1.59,1.31-1.46-.26-2.63-1.37-3.92-2.04-1.53-.94-2.99-1.97-4.48-3-1.27-.95-2.01-.04-3,.8-1.94,1.41-3.65,3.12-5.5,4.63-1.64,1.52-3.67.72-3.38-1.59.39-2.33,1.35-4.53,1.74-6.87.12-.75.45-1.55.5-2.24.09-.79-.6-1.29-1.22-1.63-1.42-.74-2.67-1.74-4.06-2.52-.95-.53-1.82-1.16-2.71-1.78-.4-.28-.81-.61-1.05-1.04-.41-.7-.15-1.58.51-2.03,1.3-.76,3.04-.54,4.51-.66,1.44-.09,2.89-.18,4.33-.24.72-.07,1.57.04,2.17-.39.61-.53.61-1.47.81-2.22.48-1.99.91-4,1.5-5.97.25-.79.45-1.66,1.06-2.25.58-.58,1.55-.67,2.18-.13.42.34.68.87.88,1.37.9,2.08,1.59,4.26,2.47,6.35.29.85.44,1.67.94,2.12.07.05.14.1.21.16.3.17.7.25,1.26.17.99-.1,1.98-.03,2.97-.15,1.26-.19,2.52-.18,3.78-.29.72-.06,1.45-.12,2.16-.03h.05c1.59.13,2.21,1.78,1.14,2.96Z"/>
      <path class="cls-1" d="M371,54.54c-2.21-.36-6.33.73-8.36-.86-2.04-8.34-.64-17.64-.96-26.31.63-7.38-1.03-15.4.46-22.47,3.8-1.6,8.95-.53,13.11-.69,7.21-.06,15.57-1,20.77,5.1,7.14,8.22,7.71,21.88,2.6,31.18-4.49,9.67-17.13,15.17-27.24,14.08l-.38-.03ZM378.31,26.95c.02,1.9.05,3.8.05,5.71,0,.23-.05.58.31.6.62.03,1.26-.04,1.87-.08.36-.02.73-.04,1.09-.09.63-.1,1.14-1.03,1.46-1.51.47-.71.8-1.49,1.02-2.31.42-1.61.42-3.29.43-4.95,0-1.33-.55-2.96-1.69-3.75-.87-.6-3.09-1.08-4.1-.7-.53.2-.45.76-.46,1.19-.03,1.98,0,3.94.01,5.9Z"/>
      <path class="cls-1" d="M339.62,54.27c-1.31-1.35-.52-6.84-1.41-8.79s-5.85-2.04-6.27,1.19c-.26,2.03-.13,4.55-.48,6.64-.12.72-.68,1.2-1.32,1.39l-16.7.12c-2.83-.6-1.93-2.28-1.7-4.29,1.6-13.78,3.31-27.69,5.38-41.39.23-1.49-.16-3.08,1.58-3.89l32.61-.11c2.29.28,1.9,2.79,2.15,4.46,1.93,13.01,3.98,26.78,5.32,39.83.2,1.92.96,5.07-1.65,5.38-5.05.61-11.2-.47-16.37,0-.41-.03-.86-.26-1.14-.55ZM336.32,20.37c-3.15-1.24-3.29,3.68-3.49,5.02-.83,5.47-1.99,6.81.34,6.95,1.65.1,4.63.69,4.98-.86.28-1.22-.16-3.94-.34-5.35s-.41-3.39-.73-4.69c-.05-.19-.62-1.01-.77-1.07Z"/>
      <path class="cls-1" d="M308.45,54.67c-.5-1.38-.27-2.68-.09-3.72.05-.28.1-.55.13-.8.12-1.04.24-2.1.37-3.17.07-.85.18-1.71.3-2.53.18-1.56.37-3.14.57-4.75-.14-.73-.59-1.53-1.25-1.73-1.21-.37-3.96.08-5.5-.11-1.04-.13-4.29-1.18-5.03-1.88-2.68-2.51,3.77-4.78,5.07-5.65,5.98-4,8.27-12.39,3.79-18.57-7.84-10.82-29.92-5.68-41.31-6.92-.99.14-2,1.08-1.9,2.21l.11,46.72c.4.87,1.12,1.3,2.01,1.4,5.04.56,11.01-.45,16.15,0,1.04-.23,1.77-.88,1.9-1.99.41-3.63-.51-9.97-.32-13.93.01-.32.27-.58.59-.61l.68-.06c.89,1.64.61,3.8,1.18,5.62,3.13,10.01,10.15,14.84,20.03,13.37.6-.09,1.36-.38,2.07-.78.63-.36.88-1.14.58-1.8-.05-.1-.09-.21-.13-.32ZM288.35,26.43c-.78,1.34-2.84,2.93-4.68,2.09-.84-.38-.7-11.81-.1-11.81,1.34,0,3.86.36,4.77,2.07.86,1.63.95,6.04.02,7.64Z"/>
      <path class="cls-1" d="M404.87,20.8v-.53c-.01-2.08-.03-4.88.05-7.35.41-2.97-.49-6.22,1.56-8.21,6.33-1.42,13.17-.16,19.65-.45,5.9-.03,11.92,0,17.67-.11,2.61-.09,2.71,2.4,2.82,4.61-.19,2.67,1.26,8.98-2.28,9.44-6.06.52-13.57-.49-19.52.43-1.06.11-.95.5-.93,1.49s1.49,1.18,2.73,1.17c4.18.08,6.84-.04,11.01-.02,5.12.03,5.34.72,5.38,5.83.03,4.11.98,8.99-4.21,8.83-4.49-.06-8.12.19-12.65.07-1.12.07-1.9,1.33-1.96,2.09-.14,2.02.76,1.74,3.59,1.54,3.16.05,6.82-.27,10.18-.07,2.57.18,5.87-.73,8.04.94,1.15,1.62.61,6.14.57,7.99-.16,1.46.13,3.31-.31,4.61-.27.81-.99,1.18-1.9,1.34-8.42.61-17.37-.1-25.8.18-3.58-.22-7.42-.18-11.15-.51-1.37-.18-2.35-.71-2.49-2.09-.05-10.26,0-20.97-.04-31.22h0Z"/>
      <path class="cls-1" d="M218.82,38.33c.04-10.25,0-20.97.04-31.22.13-1.38,1.12-1.91,2.49-2.09,3.72-.33,7.57-.29,11.15-.51,8.43.28,17.38-.43,25.8.18.92.16,1.63.53,1.9,1.34.43,1.3.14,3.15.31,4.61.04,1.84.58,6.37-.57,7.99-2.17,1.67-5.47.76-8.04.94-3.36.2-7.02-.12-10.18-.07-2.82-.2-3.73-.48-3.59,1.54.05.76.84,2.02,1.96,2.09,4.53-.12,8.17.13,12.65.07,5.18-.16,4.24,4.72,4.21,8.83-.04,5.11-.26,5.8-5.38,5.83-4.17.03-6.83-.1-11.01-.02-1.24,0-2.7.15-2.73,1.17s-.14,1.38.93,1.49c5.95.91,13.46-.09,19.52.43,3.55.46,2.1,6.77,2.28,9.44-.11,2.21-.22,4.7-2.82,4.61-5.75-.11-11.77-.07-17.67-.11-6.48-.29-13.32.97-19.65-.45-2.06-1.99-1.15-5.24-1.56-8.21-.08-2.48-.07-5.27-.05-7.35v-.53h0Z"/>
      <path class="cls-1" d="M171.76,8.28c-.12-1.37-.4-2.27-1.9-2.57-4.98.36-8.45-.45-13.36,0-2.64.24-2.2,2.76-2.13,4.82.2,5.59.95,11.13.9,16.75,0,.96.37,1.94-.27,2.95-1.1.68-1.73-.45-1.91-1.45-1.17-6.38-1.33-13.39-2.32-19.8-.26-1.69-.31-3.09-2.32-3.28-7.54-.69-13.35.54-21,0-.99.13-2,1.04-1.9,2.12l.02,3.84c3.16,5.43,3.68,11.88,4.15,17.72.04.52.08,1.04.13,1.56v.11s.01.11.01.11v.59s.01.03.01.03v.03c0,6.23-1.42,11.8-4.15,16.45v3.54c.02.62.32,1.19.83,1.54l.1.07c.52.35,1.14.53,1.76.5,4.33-.21,7.04.49,11.54.06,3.68-.35,2.02-4.73,1.9-7.27-.21-4.24-.35-8.49-.44-12.74-.02-.9-.86-4.72.78-4.71,1.56,0,1.35,3.11,1.48,4.03.76,5.49,1.44,11.04,2.21,16.56.25,1.81-.25,3.9,2.34,4.14,7.47.68,13.85-.54,21.43,0,1.79-.19,2.01-1.21,2.12-2.8,1-13.86-.78-28.91,0-42.9Z"/>
    </g>
  </g>
</svg>